<svg width="624" height="234" viewBox="0 0 624 234" fill="none" xmlns="http://www.w3.org/2000/svg">
<g clip-path="url(#clip0_32_3351)">
<g clip-path="url(#clip1_32_3351)">
<path d="M323.351 140.33L401.598 67.8501L419.297 92.5967L365.579 168.286C365.579 168.286 321.798 220.161 312.173 199.142C312.276 199.142 312.483 145.3 323.351 140.33Z" fill="#F2BC1E" stroke="#272453" stroke-width="3.0717" stroke-miterlimit="10"/>
<path d="M308.757 127.905L313.001 126.766C313.001 105.85 292.508 101.191 292.508 101.191C291.472 99.8447 290.334 98.6022 289.195 97.2562C289.195 97.2562 269.013 77.2725 244.897 81.2071C244.897 81.2071 212.294 80.2752 198.632 101.191C184.97 122.21 186.522 132.978 186.522 132.978L235.582 147.474L226.37 233H309.171C309.171 233 331.01 179.365 308.757 127.905Z" fill="white"/>
<mask id="mask0_32_3351" style="mask-type:alpha" maskUnits="userSpaceOnUse" x="186" y="80" width="133" height="153">
<path d="M308.757 127.905L313.001 126.766C313.001 105.85 292.508 101.191 292.508 101.191C291.472 99.8447 290.334 98.6022 289.195 97.2562C289.195 97.2562 269.013 77.2725 244.897 81.2071C244.897 81.2071 212.294 80.2752 198.632 101.191C184.97 122.21 186.522 132.978 186.522 132.978L235.582 147.474L226.37 233H309.171C309.171 233 331.01 179.365 308.757 127.905Z" fill="white"/>
</mask>
<g mask="url(#mask0_32_3351)">
<path d="M1006.8 -382.8H-993.2V1617.2H1006.8V-382.8Z" fill="white"/>
<path d="M356.3 308.4H-342V-422.9H356.3V308.4ZM-341.4 307.8H355.7V-422.3H-341.4V307.8Z" fill="#00082E"/>
<path d="M-148.2 92.5C-150.4 92.7 -152.7 92.8 -154.9 93C-154.4 93.9 -153.9 94.7 -153.4 95.6C-131.6 59.7 -90.9 35.8 -48.8 35.4C-36.6 35.3 -23.5 37.4 -14.5 46.2C-13.7 47 -12.2 47.1 -11.4 46.2C1.99996 31.6 19.8 19.4 40.1 17.5C58.1 15.9 77.4 22.9 87.6 38.3C88.3 39.3 89.5999 39.7 90.6999 39.1C106.6 30.1 125.3 26.4 143.4 28.8C158.3 30.7 176.2 37.4 181.3 53.1C181.7 54.3 182.9 55.1 184.2 54.7C209.4 46.4 240.3 42.4 262.6 60.2C270.9 66.9 278.4 78.4 275.3 89.5C271.7 102.2 255 104.3 244.1 105.7C227.7 107.8 211.1 106.7 195.1 102.7C193.5 102.3 192.4 103.4 192.2 104.9C190.6 119.8 171.6 126.5 159.7 130.9C143.8 136.8 127 140.9 110 141.5C93.3 142.2 77.5999 139.1 62.1999 132.8C58.4999 131.3 55.2 131.2 51.6 132.9C48 134.6 44.6 136.9 41 138.8C33.5 142.8 25.8 146.3 17.8 149.2C-12.9 160.4 -46.5 163.6 -78.7 157.8C-93.7 155.1 -110.2 151.1 -121.4 140.2C-123.8 137.9 -125.7 134.9 -128.6 133.2C-131.7 131.4 -135 131.9 -138.2 133.3C-141.4 134.7 -144.3 135.8 -147.8 135C-151.3 134.3 -154.4 132.2 -156.7 129.5C-162.5 122.9 -161.6 113.7 -157.3 106.5C-152.5 98.5 -144.3 93.7 -135.7 90.8C-127.7 88.1 -119 86.3 -110.5 85.9C-102.4 85.5 -93.9 86.8 -88 92.9C-87.2 93.7 -85.8 93.7 -85.1 92.9C-68.9 76.1 -45.6 67.2 -22.3 68C-10.8 68.4 0.600009 71 10.9 76.2C13.3 77.4 15.7 79.2 18.4 79.9C21.6 80.7 24.5999 79.4 27.1999 77.6C32.1999 74.2 37 70.9 42.6 68.4C53.9 63.4 66.5 61.5 78.8 62.5C91.5 63.5 103 67.9 113.7 74.7C119.2 78.2 124.7 80.2 131.3 78.5C138 76.8 144 72.9 150.7 71.1C157.7 69.2 165 68.6 172.2 69.2C178.3 69.7 185.1 70.8 189.8 75.1C192.2 77.3 193.7 80.4 192 83.5C190.5 86.1 187.4 87.2 184.7 88C177.1 90.2 169 91 161.2 92.3C143.9 95.3 126.2 98.5 108.8 94.4C108.1 94.2 107.2 94.4 106.8 94.9C90.2 116.1 57.0999 120.8 35.1999 105.1C34.3999 104.5 33.3999 104.9 32.6999 105.4C7.39994 125.8 -26.8 134.9 -58.9 129.9C-66.7 128.7 -75.9 126.7 -80.1 119.2C-80.7 118.2 -82.1 117.8 -83 118.4C-91.9 124 -102.6 126.4 -113.1 124.8C-117.8 124.1 -123.3 122.7 -127 119.4C-131.5 115.4 -129.4 110.2 -125.3 106.9C-117.8 101.1 -106.8 99.4 -97.6 100C-87.6 100.6 -77.9 104.3 -70.1 110.6C-69.4 111.2 -68.7 111.3 -67.9 110.9C-54.2 104.2 -38.1 96.7 -22.7 102.7C-17.2 104.8 -12.4 111.9 -6.3 107.8C-3.3 105.8 -0.599991 103.3 2.40001 101.3C5.90001 99 9.59998 96.9 13.5 95.3C20.6 92.4 28.5 91.3 36.1 93C39.6 93.8 42.9 95.2 45.8 97.3C48.3 99.1 50.6 101.5 53.9 101.9C57.1 102.3 59.9 100.6 62.5 99C66.1 96.8 69.6 94.6 73.3 92.6C79.9 89.1 87.4 86.7 94.9 88.7C98.6 89.7 101.1 91.8 103.7 94.4C106.6 97.4 109.5 97.3 113.3 95.8C121.3 92.7 131 87.6 139.4 91.8C141.9 93 144 89.3 141.6 88.1C134.5 84.6 127 86.1 119.9 88.7C118.1 89.4 116.3 90.1 114.6 90.8C113 91.4 110.7 92.9 109 92.8C107.1 92.7 105.7 90.1 104.4 89C103.2 88 101.9 87.1 100.5 86.3C86.5 79.2 72.3 88.2 60.5 95.4C58.7 96.5 56.6 98.1 54.3 97.7C52.7 97.4 51.3 96.1 50 95.1C47 92.7 43.8 90.9 40.1 89.7C33.4 87.5 26.1 87.5 19.3 89.1C11.6 90.9 4.39996 94.8 -1.90004 99.5C-4.30004 101.3 -8.70003 106.5 -11.7 104.8C-14.8 103.1 -17.2 100.7 -20.6 99.3C-37.2 92.5 -54.6 100.4 -69.5 107.7C-68.8 107.8 -68 107.9 -67.3 108C-81.6 96.5 -101.8 93 -119 99.6C-125.8 102.2 -135.3 108 -133 116.7C-130.8 125.2 -119.4 128 -111.9 129C-101.1 130.4 -89.9 127.9 -80.7 122.1C-81.7 121.8 -82.6 121.6 -83.6 121.3C-79.8 128 -72.6 131.2 -65.4 132.9C-57.2 134.8 -48.6 135.5 -40.2 135.4C-22.6 135.2 -5.19997 131.2 10.8 123.9C19.8 119.8 28.2 114.5 35.9 108.3C35.1 108.4 34.2 108.5 33.4 108.6C56.7 125.5 92.4 120.4 110 97.8C109.3 98 108.6 98.2 108 98.3C123.9 102 140.1 100.1 156 97.5C164.2 96.2 172.3 94.8 180.4 93.4C185.7 92.5 191.8 91.2 195.4 86.7C198.8 82.4 198 76.7 194.4 72.8C190.3 68.2 184.1 66.3 178.2 65.3C171 64.1 163.6 64.1 156.4 65.3C148.9 66.5 142.4 69.4 135.5 72.3C132.3 73.7 128.8 75 125.2 74.6C120.9 74.2 117.2 71.3 113.6 69.1C108.2 65.7 102.3 63.1 96.1999 61.2C84.0999 57.5 71.1 56.9 58.6 59.1C52.3 60.2 46.2 62.1 40.3 64.8C37.5 66.1 34.7 67.5 32.1 69.1C29.2 70.9 26.6999 73.2 23.6999 74.8C19.7999 77 16.4 73.8 13 72.1C10.3 70.8 7.60003 69.6 4.80003 68.5C-0.999967 66.4 -6.90002 64.9 -13 64.1C-40 60.5 -68.9 69.5 -87.6 89.6C-86.6 89.6 -85.7 89.6 -84.7 89.6C-95.6 78.8 -112.5 80.8 -126.1 83.8C-141.8 87.1 -159.2 94.6 -163.8 111.6C-165.7 118.5 -164.6 125.8 -160.1 131.4C-156 136.6 -149.4 140 -142.7 139.2C-139.2 138.7 -134.9 135.2 -131.4 136.3C-129.6 136.9 -128.1 138.7 -126.9 140.1C-125.5 141.7 -124 143.3 -122.4 144.7C-116.3 150.1 -108.9 153.8 -101.2 156.4C-85.1 162 -67.4 164.4 -50.4 164.8C-33 165.2 -15.5 163.2 1.40001 158.9C18.4 154.6 34.9 147.9 50 139C51.8 137.9 53.7 136.6 55.8 136.1C58.6 135.3 61.2 136.9 63.8 137.9C67.7 139.6 71.8 141 75.9 142.1C84.4 144.4 93.2 145.6 102 145.9C119.9 146.4 137.8 143 154.7 137.4C162.7 134.7 170.8 131.7 178.3 127.7C184.5 124.4 190.7 120 194.4 113.9C196.1 111 197.1 107.9 197.4 104.5C196.4 105.2 195.5 106 194.5 106.7C210.3 110.7 226.8 112 243 110.2C255.3 108.8 272.6 106.8 279 94.3C284.6 83.3 279.6 70 271.9 61.4C262.9 51.3 249.3 45.5 236.2 43.4C218.4 40.6 200.5 44.2 183.6 49.8C184.6 50.3 185.5 50.9 186.5 51.4C181.1 34.4 162.9 26.5 146.6 24.1C126.9 21.2 106.6 25 89.1999 34.8C90.1999 35.1 91.2 35.3 92.3 35.6C83.9 22.8 69.6999 15 54.6999 13C38.4999 10.8 22.2 15.5 8.49998 24C0.299985 29.1 -7.09999 35.5 -13.6 42.6C-12.6 42.6 -11.6 42.6 -10.5 42.6C-26.5 26.9 -53.5 29.1 -73.6 33.7C-95.3 38.6 -115.6 49.4 -132 64.2C-141.3 72.6 -149.2 82.5 -155.4 93.3C-156 94.4 -155.2 96 -153.9 95.9C-151.7 95.7 -149.4 95.5 -147.2 95.3C-146.1 95.6 -146 92.3 -148.2 92.5Z" fill="#00082E"/>
<path d="M41.5 195.2C47.3 184.6 55.6 174.5 66.2 168.6C77.1 162.6 90.9 161.2 101.9 167.6C102.6 168 103.7 167.9 104.3 167.3C115.7 154.9 132.6 148.2 149.3 148C157.6 147.9 166 149.4 173.8 152.5C177.7 154.1 181.4 156.1 184.9 158.5C188.2 160.8 191.2 163.9 195.7 162.6C199.7 161.4 203.2 158 206.8 156C210.6 153.9 214.6 152.3 218.7 151.1C226.9 148.7 235.5 147.9 244.1 148.5C252.7 149.2 261.3 151.4 269 155.2C272.8 157.1 276.5 159.3 279.9 161.9C283.3 164.5 286 167.9 289.4 170.7C293.9 174.4 298.7 172.1 303.7 170.7C309.5 169.1 315.8 168.3 321.7 169.6C332.1 171.7 341.8 181.5 338.9 192.8C338.7 193.8 339.2 194.9 340.2 195.1C348.3 196.8 350.8 207.4 347.2 214.1C342.5 222.8 330.5 224.5 321.6 223.3C319.7 223 318.4 225 319.7 226.5C323.2 230.7 315.6 236 312.6 237.8C308 240.4 303.2 242.6 298.2 244.3C288.3 247.6 277.9 249.1 267.4 248.8C262.1 248.6 256.9 247.9 251.7 246.8C249.2 246.2 246.7 245.5 244.3 244.7C242.3 244 240.2 243 238.1 243.4C234.1 244.1 231.2 248.9 228.5 251.5C225.2 254.6 221.7 257.3 217.9 259.8C203 269.5 185 274.2 167.2 273.7C158.3 273.4 149.5 271.8 141.2 268.8C137 267.3 132.9 265.4 129 263.2C124.9 260.9 120.7 257.9 115.7 259.4C113 260.2 110.7 262 108.2 263.4C105.5 264.9 102.7 266.1 99.8001 267C94.1001 268.8 88.2001 269.6 82.3001 269.3C76.5001 269 70.5001 267.9 65.3001 265.4C60.4001 263 54.3 258.1 56.7 252C57.7 249.3 53.2 248 52.4 250.8C49.2 261.1 60.4 268.3 68.7 270.9C79.3 274.3 91 274.1 101.5 270.6C103.9 269.8 106.3 268.8 108.6 267.6C111.3 266.2 113.9 264 116.8 263.1C120.1 262.1 122.9 264.2 125.6 265.8C127.8 267.1 130.1 268.4 132.5 269.5C141 273.5 150.2 276 159.5 277.1C178.5 279.3 198.3 275.4 215.1 266.1C219.1 263.9 222.9 261.4 226.5 258.5C230.5 255.4 233.6 251.6 237.4 248.3C239.7 246.3 242.9 248.4 245.4 249.1C248.3 250 251.3 250.8 254.3 251.3C259.7 252.4 265.2 252.9 270.7 253C283 253.1 295.2 250.5 306.4 245.5C313.3 242.5 330.8 233.6 322.8 223.7C322.2 224.8 321.5 225.9 320.9 226.9C331.9 228.6 346.4 226.1 351.3 214.7C355 206.1 351.6 193.5 341.5 191.4C341.9 192.2 342.4 193 342.8 193.7C345 185.1 341 176.1 334.2 170.8C326.1 164.4 315 164 305.2 166.2C302.6 166.8 300.1 167.9 297.5 168.5C293.8 169.4 292 167.6 289.7 165.2C286.7 162 283.3 159.2 279.7 156.7C272.4 151.7 264 148.1 255.4 146.2C238.2 142.3 219.5 144.4 204 153.2C200.1 155.4 195.3 160.9 190.8 157.7C187 155 183.5 152.4 179.3 150.3C171.5 146.5 163.1 144.4 154.5 143.9C134.9 142.7 115.2 149.8 101.8 164.4C102.6 164.3 103.4 164.2 104.2 164.1C92.6 157.4 77.8 158 66.1 164.3C53.9 170.8 45.7 182 39.9 194.2C39.1 195.4 40.8 196.4 41.5 195.2Z" fill="#00082E"/>
<path d="M68.4001 204.8C71.7001 203.2 77.2001 205.7 76.5001 209.9C75.8001 214.3 69.6001 215.7 67.8001 211.3C66.4001 207.8 69.2001 205.7 71.5001 203.6C74.4001 200.9 77.4 198.4 80.7 196.1C92.4 188 109.6 183.4 121.6 193.6C122.3 194.2 123.5 194.4 124.2 193.6C134.5 181.3 149.9 173.6 166 173.4C182.4 173.1 198.4 180.6 209.1 192.9C209.6 193.5 210.6 193.6 211.3 193.2C224.5 185.8 239.7 180.7 255.1 182.5C268.2 184.1 280.8 191.2 287.4 202.8C287.9 203.7 288.9 203.8 289.8 203.4C294.2 201.5 299.3 199.6 304.2 200.3C309.9 201.1 312.6 206.2 311 211.6C309.3 217.2 304 220.1 298.8 221.7C292.9 223.4 286.6 224.2 280.5 224.6C274.2 225 267.8 225 261.5 224.2C258.4 223.8 255.4 223.3 252.4 222.6C251 222.3 249.6 221.9 248.2 221.5C246.6 221 244.7 219.9 243 219.8C240.9 219.7 238.8 222 237.1 223C234.6 224.6 232 226 229.3 227.3C224 229.9 218.3 231.8 212.5 233.1C206.2 234.5 199.8 235.1 193.4 235C189.7 234.9 177.6 235.3 177.7 229.5C177.7 228.2 176 226.9 174.8 227.8C155.6 242.3 130.6 245.3 107.4 241.4C101.7 240.4 96.1 239.1 90.6 237.4C85.5 235.8 78.4001 234.1 75.3001 229.3C73.9001 227.2 73.9001 224.4 75.4001 222.4C77.3001 219.8 80.3001 221.1 83.0001 221.1C89.4001 221.1 95.6 218.9 101.6 216.9C111.2 213.7 127.6 209.9 132.7 222.1C133.1 223.1 134.8 223.3 135.5 222.5C141.8 214.6 150.8 209.5 160.7 207.7C165.7 206.8 170.9 206.8 175.9 207.7C178.3 208.1 180.6 208.8 182.9 209.7C185.3 210.6 187.4 212.1 189.8 212.9C201 216.7 210.3 205.5 221 204.6C223.5 204.4 226.2 204.7 228.3 206.4C229.7 207.6 230.6 209 232.3 209.9C235.2 211.5 238.6 211.4 241.8 210.9C246 210.2 250 208.8 254.2 207.8C258 206.9 262.4 206.3 265.4 209.4C267.3 211.3 270.2 208.4 268.3 206.5C262.6 200.6 254 203.7 247.2 205.6C243.7 206.6 239.5 208.1 235.8 207.1C234 206.6 233 205.5 231.7 204.2C230 202.5 227.9 201.5 225.5 201C220.6 200.1 215.6 201.6 211.2 203.6C205.5 206.1 199.6 210.6 193.1 209.9C190.2 209.6 187.7 207.7 185.1 206.7C182.6 205.7 180 204.9 177.4 204.4C172.5 203.5 167.5 203.3 162.5 204C151.1 205.5 140.3 211.1 133 220.1C134 220.4 135 220.6 136 220.9C131.6 210.5 119 208.9 109.1 211C101.3 212.7 94.1 216.6 86.1 217.6C80.7 218.2 75.0001 215.7 71.9001 221.7C65.3001 234.5 85.3 239.9 93.6 242.2C106.9 245.9 120.8 247.6 134.6 246.5C149.8 245.3 164.5 240.4 176.7 231.2C175.7 230.6 174.8 230.1 173.8 229.5C173.8 235 179.3 237.4 184 238.1C190.7 239.1 197.5 239.1 204.2 238.3C211.1 237.5 217.8 235.9 224.3 233.4C227.4 232.2 230.4 230.9 233.3 229.4C234.8 228.6 236.2 227.8 237.6 227C238.8 226.3 241.2 224 242.5 223.7C243.7 223.5 245.9 224.6 247.1 224.9C248.8 225.4 250.6 225.8 252.4 226.2C256.1 227 259.8 227.6 263.6 227.9C271.6 228.7 279.6 228.4 287.5 227.4C298.5 226 314.1 222.8 315.1 209.1C315.5 203.3 311.8 198.2 306.1 196.9C300 195.6 293.7 197.8 288.2 200.2C289 200.4 289.8 200.6 290.6 200.8C283.7 188.4 270.5 180.8 256.7 178.8C240.3 176.4 223.9 181.8 209.8 189.7C210.5 189.8 211.3 189.9 212 190C200.7 176.9 183.7 169.2 166.3 169.5C149.3 169.8 132.8 177.8 121.9 190.8C122.8 190.8 123.6 190.8 124.5 190.8C110.2 178.6 90.4001 184.3 76.9001 194.6C73.3001 197.3 69.6 200.3 66.6 203.7C64.7 205.9 64.1001 208.8 65.0001 211.6C67.2001 218.2 76.0001 218.2 78.8001 212C81.7001 205.5 73.6001 199.9 68.3001 204.1C67.6001 204.5 68.0001 205 68.4001 204.8Z" fill="#00082E"/>
<path d="M170.4 133.4C182 129.3 195.5 128.4 207.6 130.9C213.6 132.1 219.2 135 225.2 136.1C231 137.2 236.7 136.2 242.3 134.9C254.8 132 267.1 131.1 279.7 133.4C286 134.6 292.2 136.4 298.1 139C303 141.1 307.9 144.8 313.4 145.1C316.6 145.3 319.4 144 322.4 143.1C325.6 142.1 328.9 141.5 332.2 141.5C338.9 141.4 345.5 143.2 351.2 146.7C353.3 148 355.2 144.7 353.1 143.4C343.5 137.6 331.6 136.1 320.9 139.6C317.9 140.6 315.1 141.7 311.9 141.1C308.4 140.3 305.2 138.2 301.9 136.7C296.4 134.2 290.6 132.3 284.7 130.9C272.7 128.2 260.3 128 248.2 130.2C241.6 131.4 235 133.6 228.2 133C221.8 132.4 215.8 129 209.4 127.7C195.7 124.8 182.4 126.4 169.6 131.9C168.7 132.2 169.4 133.7 170.4 133.4Z" fill="#00082E"/>
<path d="M256.3 105.5C265 104 273.9 105.9 282.1 109.1C286.2 110.7 290.2 112.7 294.1 114.6C297.6 116.4 301.2 118.1 305.2 118.3C309.2 118.5 312.9 117.1 316.5 115.7C320.4 114.2 324.3 112.9 328.4 112.3C332.6 111.6 337 111.5 341.3 111.9C343.5 112.1 345.7 112.5 347.9 113C349.8 113.4 351.3 114.3 353.2 113.7C354.2 113.4 354.4 112.2 353.8 111.5C351.7 108.8 346 108.6 342.8 108.2C338.7 107.7 334.5 107.6 330.4 108.1C326.1 108.6 321.9 109.6 317.9 111.1C313.8 112.6 309.7 114.9 305.2 114.6C300.6 114.3 296.4 111.5 292.3 109.6C288.5 107.8 284.6 106.2 280.5 104.9C272.4 102.4 264.1 101.6 255.9 104.3C255.1 104.4 255.5 105.6 256.3 105.5Z" fill="#00082E"/>
<path d="M276.4 85.8C284.2 83.9 291.8 85.1 298.7 88.9C304.7 92.2 310.5 93 317.2 91.6C323.7 90.2 329.7 87.2 336.3 86C339.2 85.5 342.2 85.3 345.1 85.8C348.3 86.4 350.1 88.2 352.9 89.7C354.3 90.5 355.7 88.9 355.1 87.5C352.7 82.5 344.9 81.4 340 81.6C332.9 82 326.5 84.9 319.8 86.9C315.9 88.1 311.7 89 307.6 88.3C303.6 87.7 300.3 85.1 296.5 83.7C289.7 81 282.5 81.2 275.9 84.4C275.1 84.8 275.6 85.9 276.4 85.8Z" fill="#00082E"/>
</g>
<path d="M190.455 132.357C190.455 132.357 177.311 176.777 179.174 196.243C181.037 215.708 177.311 225.027 208.671 228.962C235.685 224.82 270.876 213.845 296.855 198.417C322.833 182.886 327.284 184.232 330.699 172.946C334.115 161.659 337.945 148.924 337.945 148.924C337.945 148.924 324.8 121.692 315.071 127.594C305.342 133.496 299.856 141.262 299.856 141.262L293.543 147.578C293.543 147.578 237.238 171.082 228.026 176.052C218.815 181.022 238.376 168.39 238.376 168.39L235.685 147.474C235.582 147.474 193.767 125.834 190.455 132.357Z" fill="#F2BC1E"/>
<path d="M332.77 164.352L326.456 168.183" stroke="#272453" stroke-width="2" stroke-miterlimit="10"/>
<path d="M331.217 172.946L324.8 176.88" stroke="#272453" stroke-width="2" stroke-miterlimit="10"/>
<path d="M189.317 133.91C189.317 133.91 170.79 207.529 183.521 220.161C196.251 232.793 226.888 237.659 301.926 195.828C314.139 190.444 329.251 178.33 329.251 178.33L338.048 149.131C338.048 149.131 330.286 131.218 318.9 128.215C307.515 125.213 302.03 139.398 302.03 139.398L292.818 148.613C292.818 148.613 259.18 155.654 224.093 178.433" stroke="#272453" stroke-width="4" stroke-miterlimit="10"/>
<path d="M276.568 108.128L285.78 85.6594C285.78 85.6594 319.625 102.226 318.797 43.7248C317.969 -14.7766 254.109 23.7411 261.871 57.3924L248.726 87.6267C248.726 87.6267 254.626 114.03 276.568 108.128Z" fill="#F2BC1E" stroke="#272453" stroke-width="4" stroke-miterlimit="10"/>
<path d="M369.776 71.1419C373.082 40.6687 359.729 14.2245 339.952 12.0773C320.175 9.93001 301.463 32.8928 298.157 63.3661C294.851 93.8393 308.203 120.284 327.98 122.431C347.757 124.578 366.47 101.615 369.776 71.1419Z" stroke="#272453" stroke-width="4" stroke-miterlimit="10"/>
<path d="M308.343 58.3242C309.887 58.3242 311.138 57.0726 311.138 55.5286C311.138 53.9846 309.887 52.733 308.343 52.733C306.8 52.733 305.549 53.9846 305.549 55.5286C305.549 57.0726 306.8 58.3242 308.343 58.3242Z" fill="#272453"/>
<path d="M286.608 54.3896C288.151 54.3896 289.402 53.138 289.402 51.594C289.402 50.05 288.151 48.7984 286.608 48.7984C285.065 48.7984 283.813 50.05 283.813 51.594C283.813 53.138 285.065 54.3896 286.608 54.3896Z" fill="#272453"/>
<path d="M304.1 62.9837C304.1 62.9837 306.791 66.4005 304.1 68.5749" stroke="#272453" stroke-width="2" stroke-miterlimit="10"/>
<path d="M283.813 69.8174C283.813 69.8174 285.469 74.1662 289.402 74.6839" stroke="#272453" stroke-width="2" stroke-miterlimit="10"/>
<path d="M271.911 58.3242C271.911 58.3242 273.567 48.0736 268.495 48.7984" stroke="#272453" stroke-width="2" stroke-miterlimit="10"/>
<path d="M321.177 120.657L318.797 140.433C318.797 140.433 319.211 144.782 323.558 144.575L328.008 122.52L321.177 120.657Z" fill="#272453"/>
<path d="M314.553 136.499C314.553 136.499 317.762 146.232 326.456 143.54" stroke="#272453" stroke-width="2" stroke-miterlimit="10"/>
<path d="M336.91 152.237L326.456 160.935" stroke="#272453" stroke-width="2" stroke-miterlimit="10"/>
<path d="M313.622 21.8774C313.622 21.8774 300.995 40.1008 272.221 45.1744C272.221 45.1744 259.491 43.8283 261.561 58.3243C263.631 72.8202 287.436 95.0818 258.559 117.758C229.682 140.433 245.932 101.294 245.932 101.294C245.932 101.294 196.251 81 222.955 65.6758C249.658 50.3515 254.109 -18.8147 313.622 13.4905C313.622 13.4905 320.97 16.5967 313.622 21.8774Z" fill="#272453"/>
<path d="M316.83 23.0163C316.83 23.0163 334.529 37.5123 316.83 67.2289Z" fill="#272453"/>
<path d="M187.454 124.798C187.454 124.798 195.837 97.049 209.396 90.5259" stroke="#272453" stroke-width="2" stroke-miterlimit="10"/>
<path d="M211.983 136.499C211.983 136.499 227.302 143.85 235.582 147.474L237.341 160.831" stroke="#272453" stroke-width="2" stroke-miterlimit="10"/>
<path d="M311.138 227.512C311.448 226.477 318.9 204.008 318.797 189.409" stroke="#272453" stroke-width="2" stroke-miterlimit="10"/>
<path d="M292.508 101.294C292.508 101.294 300.788 103.365 305.445 108.956" stroke="#272453" stroke-width="2" stroke-miterlimit="10"/>
<path d="M425.61 199.142L342.499 175.741L359.369 45.1744L445.068 68.782L425.61 199.142Z" fill="#E72F74" stroke="#272453" stroke-width="1.6341" stroke-miterlimit="10"/>
<path d="M388.557 53.5613C388.764 53.5613 404.496 32.6458 404.496 32.6458H410.292L411.741 43.1035L405.945 48.7984H416.192L429.026 54.3896L437.409 62.8801L431.613 84.1063L421.056 79.0327L402.426 69.8174L397.354 54.4932L388.557 53.5613Z" fill="#F2BC1E" stroke="#272453" stroke-width="4" stroke-miterlimit="10"/>
<path d="M412.155 74.6839L416.192 62.9837" stroke="#272453" stroke-width="1.6341" stroke-miterlimit="10"/>
<path d="M419.297 78.2044L424.265 68.782" stroke="#272453" stroke-width="1.6341" stroke-miterlimit="10"/>
<path d="M426.231 81.6213L429.75 74.6839" stroke="#272453" stroke-width="1.6341" stroke-miterlimit="10"/>
<path d="M392.697 164.351C408.988 164.351 422.195 151.14 422.195 134.842C422.195 118.544 408.988 105.332 392.697 105.332C376.406 105.332 363.199 118.544 363.199 134.842C363.199 151.14 376.406 164.351 392.697 164.351Z" fill="#E72F74" stroke="#272453" stroke-width="3.403" stroke-miterlimit="10"/>
<path d="M378 119.414L387.004 120.035L395.491 147.992L423.333 90.2153" fill="#E72F74"/>
<path d="M378 119.414L387.004 120.035L395.491 147.992L423.333 90.2153" stroke="#272453" stroke-width="3.0717" stroke-miterlimit="10"/>
</g>
<path d="M455.5 232.2H168V234.2H455.5V232.2Z" fill="#272453"/>
</g>
<defs>
<clipPath id="clip0_32_3351">
<rect width="624" height="234" fill="white"/>
</clipPath>
<clipPath id="clip1_32_3351">
<rect width="269" height="228" fill="white" transform="translate(177 5)"/>
</clipPath>
</defs>
</svg>
