<svg width="624" height="234" viewBox="0 0 624 234" fill="none" xmlns="http://www.w3.org/2000/svg">
<g clip-path="url(#clip0_32_3351)">
<g clip-path="url(#clip1_32_3351)">
<path d="M603.1 74H542.4C537.9 74 534.2 77.7 534.2 82.2V93.1H404.2C399.7 93.1 396 96.8 396 101.3V224.8C396 229.3 399.7 233 404.2 233H603.1C607.6 233 611.3 229.3 611.3 224.8V205.6V101.4V82.2C611.4 77.7 607.7 74 603.1 74Z" fill="#FAEEFF" stroke="#272453" stroke-width="2" stroke-miterlimit="10"/>
<path d="M508 199L512.5 121L610.5 131.5V203L508 199Z" fill="white"/>
</g>
<path d="M363.059 86.6671C376.329 83.7501 384.154 68.0483 380.537 51.5961C376.921 35.1439 363.232 24.1714 349.962 27.0884C336.693 30.0053 328.867 45.7071 332.484 62.1593C336.1 78.6115 349.789 89.584 363.059 86.6671Z" stroke="#272453" stroke-width="1.9306" stroke-miterlimit="10"/>
<path d="M83.6 35.8L109.2 39.2001" stroke="#272453" stroke-width="1.9532" stroke-miterlimit="10"/>
<path d="M83.6 56.9L109.2 66.2" stroke="#272453" stroke-width="1.9532" stroke-miterlimit="10"/>
<path d="M124 39.2001C124 39.2001 113.2 56.8001 129.4 73.8001" stroke="#272453" stroke-width="1.9532" stroke-miterlimit="10"/>
<path d="M83.6 47L106.5 51.2" stroke="#272453" stroke-width="1.9532" stroke-miterlimit="10"/>
<path d="M227.7 96.7L150.3 48.4L137.5 32.9L129.4 12.4L120.5 17.3L120 29.3L83.6 25.8V66.2L136.1 89.3L207.2 151.4L321.1 200.8L330.8 121.3C329.6 122.6 227.7 96.7 227.7 96.7Z" stroke="#272453" stroke-width="4" stroke-miterlimit="10"/>
<path d="M518.4 122.7L610.7 131" stroke="#272453" stroke-width="4" stroke-miterlimit="10"/>
<path d="M507.1 198.4L610.7 203" stroke="#272453" stroke-width="4" stroke-miterlimit="10"/>
<path d="M516.3 116.1L402.2 106.6C389.4 102.5 376 101.5 362.2 104.8C352.2 107.2 344.2 110.9 337.7 115.4L284 102.8C284 102.8 265.3 187.3 325.1 214.9C329.2 226.1 333 233.4 333 233.4L520.8 232.8C520.2 232.2 514.3 220.6 504.3 204.6C543.4 192.6 516.3 116.1 516.3 116.1Z" fill="#F2BC1E"/>
<mask id="mask0_32_3351" style="mask-type:alpha" maskUnits="userSpaceOnUse" x="281" y="102" width="245" height="132">
<path d="M516.3 116.1L402.2 106.6C389.4 102.5 376 101.5 362.2 104.8C352.2 107.2 344.2 110.9 337.7 115.4L284 102.8C284 102.8 265.3 187.3 325.1 214.9C329.2 226.1 333 233.4 333 233.4L520.8 232.8C520.2 232.2 514.3 220.6 504.3 204.6C543.4 192.6 516.3 116.1 516.3 116.1Z" fill="#F2BC1E"/>
</mask>
<g mask="url(#mask0_32_3351)">
<path d="M2023.55 -1536.48H-276.2V763.275H2023.55V-1536.48Z" fill="white"/>
<path d="M502.265 804.67H-300.693V-36.1184H502.265V804.67ZM-300.118 803.98H501.46V-35.5435H-300.118V803.98Z" fill="#00082E"/>
<path d="M-294.138 797.886C-298.393 757.985 -270.566 724.064 -238.829 703.711C-205.023 681.979 -166.157 669.56 -131.891 648.287C-99.6944 628.279 -70.6025 603.442 -45.8802 574.695C-19.7781 544.338 0.114749 510.187 16.7879 473.851C34.496 435.33 49.5594 395.66 70.8321 358.979C89.575 326.667 112.113 296.426 138.675 270.093C165.467 243.531 196.283 221.109 230.435 205.125C268.496 187.302 309.776 177.183 346.112 155.681C378.769 136.363 406.136 108.996 425.914 76.6843C444.082 46.9026 456.845 12.9813 481.337 -12.5459C487.317 -18.7553 493.871 -24.2746 501.115 -28.8741C503.53 -30.3689 501.345 -34.1636 498.931 -32.6688C468.804 -13.8108 452.476 18.6157 436.262 48.9724C427.523 65.3006 418.439 81.3988 407.056 96.1172C394.982 111.641 380.838 125.554 365.2 137.513C331.279 163.27 291.033 175.689 252.052 191.212C216.061 205.47 183.06 224.788 153.738 250.2C125.566 274.578 101.304 303.325 80.951 334.486C58.4134 368.868 41.8552 406.239 25.642 443.839C8.85378 482.59 -9.08424 520.766 -34.7265 554.687C-58.0689 585.504 -86.3558 612.641 -118.092 634.719C-133.961 645.757 -150.749 655.416 -168.227 663.926C-187.085 673.125 -206.633 681.174 -225.031 691.292C-257.342 708.886 -288.964 735.678 -296.438 773.509C-298.048 781.788 -298.278 789.952 -297.013 798.346C-297.013 800.071 -294.023 799.611 -294.138 797.886Z" fill="#00082E"/>
<path d="M-126.257 801.22C-121.312 769.944 -99.9244 744.647 -75.0871 726.249C-47.95 706.241 -16.3285 694.397 14.2582 680.829C43.465 667.72 71.177 652.197 93.4846 628.739C111.998 609.191 126.371 586.309 138.79 562.621C164.432 513.867 182.255 460.628 214.107 415.207C230.435 391.98 250.673 371.972 275.28 357.599C305.292 340.121 338.868 329.887 369.11 312.754C398.316 296.31 423.269 272.853 441.322 244.681C449.371 232.147 455.465 218.464 462.479 205.355C468.919 193.282 476.278 180.978 487.087 172.124C492.261 167.869 498.241 164.65 504.68 162.81C507.325 162.005 506.175 157.98 503.53 158.67C475.703 166.72 462.594 195.006 450.521 218.809C443.162 233.297 434.882 247.211 424.649 259.859C413.84 273.198 401.421 285.157 387.508 295.391C359.221 316.203 325.759 327.357 294.253 342.305C279.304 349.435 264.931 357.484 251.822 367.718C241.129 376.112 231.355 385.656 222.616 396.12C187.084 438.78 167.996 492.019 144.194 541.464C132.235 566.186 119.127 590.678 101.879 612.296C93.3696 622.99 83.9406 632.879 73.3618 641.618C60.1382 652.542 45.3048 661.281 30.1265 668.985C-0.920142 684.508 -34.2665 695.432 -63.8183 713.945C-89.1156 729.813 -113.263 751.661 -123.612 780.408C-126.027 787.077 -127.521 793.976 -128.326 800.991C-128.441 802.14 -126.372 802.485 -126.257 801.22Z" fill="#00082E"/>
<path d="M478.003 -17.7204C446.381 -28.5292 410.16 -21.63 380.608 -7.7165C349.907 6.65694 324.38 30.1144 303.452 56.5615C291.493 71.6249 280.914 87.7232 271.255 104.166C270.105 106.236 272.98 108.651 274.59 106.696C284.479 95.0823 298.852 89.793 313.341 86.3433C328.519 82.6637 343.812 80.249 358.646 75.3046C388.658 65.1857 416.829 48.0525 439.137 25.4C451.096 13.2113 460.755 -3.57686 478.348 -8.06138C480.303 -8.52133 479.498 -11.5111 477.543 -11.1661C456.5 -7.25655 436.032 -2.77195 416.254 5.73712C396.707 14.1312 378.424 25.5149 362.21 39.4284C353.126 47.2475 344.847 55.6417 337.718 65.4157C337.028 66.4505 338.638 67.6004 339.443 66.6805C353.816 51.5021 368.765 37.2436 386.243 25.6299C403.606 14.1311 422.464 4.93221 442.472 -1.16213C453.97 -4.72674 465.814 -7.48644 477.888 -8.06138C477.888 -9.09626 477.888 -10.1312 477.888 -11.2811C462.824 -9.55627 452.706 4.35719 443.277 14.7061C431.893 27.1247 419.129 38.2786 405.101 47.5926C391.302 56.7916 376.239 64.4958 360.601 70.0152C345.652 75.4196 330.129 78.0643 314.721 81.6289C298.852 85.3085 282.524 90.7129 271.6 103.476C272.75 104.396 273.785 105.201 274.935 106.006C308.281 50.0073 354.276 -5.18677 421.889 -17.4904C440.517 -20.8251 459.26 -20.0201 477.658 -16.1105C478.693 -15.5356 479.153 -17.3754 478.003 -17.7204Z" fill="#00082E"/>
<path d="M459.03 17.4658C447.646 37.8186 436.607 58.5163 429.708 80.8239C426.259 91.8627 424.074 103.131 423.039 114.515C422.004 127.049 422.579 139.582 423.154 152.001C423.844 166.26 424.534 180.633 425.914 194.777C426.144 196.501 428.788 197.881 429.708 195.811C435.802 182.128 440.057 167.869 446.496 154.301C452.821 141.077 459.95 128.199 466.619 115.09C478.578 91.0578 488.697 65.5306 487.777 38.1635C487.317 24.1351 483.752 10.1066 476.048 -1.73707C475.013 -3.23191 472.254 -3.23191 471.909 -1.16213C467.769 18.9607 463.169 38.9684 458.57 58.9762C453.97 78.9841 449.026 98.877 445.346 119.115C445.001 120.955 447.761 121.759 448.221 119.92C453.626 100.142 457.765 80.019 462.25 60.0112C466.734 40.0033 471.334 19.9955 476.163 0.102701C474.783 0.332676 473.403 0.447664 472.024 0.677639C485.592 22.7552 485.132 49.4324 478.463 73.5797C471.104 100.257 456.27 124.059 444.771 149.011C441.552 155.911 438.677 162.925 436.032 170.169C433.043 178.218 430.398 186.267 426.259 193.857C427.523 194.202 428.788 194.547 430.053 194.892C429.708 170.514 426.603 146.137 427.063 121.76C427.523 98.0721 433.848 75.6495 442.932 53.9169C448.106 41.7282 453.856 29.7695 459.605 17.8108C459.835 17.4658 459.26 17.1208 459.03 17.4658Z" fill="#00082E"/>
<path d="M418.439 79.559C391.417 94.2774 361.75 100.142 332.084 106.581C316.33 110.031 300.692 114.17 285.284 119C270.565 123.599 255.157 128.314 242.163 136.708C229.745 144.642 219.396 156.831 217.326 171.779C217.096 173.504 218.476 174.654 220.086 173.964C245.383 162.81 273.325 160.74 300.232 155.451C313.111 152.921 325.874 149.471 337.948 144.182C351.057 138.433 363.015 130.383 374.629 121.989C387.853 112.445 400.501 102.097 412.46 90.9428C414.415 89.103 411.54 86.2283 409.585 87.9531C398.661 97.7271 387.278 107.041 375.549 115.665C364.05 124.174 352.091 132.453 339.213 138.663C314.836 150.391 287.469 153.036 261.136 158.096C246.418 160.855 231.93 164.535 218.246 170.629C219.166 171.319 220.086 172.124 221.006 172.814C225.26 141.307 261.136 130.499 286.894 122.449C302.072 117.62 317.48 113.595 333.119 110.146C347.262 106.926 361.52 104.051 375.434 100.142C390.842 95.7723 406.021 90.1378 419.129 80.8238C419.819 80.2489 419.244 79.214 418.439 79.559Z" fill="#00082E"/>
<path d="M221.581 168.444C229.285 160.97 239.634 156.831 249.638 153.381C259.642 149.816 269.99 146.827 280.224 143.952C300.922 138.203 321.965 133.258 342.318 126.014C353.471 121.989 364.855 117.62 374.514 110.606C375.549 109.801 374.744 108.306 373.479 108.881C363.245 113.135 353.356 118.08 343.007 121.874C332.659 125.669 322.08 128.889 311.501 131.878C290.573 137.743 269.3 142.802 248.948 150.736C238.599 154.761 228.595 159.36 221.466 168.214C221.121 168.329 221.351 168.559 221.581 168.444Z" fill="#00082E"/>
<path d="M356.921 147.632C335.648 160.28 314.376 175.229 298.507 194.432C282.524 213.634 273.9 237.322 269.416 261.699C266.771 275.958 265.276 290.446 264.126 304.935C263.896 307.464 267.461 308.154 268.726 306.199C276.89 292.516 285.169 278.717 296.553 267.334C308.166 255.72 322.425 247.441 335.188 237.207C358.991 218.119 379.574 193.742 389.462 164.42C394.982 147.862 396.822 130.384 394.062 113.135C393.717 111.181 390.727 110.836 389.807 112.561C370.834 151.426 348.297 188.452 323.345 223.753C321.85 225.823 325.299 227.778 326.679 225.708C351.632 190.407 373.709 153.151 393.717 114.86C392.337 114.63 390.957 114.515 389.462 114.285C393.947 145.447 382.563 176.723 363.935 201.331C354.851 213.29 343.927 223.983 332.199 233.412C320.01 243.301 306.327 251.35 294.828 262.274C282.409 274.118 273.325 289.066 264.356 303.555C265.851 304.015 267.346 304.36 268.956 304.82C271.485 280.442 273.785 255.605 281.834 232.377C290.113 208.805 305.177 189.947 324.15 173.964C334.843 164.995 346.457 157.176 357.496 148.666C358.301 148.207 357.726 147.172 356.921 147.632Z" fill="#00082E"/>
<path d="M418.324 272.393C426.144 259.17 440.402 251.58 454.086 245.946C469.034 239.737 486.282 234.102 501 243.991C501 242.726 501 241.346 501 240.082C485.362 252.155 467.769 261.584 449.026 267.679C444.427 269.173 439.712 270.553 434.998 271.703C432.583 272.278 430.053 272.853 427.523 273.313C426.488 273.543 425.109 274.003 424.074 273.888C420.854 273.658 422.464 271.703 423.959 270.323C427.638 267.219 432.698 264.919 436.952 262.849C441.667 260.549 446.381 258.48 451.211 256.64C461.905 252.615 472.943 249.741 483.752 245.946C486.282 245.026 485.362 241.116 482.602 241.806C470.989 244.681 459.49 248.591 448.451 253.19C443.162 255.375 437.872 257.79 432.813 260.434C428.558 262.734 422.924 265.149 419.819 269.173C417.749 271.818 417.289 276.073 421.199 277.338C423.154 277.912 425.339 277.223 427.293 276.878C430.398 276.303 433.388 275.728 436.492 275.038C447.646 272.508 458.57 268.714 469.149 263.999C481.223 258.595 492.721 251.81 503.3 243.761C504.68 242.726 504.795 240.887 503.3 239.852C488.237 229.503 468.804 235.367 453.74 242.266C439.367 248.821 424.879 257.1 417.864 271.933C417.634 272.393 418.209 272.738 418.324 272.393Z" fill="#00082E"/>
<path d="M450.521 226.858C462.594 224.213 473.288 215.474 480.533 205.815C484.327 200.641 486.972 194.891 489.272 189.027C491.916 182.243 495.251 176.148 498.586 169.709C499.161 168.674 497.896 167.064 496.746 167.869C491.916 171.319 489.617 177.068 487.547 182.358C485.017 188.682 482.832 195.006 479.153 200.871C471.909 212.254 461.79 219.499 450.061 225.708C449.371 225.938 449.831 226.973 450.521 226.858Z" fill="#00082E"/>
<path d="M496.286 162.35C489.157 160.395 480.418 162.235 473.633 164.65C466.389 167.294 459.72 171.779 454.545 177.528C449.256 183.278 445.576 190.407 443.507 197.881C441.552 205.125 440.402 214.324 443.852 221.224C444.426 222.374 446.036 221.684 446.036 220.649C446.151 217.084 445.691 213.634 445.691 210.07C445.806 206.275 446.151 202.596 447.071 198.916C448.796 191.787 452.246 185.003 457.19 179.483C462.02 174.079 468.114 169.939 474.898 167.295C478.118 166.03 481.452 164.995 484.902 164.535C488.582 163.96 492.261 164.075 496.056 163.845C496.861 163.73 497.091 162.58 496.286 162.35Z" fill="#00082E"/>
<path d="M442.472 223.983C442.817 224.673 443.277 225.363 443.622 226.168C443.967 226.858 444.312 227.548 444.886 228.123C445.231 228.468 446.151 228.238 446.036 227.663C445.921 226.858 445.576 226.168 445.116 225.478C444.771 224.673 444.311 223.868 443.967 223.178C443.507 222.144 441.897 222.948 442.472 223.983Z" fill="#00082E"/>
<path d="M420.394 264.344C429.593 255.03 433.503 241.921 430.743 229.043C429.478 222.833 426.603 216.969 422.579 212.025C420.624 209.61 418.439 207.425 415.91 205.47C413.955 203.86 411.195 201.561 408.55 201.561C406.596 201.561 405.446 203.056 404.756 204.665C403.031 208.345 401.996 212.599 400.846 216.509C398.661 223.983 397.052 231.917 397.397 239.737C397.972 251.12 403.606 263.424 414.415 268.483C414.99 268.713 415.565 269.058 416.14 269.173C419.474 269.978 419.129 268.828 419.704 266.644C420.279 264.574 420.854 262.504 421.199 260.434C422.119 256.295 422.579 251.925 422.234 247.671C421.659 241.116 419.359 233.642 413.035 230.538C412.115 230.078 410.85 231.112 411.54 232.032C415.335 237.322 418.209 242.611 418.554 249.28C418.784 253.19 418.209 256.985 417.519 260.779C417.174 262.504 416.714 264.114 416.37 265.839C416.025 267.104 414.99 269.173 415.335 270.438C416.14 273.428 420.739 271.818 420.049 268.943C419.704 267.104 417.634 266.529 416.14 265.839C413.265 264.574 410.85 262.734 408.665 260.319C399.236 250.086 399.236 235.137 402.341 222.374C403.146 218.809 404.296 215.244 405.331 211.795C405.906 210.185 406.366 208.46 406.941 206.85C407.516 205.24 407.171 205.125 409.01 205.24C410.735 205.355 411.54 205.93 412.805 206.965C417.864 210.875 421.889 216.049 424.534 221.914C430.628 235.597 428.213 251.81 419.244 263.654C419.244 264.229 420.049 264.804 420.394 264.344Z" fill="#00082E"/>
<path d="M265.966 156.715C271.025 151.081 276.89 146.597 283.329 142.802C283.904 142.457 283.444 141.652 282.754 141.882C275.74 144.987 269.76 149.701 264.701 155.451C264.126 156.371 265.276 157.52 265.966 156.715Z" fill="#00082E"/>
<path d="M276.89 154.071C276.775 153.956 276.775 153.841 276.66 153.726C276.43 153.381 276.085 153.266 275.855 153.381C274.935 153.611 274.13 154.531 274.705 155.566C275.51 157.176 277.58 155.911 278.499 155.221C281.949 152.576 285.169 149.471 288.733 146.827C292.068 144.412 295.518 142.227 298.737 139.583C299.197 139.238 298.622 138.663 298.162 138.893C293.908 140.732 289.998 143.607 286.319 146.367C285.284 147.172 275.74 154.991 275.625 154.876C276.085 155.681 277.465 154.876 276.89 154.071Z" fill="#00082E"/>
<path d="M292.758 152.921C298.162 146.252 304.717 141.882 311.616 137.168C312.191 136.823 311.846 135.788 311.156 136.018C303.337 138.892 296.668 145.332 291.493 151.656C290.803 152.461 292.068 153.726 292.758 152.921Z" fill="#00082E"/>
<path d="M305.982 150.736C312.191 144.757 319.09 139.468 326.219 134.523C326.794 134.178 326.334 133.258 325.644 133.603C317.94 137.973 311.156 143.377 304.717 149.586C303.912 150.276 305.177 151.541 305.982 150.736Z" fill="#00082E"/>
<path d="M320.355 145.792C327.369 138.662 335.418 133.143 343.467 127.279C343.927 126.934 343.582 126.244 343.007 126.474C333.923 130.613 325.989 137.513 319.205 144.527C318.285 145.332 319.55 146.482 320.355 145.792Z" fill="#00082E"/>
<path d="M335.303 139.582C342.778 133.833 350.252 127.969 357.611 121.874C357.956 121.644 357.496 121.069 357.151 121.299C349.562 126.934 341.973 132.683 334.498 138.548C334.039 139.007 334.728 140.042 335.303 139.582Z" fill="#00082E"/>
<path d="M381.298 134.983C381.298 142.342 381.068 149.701 380.378 157.061C379.689 164.42 378.194 171.549 377.504 178.908C377.504 179.483 378.309 179.598 378.539 179.023C380.608 172.239 381.298 164.765 381.873 157.636C382.563 150.046 382.678 142.457 382.448 134.868C382.448 134.178 381.298 134.178 381.298 134.983Z" fill="#00082E"/>
<path d="M372.674 152.231C372.329 159.245 371.754 166.26 371.179 173.159C370.604 180.058 369.34 187.187 369.455 194.087C369.455 194.662 370.375 194.892 370.604 194.202C372.214 187.647 372.329 180.518 372.789 173.849C373.364 166.605 373.824 159.475 374.169 152.231C374.169 151.311 372.674 151.311 372.674 152.231Z" fill="#00082E"/>
<path d="M362.785 170.399C361.866 176.724 361.061 183.048 360.141 189.372C359.336 195.236 357.956 201.331 358.071 207.31C358.071 207.77 358.761 207.885 358.876 207.425C360.716 201.561 361.061 195.237 361.866 189.142C362.671 183.048 363.59 176.954 364.395 170.744C364.51 169.824 362.9 169.364 362.785 170.399Z" fill="#00082E"/>
<path d="M356.461 177.528C354.736 183.738 353.241 190.062 351.862 196.386C350.597 202.251 348.757 208.46 348.872 214.439C348.872 215.014 349.677 215.129 349.907 214.554C351.977 208.805 352.437 202.136 353.701 196.156C354.966 190.062 356.346 183.853 357.956 177.873C358.071 176.953 356.691 176.608 356.461 177.528Z" fill="#00082E"/>
<path d="M346.687 192.937C344.962 198.916 343.237 204.78 341.628 210.76C340.018 216.739 338.063 222.719 337.028 228.698C336.913 229.273 337.718 229.503 337.948 228.928C340.133 223.178 341.513 217.084 343.123 211.105C344.732 205.125 346.227 199.146 347.722 193.167C347.722 192.592 346.802 192.362 346.687 192.937Z" fill="#00082E"/>
<path d="M336.913 214.439C334.153 220.189 331.049 225.938 328.864 231.917C328.634 232.377 329.439 232.722 329.669 232.262C332.659 226.743 334.958 220.649 337.603 214.784C337.718 214.324 337.143 213.979 336.913 214.439Z" fill="#00082E"/>
<path d="M323.69 231.802C322.31 234.562 320.7 237.207 319.55 239.967C319.435 240.312 319.895 240.427 320.01 240.197C321.735 237.667 323 234.907 324.379 232.262C324.724 231.687 323.92 231.343 323.69 231.802Z" fill="#00082E"/>
<path d="M459.26 81.9737C460.065 94.1624 460.295 106.696 462.135 118.77C462.25 119.23 462.939 119.115 462.939 118.655C463.054 106.466 461.445 94.1624 460.525 81.9737C460.525 81.1688 459.26 81.0538 459.26 81.9737Z" fill="#00082E"/>
<path d="M452.591 104.396C451.441 114.515 450.751 124.864 451.786 134.983C451.901 135.673 452.821 135.673 452.821 134.983C452.936 124.749 452.821 114.63 453.97 104.396C454.085 103.476 452.706 103.476 452.591 104.396Z" fill="#00082E"/>
<path d="M445.691 133.833C443.507 139.583 442.012 146.137 442.702 152.346C442.702 152.806 443.392 152.806 443.392 152.346C443.737 146.022 444.312 140.157 446.611 134.178C446.841 133.488 445.921 133.143 445.691 133.833Z" fill="#00082E"/>
<path d="M441.782 147.976C438.792 154.531 436.837 161.315 436.492 168.559C436.492 168.904 437.067 169.019 437.067 168.674C437.987 161.66 439.712 154.991 442.587 148.551C442.817 147.976 442.012 147.402 441.782 147.976Z" fill="#00082E"/>
<path d="M407.631 203.401C409.125 214.209 410.965 225.938 415.335 236.057C415.565 236.632 416.485 236.172 416.37 235.597C415.22 230.193 413.38 224.788 412.115 219.384C410.85 213.979 409.7 208.575 408.665 203.055C408.55 202.481 407.516 202.826 407.631 203.401Z" fill="#00082E"/>
<path d="M400.616 218.694C402.571 225.363 406.941 232.837 413.495 235.942C413.84 236.057 414.185 235.712 413.955 235.367C411.425 232.952 408.78 230.998 406.711 228.238C404.411 225.248 402.801 221.914 401.766 218.349C401.421 217.774 400.386 218.119 400.616 218.694Z" fill="#00082E"/>
<path d="M448.566 190.062C449.026 198.456 447.876 206.39 447.071 214.554C447.071 215.014 447.761 215.129 447.876 214.669C450.176 206.85 450.176 198.111 449.716 190.062C449.716 189.257 448.566 189.257 448.566 190.062Z" fill="#00082E"/>
<path d="M455.235 184.887C454.89 188.797 454.545 192.707 454.2 196.616C453.855 200.526 453.166 204.435 453.626 208.345C453.626 208.805 454.315 208.92 454.43 208.46C455.465 204.895 455.465 200.986 455.81 197.306C456.155 193.167 456.5 189.027 456.845 184.887C456.845 183.853 455.235 183.853 455.235 184.887Z" fill="#00082E"/>
<path d="M461.445 179.828C460.755 185.922 459.605 192.017 459.605 198.226C459.605 198.916 460.64 199.031 460.755 198.341C462.02 192.362 462.365 185.922 463.055 179.828C463.17 178.793 461.56 178.793 461.445 179.828Z" fill="#00082E"/>
<path d="M470.184 175.574C469.034 180.978 467.884 186.382 467.079 191.902C466.964 192.592 467.999 192.937 468.229 192.247C469.609 186.842 470.644 181.438 471.679 176.034C471.794 174.999 470.414 174.654 470.184 175.574Z" fill="#00082E"/>
<path d="M454.315 216.739C458.685 213.749 463.169 210.99 467.769 208.575C472.368 206.045 477.313 204.091 481.912 201.676C482.257 201.446 482.027 200.986 481.682 200.986C471.679 203.63 462.135 209.84 453.74 215.934C453.395 216.164 453.855 217.084 454.315 216.739Z" fill="#00082E"/>
<path d="M460.87 208.805C465.354 205.01 470.529 202.251 475.933 200.066C476.623 199.836 476.393 198.801 475.588 198.916C469.609 200.526 464.319 203.631 459.605 207.54C458.8 208.23 460.065 209.495 460.87 208.805Z" fill="#00082E"/>
<path d="M474.898 194.776C475.243 194.661 475.588 194.661 475.818 194.546C476.278 194.431 476.278 193.742 475.818 193.627C475.473 193.512 475.128 193.512 474.898 193.397C474.438 193.282 473.978 193.626 473.978 194.086C473.978 194.546 474.438 194.891 474.898 194.776Z" fill="#00082E"/>
<path d="M302.992 197.996C302.072 199.376 301.267 200.641 300.347 202.021C300.117 202.481 300.692 202.94 301.037 202.596C309.661 192.822 318.745 183.393 328.519 174.769C338.638 165.915 349.562 158.325 360.486 150.391C360.946 150.046 360.601 149.241 360.026 149.586C348.757 156.026 338.293 164.42 328.519 173.044C318.4 181.898 308.856 191.442 300.347 201.906C300.577 202.136 300.807 202.251 301.037 202.481C301.842 201.101 302.647 199.721 303.337 198.341C303.682 197.996 303.222 197.651 302.992 197.996Z" fill="#00082E"/>
<path d="M293.103 217.544C303.222 207.31 313.571 197.421 324.38 187.992C335.188 178.563 346.572 169.939 357.726 160.855C358.071 160.625 357.611 160.05 357.266 160.28C345.537 168.214 334.613 177.413 324.035 186.727C313.111 196.386 302.647 206.505 292.758 217.199C292.643 217.429 292.988 217.659 293.103 217.544Z" fill="#00082E"/>
<path d="M299.312 223.753C309.546 213.634 320.125 203.745 330.014 193.282C330.359 192.822 329.784 192.247 329.324 192.592C318.745 202.366 308.741 212.83 298.507 222.948C298.047 223.408 298.852 224.213 299.312 223.753Z" fill="#00082E"/>
<path d="M431.778 81.2837C427.178 90.9426 422.004 100.257 416.025 109.111C413.035 113.595 409.93 118.08 406.596 122.334C403.376 126.474 399.696 130.383 396.707 134.638C396.247 135.328 397.282 136.133 397.857 135.558C401.766 131.993 404.871 127.509 407.975 123.369C411.08 119.23 414.07 114.86 416.944 110.491C422.809 101.292 428.098 91.7476 432.583 81.8586C432.928 81.2837 432.008 80.7088 431.778 81.2837Z" fill="#00082E"/>
<path d="M308.166 186.957C296.438 189.602 284.824 193.397 273.21 196.961C267.691 198.686 262.171 200.411 256.767 202.366C252.972 203.746 248.833 205.355 246.533 209.035C246.188 209.61 246.878 210.53 247.568 210.07C255.962 203.976 266.426 201.446 276.315 198.226C287.009 194.777 297.817 191.787 308.511 188.222C309.201 187.877 308.971 186.842 308.166 186.957Z" fill="#00082E"/>
<path d="M393.947 131.878C399.581 125.899 405.216 120.15 411.77 115.09C412.115 114.86 411.77 114.17 411.425 114.4C404.296 118.54 397.627 124.059 393.027 131.073C392.682 131.763 393.487 132.338 393.947 131.878Z" fill="#00082E"/>
<path d="M398.891 118.08C397.512 118.885 396.132 119.805 394.752 120.61C395.097 121.07 395.442 121.529 395.787 121.989C403.491 115.665 411.77 109.686 418.669 102.442C419.129 101.982 418.554 101.292 417.979 101.637C409.585 107.156 402.111 114.285 394.522 120.84C393.717 121.529 394.867 122.679 395.787 122.104C397.052 121.184 398.202 120.265 399.466 119.345C400.156 118.655 399.581 117.62 398.891 118.08Z" fill="#00082E"/>
<path d="M401.651 110.721C409.125 104.856 417.634 99.337 424.074 92.4377C424.534 91.9778 423.959 91.2878 423.384 91.6327C415.105 96.4622 407.746 103.591 400.386 109.456C399.466 110.146 400.731 111.411 401.651 110.721Z" fill="#00082E"/>
<path d="M255.387 196.616C263.896 196.041 272.75 196.156 281.144 194.546C281.949 194.431 281.719 193.167 280.914 193.167C272.52 192.707 263.781 194.202 255.387 194.891C254.237 194.891 254.237 196.616 255.387 196.616Z" fill="#00082E"/>
<path d="M267.461 191.787C274.475 192.822 282.294 193.972 289.308 192.707C289.998 192.592 289.998 191.442 289.308 191.327C282.179 190.292 274.935 190.752 267.691 189.832C266.656 189.717 266.311 191.672 267.461 191.787Z" fill="#00082E"/>
<path d="M275.05 189.947C282.179 188.337 289.078 188.452 296.208 187.647C297.012 187.532 297.357 186.382 296.438 186.152C289.308 185.003 281.489 186.497 274.59 188.107C273.44 188.452 273.9 190.177 275.05 189.947Z" fill="#00082E"/>
<path d="M286.434 185.118C291.493 183.853 296.322 184.198 301.382 184.313C302.187 184.313 302.187 183.278 301.497 183.048C296.553 181.208 290.803 182.013 285.859 183.278C284.594 183.508 285.169 185.463 286.434 185.118Z" fill="#00082E"/>
<path d="M295.518 181.783C298.507 180.978 301.842 180.403 304.717 179.023C305.292 178.793 304.947 177.873 304.372 177.988C301.152 178.103 298.047 179.138 294.943 179.943C293.793 180.288 294.253 182.128 295.518 181.783Z" fill="#00082E"/>
<path d="M312.536 177.413C313.341 177.413 313.341 176.148 312.536 176.148C311.731 176.148 311.731 177.413 312.536 177.413Z" fill="#00082E"/>
<path d="M440.287 249.511C443.622 245.716 446.611 241.691 449.256 237.437C451.901 233.297 454.775 228.698 455.81 223.868C455.925 223.408 455.235 223.063 455.005 223.523C452.476 227.548 450.751 232.147 448.451 236.287C445.921 240.771 442.932 244.911 439.597 248.936C439.252 249.281 439.942 249.97 440.287 249.511Z" fill="#00082E"/>
<path d="M490.996 66.5654C485.132 67.4853 481.797 73.6946 479.038 78.2941C475.243 84.5034 471.909 90.9428 469.034 97.727C463.974 109.916 457.995 125.324 461.445 138.663C463.859 148.207 474.323 157.405 484.557 153.151C489.387 151.081 492.606 146.367 493.871 141.422C494.906 136.938 494.676 130.843 490.307 128.084C481.453 122.679 464.894 141.652 474.783 145.677C475.473 146.022 476.163 144.872 475.588 144.297C470.069 139.582 481.453 129.579 486.282 129.349C494.676 129.004 492.261 141.652 489.617 145.907C481.912 158.44 466.389 149.356 463.399 138.203C460.18 126.014 465.239 111.87 469.609 100.602C472.024 94.2774 475.013 88.1831 478.233 82.2037C481.108 77.0293 484.672 68.5202 491.111 67.2553C491.341 67.0254 491.226 66.5654 490.996 66.5654Z" fill="#00082E"/>
<path d="M413.495 122.679C405.561 130.153 398.892 139.008 394.062 148.782C389.233 158.44 384.518 170.169 385.553 181.093C386.358 189.372 391.762 198.226 400.616 199.491C409.125 200.756 416.715 193.512 417.174 185.233C417.174 184.658 416.715 184.083 416.255 183.968C410.16 182.243 404.066 184.428 400.271 189.372C399.351 190.522 401.306 192.017 402.226 190.867C405.561 186.842 410.505 185.118 415.565 186.382C415.22 185.922 414.875 185.578 414.645 185.118C414.415 194.777 403.376 200.181 395.557 194.777C387.278 189.027 386.933 178.103 388.888 169.249C392.682 152.001 402.111 136.018 414.3 123.254C414.53 122.909 413.84 122.334 413.495 122.679Z" fill="#00082E"/>
<path d="M1276.94 806.28H473.978V-34.5086H1276.94V806.28ZM474.668 805.59H1276.36V-33.9336H474.668V805.59Z" fill="#00082E"/>
<path d="M480.533 253.305C522.733 227.433 574.132 225.938 621.852 232.032C649.449 235.597 676.586 241.346 703.953 245.946C730.515 250.315 757.193 253.075 784.215 252.615C835.729 251.695 888.623 240.771 935.193 218.234C973.484 199.721 1021.32 164.535 1010.05 115.665C1004.99 93.7025 989.467 75.7645 969.689 65.4156C949.107 54.7218 925.074 51.732 902.307 54.8367C879.194 57.9413 857.002 67.3703 838.949 82.2037C821.93 96.1172 808.362 116.01 806.407 138.433C804.567 159.705 815.146 180.058 831.474 193.282C849.757 208.115 874.02 213.174 897.132 210.645C918.405 208.345 939.793 200.296 955.661 185.462C970.034 172.009 978.888 152.691 975.209 132.798C971.644 113.595 957.271 96.8071 938.873 90.2529C920.13 83.5836 898.972 89.3329 884.254 102.096C869.075 115.205 858.382 140.157 869.765 158.9C875.055 167.639 884.599 173.044 894.603 174.769C905.756 176.608 917.025 173.619 926.914 168.559C933.813 164.995 948.302 157.061 942.437 147.172C940.598 144.182 935.883 146.942 937.723 149.931C940.483 154.646 931.858 159.36 928.754 161.2C923.809 164.19 918.635 166.605 913.001 168.099C902.767 170.859 891.843 170.169 882.759 164.42C863.441 152.001 870.225 124.749 883.219 110.376C895.637 96.6922 915.185 89.103 933.468 93.8174C951.406 98.5319 965.78 114.285 969.919 132.223C974.289 151.311 965.09 169.594 951.061 182.128C935.653 195.811 915.3 203.401 894.832 205.24C873.1 207.195 850.332 202.366 833.544 187.762C818.481 174.654 809.282 155.106 812.387 134.983C815.606 113.825 829.865 95.5422 846.653 83.0086C864.131 69.9 885.289 61.6209 906.906 59.3212C928.409 57.1364 951.176 60.8161 970.034 71.7399C988.547 82.4337 1002.46 100.602 1005.8 121.874C1012.81 167.409 964.17 199.031 928.869 215.474C885.174 235.712 836.189 245.946 788.124 247.441C762.942 248.246 737.99 246.291 713.152 242.496C688.315 238.702 663.708 233.642 638.755 229.848C595.06 223.178 548.49 220.534 506.52 236.862C496.861 240.542 487.777 245.256 479.153 251.005C477.658 251.81 479.038 254.225 480.533 253.305Z" fill="#00082E"/>
<path d="M824.69 91.4028C792.034 87.4932 761.102 100.832 731.55 112.79C700.274 125.439 668.192 135.558 634.961 141.882C604.604 147.632 569.878 149.931 543.891 130.039C533.082 121.759 525.493 110.031 522.963 96.5772C520.433 83.5836 522.618 69.6701 527.907 57.5964C539.291 31.7242 565.048 16.3159 591.955 10.5665C619.897 4.58716 654.969 6.77198 674.746 29.8845C683.83 40.4633 687.51 54.4917 684.06 68.1752C680.611 81.7437 671.527 93.7025 660.258 101.752C647.724 110.836 632.431 116.01 617.023 116.585C603.684 117.16 588.736 114.17 579.422 103.821C559.874 82.5487 578.387 46.7876 600.465 35.6338C612.883 29.4245 627.372 32.1842 634.731 44.4878C641.745 56.1016 637.835 70.1301 626.222 76.9144C621.277 79.9041 614.953 81.3988 609.204 80.2489C605.179 79.444 603.454 85.6533 607.479 86.4583C621.047 89.103 635.306 82.2037 641.4 69.6701C647.494 57.1365 643.355 41.9582 632.776 33.2191C620.932 23.3302 605.064 25.17 592.645 33.2191C580.227 41.3832 570.913 54.3767 567.118 68.7502C563.439 82.4337 565.163 97.4971 574.937 108.191C585.056 119.345 601.154 123.139 615.758 122.794C647.264 122.104 680.611 102.902 689.465 71.28C693.489 56.7915 690.73 41.6131 681.761 29.5394C672.447 16.7758 658.303 8.72676 643.125 5.16215C627.027 1.25258 609.663 1.71253 593.45 4.58721C578.387 7.34691 563.554 12.8662 550.79 21.6053C526.413 38.3935 511.464 67.9453 516.754 97.7271C522.388 129.004 551.71 147.287 581.377 151.081C600.349 153.496 619.552 150.851 638.295 147.172C656.923 143.492 675.321 138.778 693.374 132.913C711.082 127.164 728.331 120.035 745.579 113.02C762.367 106.236 779.5 99.9119 797.438 97.0372C806.407 95.6573 815.491 95.3123 824.575 96.2322C827.795 96.6921 827.795 91.7477 824.69 91.4028Z" fill="#00082E"/>
<path d="M477.198 227.893C494.561 212.599 516.179 203.286 538.831 199.031C564.473 194.317 590.806 196.731 616.103 202.021C642.435 207.54 667.617 217.429 694.064 222.718C716.142 227.088 739.369 227.203 759.837 216.624C777.085 207.655 791.919 190.292 790.884 169.824C789.849 148.321 769.036 135.673 749.603 133.373C730.63 131.188 708.438 138.663 700.964 157.521C694.179 174.424 701.194 195.581 719.937 200.181C739.369 205.01 765.702 191.212 762.367 168.559C760.872 158.9 752.823 151.541 742.934 151.771C734.195 152.001 727.411 159.13 727.756 167.869C727.871 171.779 729.481 175.574 732.47 178.103C734.655 179.943 737.76 176.838 735.575 174.999C728.906 169.249 733.045 157.98 741.554 157.176C751.558 156.141 757.997 165.8 756.963 174.884C754.433 195.236 723.386 203.401 709.588 189.602C697.514 177.643 702.343 156.371 714.762 146.827C729.251 135.558 751.328 135.788 767.081 144.412C774.786 148.666 781.8 155.221 784.33 163.845C787.089 173.274 784.445 183.853 779.5 192.132C770.646 206.965 754.203 215.934 737.76 219.499C715.682 224.213 692.685 218.464 671.527 212.484C648.989 206.045 626.567 199.031 603.339 195.351C563.899 189.142 519.973 191.902 487.432 217.429C483.637 220.419 480.073 223.753 476.738 227.318C476.048 227.663 476.738 228.353 477.198 227.893Z" fill="#00082E"/>
</g>
<g style="mix-blend-mode:multiply">
<path d="M516.3 116.1L402.2 106.6C389.4 102.5 376 101.5 362.2 104.8C352.2 107.2 344.2 110.9 337.7 115.4L284 102.8C284 102.8 265.3 187.3 325.1 214.9C329.2 226.1 333 233.4 333 233.4L520.8 232.8C520.2 232.2 514.3 220.6 504.3 204.6C543.4 192.6 516.3 116.1 516.3 116.1Z" fill="#6CC4E9"/>
</g>
<path d="M373.2 81L390.1 103.7L373.2 131L347.8 109.8L353.2 86.4C353.2 86.4 368.2 88 373.2 81Z" fill="white" stroke="#272453" stroke-width="1.6443" stroke-miterlimit="10"/>
<path d="M94.5991 110.482L48.3864 145.69L98.1996 211.072L144.412 175.864L94.5991 110.482Z" fill="#F2BC1E" stroke="#272453" stroke-width="2" stroke-miterlimit="10"/>
<path d="M331.288 73.6016C333.863 72.7675 334.873 68.7693 333.546 64.6713C332.218 60.5732 329.055 57.9273 326.48 58.7613C323.906 59.5954 322.895 63.5936 324.223 67.6916C325.551 71.7897 328.714 74.4356 331.288 73.6016Z" stroke="#272453" stroke-width="2" stroke-miterlimit="10"/>
<path d="M387.283 54.5039C389.857 53.6699 390.868 49.6716 389.54 45.5736C388.213 41.4756 385.049 38.8296 382.475 39.6636C379.901 40.4977 378.89 44.4959 380.218 48.594C381.545 52.692 384.709 55.338 387.283 54.5039Z" stroke="#272453" stroke-width="2" stroke-miterlimit="10"/>
<path d="M332.4 62.2C332.4 62.2 339.3 63.4 336.3 56.6C330.8 44.1 344.1 24.8 373.4 26.2C402.7 27.6 360.8 -9.09997 336 12.4C311.2 33.9 316 44 324.8 60.2C324.7 60.2 330.8 56.7 332.4 62.2Z" fill="#272453"/>
<path d="M382.5 39.8C382.5 39.8 382.7 28.6 378 26C373.3 23.4 361.4 24.1 360.1 26C358.8 27.9 370.4 33.4 370.4 33.4L378 44L382.5 39.8Z" fill="#272453"/>
<path d="M345.6 57C346.76 57 347.7 55.5226 347.7 53.7C347.7 51.8775 346.76 50.4 345.6 50.4C344.44 50.4 343.5 51.8775 343.5 53.7C343.5 55.5226 344.44 57 345.6 57Z" fill="#272453"/>
<path d="M360 53.7C361.16 53.7 362.1 52.2226 362.1 50.4C362.1 48.5775 361.16 47.1 360 47.1C358.84 47.1 357.9 48.5775 357.9 50.4C357.9 52.2226 358.84 53.7 360 53.7Z" fill="#272453"/>
<path d="M350.7 63.9C350.7 63.9 348.5 70 352.1 69.1" stroke="#272453" stroke-width="2" stroke-miterlimit="10"/>
<path d="M360 75.6C360 75.6 372.3 73.1 371.3 69.2" stroke="#272453" stroke-width="2" stroke-miterlimit="10"/>
<path d="M382.5 47.9C382.5 47.9 380.6 42.1 384 41.9" stroke="#272453" stroke-miterlimit="10"/>
<path d="M326.3 63.9C326.3 63.9 327.9 60 330.9 65.1" stroke="#272453" stroke-miterlimit="10"/>
<path d="M63.4 150.5L95.1 126.9" stroke="#272453" stroke-width="2" stroke-miterlimit="10"/>
<path d="M71 160.1L102.6 136.4" stroke="#272453" stroke-width="2" stroke-miterlimit="10"/>
<path d="M79.2 170.9L110.9 147.3" stroke="#272453" stroke-width="2" stroke-miterlimit="10"/>
<path d="M88.2 182.7L119.9 159.1" stroke="#272453" stroke-width="2" stroke-miterlimit="10"/>
<path d="M227.7 96.7001L218.8 116.1" stroke="#272453" stroke-width="2" stroke-miterlimit="10"/>
<path d="M356.7 41.8C356.7 41.8 358.5 36.5 365.9 39.2" stroke="#272453" stroke-width="2" stroke-miterlimit="10"/>
<path d="M338.9 46.6C338.9 46.6 340.7 41.3 348.1 44" stroke="#272453" stroke-width="2" stroke-miterlimit="10"/>
<rect x="219" y="232" width="302" height="2" fill="#1E1559"/>
<g clip-path="url(#clip2_32_3351)">
<path d="M287.6 103L334.3 114" stroke="#272453" stroke-width="2" stroke-miterlimit="10"/>
<path d="M508.9 205.6C508.9 205.6 485.7 200.3 480.3 189.4" stroke="#272453" stroke-width="2" stroke-miterlimit="10"/>
<path d="M462.4 110.8L515.3 115.2C515.3 115.2 527.1 141.6 524.4 165.3" stroke="#272453" stroke-width="2" stroke-miterlimit="10"/>
<path d="M282 153.1C282 153.1 291.2 192.9 307.7 203.4" stroke="#272453" stroke-width="2" stroke-miterlimit="10"/>
</g>
</g>
<defs>
<clipPath id="clip0_32_3351">
<rect width="624" height="234" fill="white"/>
</clipPath>
<clipPath id="clip1_32_3351">
<rect width="217.4" height="161.1" fill="white" transform="translate(395 73)"/>
</clipPath>
<clipPath id="clip2_32_3351">
<rect width="244.8" height="104.6" fill="white" transform="translate(281 102)"/>
</clipPath>
</defs>
</svg>
