<svg width="640" height="300" viewBox="0 0 640 300" fill="none" xmlns="http://www.w3.org/2000/svg">
<g clip-path="url(#clip0_13_81)">
<path d="M375.808 153.919C375.808 153.919 295.49 86.3492 247.043 180.808C198.597 275.266 245.073 300.996 245.073 300.996" stroke="#272453" stroke-width="2" stroke-miterlimit="10"/>
<path d="M358.655 125.755L350.079 188.109L366.073 179.301L377.895 141.633L358.655 125.755Z" fill="#272453"/>
<path d="M409.304 130.739L417.88 193.093L401.886 184.401L389.716 142.677L409.304 130.739Z" fill="#272453"/>
<path d="M344.168 179.765L373.606 134.68L392.846 139.2L410.347 177.563L395.975 208.508L344.168 179.765Z" fill="#6CC4E9" stroke="#272453" stroke-width="2.444" stroke-miterlimit="10"/>
<path d="M386.008 141.749C402.586 141.749 416.026 128.31 416.026 111.731C416.026 95.1528 402.586 81.7132 386.008 81.7132C369.429 81.7132 355.99 95.1528 355.99 111.731C355.99 128.31 369.429 141.749 386.008 141.749Z" fill="#6CC4E9" stroke="#272453" stroke-width="2" stroke-miterlimit="10"/>
<path d="M373.606 116.135C376.039 116.135 378.011 114.164 378.011 111.731C378.011 109.299 376.039 107.327 373.606 107.327C371.174 107.327 369.202 109.299 369.202 111.731C369.202 114.164 371.174 116.135 373.606 116.135Z" fill="#272453"/>
<path d="M395.627 116.135C398.06 116.135 400.032 114.164 400.032 111.731C400.032 109.299 398.06 107.327 395.627 107.327C393.195 107.327 391.223 109.299 391.223 111.731C391.223 114.164 393.195 116.135 395.627 116.135Z" fill="#272453"/>
<path d="M380.213 119.612C380.213 119.612 375.113 128.189 380.213 127.841" stroke="#272453" stroke-miterlimit="10"/>
<path d="M388.21 91.6806L415.446 117.179L415.91 104.43L404.783 88.4354L390.064 81.945H377.895L365.03 90.1739L357.728 101.532L355.99 111.731L388.21 91.6806Z" fill="#272453"/>
<path d="M388.21 133.636C388.21 133.636 393.309 133.636 395.627 130.855" stroke="#272453" stroke-miterlimit="10"/>
<path d="M397.25 90.9852C411.268 90.9852 422.632 79.6213 422.632 65.6031C422.632 51.585 411.268 40.221 397.25 40.221C383.232 40.221 371.868 51.585 371.868 65.6031C371.868 79.6213 383.232 90.9852 397.25 90.9852Z" fill="#272453"/>
<path d="M453.925 187.066L449.405 186.487C448.478 187.53 447.203 188.225 445.812 188.225C443.03 188.225 439.901 188.341 437.351 186.835C436.308 186.255 435.613 185.444 435.033 184.517L421.821 182.662L408.492 176.519L389.253 198.656L331.998 176.519L317.974 186.371C317.974 186.371 270.687 197.034 256.084 209.319C241.48 221.605 245.421 235.049 245.421 235.049L302.676 239.569L288.42 323.481H481.625V299.837L489.622 224.038L453.925 187.066Z" fill="#E72F74"/>
<mask id="mask0_13_81" style="mask-type:alpha" maskUnits="userSpaceOnUse" x="244" y="176" width="246" height="148">
<path d="M453.925 187.066L449.405 186.487C448.478 187.53 447.203 188.225 445.812 188.225C443.03 188.225 439.901 188.341 437.351 186.835C436.308 186.255 435.613 185.444 435.033 184.517L421.821 182.662L408.492 176.519L389.253 198.656L331.998 176.519L317.974 186.371C317.974 186.371 270.687 197.034 256.084 209.319C241.48 221.605 245.421 235.049 245.421 235.049L302.676 239.569L288.42 323.481H481.625V299.837L489.622 224.038L453.925 187.066Z" fill="#E72F74"/>
</mask>
<g mask="url(#mask0_13_81)">
<path d="M1526 1409H-792V-909H1526V1409Z" fill="white"/>
<path d="M-34.9412 669.442H773.114V-176.744H-34.9412V669.442ZM773.809 670.137H-35.6367V-177.439H773.809V670.137Z" fill="#1C1B2D"/>
<path d="M620.01 -173.151C607.724 -129.804 597.525 -85.8782 587.326 -42.068C588.369 -42.8793 589.296 -43.5747 590.339 -44.386C567.043 -44.9655 543.632 -44.1542 520.336 -42.2998C519.061 -42.1839 517.67 -41.3726 517.322 -39.9818C507.471 6.26225 494.606 51.5792 480.582 96.6643C479.887 98.7505 481.741 100.721 483.827 100.837C512.339 102.227 540.966 103.618 569.361 105.589C568.434 104.314 567.391 103.039 566.464 101.764C561.944 128.653 560.089 155.889 560.437 183.242C560.437 184.864 561.828 186.487 563.566 186.371C593.7 185.096 623.834 184.864 653.968 185.675C655.243 185.675 656.75 184.748 656.982 183.357C663.24 149.746 668.108 116.135 671.122 82.0608C671.469 77.6566 664.631 77.7725 664.284 82.0608C661.386 115.44 657.098 148.819 650.955 181.619C651.998 180.808 652.925 180.112 653.968 179.301C623.834 178.49 593.7 178.606 563.566 179.88C564.61 180.924 565.653 181.967 566.696 183.01C566.348 156.353 568.318 129.58 572.143 103.155C572.491 101.184 571.332 99.4459 569.246 99.33C540.734 97.9392 512.107 95.9689 483.711 93.9986C484.754 95.3894 485.798 96.7802 486.841 98.171C501.792 53.4336 513.382 7.53717 523.233 -38.591C522.19 -37.7797 521.263 -37.0843 520.22 -36.273C543.516 -38.1274 566.812 -38.8228 590.223 -38.3592C591.498 -38.3592 592.889 -39.2864 593.237 -40.6772C603.204 -84.6033 613.983 -128.414 623.487 -172.456C624.182 -174.426 620.705 -175.469 620.01 -173.151Z" fill="#1C1B2D"/>
<path d="M479.655 121.815C490.433 123.669 501.908 122.974 512.918 123.09C524.392 123.321 535.75 123.437 547.224 123.553C546.529 122.858 545.834 122.162 545.138 121.583C545.834 157.164 543.632 192.977 539.459 228.211C539.227 229.718 540.85 230.877 542.125 230.877C586.515 232.847 630.788 234.469 675.178 236.208C678.771 236.324 678.771 230.877 675.178 230.645C630.788 228.906 586.515 227.052 542.125 225.545C543.052 226.472 543.863 227.284 544.791 228.211C548.731 192.745 549.774 157.28 549.195 121.583C549.195 120.424 548.268 119.613 547.224 119.613C535.75 119.497 524.276 119.497 512.918 119.497C502.024 119.497 490.549 118.569 479.655 120.192C478.843 120.192 478.843 121.583 479.655 121.815Z" fill="#1C1B2D"/>
<path d="M476.641 121.235C475.135 172.811 475.019 224.386 475.83 275.962C476.062 290.681 476.41 305.516 476.757 320.235C477.453 319.424 478.032 318.497 478.728 317.686C444.074 323.133 409.188 325.567 374.07 324.06C372.215 323.944 370.825 326.03 371.288 327.769C380.213 360.221 386.124 393.137 390.412 426.4C390.875 430.109 396.786 430.225 396.323 426.4C392.498 392.557 385.544 359.062 376.852 326.146C375.924 327.421 374.997 328.58 374.07 329.855C409.535 331.362 445.232 329.276 480.118 322.785C481.161 322.554 482.089 321.279 482.089 320.235C480.582 268.66 480.35 217.084 480.118 165.509C480.118 150.79 480.118 135.954 480.118 121.235C480.002 119.033 476.641 119.033 476.641 121.235Z" fill="#1C1B2D"/>
<path d="M388.094 -168.399C396.323 -143.944 404.32 -119.373 412.896 -95.1502C421.473 -71.043 430.629 -47.1676 440.017 -23.4081C444.769 -11.3545 449.753 0.699079 454.736 12.7527C457.17 18.5477 459.72 24.3427 462.038 30.1377C463.081 32.9193 464.124 35.7009 463.892 38.7143C463.661 41.9595 462.386 44.9729 461.227 47.8704C451.375 72.2094 441.176 96.3166 430.861 120.424C419.155 147.544 407.333 174.665 395.164 201.554C396.67 201.322 398.061 201.206 399.568 200.974C391.339 191.702 384.153 181.619 375.461 172.695C367.579 164.698 359.119 157.396 350.426 150.442C333.041 136.534 314.613 124.017 297.46 109.761C287.724 101.648 278.336 93.0714 269.992 83.5676C266.862 79.9747 261.647 85.1902 264.776 88.7831C294.678 122.278 335.243 143.372 367.232 174.433C377.199 184.053 386.239 194.6 395.511 204.915C396.67 206.19 399.22 205.958 399.916 204.335C421.589 155.889 442.335 106.979 462.502 57.8378C464.82 52.2746 467.949 46.4796 468.76 40.4528C469.572 34.6578 467.254 29.4423 464.936 24.2268C459.72 12.0573 454.736 -0.228107 449.753 -12.5135C439.901 -36.8525 430.513 -61.3074 421.473 -85.9941C411.274 -113.694 401.19 -141.51 392.614 -169.79C391.571 -172.456 387.051 -171.181 388.094 -168.399Z" fill="#1C1B2D"/>
<path d="M261.067 87.3923C268.369 142.561 276.83 197.265 289.115 251.507C292.592 266.921 296.301 282.22 300.242 297.519C300.589 298.794 302.096 299.837 303.487 299.373C329.448 288.479 355.642 278.396 382.067 269.008C395.28 264.256 408.608 259.736 421.937 255.447C428.659 253.245 435.265 251.159 441.987 249.073C445.117 248.146 448.246 247.103 451.491 246.175C452.534 245.828 454.852 244.9 455.895 245.828C457.17 246.871 457.054 250.232 457.17 251.507C459.141 267.617 461.111 283.727 463.197 299.837C463.777 299.026 464.472 298.214 465.051 297.403C417.532 305.98 369.202 309.109 320.988 306.791C321.683 307.255 322.494 307.718 323.306 308.066C318.786 301.807 346.486 296.128 349.847 295.201C361.785 291.84 373.838 288.595 385.776 285.234C397.482 281.988 409.304 278.743 421.009 275.498C423.791 274.687 426.689 273.991 429.47 273.18C432.136 272.485 435.613 270.862 438.279 270.746C441.06 270.63 440.944 271.557 441.408 273.412C441.871 275.15 442.103 276.889 442.567 278.627C443.262 281.641 443.842 284.654 444.421 287.783C444.885 286.856 445.464 285.929 445.928 285.002C417.069 290.449 388.21 295.549 359.003 298.91C359.235 300.416 359.466 301.923 359.582 303.43C384.037 297.171 408.26 289.522 432.136 281.409C434.222 280.713 433.295 277.468 431.209 278.164C407.101 285.929 382.878 292.767 358.308 299.026C355.874 299.605 356.337 303.778 358.887 303.546C388.326 300.301 417.996 296.012 446.971 289.406C448.13 289.174 448.825 287.783 448.478 286.624C447.319 281.641 446.739 276.309 445.348 271.442C444.305 267.733 441.871 265.762 437.931 266.226C433.295 266.806 428.543 268.66 424.139 269.935C418.46 271.442 412.78 273.064 407.217 274.571C386.355 280.366 365.377 286.045 344.515 291.84C339.3 293.231 333.969 294.621 328.753 296.012C325.044 297.055 321.451 298.91 319.017 302.039C317.395 304.125 316.584 306.907 317.743 309.457C319.713 313.745 326.203 312.354 330.144 312.47C351.469 313.166 372.795 312.818 394.121 311.427C418.344 309.804 442.451 306.791 466.21 302.387C467.138 302.155 468.297 300.996 468.065 299.953C466.094 284.306 464.124 268.66 462.154 253.013C461.574 248.377 461.574 241.655 455.664 240.612C452.882 240.149 449.984 241.423 447.319 242.235C443.494 243.394 439.785 244.553 435.961 245.712C406.87 254.752 378.011 264.719 349.383 275.614C333.389 281.641 317.511 288.015 301.632 294.622C302.675 295.201 303.719 295.78 304.878 296.476C291.201 243.046 279.959 189.037 271.267 134.68C268.717 119.033 266.399 103.387 264.544 87.74C264.544 84.9584 260.72 84.9584 261.067 87.3923Z" fill="#1C1B2D"/>
<path d="M215.055 -168.978C219.112 -138.033 223.748 -107.088 227.688 -76.1426C231.629 -45.545 235.106 -14.9474 238.235 15.6502C240.09 33.267 241.712 50.7679 243.335 68.3847C243.682 67.6893 244.146 66.9939 244.494 66.4144C194.541 93.9986 144.704 121.815 94.8668 149.399C93.7078 149.978 93.3601 151.369 93.5919 152.528C103.212 196.57 113.99 240.38 126.276 283.843C129.753 296.128 133.346 308.414 136.939 320.699C137.402 322.438 139.836 323.712 141.459 322.553C160.698 308.877 179.706 295.201 199.409 282.104C218.996 269.123 238.931 256.49 258.981 244.089C260.256 243.278 260.604 241.771 259.908 240.38C250.752 221.952 248.087 201.206 245.073 181.155C241.712 159.366 238.467 137.693 234.758 116.02C234.41 114.049 231.977 113.586 230.47 114.281C195.584 130.275 160.814 146.965 126.971 165.277C126.16 165.741 125.58 167.016 125.928 167.943C139.488 202.829 150.846 238.642 160.814 274.803C161.162 276.309 163.132 277.237 164.523 276.309C187.471 259.967 210.187 243.51 233.136 227.284C233.947 226.704 234.526 225.661 234.295 224.502C225.95 198.309 218.648 171.767 211.578 145.226C211.115 143.604 209.376 143.14 207.869 143.72C196.859 148.819 185.732 153.803 174.606 158.671C168.811 161.221 163.016 163.77 157.337 166.32C153.744 167.943 148.992 169.334 149.572 174.317C149.919 176.751 151.31 179.185 152.121 181.503C153.164 184.401 154.208 187.298 155.251 190.196C157.337 195.759 159.655 201.322 161.973 206.769C166.609 217.78 171.477 228.674 176.46 239.453C177.04 240.612 178.894 241.076 179.937 240.38C187.471 235.628 194.889 230.761 202.306 225.893C207.29 222.648 216.33 219.055 216.098 211.869C215.982 208.044 214.36 204.104 213.201 200.511C211.926 196.686 210.651 192.861 209.26 189.037C206.247 181.04 202.77 173.274 199.061 165.625C198.597 164.698 197.207 164.118 196.279 164.466C186.08 168.059 175.881 171.999 165.798 175.708C164.407 176.172 163.943 177.562 164.523 178.837C170.55 191.586 175.997 204.683 181.908 217.548C182.487 218.707 183.994 218.823 185.037 218.359C190.948 215.346 196.859 212.448 202.77 209.435C203.813 208.971 204.276 207.233 203.581 206.306C198.945 199.584 200.104 190.427 195.236 183.821C191.527 178.837 184.689 175.013 178.778 178.953C177.967 179.533 177.388 180.46 177.735 181.503C179.474 186.95 181.328 192.398 183.067 197.845C183.878 200.395 187.935 199.352 187.123 196.686C185.385 191.239 183.762 185.676 182.024 180.228C181.676 181.04 181.328 181.967 180.981 182.778C186.891 179.069 192.339 186.835 193.73 191.702C195.468 197.497 196.048 203.408 199.525 208.508C199.756 207.465 200.104 206.422 200.336 205.379C194.425 208.392 188.514 211.289 182.603 214.303C183.646 214.535 184.689 214.882 185.732 215.114C179.937 202.249 173.795 189.5 168.232 176.519C167.768 177.562 167.42 178.606 166.957 179.649C177.156 176.172 187.471 172.695 197.67 169.102C196.743 168.754 195.816 168.406 194.889 167.943C201.495 181.04 207.174 194.832 210.883 208.971C211.346 210.942 211.81 212.796 210.419 214.419C209.492 215.578 207.985 216.273 206.826 217.084C203.697 219.171 200.452 221.141 197.207 223.111C190.6 227.284 184.11 231.456 177.619 235.744C178.778 236.092 179.937 236.324 181.096 236.672C176.576 227.052 172.288 217.432 168 207.697C163.596 197.497 158.959 187.414 155.019 177.099C154.439 175.476 153.86 174.665 154.555 173.042C155.251 171.42 156.294 171.304 157.916 170.609C160.466 169.565 162.9 168.522 165.334 167.363C170.318 165.161 175.301 162.959 180.169 160.873C190.253 156.469 200.452 152.065 210.651 147.776C209.376 147.313 208.217 146.733 206.942 146.27C213.433 173.042 221.314 199.352 229.89 225.545C230.238 224.618 230.586 223.691 231.049 222.879C208.217 239.337 185.153 255.447 162.321 271.789C163.596 272.253 164.754 272.832 166.029 273.296C155.946 237.135 143.893 201.67 130.796 166.552C130.448 167.479 130.1 168.291 129.753 169.218C163.943 151.369 198.365 134.332 233.831 119.265C232.44 118.685 231.049 118.106 229.543 117.526C232.788 139.779 236.381 161.916 239.974 184.053C243.219 204.219 246.464 224.618 255.736 243.162C256.084 241.887 256.431 240.728 256.663 239.453C236.613 251.854 216.794 264.488 197.091 277.468C177.504 290.449 157.801 303.546 138.677 317.106C140.184 317.686 141.69 318.381 143.197 318.961C130.332 275.73 118.626 232.151 108.079 188.341C105.066 175.94 102.168 163.423 99.3869 151.021C98.9233 152.064 98.5756 153.108 98.112 154.151C147.833 126.219 197.554 98.2869 247.275 70.355C247.971 70.0073 248.55 69.0801 248.434 68.3847C242.408 6.3782 235.106 -55.3965 226.297 -117.055C223.748 -134.556 221.198 -152.057 218.184 -169.442C217.373 -170.717 214.823 -170.369 215.055 -168.978Z" fill="#1C1B2D"/>
<path d="M205.435 275.498C205.899 320.815 207.985 366.016 210.187 411.333C210.883 410.405 211.578 409.594 212.274 408.667C198.134 413.883 183.878 419.098 169.854 424.429C162.9 427.095 155.946 429.645 148.992 432.311C145.631 433.586 142.27 434.86 138.909 436.135C135.548 437.41 131.839 438.453 128.71 440.192C122.799 443.437 124.769 450.623 125.349 456.186C126.044 463.604 126.739 471.137 127.551 478.555C128.941 493.506 130.448 508.341 131.839 523.292C133.461 540.445 135.084 557.599 136.823 574.868C137.054 576.838 138.677 578.692 140.879 577.997C183.183 564.9 225.254 550.876 266.978 535.809C277.525 531.985 287.956 528.16 298.503 524.219C303.487 522.365 308.586 520.395 313.57 518.54C317.627 517.033 323.074 515.875 326.087 512.398C328.985 509.152 328.405 504.864 327.478 501.039C326.203 495.94 324.696 490.956 323.306 485.856C320.292 475.425 317.163 464.994 313.802 454.563C306.384 431.268 298.039 408.319 288.883 385.603C288.188 383.749 286.218 382.59 284.247 383.749C239.974 409.015 194.773 432.774 148.76 454.911C147.601 455.491 147.138 456.997 147.37 458.272C153.86 486.899 161.046 515.411 169.275 543.575C169.854 545.545 171.94 546.24 173.679 545.429C217.141 524.451 260.604 503.705 304.182 482.843C305.225 482.379 306.037 480.641 305.573 479.482C297.576 459.199 290.042 438.569 281.466 418.519C280.77 417.012 278.684 416.78 277.525 417.475C244.378 434.513 210.535 450.159 176.924 466.038C175.997 466.501 175.533 467.892 175.765 468.819C180.517 484.234 186.544 499.069 193.845 513.441C194.541 514.716 196.279 515.063 197.438 514.368C223.632 499.648 250.636 486.552 278.337 475.078C279.727 474.498 280.77 473.223 280.307 471.601C277.409 461.981 273.237 452.477 267.79 444.017C266.862 442.626 265.356 442.278 263.849 442.973C241.596 453.404 218.996 462.792 196.511 472.644C193.266 474.035 196.047 478.786 199.293 477.396C221.545 467.66 243.567 457.461 266.051 448.189C265.008 447.725 263.849 447.262 262.806 446.914C267.79 455.259 271.962 463.835 274.744 473.107C275.439 471.948 276.134 470.789 276.714 469.63C248.55 481.22 221.082 494.665 194.657 509.848C195.816 510.195 197.091 510.543 198.25 510.775C191.064 496.867 185.153 482.379 180.401 467.428C180.053 468.355 179.59 469.283 179.242 470.21C212.737 453.984 246.232 437.526 280.191 422.343C278.8 421.764 277.293 421.184 275.903 420.605C283.204 440.887 291.665 460.822 299.662 480.873C300.126 479.714 300.589 478.671 301.053 477.512C257.59 498.374 214.012 519.236 170.55 539.982C172.056 540.561 173.447 541.141 174.954 541.836C166.725 513.672 159.307 485.277 152.933 456.534C152.469 457.693 152.005 458.736 151.542 459.895C197.554 437.874 242.871 414.23 287.145 389.08C285.638 388.5 284.016 387.805 282.509 387.226C290.274 406.465 297.46 425.936 304.066 445.523C307.312 455.259 310.441 464.994 313.338 474.846C314.729 479.482 316.12 484.002 317.395 488.638C318.902 493.854 320.988 499.301 321.799 504.748C322.61 509.964 315.424 511.007 311.716 512.398C306.732 514.252 301.632 516.222 296.649 518.077C286.565 521.785 276.482 525.494 266.399 529.203C246.58 536.389 226.761 543.227 206.826 549.949C184.342 557.483 161.741 564.668 139.025 571.622C140.415 572.666 141.69 573.709 143.081 574.752C140.415 546.24 137.518 517.845 134.852 489.333C134.157 482.379 133.462 475.31 132.766 468.356C132.418 464.994 132.071 461.517 131.723 458.156C131.375 455.027 130.332 450.855 130.68 447.725C131.143 444.712 135.895 444.017 138.445 442.973C142.038 441.583 145.631 440.192 149.224 438.917C155.714 436.367 162.321 433.933 168.811 431.383C183.762 425.704 198.713 419.909 213.664 413.998C214.707 413.535 215.751 412.608 215.751 411.333C212.621 366.132 210.883 320.815 209.028 275.498C208.912 273.18 205.435 273.18 205.435 275.498Z" fill="#1C1B2D"/>
<path d="M392.498 203.292C386.008 206.422 380.097 210.71 374.07 214.65C368.043 218.591 361.9 222.532 355.874 226.472C343.82 234.354 331.766 242.467 319.365 249.884C320.524 250.348 321.683 250.811 322.726 251.275C320.061 233.89 317.047 216.621 313.454 199.468C311.6 191.007 309.745 182.546 307.659 174.201C305.573 165.625 303.95 156.701 300.821 148.472C300.242 149.515 299.662 150.442 299.083 151.485C304.762 149.631 310.673 148.472 316.468 146.733C315.772 146.501 315.077 146.385 314.381 146.154C323.537 154.498 331.882 163.654 340.575 172.463C349.151 181.387 357.728 190.311 366.421 199.12C366.768 199.468 367.464 200.395 367.811 200.627C369.666 201.322 367.232 200.742 368.159 200.163C366.884 200.974 365.609 201.902 364.334 202.713C361.785 204.451 359.235 206.19 356.685 207.928C354.251 209.551 351.933 211.174 349.499 212.796C347.529 214.071 343.009 218.243 340.807 217.316C338.605 216.389 337.33 212.333 336.171 210.246C334.664 207.465 333.157 204.799 331.651 202.133C328.869 197.15 324.697 191.586 323.538 185.907C323.074 183.473 323.538 180.112 326.319 179.301C329.101 178.49 330.723 182.546 332.114 184.401C336.402 190.312 340.459 196.454 344.515 202.481C346.138 204.915 350.079 202.597 348.456 200.163C343.588 193.209 338.72 186.371 334.084 179.301C332.694 177.099 331.535 174.897 328.869 174.317C326.551 173.738 324.117 174.433 322.263 175.708C316.931 179.185 317.047 185.444 319.249 190.775C322.147 197.729 326.435 204.219 330.144 210.71C332.694 215.114 335.475 224.27 342.082 223.111C345.443 222.532 348.34 219.866 351.006 218.012C354.483 215.694 357.96 213.26 361.437 210.826C364.45 208.74 367.811 206.769 370.709 204.335C372.331 202.945 373.722 201.322 372.563 199.12C371.172 196.454 368.043 194.252 365.841 192.166C362.712 188.921 359.467 185.791 356.337 182.662C343.356 169.681 329.564 157.048 317.511 143.256C317.047 142.677 316.12 142.561 315.425 142.677C309.514 143.952 303.835 145.69 297.924 146.849C296.533 147.081 296.069 148.587 296.185 149.862C297.576 158.555 300.358 167.132 302.444 175.708C304.53 184.169 306.384 192.514 308.239 200.974C311.948 218.128 315.425 235.281 318.322 252.55C318.554 253.941 320.64 254.752 321.683 253.941C333.505 245.248 345.906 237.251 358.076 228.906C364.103 224.85 370.013 220.793 376.04 216.737C381.951 212.796 387.978 209.087 393.309 204.451C393.889 203.872 393.078 202.945 392.498 203.292Z" fill="#1C1B2D"/>
<path d="M303.139 298.214C303.255 298.214 303.255 297.983 303.139 297.983C303.023 297.983 303.023 298.214 303.139 298.214Z" fill="#1C1B2D"/>
<path d="M302.328 295.665C278.568 304.357 255.041 313.861 231.745 323.597C231.049 323.828 230.354 324.408 230.47 325.219C232.092 345.618 235.338 365.784 240.437 385.603C240.669 386.646 242.06 387.573 243.103 387.11C273.353 374.708 303.371 362.191 333.505 349.558C335.012 348.979 336.055 347.356 335.012 345.733C328.289 334.143 321.915 322.206 316.004 310.152C315.424 308.993 314.034 308.645 312.875 308.877C289.811 313.629 267.21 321.163 245.537 330.319C244.61 330.666 244.03 332.173 244.378 333.1C246.812 339.707 249.593 346.313 252.491 352.803C253.534 355.005 254.461 358.482 256.779 359.757C259.445 361.264 262.574 359.641 265.24 358.83C280.075 353.615 295.026 348.399 309.977 343.184C312.063 342.372 312.527 339.707 310.557 338.432C305.921 335.418 306.964 327.885 302.096 324.756C298.851 322.669 295.026 323.249 291.549 324.292C287.029 325.683 282.625 327.421 278.105 328.928C272.773 330.782 263.154 332.405 261.531 339.011C260.488 343.531 265.703 349.21 270.108 346.081C272.31 344.574 270.339 341.097 268.021 342.488C266.631 343.3 266.167 340.982 266.283 340.286C266.515 339.127 267.674 338.316 268.717 337.736C270.571 336.693 272.889 336.114 274.859 335.418C280.654 333.448 286.449 331.478 292.244 329.623C294.678 328.812 297.808 327.885 299.778 329.971C300.937 331.246 301.516 333.1 302.096 334.723C303.371 337.968 304.646 340.981 307.775 342.952C308.007 341.329 308.239 339.823 308.355 338.2C295.837 342.836 283.32 347.472 270.803 352.108C267.905 353.151 265.008 354.31 261.995 355.353C260.024 356.049 259.329 356.512 257.938 354.774C257.011 353.615 256.431 351.644 255.736 350.254C252.954 344.343 250.752 338.316 248.898 331.941C248.55 332.868 248.202 333.796 247.739 334.723C269.18 325.683 291.317 319.076 314.034 314.325C312.991 313.861 311.947 313.513 310.904 313.05C316.931 325.103 323.306 336.809 330.144 348.399C330.491 347.24 330.723 346.081 331.071 344.806C301.053 357.555 270.919 370.304 241.017 383.169C242.06 383.633 243.103 383.98 244.146 384.444C238.815 365.089 235.106 345.27 233.599 325.219C233.135 325.799 232.788 326.378 232.324 326.842C255.852 317.106 279.495 307.486 302.907 297.519C304.298 297.171 303.487 295.317 302.328 295.665Z" fill="#1C1B2D"/>
<path d="M410.81 213.955C415.33 204.567 418.576 194.484 422.168 184.748C425.877 174.665 429.934 164.582 433.99 154.614C442.103 134.448 451.259 114.513 460.531 94.8099C459.604 94.9258 458.561 95.0417 457.634 95.1576C464.472 101.996 466.21 111.036 466.21 120.424C466.21 130.623 464.588 140.938 463.429 151.021C462.154 162.727 460.879 174.433 459.72 186.139C459.141 192.166 458.445 198.309 457.866 204.451C457.634 207.117 457.634 209.899 456.938 212.448C456.127 215.694 452.998 216.853 450.332 218.243C438.395 224.386 426.457 230.529 414.635 236.672C415.678 237.483 416.721 238.294 417.764 239.105C419.271 231.108 422.516 223.459 425.298 215.81C428.311 207.812 431.209 199.699 434.106 191.702C439.901 175.824 445.696 159.946 451.143 143.952C450.1 143.952 449.173 143.952 448.13 143.952C450.912 156.816 450.216 169.913 448.246 182.894C447.319 188.921 446.16 194.832 445.001 200.858C444.305 204.219 442.683 213.607 437.467 212.101C434.57 211.289 433.179 216.041 436.192 216.737C441.408 217.896 444.769 214.187 446.739 209.783C449.521 203.524 450.1 195.875 451.143 189.153C453.461 173.97 454.505 158.439 451.259 143.256C450.912 141.634 448.71 141.981 448.246 143.256C442.103 159.019 436.076 174.897 430.166 190.775C427.268 198.656 424.371 206.422 421.473 214.303C418.576 222.184 415.214 229.949 413.592 238.178C413.244 240.033 414.983 241.539 416.721 240.612C428.427 234.585 440.249 228.558 451.955 222.532C456.243 220.33 460.3 218.359 461.343 213.26C462.502 207.349 462.618 201.09 463.197 195.063C464.472 181.967 465.747 168.87 467.022 155.889C468.065 144.531 469.687 132.941 469.687 121.583C469.572 111.268 467.717 100.373 460.3 92.7237C459.488 91.9124 457.982 92.0283 457.402 93.0714C447.319 112.079 438.394 131.666 430.281 151.717C426.225 161.684 422.4 171.768 418.807 181.967C415.214 192.282 411.39 202.829 409.419 213.492C409.188 214.071 410.463 214.766 410.81 213.955Z" fill="#1C1B2D"/>
<path d="M328.289 261.822C338.373 255.911 348.34 250 358.423 244.205C363.407 241.308 368.507 238.294 373.49 235.397C376.04 233.89 378.474 232.499 381.024 230.992C383.342 229.602 384.849 228.327 387.63 230.297C388.557 230.877 389.253 232.151 389.948 232.847C390.76 233.774 391.687 234.585 392.382 235.628C393.309 236.324 393.773 237.367 393.541 238.642C393.193 238.874 392.846 239.221 392.382 239.453C390.528 241.192 386.703 242.235 384.385 243.278C379.17 245.712 373.954 248.146 368.739 250.464C363.291 252.898 357.728 255.216 352.165 257.534C347.181 259.62 341.618 261.126 336.982 263.792C335.128 264.835 336.402 267.617 338.373 267.153C344.863 265.762 351.354 262.285 357.38 259.736C363.871 256.954 370.361 254.057 376.736 251.159C379.981 249.652 383.11 248.146 386.355 246.639C389.253 245.248 392.498 244.089 395.048 242.235C399.568 238.989 396.67 235.397 393.657 232.499C390.296 229.254 387.398 225.197 382.415 227.747C376.156 230.992 370.245 235.049 364.218 238.642C351.933 245.944 339.648 253.361 327.246 260.663C326.783 261.011 327.478 262.285 328.289 261.822Z" fill="#1C1B2D"/>
<path d="M218.068 282.8C218.996 292.999 221.43 302.85 225.254 312.238C225.718 313.513 226.993 314.093 228.268 313.513C243.451 306.212 258.17 298.33 272.541 289.522C278.336 286.045 281.698 281.988 281.929 275.034C282.161 267.037 280.77 258.693 279.38 250.811C279.148 249.305 276.946 248.493 275.671 249.305C265.935 255.795 255.852 261.822 245.884 267.965C235.917 273.991 226.066 280.482 215.75 285.929C213.432 287.204 215.635 290.913 217.837 289.522C227.572 283.032 237.887 277.352 247.855 271.326C257.822 265.299 267.905 259.272 278.221 253.709C276.946 253.245 275.787 252.666 274.512 252.202C275.787 259.388 277.062 266.69 277.177 273.991C277.177 277.584 276.598 280.829 273.7 283.263C271.035 285.581 267.558 287.204 264.544 289.058C252.027 296.592 239.278 303.662 226.066 310.036C227.109 310.384 228.036 310.848 229.079 311.195C225.254 302.155 222.82 292.651 221.777 282.8C221.545 280.482 217.837 280.366 218.068 282.8Z" fill="#1C1B2D"/>
</g>
<g style="mix-blend-mode:multiply">
<path d="M453.925 187.066L449.405 186.487C448.478 187.53 447.203 188.225 445.812 188.225C443.03 188.225 439.901 188.341 437.351 186.835C436.308 186.255 435.613 185.444 435.033 184.517L421.821 182.662L408.492 176.519L389.253 198.656L331.998 176.519L317.974 186.371C317.974 186.371 270.687 197.034 256.084 209.319C241.48 221.605 245.421 235.049 245.421 235.049L302.676 239.569L288.42 323.481H481.625V299.837L489.622 224.038L453.925 187.066Z" fill="#E72F74"/>
</g>
<path d="M250.057 235.281C251.795 231.572 299.546 231.224 311.484 241.887C323.422 252.55 304.878 307.718 304.878 307.718L326.783 286.393L328.058 260.663L369.782 241.308L399.684 242.814L408.956 253.593L390.759 275.498" fill="#6CC4E9"/>
<path d="M302.907 310.732L303.95 307.602C304.182 307.023 322.378 252.55 310.788 242.235C301.748 234.238 271.267 232.615 257.359 234.006C252.607 234.469 251.1 235.165 250.984 235.513L249.13 235.165C249.593 234.122 252.259 233.31 257.011 232.847C271.614 231.34 302.675 233.079 312.295 241.539C322.842 250.927 310.557 292.883 306.732 304.821L325.855 286.277L327.246 260.431L369.666 240.728L400.379 242.235L410.115 253.593L391.571 275.73L389.948 275.15L408.144 253.593L399.336 243.394L370.361 242.003L329.217 261.011L327.942 286.624L302.907 310.732Z" fill="#272453"/>
<path d="M250.057 235.281C250.057 235.281 214.36 307.718 225.718 333.1C237.076 358.482 290.274 378.533 313.57 358.83C336.866 339.243 363.523 297.055 363.523 297.055L402.813 265.994" fill="#6CC4E9"/>
<path d="M288.304 367.986C285.87 367.986 283.32 367.87 280.77 367.523C256.2 364.741 231.281 349.79 223.979 333.448C212.621 308.066 246.928 237.946 248.318 234.933L251.911 235.628C251.564 236.324 216.562 308.066 227.572 332.868C234.526 348.399 258.17 362.655 281.466 365.32C290.39 366.364 303.023 365.9 312.063 358.251C334.896 339.011 361.437 297.171 361.785 296.708L362.016 296.36L401.306 265.299L404.32 266.69L365.262 297.635C363.407 300.532 337.677 340.634 315.193 359.525C308.47 365.089 299.199 367.986 288.304 367.986Z" fill="#272453"/>
<path d="M274.975 196.802L284.247 191.007L372.1 201.67L374.07 207.349" fill="white"/>
<path d="M373.143 207.465L371.288 202.133L284.595 191.702L275.671 197.266L274.28 196.454L283.9 190.427H284.479L372.911 201.206L374.997 207.233L373.143 207.465Z" fill="#272453"/>
<path d="M314.497 268.892C314.497 268.892 311.832 282.684 310.093 287.204C308.355 291.724 306.5 297.171 306.5 297.171L325.624 282.104L327.826 270.978C327.71 270.978 317.047 268.196 314.497 268.892Z" fill="#E72F74"/>
<path d="M479.887 270.398L489.854 276.309L505.153 244.321L487.304 221.257L479.887 270.398Z" fill="#E72F74"/>
<path d="M489.854 276.309C489.854 276.309 493.215 318.845 527.753 326.61C562.291 334.375 626.848 318.381 593.584 285.697C560.321 253.013 497.735 199.236 497.735 199.236L489.738 176.519L458.445 164.234L439.785 176.519L443.494 193.557L462.386 214.998L483.711 224.386L492.404 266.342L489.854 276.309Z" fill="#6CC4E9"/>
<path d="M546.877 329.623C539.691 329.623 532.853 328.928 527.058 327.653C491.708 319.656 488 278.048 487.884 276.309V276.193L490.549 266.226L482.089 224.85L461.111 215.578L441.755 193.788L437.931 175.94L458.213 162.495L491.477 175.592L499.59 198.656C503.762 202.249 563.335 253.593 595.207 285.002C607.377 296.939 607.84 308.298 596.482 316.874C585.24 325.451 564.957 329.623 546.877 329.623ZM491.708 276.309C491.94 278.743 496.228 318.265 528.333 325.451C547.34 329.739 578.749 326.61 593.469 315.483C603.9 307.602 603.32 297.519 591.962 286.277C559.162 253.941 496.808 200.395 496.228 199.931L495.997 199.699L488.115 177.215L458.793 165.625L441.871 176.867L445.348 193.209L463.892 214.187L485.45 223.691L494.258 266.342L491.708 276.309Z" fill="#272453"/>
<path d="M473.164 196.802L463.892 191.007L376.04 201.67L374.07 207.349" fill="white"/>
<path d="M374.997 207.465L373.143 207.233L375.229 201.206L464.24 190.427L473.86 196.454L472.469 197.265L463.545 191.702L376.852 202.133L374.997 207.465Z" fill="#272453"/>
<path d="M379.517 204.451L374.07 206.653L367.348 204.567L273.7 195.991L282.393 263.444L327.478 270.862C327.478 270.63 327.362 270.514 327.362 270.282C327.246 267.849 326.899 264.951 328.173 262.517C328.405 260.547 330.607 258.808 333.621 258.229C333.737 258.229 333.968 258.229 334.084 258.113C334.548 257.881 335.127 257.765 335.591 257.649C337.445 256.374 339.879 255.447 342.313 254.752C344.399 252.782 348.108 251.738 351.469 250.464C351.585 250.348 351.817 250.348 351.933 250.232C353.556 248.609 356.337 247.218 359.003 246.175C362.016 244.9 364.798 243.278 367.811 242.235C368.159 242.003 368.623 241.887 368.97 241.655C369.782 241.307 370.593 241.192 371.52 241.076C373.722 240.844 375.345 240.844 377.431 241.076C378.126 241.192 378.822 241.192 379.401 241.423C380.908 241.192 382.646 241.192 384.385 241.307C386.471 241.423 388.557 241.539 390.644 241.539C391.918 241.539 393.309 241.655 394.584 241.887C395.048 241.887 395.627 241.887 396.091 241.887C398.872 242.119 401.422 243.394 402.349 245.132C403.161 245.712 403.856 246.291 404.32 247.102C404.899 247.914 405.131 248.841 405.131 249.768C406.754 250.348 408.029 251.275 408.492 252.434C409.535 255.215 406.985 258.924 403.045 261.01C402.349 261.938 401.538 262.749 400.611 263.56C400.263 263.792 400.031 264.024 399.684 264.256C399.452 264.603 399.104 264.951 398.872 265.415C397.482 267.269 396.554 269.008 394.236 270.63C394.121 270.746 394.005 270.746 393.773 270.862C393.773 270.862 393.773 270.978 393.657 270.978C393.425 271.905 392.73 272.6 392.034 273.064C392.034 273.528 392.034 274.107 391.918 274.571L474.207 265.415V195.875L379.517 204.451Z" fill="#272453"/>
<path d="M390.528 276.541L388.905 275.962L409.188 254.056L399.684 242.93L371.057 241.539L329.101 261.01L328.637 270.978H326.783L327.246 260.431L370.477 240.38L400.843 241.887L411.274 254.056L390.528 276.541Z" fill="#272453"/>
<path d="M362.248 259.388L359.351 257.881L383.226 240.612L386.124 242.119L362.248 259.388Z" fill="#272453"/>
<path d="M382.646 261.126L380.097 259.388L403.393 246.291L405.942 248.03L382.646 261.126Z" fill="#272453"/>
<path d="M394.121 266.574L391.918 264.719L402.349 260.199L404.436 262.054L394.121 266.574Z" fill="#272453"/>
<path d="M300.357 304.009L303.487 297.751C303.603 297.519 315.193 274.107 311.252 266.69L314.845 265.994C317.858 271.673 313.106 284.886 309.861 292.535L322.726 282.104L325.508 270.862L329.217 271.21L326.319 283.031L300.357 304.009Z" fill="#272453"/>
<path d="M440.249 178.142L456.243 172.811L468.528 175.476" fill="#6CC4E9"/>
<path d="M441.176 179.185L439.438 177.099L456.011 171.536L469.224 174.317L467.949 176.519L456.359 173.97L441.176 179.185Z" fill="#272453"/>
<path d="M443.61 186.834L457.866 182.198L474.555 185.675" fill="#6CC4E9"/>
<path d="M444.537 187.878L442.683 185.791L457.75 180.924L475.135 184.632L473.86 186.834L458.097 183.473L444.537 187.878Z" fill="#272453"/>
<path d="M441.64 189.152L431.556 186.255L438.163 176.056L441.64 176.867L436.308 185.096L443.262 187.066L441.64 189.152Z" fill="#272453"/>
<path d="M440.249 187.53L431.325 191.934L433.99 194.6L443.61 193.441L442.335 187.53" fill="#272453"/>
<path d="M480.003 172.579L521.379 158.671L527.406 159.482V164.118L489.854 176.404L480.003 172.579Z" fill="#272453"/>
<path d="M383.574 197.729L332.462 177.91L321.335 185.791L304.53 191.007L302.791 188.921L319.017 183.937L331.766 174.897L385.66 195.759L383.574 197.729Z" fill="#272453"/>
<path d="M243.335 233.079C243.219 232.499 240.09 217.78 260.952 204.335L263.733 205.958C244.146 218.591 247.044 232.731 247.044 232.847L243.335 233.079Z" fill="#272453"/>
<path d="M483.711 321.626H479.887C479.887 320.351 481.162 251.623 481.162 248.725H484.986C484.986 249.536 483.711 320.467 483.711 321.626Z" fill="#272453"/>
<path d="M394.7 194.832L391.339 193.789L408.029 173.622L423.211 181.735L420.778 183.473L409.303 177.331L394.7 194.832Z" fill="#272453"/>
<path d="M101.205 227.274C101.205 191.948 129.798 163.355 165.124 163.355" stroke="#272453" stroke-width="1.8469" stroke-miterlimit="10"/>
<path d="M123.24 227.274C123.24 191.948 94.6468 163.355 59.3208 163.355" stroke="#272453" stroke-width="1.8469" stroke-miterlimit="10"/>
<path d="M168.447 178.482C176.222 178.482 182.525 172.179 182.525 164.404C182.525 156.629 176.222 150.326 168.447 150.326C160.672 150.326 154.369 156.629 154.369 164.404C154.369 172.179 160.672 178.482 168.447 178.482Z" stroke="#272453" stroke-width="1.8469" stroke-miterlimit="10"/>
<path d="M56.173 178.482C63.948 178.482 70.2509 172.179 70.2509 164.404C70.2509 156.629 63.948 150.326 56.173 150.326C48.3979 150.326 42.095 156.629 42.095 164.404C42.095 172.179 48.3979 178.482 56.173 178.482Z" stroke="#272453" stroke-width="1.8469" stroke-miterlimit="10"/>
<path d="M136.181 297.751H88.0888L61.8566 204.102H162.413L136.181 297.751Z" fill="#F2BC1B" stroke="#272453" stroke-width="1.8469" stroke-miterlimit="10"/>
<path d="M79.9568 268.808H144.313" stroke="#272453" stroke-width="1.8469" stroke-miterlimit="10"/>
<path d="M65.5291 217.306H158.741" stroke="#272453" stroke-width="1.8469" stroke-miterlimit="10"/>
<path d="M624.878 297.751H13.505V300.069H624.878V297.751Z" fill="#272453"/>
</g>
<defs>
<clipPath id="clip0_13_81">
<rect width="640" height="300" fill="white"/>
</clipPath>
</defs>
</svg>
