<svg width="624" height="234" viewBox="0 0 624 234" fill="none" xmlns="http://www.w3.org/2000/svg">
<g clip-path="url(#clip0_32_3351)">
<path d="M133.622 25.2126C118.447 25.2126 106.199 35.8423 106.199 48.9667C106.199 56.7763 110.535 63.7181 117.255 68.0568C113.461 74.9986 106.958 82.0489 106.958 82.0489C117.689 91.2685 133.73 93.4378 133.73 93.4378C132.213 89.3161 127.66 77.1679 125.601 71.7446C128.202 72.3954 130.912 72.8293 133.73 72.8293C148.905 72.8293 161.153 62.1996 161.153 49.0752C161.153 35.9508 148.797 25.2126 133.622 25.2126Z" fill="#F9EEF6" stroke="#272453" stroke-width="1.8592" stroke-miterlimit="10"/>
<path d="M241.145 117.843C210.471 96.258 176.544 111.66 150.964 131.401C162.887 121.422 136.548 90.8347 118.664 83.6759C100.78 76.5171 86.0386 91.377 92.6504 125.544C96.5524 145.502 95.9021 157.541 94.7098 164.158C94.1679 164.809 93.7343 165.568 93.1924 166.327C71.8395 199.735 79.8604 219.15 85.4967 227.068C87.1225 231.515 91.3497 234.227 99.5874 234.227C196.271 234.227 190.96 173.052 199.09 185.959C217.733 215.788 298.808 214.052 298.808 214.052L318.21 211.991C318.21 211.991 300.001 159.277 241.145 117.843Z" fill="#E72F74"/>
<path d="M241.145 117.843C210.471 96.258 176.544 111.66 150.964 131.401C162.887 121.422 136.548 90.8347 118.664 83.6759C100.78 76.5171 86.0386 91.377 92.6504 125.544C96.5524 145.502 95.9021 157.541 94.7098 164.158C94.1679 164.809 93.7343 165.568 93.1924 166.327C71.8395 199.735 79.8604 219.15 85.4967 227.068C87.1225 231.515 91.3497 234.227 99.5874 234.227C196.271 234.227 190.96 173.052 199.09 185.959C217.733 215.788 298.808 214.052 298.808 214.052L318.21 211.991C318.21 211.991 300.001 159.277 241.145 117.843Z" fill="#E72F74"/>
<mask id="mask0_32_3351" style="mask-type:alpha" maskUnits="userSpaceOnUse" x="79" y="81" width="240" height="154">
<path d="M241.145 117.843C210.471 96.258 176.544 111.66 150.964 131.401C162.887 121.422 136.548 90.8347 118.664 83.6759C100.78 76.5171 86.0386 91.377 92.6504 125.544C96.5524 145.502 95.9021 157.541 94.7098 164.158C94.1679 164.809 93.7343 165.568 93.1924 166.327C71.8395 199.735 79.8604 219.15 85.4967 227.068C87.1225 231.515 91.3497 234.227 99.5874 234.227C196.271 234.227 190.96 173.052 199.09 185.959C217.733 215.788 298.808 214.052 298.808 214.052L318.21 211.991C318.21 211.991 300.001 159.277 241.145 117.843Z" fill="#E72F74"/>
</mask>
<g mask="url(#mask0_32_3351)">
<path d="M1683.79 -320.8H-316.215V1679.2H1683.79V-320.8Z" fill="white"/>
<path d="M357.885 370.8H-340.515V-360.5H357.785V370.8H357.885ZM-339.915 370.2H357.185V-359.9H-339.915V370.2Z" fill="#00082E"/>
<path d="M-181.415 36.1C-173.215 40.9 -169.215 51.1 -164.915 59.1C-159.815 68.5 -154.815 78 -149.915 87.5C-139.915 106.7 -130.315 126 -121.115 145.6C-102.715 184.4 -85.6146 223.7 -68.7146 263.1C-58.9146 286 -49.1146 308.9 -39.3146 331.7C-38.4146 333.9 -34.7146 333.2 -34.2146 331C-29.6146 309.7 -22.5146 288.8 -15.7146 268.1C-9.01465 247.2 -1.81463 226.5 5.58537 205.9C20.4854 164.3 36.5854 123.1 53.8854 82.5C58.6854 71.2 63.5854 59.9 68.5854 48.7C71.0854 43.2 73.4854 37.7 75.9854 32.2C78.3854 26.9 81.5854 21.7 80.5854 15.8C80.3854 14.4 78.4854 13.4 77.1854 13.8C23.6854 32.2 -29.9146 49.8 -84.2146 65.6C-99.6146 70.1 -115.015 74.5 -130.415 78.8C-132.115 79.3 -132.515 81 -131.915 82.4C-109.915 133 -86.7146 183.1 -62.5146 232.8C-55.7146 246.8 -48.8146 260.8 -41.7146 274.7C-40.6146 276.9 -37.4146 276.1 -36.7146 274C-17.5146 215.9 -0.114645 157.2 15.2854 97.9C19.6854 81.1 23.7854 64.3 27.8854 47.5C28.4854 45.1 26.0854 43.5 23.9854 44.5C4.58537 53.4 -15.0146 61.9 -35.0146 69.4C-54.8146 76.9 -74.9146 83.6 -95.2146 89.7C-96.4146 90.1 -97.3146 91.4 -96.9146 92.7C-85.4146 129.2 -72.1146 165 -56.8146 200C-52.4146 210 -47.9146 219.9 -43.1146 229.7C-42.1146 231.8 -38.7146 231.2 -38.1146 229.1C-28.5146 190.2 -18.0146 151.6 -6.41463 113.3C-3.11463 102.4 0.285373 91.5 3.58537 80.5C4.28537 78.3 1.78536 76.7 -0.114639 77.6C-22.7146 88.9 -46.4146 97.8 -70.6146 105.1C-72.1146 105.6 -72.8146 107.2 -72.0146 108.6C-61.0146 128.8 -54.3146 151.1 -52.5146 174C-52.3146 176.2 -48.9146 177.8 -47.8146 175.3C-37.2146 152.5 -28.0146 129 -21.4146 104.8C-21.0146 103.2 -22.6146 101.2 -24.4146 101.8C-35.0146 105.9 -45.7146 109.7 -56.4146 113.5C-57.6146 113.9 -58.4146 115.1 -58.1146 116.5C-56.7146 121.9 -55.4146 127.4 -54.0146 132.8C-53.2146 136 -48.2146 134.6 -49.0146 131.4C-50.4146 126 -52.0146 120.6 -53.5146 115.2C-54.1146 116.2 -54.6146 117.2 -55.2146 118.2C-44.6146 114.2 -33.9146 110.2 -23.2146 106.5C-24.2146 105.5 -25.2146 104.5 -26.2146 103.5C-33.6146 127.1 -42.0146 150.3 -52.4146 172.7C-50.8146 173.1 -49.3146 173.6 -47.7146 174C-49.7146 150.2 -56.6146 127.1 -68.2146 106.2C-68.7146 107.4 -69.2146 108.5 -69.6146 109.7C-45.0146 102.1 -21.2146 92.5 2.18538 81.9C0.985379 80.9 -0.314633 80 -1.51463 79C-14.3146 116.9 -25.0146 155.6 -35.2146 194.3C-38.1146 205.3 -40.9146 216.4 -43.6146 227.5C-41.9146 227.3 -40.3146 227.1 -38.6146 226.9C-55.0146 192.7 -69.7146 157.6 -82.3146 121.8C-85.9146 111.7 -89.3146 101.5 -92.5146 91.3C-93.1146 92.3 -93.6146 93.3 -94.2146 94.3C-53.1146 82 -12.6146 67 26.3854 49.1C25.0854 48.1 23.7854 47.1 22.4854 46.1C8.28537 105.6 -7.91464 164.7 -26.1146 223.1C-31.3146 239.6 -36.6146 256.1 -42.1146 272.5C-40.4146 272.3 -38.8146 272.1 -37.1146 271.8C-61.9146 222.5 -85.8146 172.8 -108.615 122.5C-115.015 108.3 -121.415 94.1 -127.715 79.9C-128.215 81.1 -128.715 82.3 -129.215 83.5C-74.8146 68.2 -20.7146 51.8 32.9854 34.4C48.1854 29.5 63.3854 24.4 78.5854 19.2C77.4854 18.5 76.2854 17.9 75.1854 17.2C75.5854 20 74.1854 22.8 72.9854 25.2C71.7854 27.8 70.5854 30.4 69.4854 32.9C67.1854 37.9 64.9854 42.9 62.7854 47.9C58.3854 57.7 54.0854 67.6 49.8854 77.5C41.4854 97.2 33.2854 117 25.4854 136.9C9.58537 177.4 -5.01464 218.3 -18.6146 259.6C-26.2146 282.6 -34.2146 305.8 -39.4146 329.5C-37.7146 329.3 -36.0146 329.1 -34.3146 328.8C-51.7146 288.1 -69.0146 247.4 -86.9146 206.9C-104.515 167.2 -122.715 127.8 -142.715 89.2C-148.315 78.4 -154.215 67.7 -160.215 57C-165.215 48.2 -169.915 37.5 -179.115 32.4C-181.615 31.3 -183.715 34.8 -181.415 36.1Z" fill="#00082E"/>
<path d="M64.7854 57.1C106.985 96.9 155.185 130.4 206.485 157.5C220.985 165.2 235.785 172.3 250.785 178.9C250.985 177.3 251.185 175.6 251.385 174C184.485 195.1 117.885 217 51.1854 238.6C32.1854 244.8 13.1854 250.9 -5.81462 257.1C-4.81462 258.4 -3.81463 259.7 -2.91463 260.9C19.3854 217 41.7854 173 59.3854 127C64.4854 113.8 69.0854 100.5 73.1854 87C71.9854 87.5 70.6854 88 69.4854 88.5C103.885 110.4 137.585 133.4 172.285 155C180.885 160.4 190.085 165.2 200.185 167.1C200.185 165.5 200.185 163.9 200.185 162.3C157.285 176.6 114.085 190.1 70.9854 203.7C58.5854 207.6 46.2854 211.5 33.8854 215.4C34.8854 216.7 35.8854 217.9 36.7854 219.2C52.7854 188.7 67.9854 157.8 82.7854 126.8C81.5854 127.1 80.3854 127.4 79.1854 127.7C102.785 144.5 127.985 159.4 154.385 171.1C154.585 169.5 154.785 168 154.985 166.4C125.185 172.5 95.9854 181 67.7854 192.7C68.8854 193.8 69.8854 194.8 70.9854 195.9C76.4854 182.6 81.9854 169.2 87.3854 155.9C86.5854 156.5 85.6854 157.2 84.8854 157.8C95.2854 159.2 105.185 163 113.985 168.8C114.185 167.2 114.385 165.7 114.585 164.1C103.485 167.8 92.3854 171.4 81.2854 174.9C82.2854 176.2 83.2854 177.5 84.1854 178.7C84.6854 178 85.1854 177.2 85.6854 176.5C87.5854 173.7 83.0854 171.1 81.1854 173.8C80.6854 174.5 80.1854 175.3 79.6854 176C78.4854 177.9 80.4854 180.5 82.5854 179.8C93.6854 176.1 104.785 172.5 115.885 168.9C117.985 168.2 118.385 165.5 116.485 164.2C107.185 158 96.5854 154 85.4854 152.5C83.8854 152.3 82.8854 152.9 82.2854 154.3C76.7854 167.6 71.2854 181 65.8854 194.3C65.1854 196 67.3854 198.3 69.0854 197.5C97.0854 185.8 126.385 176.6 156.185 171.1C158.285 170.7 158.685 167.4 156.785 166.4C130.485 154.1 105.285 139.8 81.6854 122.8C80.5854 122 78.6854 122.5 78.0854 123.7C63.1854 154.7 47.7854 185.5 32.1854 216.2C31.1854 218.1 32.7854 220.8 35.0854 220C78.0854 206 121.185 192.2 164.185 178.3C176.485 174.3 188.885 170.5 201.285 166.6C203.485 165.9 203.785 162.3 201.285 161.8C192.285 159.9 184.285 155.9 176.485 151.1C168.185 146 160.085 140.5 151.885 135.3C134.885 124.4 117.985 113.4 100.985 102.5C91.2854 96.2 81.4854 90 71.8854 83.7C70.4854 82.8 68.5854 83.7 68.1854 85.2C53.2854 132.2 32.9854 176.9 11.0854 221C4.98537 233.3 -1.31464 245.6 -7.51464 257.8C-8.51464 259.7 -6.81464 262.4 -4.61464 261.6C62.0854 239.9 128.685 218 195.485 196.7C214.485 190.6 233.585 184.7 252.585 178.6C254.585 178 255.485 174.7 253.185 173.7C200.185 150.5 150.285 120.6 104.685 85C91.8854 75 79.2854 64.6 67.0854 53.9C65.5854 52.9 63.0854 55.4 64.7854 57.1Z" fill="#00082E"/>
<path d="M78.6854 17.9C114.085 -18.9 148.885 -56.3 184.385 -93.1C194.285 -103.4 204.285 -113.7 214.285 -123.9C212.885 -124.3 211.485 -124.6 209.985 -125C215.085 -109.1 216.885 -92.4 218.385 -75.8C219.985 -58.2 221.485 -40.6 222.985 -23C225.985 12.2 228.785 47.5 231.485 82.8C232.985 102.8 234.285 122.8 235.885 142.8C237.185 142.1 238.385 141.3 239.685 140.6C220.685 127.8 201.585 115.3 181.785 103.7C161.985 92.1 141.685 81.4 121.085 71.4C115.885 68.9 110.785 66.4 105.685 63.8C103.085 62.5 100.585 61.2 98.0854 59.8C95.1854 58.2 93.5854 56.9 93.6854 53.4C93.8854 43.5 97.8854 34 103.085 25.7C108.385 17.1 115.085 9.50001 121.985 2.10001C129.585 -5.99999 137.385 -14.1 145.285 -22C163.585 -40.4 182.585 -57.9 202.285 -74.7C200.685 -75.3 199.185 -76 197.585 -76.6C200.785 -33.4 201.985 10 207.185 53C208.585 64.9 210.385 76.7 212.785 88.4C213.885 87.3 214.985 86.2 216.085 85.1C197.485 78.5 178.885 71.8 160.185 65.2C150.985 61.9 141.785 58.6 132.485 55.3C124.685 52.5 116.085 50.2 110.385 43.8C110.385 45 110.385 46.2 110.385 47.4C134.985 22.2 159.885 -2.70001 184.685 -27.7C183.185 -28.3 181.785 -28.9 180.285 -29.5C182.785 -0.799999 185.785 27.8 189.785 56.4C190.785 55.4 191.885 54.3 192.885 53.3C172.785 46 151.685 41.7 130.285 40.5C130.885 41.9 131.485 43.3 131.985 44.7C144.585 33.5 157.185 22.3 169.785 11.1C168.485 10.7 167.085 10.4 165.785 10C168.285 18.8 170.685 27.6 173.185 36.4C173.985 35.4 174.785 34.3 175.585 33.3C167.985 33.3 160.485 33.2 152.885 33.2C149.585 33.2 149.585 38.3 152.885 38.3C160.485 38.3 167.985 38.3 175.585 38.2C177.185 38.2 178.385 36.6 177.985 35.1C175.485 26.3 172.885 17.5 170.385 8.70001C169.885 6.90001 167.685 6.50001 166.385 7.60001C153.785 18.8 141.085 29.9 128.485 41.1C126.785 42.6 128.285 45.2 130.185 45.3C151.085 46.5 171.785 50.8 191.485 58C193.485 58.7 194.785 56.6 194.585 54.9C190.685 26.8 187.385 -1.40001 185.385 -29.6C185.185 -31.8 182.685 -33.1 180.985 -31.4C155.885 -6.69999 131.285 18.5 106.685 43.7C105.685 44.7 105.785 46.3 106.685 47.3C112.085 53.3 119.685 56 127.185 58.7C136.985 62.2 146.685 65.7 156.485 69.2C175.785 76.2 195.185 83.1 214.485 90.1C216.585 90.8 218.185 88.6 217.785 86.8C209.385 45 207.785 2.20001 205.085 -40.3C204.285 -52.5 203.485 -64.6 202.885 -76.8C202.785 -79.3 200.085 -80.2 198.185 -78.7C179.785 -63.6 162.285 -47.2 145.385 -30.4C136.885 -21.9 128.485 -13.3 120.285 -4.5C113.285 3 106.385 10.6 100.585 19.2C94.9854 27.5 90.3854 36.9 88.8854 46.9C88.1854 51.3 87.2854 56.9 90.3854 60.7C91.9854 62.6 94.1853 63.6 96.2853 64.8C99.1853 66.3 101.985 67.8 104.885 69.3C126.185 80 147.585 90.4 168.385 102.2C191.785 115.5 214.885 129.4 236.885 144.9C238.385 146 240.785 144.5 240.685 142.7C238.585 107 235.585 71.4 232.685 35.7C229.885 0.100014 226.785 -35.6 223.685 -71.2C221.985 -89.8 220.485 -108.5 214.685 -126.4C214.085 -128.2 211.785 -128.9 210.385 -127.5C174.685 -90.9 139.385 -54 104.685 -16.5C94.9854 -6 85.1854 4.50001 75.6854 15.2C74.2854 17.1 76.8854 19.8 78.6854 17.9Z" fill="#00082E"/>
<path d="M89.7853 234.4C96.2853 280.9 104.085 327.3 113.785 373.3C114.185 375 116.885 375.9 117.985 374.4C128.385 361 142.085 350.7 154.985 339.9C168.285 328.7 181.485 317.3 194.485 305.8C220.785 282.4 246.285 258.2 271.085 233.3C285.185 219.2 299.285 204.9 312.585 190.1C314.085 188.4 312.685 185.4 310.285 186.1C284.285 193.4 257.985 199.8 231.885 206.4C205.685 213.1 179.485 219.7 153.285 226.3C138.485 230 123.685 233.9 108.885 237.5C107.585 237.8 107.185 239.1 107.285 240.2C112.585 274.5 117.785 308.7 123.185 343C123.485 344.8 126.085 345.3 127.285 344.1C160.385 308.8 195.085 275.1 231.285 243C241.585 233.9 251.885 224.8 262.385 215.8C264.585 213.9 261.785 211.2 259.585 212.1C219.285 229.4 177.485 242.7 134.785 252.5C133.785 252.7 132.985 253.8 133.085 254.8C133.785 270.3 135.085 285.7 136.985 301.1C137.185 303.1 139.485 304.5 141.085 302.8C159.585 283.8 179.485 266.3 200.685 250.3C203.185 248.4 201.085 244.6 198.185 246C180.985 254.3 163.585 261.6 145.385 267.5C144.185 267.9 143.285 269.2 143.685 270.4C144.185 271.8 144.585 273.3 145.085 274.7C146.085 277.6 150.785 276.4 149.785 273.4C149.285 272 148.785 270.6 148.285 269.2C147.685 270.2 147.185 271.2 146.585 272.1C164.785 265.6 182.985 258.4 200.585 250.3C199.785 248.9 198.885 247.5 198.085 246C176.485 262.2 156.285 280 137.485 299.3C138.885 299.9 140.285 300.4 141.585 301C139.685 285.6 138.285 270.2 137.585 254.7C136.985 255.5 136.385 256.2 135.885 257C178.685 247.1 220.585 233.3 261.185 216.3C260.385 215 259.685 213.7 258.885 212.4C221.885 243.5 186.385 276.5 152.385 310.9C142.685 320.7 133.085 330.5 123.685 340.5C125.085 340.9 126.385 341.2 127.785 341.6C122.485 307.4 116.885 273.1 111.385 238.9C110.885 239.8 110.385 240.7 109.785 241.6C162.185 228.4 214.585 215.3 266.885 201.8C281.685 198 296.385 194 311.285 190.5C310.485 189.2 309.785 187.8 308.985 186.5C284.485 211.8 260.285 237.2 234.785 261.5C209.385 285.8 183.185 309.3 156.485 332.1C141.985 344.4 126.085 355.8 114.185 370.7C115.585 371.1 116.985 371.4 118.385 371.8C109.185 325.8 100.385 279.7 92.7853 233.4C92.6853 231.4 89.4853 232.3 89.7853 234.4Z" fill="#00082E"/>
<path d="M215.485 -124.5C214.885 -125.9 214.285 -127.3 213.685 -128.7C213.085 -128.2 212.385 -127.7 211.785 -127.2C220.885 -120.3 229.785 -113.2 238.985 -106.5C248.085 -99.9 257.385 -93.7 266.885 -87.7C285.885 -75.5 305.585 -64.4 325.785 -54.3C337.285 -48.6 348.885 -43.2 360.585 -38.1C360.385 -39 360.085 -39.8 359.885 -40.7C349.185 -22 334.985 -5.49999 320.385 10.1C304.685 26.9 288.385 43.4 272.185 59.7C262.585 69.3 252.985 78.9 243.285 88.4C244.485 88.9 245.685 89.4 246.885 89.9C251.285 47.7 250.685 5.00002 248.785 -37.3C248.185 -49.4 247.585 -61.4 246.985 -73.5C245.885 -72.9 244.785 -72.2 243.685 -71.6C260.285 -63.7 277.485 -56.7 294.785 -50.4C312.285 -44 330.085 -38.5 348.185 -33.9C347.885 -35.1 347.585 -36.2 347.285 -37.4C318.385 -8.49999 289.385 20.7 267.085 55.2C268.385 55.6 269.685 55.9 270.985 56.3C272.385 23 271.485 -10.9 266.985 -44C266.085 -43.1 265.285 -42.3 264.385 -41.4C282.585 -35.5 301.285 -31.1 320.385 -28.6C319.885 -29.7 319.485 -30.9 318.985 -32C307.085 -16.9 295.185 -1.80001 283.285 13.3C284.485 13.8 285.585 14.3 286.785 14.7C287.385 3.40001 286.385 -7.79998 283.785 -18.8C283.085 -17.9 282.485 -17 281.785 -16.2C284.785 -16.5 287.685 -16.9 290.685 -17.2C292.185 -17.4 293.685 -17.5 295.085 -17.7C295.785 -17.8 296.585 -17.8 297.285 -17.9C297.985 -17.7 298.385 -18 298.485 -18.8C299.085 -18.8 299.685 -18.8 300.385 -18.8C300.185 -18.9 300.085 -18.9 299.885 -19C297.685 -19.9 295.785 -16.7 297.985 -15.8C301.685 -14.2 303.885 -19.5 300.285 -21.2C297.985 -22.3 294.685 -21.3 292.285 -21.1C288.785 -20.8 285.285 -20.7 281.785 -20.4C280.385 -20.3 279.485 -19.2 279.785 -17.8C282.285 -7.19998 283.285 3.70001 282.785 14.6C282.685 16.2 285.185 17.4 286.285 16C298.185 0.9 310.085 -14.2 321.885 -29.4C322.985 -30.8 322.285 -32.6 320.485 -32.8C301.785 -35 283.385 -39.2 265.685 -45.7C264.485 -46.1 262.885 -45 262.985 -43.7C266.285 -10.5 268.185 22.6 266.885 56C266.785 58.2 269.785 58.7 270.785 57.1C292.885 22.9 321.685 -6 350.285 -34.6C351.385 -35.7 350.885 -37.7 349.385 -38.1C331.685 -42.6 314.185 -47.8 296.985 -54C288.485 -57 280.085 -60.3 271.685 -63.8C262.985 -67.4 254.585 -71.6 245.985 -75.6C244.585 -76.3 242.585 -75.5 242.685 -73.7C244.985 -31.3 247.285 11.2 245.585 53.6C245.085 65.7 244.085 77.7 242.885 89.7C242.685 91.6 245.285 92.4 246.485 91.2C263.685 74.4 280.685 57.3 297.485 40.1C313.085 24.1 328.985 8.2 343.085 -9.2C350.685 -18.6 357.485 -28.5 363.485 -39C363.985 -39.8 363.785 -41.2 362.785 -41.6C321.585 -59.3 282.185 -81.1 245.285 -106.5C234.585 -113.9 223.685 -121.2 213.685 -129.5C212.785 -130.2 210.985 -129.6 211.485 -128.2C211.985 -126.8 212.585 -125.3 213.085 -123.9C213.485 -122.1 216.185 -122.9 215.485 -124.5Z" fill="#00082E"/>
<path d="M249.085 98.9C283.685 71.4 315.785 40.7 347.085 9.49999C346.185 9.29999 345.285 8.99998 344.285 8.79998C350.185 46.1 355.785 83.4 361.885 120.6C362.385 119.6 362.985 118.7 363.485 117.7C327.885 132 293.285 149.4 261.185 170.3C262.285 170.9 263.385 171.6 264.585 172.2C262.385 149 258.985 126 253.285 103.4C252.985 104.2 252.585 105.1 252.285 105.9C281.485 85.1 309.885 62.6 336.585 38.6C335.785 38.4 335.085 38.2 334.285 38C337.685 58.3 339.585 79 340.485 99.6C340.685 104.6 340.985 109.6 340.885 114.6C340.885 118.1 338.585 118.5 335.785 119.4C333.485 120.2 331.185 121.1 328.885 121.9C320.485 125.1 312.385 128.8 304.385 132.9C294.985 137.7 285.985 143.2 277.285 149.2C278.285 149.6 279.285 150 280.385 150.4C279.085 142.8 277.885 135.1 276.585 127.5C275.885 123.7 275.285 119.9 274.585 116.1C274.185 114 273.485 112.1 275.185 110.5C276.385 109.3 278.685 108.4 280.185 107.5C293.385 99.5 306.685 91.4 319.885 83.4C318.885 83 317.985 82.6 316.985 82.2C318.385 87.4 319.785 92.6 321.185 97.8C321.885 100.3 322.885 103 323.285 105.6C323.685 108 323.585 109.1 321.385 110.1C320.385 110.6 319.285 111 318.285 111.4C307.985 115.9 297.685 120.4 287.285 124.7C288.085 125 288.885 125.4 289.685 125.7C288.885 124.3 289.185 123.2 290.385 122.2C292.585 120.2 289.385 117 287.185 119C284.585 121.3 284.185 125 285.985 127.9C286.685 129 287.885 129.2 288.985 128.7C294.985 126 300.985 123.4 306.985 120.7C309.985 119.4 312.985 118 315.985 116.7C318.685 115.5 321.685 114.5 324.185 112.9C328.785 110.1 326.685 104.9 325.585 100.7C323.985 94.2 322.285 87.7 320.685 81.1C320.385 79.9 318.885 79.3 317.785 79.9C302.785 88.7 287.485 97.2 272.785 106.5C270.285 108.1 269.085 109.9 269.385 112.9C269.885 117 270.785 121.2 271.585 125.3C273.085 134.1 274.685 142.8 276.285 151.6C276.485 152.9 278.285 153.6 279.385 152.8C295.785 141.2 313.585 131.7 332.285 124.6C335.585 123.3 340.985 122.5 343.285 119.5C345.785 116.2 344.285 110.3 344.085 106.5C343.385 95.5 342.485 84.4 341.385 73.4C340.185 61.3 338.485 49.3 336.785 37.2C336.585 36.1 335.185 36 334.485 36.6C320.985 48.1 307.385 59.4 293.385 70.4C279.285 81.4 264.585 91.8 249.885 102C249.085 102.6 248.585 103.5 248.885 104.5C254.185 126.7 258.285 149.3 259.985 172.1C260.085 173.7 261.785 175 263.385 174C295.685 153.8 329.385 136.2 364.685 122C365.985 121.5 366.585 120.5 366.285 119.1C360.185 81.9 353.685 44.8 347.385 7.70001C347.185 6.40001 345.385 6.2 344.585 7C313.585 38.5 280.685 68 248.185 97.9C247.785 98.6 248.585 99.4 249.085 98.9Z" fill="#00082E"/>
<path d="M349.785 173.5C339.385 185.3 329.985 198 320.385 210.3C310.985 222.4 301.485 234.5 292.085 246.6C273.085 271 254.185 295.4 235.385 319.8C224.585 333.8 213.585 347.7 202.985 361.9C201.685 363.6 203.785 365.3 205.385 365.1C208.485 364.6 211.585 364.1 214.685 363.6C216.685 363.3 216.285 359.7 214.185 360C211.085 360.3 207.985 360.6 204.885 360.9C205.385 362.1 205.885 363.3 206.385 364.6C225.485 340.4 244.185 315.7 262.885 291.1C281.685 266.4 300.585 241.6 319.285 216.9C329.985 202.8 341.085 189 350.885 174.3C351.385 173.7 350.385 172.9 349.785 173.5Z" fill="#00082E"/>
<path d="M205.285 367.4C253.485 368.9 301.685 368.6 349.985 369C351.485 369 352.385 367.6 352.085 366.3C347.385 344.2 344.985 321.6 343.485 299.1C341.985 276.5 341.785 253.8 342.585 231.1C342.985 218.3 343.785 205.6 344.685 192.8C344.885 190 340.485 188.8 339.285 191.3C329.085 213.7 318.185 235.7 305.485 256.8C292.785 277.8 278.685 298.1 262.885 317C253.985 327.6 244.485 337.7 234.585 347.3C233.085 348.7 234.185 351.7 236.385 351.5C251.385 350.2 266.285 349.7 281.385 349.9C296.385 350.1 311.285 351.4 326.285 352.6C327.385 352.7 328.485 351.5 328.385 350.5C327.985 335.2 328.385 319.8 328.285 304.5C328.185 289.2 327.785 273.9 327.285 258.5C327.185 256.1 323.785 255 322.585 257.2C307.485 284.5 290.285 310.2 270.185 334.2C269.085 335.5 269.685 338 271.685 337.9C284.185 337.2 296.685 336.6 309.185 336C309.885 336 310.785 335.6 311.085 334.9C316.085 323.3 318.685 310.9 318.885 298.2C318.885 296.4 316.885 295.3 315.385 296.2C306.185 301.7 299.485 310.4 295.685 320.4C294.785 322.9 298.685 323.9 299.685 321.5C303.185 312.5 309.685 305.3 317.885 300.3C316.685 299.6 315.485 299 314.385 298.3C314.385 310.3 311.885 322.1 307.185 333.2C307.885 332.7 308.585 332.1 309.385 331.6C296.885 332.3 284.385 333 271.885 333.6C272.385 334.8 272.885 336.1 273.385 337.3C293.585 313.3 311.785 287.2 327.085 259.8C325.485 259.4 323.985 258.9 322.385 258.5C322.785 273.8 323.085 289.1 323.485 304.5C323.885 319.8 324.585 335.2 324.285 350.5C324.985 349.8 325.685 349.1 326.385 348.4C296.785 344.5 266.285 344.8 236.485 346.6C237.085 348 237.685 349.4 238.285 350.8C274.685 317 301.985 275.3 325.485 231.9C332.185 219.6 338.585 207 344.485 194.3C342.685 193.8 340.885 193.3 339.085 192.8C335.585 238.1 334.585 284.2 341.085 329.3C342.885 342.1 345.385 354.8 348.085 367.4C348.785 366.5 349.485 365.6 350.185 364.7C301.985 364.6 253.685 363.8 205.485 364.7C203.485 364.7 203.585 367.3 205.285 367.4Z" fill="#00082E"/>
<path d="M149.285 366.6C153.385 364.3 157.185 362 160.985 359.1C164.485 356.4 167.885 353.6 171.185 350.6C178.185 344.4 184.985 337.9 191.785 331.5C205.885 318.2 220.085 305 233.985 291.5C261.885 264.6 289.385 237.3 315.985 209.2C330.985 193.4 345.685 177.3 359.885 160.7C361.785 158.4 358.585 155.1 356.585 157.4C331.285 186.2 305.185 214.3 278.185 241.6C251.085 269 223.285 295.8 195.585 322.6C187.985 330 180.385 337.3 172.785 344.7C165.185 352 157.185 359.3 148.385 365.3C147.685 365.8 148.385 367.1 149.285 366.6Z" fill="#00082E"/>
</g>
<g style="mix-blend-mode:multiply">
<path d="M241.145 117.843C210.471 96.258 176.544 111.66 150.964 131.401C162.887 121.422 136.548 90.8347 118.664 83.6759C100.78 76.5171 86.0386 91.377 92.6504 125.544C96.5524 145.502 95.9021 157.541 94.7098 164.158C94.1679 164.809 93.7343 165.568 93.1924 166.327C71.8395 199.735 79.8604 219.15 85.4967 227.068C87.1225 231.515 91.3497 234.227 99.5874 234.227C196.271 234.227 190.96 173.052 199.09 185.959C217.733 215.788 298.808 214.052 298.808 214.052L318.21 211.991C318.21 211.991 300.001 159.277 241.145 117.843Z" fill="#E72F74"/>
</g>
<path d="M296.207 227.719L312.574 224.682L302.06 210.69H251.984L282.225 227.719H296.207Z" fill="#E72F74"/>
<path d="M312.032 198.216C312.032 198.216 324.28 205.375 334.469 207.978L310.515 212.859L312.032 198.216Z" fill="#E72F74"/>
<path d="M315.392 210.69C315.392 210.69 357.014 230.105 355.713 233.359C354.413 236.505 355.93 240.626 320.27 237.589C284.609 234.552 300.326 213.944 300.326 213.944L315.392 210.69Z" fill="#F9EEF6" stroke="#272453" stroke-width="2" stroke-miterlimit="10"/>
<path d="M332.084 207.327C332.084 207.327 388.556 210.581 381.402 216.547C374.248 222.512 351.811 229.454 348.776 227.719C345.742 225.983 315.392 210.69 315.392 210.69L332.084 207.327Z" fill="#F9EEF6" stroke="#272453" stroke-width="2" stroke-miterlimit="10"/>
<mask id="mask1_32_3351" style="mask-type:alpha" maskUnits="userSpaceOnUse" x="127" y="198" width="170" height="37">
<path d="M127.01 232.383C127.01 232.383 253.718 240.518 296.099 227.719C296.099 227.719 241.687 194.094 187.6 198.65C133.513 203.206 127.01 232.383 127.01 232.383Z" fill="#E72F74"/>
</mask>
<g mask="url(#mask1_32_3351)">
<path d="M1731.79 -204.8H-268.215V1795.2H1731.79V-204.8Z" fill="white"/>
<path d="M405.885 486.8H-292.515V-244.5H405.785V486.8H405.885ZM-291.915 486.2H405.185V-243.9H-291.915V486.2Z" fill="#00082E"/>
<path d="M-133.415 152.1C-125.215 156.9 -121.215 167.1 -116.915 175.1C-111.815 184.5 -106.815 194 -101.915 203.5C-91.9146 222.7 -82.3146 242 -73.1146 261.6C-54.7146 300.4 -37.6146 339.7 -20.7146 379.1C-10.9146 402 -1.11462 424.9 8.68538 447.7C9.58538 449.9 13.2854 449.2 13.7854 447C18.3854 425.7 25.4854 404.8 32.2854 384.1C38.9854 363.2 46.1854 342.5 53.5854 321.9C68.4854 280.3 84.5854 239.1 101.885 198.5C106.685 187.2 111.585 175.9 116.585 164.7C119.085 159.2 121.485 153.7 123.985 148.2C126.385 142.9 129.585 137.7 128.585 131.8C128.385 130.4 126.485 129.4 125.185 129.8C71.6854 148.2 18.0854 165.8 -36.2146 181.6C-51.6146 186.1 -67.0146 190.5 -82.4146 194.8C-84.1146 195.3 -84.5146 197 -83.9146 198.4C-61.9146 249 -38.7146 299.1 -14.5146 348.8C-7.71463 362.8 -0.814645 376.8 6.28535 390.7C7.38535 392.9 10.5854 392.1 11.2854 390C30.4854 331.9 47.8854 273.2 63.2854 213.9C67.6854 197.1 71.7854 180.3 75.8854 163.5C76.4854 161.1 74.0854 159.5 71.9854 160.5C52.5854 169.4 32.9854 177.9 12.9854 185.4C-6.81463 192.9 -26.9146 199.6 -47.2146 205.7C-48.4146 206.1 -49.3146 207.4 -48.9146 208.7C-37.4146 245.2 -24.1146 281 -8.81462 316C-4.41462 326 0.0853605 335.9 4.88536 345.7C5.88536 347.8 9.28536 347.2 9.88536 345.1C19.4854 306.2 29.9854 267.6 41.5854 229.3C44.8854 218.4 48.2854 207.5 51.5854 196.5C52.2854 194.3 49.7854 192.7 47.8854 193.6C25.2854 204.9 1.58536 213.8 -22.6146 221.1C-24.1146 221.6 -24.8146 223.2 -24.0146 224.6C-13.0146 244.8 -6.31463 267.1 -4.51463 290C-4.31463 292.2 -0.914621 293.8 0.185379 291.3C10.7854 268.5 19.9854 245 26.5854 220.8C26.9854 219.2 25.3854 217.2 23.5854 217.8C12.9854 221.9 2.28537 225.7 -8.41463 229.5C-9.61463 229.9 -10.4146 231.1 -10.1146 232.5C-8.71464 237.9 -7.41463 243.4 -6.01463 248.8C-5.21463 252 -0.214633 250.6 -1.01463 247.4C-2.41463 242 -4.01463 236.6 -5.51463 231.2C-6.11463 232.2 -6.61465 233.2 -7.21465 234.2C3.38535 230.2 14.0854 226.2 24.7854 222.5C23.7854 221.5 22.7854 220.5 21.7854 219.5C14.3854 243.1 5.98537 266.3 -4.41463 288.7C-2.81463 289.1 -1.31465 289.6 0.285355 290C-1.71465 266.2 -8.61465 243.1 -20.2146 222.2C-20.7146 223.4 -21.2146 224.5 -21.6146 225.7C2.98536 218.1 26.7854 208.5 50.1854 197.9C48.9854 196.9 47.6854 196 46.4854 195C33.6854 232.9 22.9854 271.6 12.7854 310.3C9.88535 321.3 7.08536 332.4 4.38536 343.5C6.08536 343.3 7.68536 343.1 9.38536 342.9C-7.01464 308.7 -21.7146 273.6 -34.3146 237.8C-37.9146 227.7 -41.3146 217.5 -44.5146 207.3C-45.1146 208.3 -45.6146 209.3 -46.2146 210.3C-5.11463 198 35.3854 183 74.3854 165.1C73.0854 164.1 71.7854 163.1 70.4854 162.1C56.2854 221.6 40.0854 280.7 21.8854 339.1C16.6854 355.6 11.3854 372.1 5.88536 388.5C7.58536 388.3 9.18536 388.1 10.8854 387.8C-13.9146 338.5 -37.8146 288.8 -60.6146 238.5C-67.0146 224.3 -73.4146 210.1 -79.7146 195.9C-80.2146 197.1 -80.7146 198.3 -81.2146 199.5C-26.8146 184.2 27.2854 167.8 80.9854 150.4C96.1854 145.5 111.385 140.4 126.585 135.2C125.485 134.5 124.285 133.9 123.185 133.2C123.585 136 122.185 138.8 120.985 141.2C119.785 143.8 118.585 146.4 117.485 148.9C115.185 153.9 112.985 158.9 110.785 163.9C106.385 173.7 102.085 183.6 97.8854 193.5C89.4854 213.2 81.2854 233 73.4854 252.9C57.5854 293.4 42.9854 334.3 29.3854 375.6C21.7854 398.6 13.7854 421.8 8.58537 445.5C10.2854 445.3 11.9854 445.1 13.6854 444.8C-3.71462 404.1 -21.0146 363.4 -38.9146 322.9C-56.5146 283.2 -74.7146 243.8 -94.7146 205.2C-100.315 194.4 -106.215 183.7 -112.215 173C-117.215 164.2 -121.915 153.5 -131.115 148.4C-133.615 147.3 -135.715 150.8 -133.415 152.1Z" fill="#00082E"/>
<path d="M112.785 173.1C154.985 212.9 203.185 246.4 254.485 273.5C268.985 281.2 283.785 288.3 298.785 294.9C298.985 293.3 299.185 291.6 299.385 290C232.485 311.1 165.885 333 99.1854 354.6C80.1854 360.8 61.1854 366.9 42.1854 373.1C43.1854 374.4 44.1854 375.7 45.0854 376.9C67.3854 333 89.7854 289 107.385 243C112.485 229.8 117.085 216.5 121.185 203C119.985 203.5 118.685 204 117.485 204.5C151.885 226.4 185.585 249.4 220.285 271C228.885 276.4 238.085 281.2 248.185 283.1C248.185 281.5 248.185 279.9 248.185 278.3C205.285 292.6 162.085 306.1 118.985 319.7C106.585 323.6 94.2854 327.5 81.8854 331.4C82.8854 332.7 83.8854 333.9 84.7854 335.2C100.785 304.7 115.985 273.8 130.785 242.8C129.585 243.1 128.385 243.4 127.185 243.7C150.785 260.5 175.985 275.4 202.385 287.1C202.585 285.5 202.785 284 202.985 282.4C173.185 288.5 143.985 297 115.785 308.7C116.885 309.8 117.885 310.8 118.985 311.9C124.485 298.6 129.985 285.2 135.385 271.9C134.585 272.5 133.685 273.2 132.885 273.8C143.285 275.2 153.185 279 161.985 284.8C162.185 283.2 162.385 281.7 162.585 280.1C151.485 283.8 140.385 287.4 129.285 290.9C130.285 292.2 131.285 293.5 132.185 294.7C132.685 294 133.185 293.2 133.685 292.5C135.585 289.7 131.085 287.1 129.185 289.8C128.685 290.5 128.185 291.3 127.685 292C126.485 293.9 128.485 296.5 130.585 295.8C141.685 292.1 152.785 288.5 163.885 284.9C165.985 284.2 166.385 281.5 164.485 280.2C155.185 274 144.585 270 133.485 268.5C131.885 268.3 130.885 268.9 130.285 270.3C124.785 283.6 119.285 297 113.885 310.3C113.185 312 115.385 314.3 117.085 313.5C145.085 301.8 174.385 292.6 204.185 287.1C206.285 286.7 206.685 283.4 204.785 282.4C178.485 270.1 153.285 255.8 129.685 238.8C128.585 238 126.685 238.5 126.085 239.7C111.185 270.7 95.7854 301.5 80.1854 332.2C79.1854 334.1 80.7854 336.8 83.0854 336C126.085 322 169.185 308.2 212.185 294.3C224.485 290.3 236.885 286.5 249.285 282.6C251.485 281.9 251.785 278.3 249.285 277.8C240.285 275.9 232.285 271.9 224.485 267.1C216.185 262 208.085 256.5 199.885 251.3C182.885 240.4 165.985 229.4 148.985 218.5C139.285 212.2 129.485 206 119.885 199.7C118.485 198.8 116.585 199.7 116.185 201.2C101.285 248.2 80.9854 292.9 59.0854 337C52.9854 349.3 46.6854 361.6 40.4854 373.8C39.4854 375.7 41.1854 378.4 43.3854 377.6C110.085 355.9 176.685 334 243.485 312.7C262.485 306.6 281.585 300.7 300.585 294.6C302.585 294 303.485 290.7 301.185 289.7C248.185 266.5 198.285 236.6 152.685 201C139.885 191 127.285 180.6 115.085 169.9C113.585 168.9 111.085 171.4 112.785 173.1Z" fill="#00082E"/>
<path d="M126.685 133.9C162.085 97.1 196.885 59.7 232.385 22.9C242.285 12.6 252.285 2.3 262.285 -7.9C260.885 -8.3 259.485 -8.6 257.985 -9C263.085 6.9 264.885 23.6 266.385 40.2C267.985 57.8 269.485 75.4 270.985 93C273.985 128.2 276.785 163.5 279.485 198.8C280.985 218.8 282.285 238.8 283.885 258.8C285.185 258.1 286.385 257.3 287.685 256.6C268.685 243.8 249.585 231.3 229.785 219.7C209.985 208.1 189.685 197.4 169.085 187.4C163.885 184.9 158.785 182.4 153.685 179.8C151.085 178.5 148.585 177.2 146.085 175.8C143.185 174.2 141.585 172.9 141.685 169.4C141.885 159.5 145.885 150 151.085 141.7C156.385 133.1 163.085 125.5 169.985 118.1C177.585 110 185.385 101.9 193.285 94C211.585 75.6 230.585 58.1 250.285 41.3C248.685 40.7 247.185 40 245.585 39.4C248.785 82.6 249.985 126 255.185 169C256.585 180.9 258.385 192.7 260.785 204.4C261.885 203.3 262.985 202.2 264.085 201.1C245.485 194.5 226.885 187.8 208.185 181.2C198.985 177.9 189.785 174.6 180.485 171.3C172.685 168.5 164.085 166.2 158.385 159.8C158.385 161 158.385 162.2 158.385 163.4C182.985 138.2 207.885 113.3 232.685 88.3C231.185 87.7 229.785 87.1 228.285 86.5C230.785 115.2 233.785 143.8 237.785 172.4C238.785 171.4 239.885 170.3 240.885 169.3C220.785 162 199.685 157.7 178.285 156.5C178.885 157.9 179.485 159.3 179.985 160.7C192.585 149.5 205.185 138.3 217.785 127.1C216.485 126.7 215.085 126.4 213.785 126C216.285 134.8 218.685 143.6 221.185 152.4C221.985 151.4 222.785 150.3 223.585 149.3C215.985 149.3 208.485 149.2 200.885 149.2C197.585 149.2 197.585 154.3 200.885 154.3C208.485 154.3 215.985 154.3 223.585 154.2C225.185 154.2 226.385 152.6 225.985 151.1C223.485 142.3 220.885 133.5 218.385 124.7C217.885 122.9 215.685 122.5 214.385 123.6C201.785 134.8 189.085 145.9 176.485 157.1C174.785 158.6 176.285 161.2 178.185 161.3C199.085 162.5 219.785 166.8 239.485 174C241.485 174.7 242.785 172.6 242.585 170.9C238.685 142.8 235.385 114.6 233.385 86.4C233.185 84.2 230.685 82.9 228.985 84.6C203.885 109.3 179.285 134.5 154.685 159.7C153.685 160.7 153.785 162.3 154.685 163.3C160.085 169.3 167.685 172 175.185 174.7C184.985 178.2 194.685 181.7 204.485 185.2C223.785 192.2 243.185 199.1 262.485 206.1C264.585 206.8 266.185 204.6 265.785 202.8C257.385 161 255.785 118.2 253.085 75.7C252.285 63.5 251.485 51.4 250.885 39.2C250.785 36.7 248.085 35.8 246.185 37.3C227.785 52.4 210.285 68.8 193.385 85.6C184.885 94.1 176.485 102.7 168.285 111.5C161.285 119 154.385 126.6 148.585 135.2C142.985 143.5 138.385 152.9 136.885 162.9C136.185 167.3 135.285 172.9 138.385 176.7C139.985 178.6 142.185 179.6 144.285 180.8C147.185 182.3 149.985 183.8 152.885 185.3C174.185 196 195.585 206.4 216.385 218.2C239.785 231.5 262.885 245.4 284.885 260.9C286.385 262 288.785 260.5 288.685 258.7C286.585 223 283.585 187.4 280.685 151.7C277.885 116.1 274.785 80.4 271.685 44.8C269.985 26.2 268.485 7.5 262.685 -10.4C262.085 -12.2 259.785 -12.9 258.385 -11.5C222.685 25.1 187.385 62 152.685 99.5C142.985 110 133.185 120.5 123.685 131.2C122.285 133.1 124.885 135.8 126.685 133.9Z" fill="#00082E"/>
<path d="M263.485 -8.49999C262.885 -9.89999 262.285 -11.3 261.685 -12.7C261.085 -12.2 260.385 -11.7 259.785 -11.2C268.885 -4.29999 277.785 2.80001 286.985 9.50001C296.085 16.1 305.385 22.3 314.885 28.3C333.885 40.5 353.585 51.6 373.785 61.7C385.285 67.4 396.885 72.8 408.585 77.9C408.385 77 408.085 76.2 407.885 75.3C397.185 94 382.985 110.5 368.385 126.1C352.685 142.9 336.385 159.4 320.185 175.7C310.585 185.3 300.985 194.9 291.285 204.4C292.485 204.9 293.685 205.4 294.885 205.9C299.285 163.7 298.685 121 296.785 78.7C296.185 66.6 295.585 54.6 294.985 42.5C293.885 43.1 292.785 43.8 291.685 44.4C308.285 52.3 325.485 59.3 342.785 65.6C360.285 72 378.085 77.5 396.185 82.1C395.885 80.9 395.585 79.8 395.285 78.6C366.385 107.5 337.385 136.7 315.085 171.2C316.385 171.6 317.685 171.9 318.985 172.3C320.385 139 319.485 105.1 314.985 72C314.085 72.9 313.285 73.7 312.385 74.6C330.585 80.5 349.285 84.9 368.385 87.4C367.885 86.3 367.485 85.1 366.985 84C355.085 99.1 343.185 114.2 331.285 129.3C332.485 129.8 333.585 130.3 334.785 130.7C335.385 119.4 334.385 108.2 331.785 97.2C331.085 98.1 330.485 99 329.785 99.8C332.785 99.5 335.685 99.1 338.685 98.8C340.185 98.6 341.685 98.5 343.085 98.3C343.785 98.2 344.585 98.2 345.285 98.1C345.985 98.3 346.385 98 346.485 97.2C347.085 97.2 347.685 97.2 348.385 97.2C348.185 97.1 348.085 97.1 347.885 97C345.685 96.1 343.785 99.3 345.985 100.2C349.685 101.8 351.885 96.5 348.285 94.8C345.985 93.7 342.685 94.7 340.285 94.9C336.785 95.2 333.285 95.3 329.785 95.6C328.385 95.7 327.485 96.8 327.785 98.2C330.285 108.8 331.285 119.7 330.785 130.6C330.685 132.2 333.185 133.4 334.285 132C346.185 116.9 358.085 101.8 369.885 86.6C370.985 85.2 370.285 83.4 368.485 83.2C349.785 81 331.385 76.8 313.685 70.3C312.485 69.9 310.885 71 310.985 72.3C314.285 105.5 316.185 138.6 314.885 172C314.785 174.2 317.785 174.7 318.785 173.1C340.885 138.9 369.685 110 398.285 81.4C399.385 80.3 398.885 78.3 397.385 77.9C379.685 73.4 362.185 68.2 344.985 62C336.485 59 328.085 55.7 319.685 52.2C310.985 48.6 302.585 44.4 293.985 40.4C292.585 39.7 290.585 40.5 290.685 42.3C292.985 84.7 295.285 127.2 293.585 169.6C293.085 181.7 292.085 193.7 290.885 205.7C290.685 207.6 293.285 208.4 294.485 207.2C311.685 190.4 328.685 173.3 345.485 156.1C361.085 140.1 376.985 124.2 391.085 106.8C398.685 97.4 405.485 87.5 411.485 77C411.985 76.2 411.785 74.8 410.785 74.4C369.585 56.7 330.185 34.9 293.285 9.50001C282.585 2.10001 271.685 -5.19999 261.685 -13.5C260.785 -14.2 258.985 -13.6 259.485 -12.2C259.985 -10.8 260.585 -9.29999 261.085 -7.89999C261.485 -6.09999 264.185 -6.89999 263.485 -8.49999Z" fill="#00082E"/>
<path d="M297.085 214.9C331.685 187.4 363.785 156.7 395.085 125.5C394.185 125.3 393.285 125 392.285 124.8C398.185 162.1 403.785 199.4 409.885 236.6C410.385 235.6 410.985 234.7 411.485 233.7C375.885 248 341.285 265.4 309.185 286.3C310.285 286.9 311.385 287.6 312.585 288.2C310.385 265 306.985 242 301.285 219.4C300.985 220.2 300.585 221.1 300.285 221.9C329.485 201.1 357.885 178.6 384.585 154.6C383.785 154.4 383.085 154.2 382.285 154C385.685 174.3 387.585 195 388.485 215.6C388.685 220.6 388.985 225.6 388.885 230.6C388.885 234.1 386.585 234.5 383.785 235.4C381.485 236.2 379.185 237.1 376.885 237.9C368.485 241.1 360.385 244.8 352.385 248.9C342.985 253.7 333.985 259.2 325.285 265.2C326.285 265.6 327.285 266 328.385 266.4C327.085 258.8 325.885 251.1 324.585 243.5C323.885 239.7 323.285 235.9 322.585 232.1C322.185 230 321.485 228.1 323.185 226.5C324.385 225.3 326.685 224.4 328.185 223.5C341.385 215.5 354.685 207.4 367.885 199.4C366.885 199 365.985 198.6 364.985 198.2C366.385 203.4 367.785 208.6 369.185 213.8C369.885 216.3 370.885 219 371.285 221.6C371.685 224 371.585 225.1 369.385 226.1C368.385 226.6 367.285 227 366.285 227.4C355.985 231.9 345.685 236.4 335.285 240.7C336.085 241 336.885 241.4 337.685 241.7C336.885 240.3 337.185 239.2 338.385 238.2C340.585 236.2 337.385 233 335.185 235C332.585 237.3 332.185 241 333.985 243.9C334.685 245 335.885 245.2 336.985 244.7C342.985 242 348.985 239.4 354.985 236.7C357.985 235.4 360.985 234 363.985 232.7C366.685 231.5 369.685 230.5 372.185 228.9C376.785 226.1 374.685 220.9 373.585 216.7C371.985 210.2 370.285 203.7 368.685 197.1C368.385 195.9 366.885 195.3 365.785 195.9C350.785 204.7 335.485 213.2 320.785 222.5C318.285 224.1 317.085 225.9 317.385 228.9C317.885 233 318.785 237.2 319.585 241.3C321.085 250.1 322.685 258.8 324.285 267.6C324.485 268.9 326.285 269.6 327.385 268.8C343.785 257.2 361.585 247.7 380.285 240.6C383.585 239.3 388.985 238.5 391.285 235.5C393.785 232.2 392.285 226.3 392.085 222.5C391.385 211.5 390.485 200.4 389.385 189.4C388.185 177.3 386.485 165.3 384.785 153.2C384.585 152.1 383.185 152 382.485 152.6C368.985 164.1 355.385 175.4 341.385 186.4C327.285 197.4 312.585 207.8 297.885 218C297.085 218.6 296.585 219.5 296.885 220.5C302.185 242.7 306.285 265.3 307.985 288.1C308.085 289.7 309.785 291 311.385 290C343.685 269.8 377.385 252.2 412.685 238C413.985 237.5 414.585 236.5 414.285 235.1C408.185 197.9 401.685 160.8 395.385 123.7C395.185 122.4 393.385 122.2 392.585 123C361.585 154.5 328.685 184 296.185 213.9C295.785 214.6 296.585 215.4 297.085 214.9Z" fill="#00082E"/>
</g>
<g style="mix-blend-mode:multiply">
<path d="M127.01 232.383C127.01 232.383 253.718 240.518 296.099 227.719C296.099 227.719 241.687 194.094 187.6 198.65C133.513 203.206 127.01 232.383 127.01 232.383Z" fill="#E72F74"/>
</g>
<path d="M112.594 227.719C112.594 227.719 139.583 202.663 126.902 100.597C126.902 100.597 117.255 88.8823 99.3706 96.4749C99.3706 96.4749 68.2626 133.896 102.406 227.719L73.7905 238.565C73.7905 238.565 77.9094 244.531 91.6749 240.952C105.44 237.372 107.933 237.915 108.367 240.843C108.801 243.663 116.496 243.121 116.063 239.867C115.629 236.613 112.594 227.719 112.594 227.719Z" fill="#F9EEF6" stroke="#272453" stroke-width="2" stroke-miterlimit="10"/>
<path d="M99.5874 163.073C99.5874 163.073 108.584 175.33 116.496 163.073" stroke="#272453" stroke-miterlimit="10"/>
<path d="M326.665 219.909C324.931 220.777 323.521 221.536 322.112 222.296C320.703 222.946 319.186 223.597 317.452 224.465C317.126 224.573 315.934 223.706 316.043 223.38C316.584 221.211 318.21 219.367 320.161 218.391C322.221 217.415 324.605 217.306 326.665 218.174C327.098 218.174 326.99 219.692 326.665 219.909Z" fill="#272453"/>
<path d="M115.412 71.5277C113.786 73.4801 111.185 74.5647 108.475 74.4563C105.766 74.4563 102.947 73.1547 100.996 70.66C99.1538 68.1652 98.6118 65.1282 99.2622 62.525C99.9125 59.9218 101.647 57.644 103.923 56.5594C104.682 56.3424 106.524 58.6202 106.524 59.1625C106.199 60.6811 106.416 62.0911 106.849 63.0673C107.175 64.152 107.717 64.8028 108.042 65.3451C108.367 65.779 109.017 66.4298 109.884 67.0806C110.86 67.6229 112.052 68.2737 113.57 68.3822C114.112 68.4906 115.954 70.7684 115.412 71.5277Z" fill="#272453"/>
<path d="M110.101 69.033C110.318 67.9483 110.101 67.0806 109.993 66.3213C109.884 65.5621 109.668 65.0197 109.668 64.4774C109.668 63.8266 109.668 62.9589 109.668 61.7657C109.668 60.6811 109.668 59.271 109.884 57.7525C109.993 57.3186 112.594 55.9086 113.028 56.017C114.437 56.7763 115.629 57.644 116.605 58.9456C117.58 60.1388 118.339 61.7657 118.447 63.7181C118.664 65.6705 118.122 67.7314 116.93 69.3584C115.846 70.9854 113.787 72.287 111.835 72.287C111.077 72.287 110.101 69.4668 110.101 69.033Z" fill="#272453"/>
<path d="M143.594 42.3503C145.27 42.3503 146.629 40.9906 146.629 39.3133C146.629 37.636 145.27 36.2762 143.594 36.2762C141.918 36.2762 140.559 37.636 140.559 39.3133C140.559 40.9906 141.918 42.3503 143.594 42.3503Z" fill="#272453"/>
<path d="M155.95 40.3979C156.609 40.3979 157.143 39.0382 157.143 37.3608C157.143 35.6835 156.609 34.3238 155.95 34.3238C155.292 34.3238 154.758 35.6835 154.758 37.3608C154.758 39.0382 155.292 40.3979 155.95 40.3979Z" fill="#272453"/>
<path d="M158.226 24.2365C154.541 24.2365 152.59 30.419 152.59 36.2762C152.59 38.1201 152.807 40.0725 153.241 41.808C153.457 41.808 153.566 41.9165 153.782 42.0249C154.65 42.6757 155.625 43.3265 156.384 44.1942C155.517 42.4588 154.866 39.7471 154.866 36.2762C154.866 30.3106 156.926 26.4058 158.335 26.4058C159.744 26.4058 161.803 30.2021 161.803 36.2762C161.803 42.3503 159.744 46.1466 158.335 46.1466C158.01 46.1466 157.685 45.9297 157.359 45.6043C157.468 45.7128 157.468 45.9297 157.576 46.1466C157.793 46.7974 157.793 47.5567 157.576 48.2075C157.793 48.316 158.118 48.316 158.335 48.316C162.02 48.316 163.971 42.1334 163.971 36.2762C163.971 30.419 161.912 24.2365 158.226 24.2365Z" fill="#F2BC1E"/>
<path d="M153.132 41.3741C153.132 41.3741 160.286 46.472 156.926 48.3159" stroke="#272453" stroke-miterlimit="10"/>
<path d="M154.758 54.39C154.758 54.39 151.615 57.2102 148.255 55.9086" stroke="#272453" stroke-miterlimit="10"/>
<path d="M157.468 15.993C156.817 14.4745 155.625 13.3899 154.108 12.8475C153.457 12.6306 152.699 12.4137 151.94 12.3052C151.506 12.3052 151.073 12.3052 150.748 12.3052C150.314 12.3052 149.989 12.3052 149.772 12.3052C149.122 12.4137 148.797 13.1729 148.688 13.8237C134.381 6.8819 116.279 7.31576 101.864 15.8846C98.0699 18.1624 94.6014 21.091 91.8917 24.9957C90.591 26.9481 89.3987 29.1174 88.7484 31.3952C87.9896 33.673 87.6645 36.1677 87.7728 38.554C87.9896 43.3265 89.9406 47.9905 93.1923 51.353C95.6853 54.0646 98.937 55.9086 102.297 56.7763C103.598 60.4641 104.14 63.9351 106.199 69.4668C109.668 78.6864 111.402 71.8531 116.821 68.7076C122.241 65.562 120.29 57.5356 120.29 57.5356L117.797 53.8477C117.797 53.8477 112.703 52.6546 112.161 48.8583C111.619 45.062 118.989 43.9773 125.276 42.2418C129.828 41.0487 131.021 38.2286 131.346 36.6016C134.923 35.8423 138.499 34.6492 141.86 33.1307C145.111 31.6122 148.146 29.7682 150.964 27.7074C151.723 27.1651 152.373 26.6227 153.024 26.0804C153.674 25.5381 154.433 24.8873 155.625 23.5857C157.793 21.4163 158.552 18.4878 157.468 15.993Z" fill="#272453"/>
<path d="M131.237 34.3238C131.237 34.3238 135.356 43.0011 118.014 44.3027C118.014 44.3027 101.972 48.7498 123.433 56.017" stroke="#272453" stroke-miterlimit="10"/>
<path d="M121.482 48.2075C121.482 48.2075 116.171 45.4958 116.171 49.1837" stroke="#272453" stroke-miterlimit="10"/>
<path d="M112.161 47.9906C112.377 49.726 111.293 50.8107 116.171 52.98C121.049 55.1493 122.783 63.3928 117.905 67.9483" stroke="#272453" stroke-miterlimit="10"/>
<path d="M87.6645 48.2075C93.6507 48.2075 98.5035 43.3513 98.5035 37.3609C98.5035 31.3704 93.6507 26.5143 87.6645 26.5143C81.6782 26.5143 76.8254 31.3704 76.8254 37.3609C76.8254 43.3513 81.6782 48.2075 87.6645 48.2075Z" fill="#272453"/>
<path d="M56.7733 102.007C56.8816 102.983 57.7488 104.176 58.6159 104.501C59.3746 104.827 60.5669 104.718 61.6508 104.176C62.1928 103.959 62.6263 103.525 63.0599 103.2C63.4934 102.766 63.8186 102.332 64.2522 101.79C64.9025 100.705 65.4445 99.295 65.878 97.7765C67.6123 91.377 67.8291 84.4351 67.7207 77.2764C67.6123 70.1176 67.2871 62.6335 68.371 54.9324C68.913 51.1361 69.6717 47.0143 72.0563 43.218C74.4409 39.4217 78.5597 36.6016 83.2205 36.8185C84.5211 36.927 84.9547 37.9032 84.8463 38.7709C84.7379 39.6386 84.0876 40.2894 83.3288 40.5064C81.9198 40.8318 80.6191 41.4826 79.6436 42.5672C79.1016 43.1096 78.6681 43.6519 78.2345 44.1942C77.8009 44.7366 77.4758 45.3874 77.259 46.1466C76.1751 48.8583 75.8499 52.2207 75.8499 55.6916C75.7415 62.6335 76.3919 69.7922 76.5003 77.3848C76.6087 84.869 75.9583 92.8955 73.0318 100.488C72.2731 102.441 71.1892 104.393 69.6717 106.237C68.913 107.105 68.0458 107.972 66.9619 108.623C65.878 109.274 64.7941 109.816 63.6018 110.142C61.2173 110.792 58.2907 110.575 56.0145 108.948C53.8467 107.213 52.7628 104.718 53.1964 102.007C53.4132 101.139 53.8467 100.597 54.3887 100.38C54.7138 99.8373 55.1474 99.9458 55.4726 100.163C55.7977 100.38 56.1229 100.705 56.2313 101.03C56.5565 101.356 56.6649 101.681 56.7733 102.007Z" fill="#272453"/>
<path d="M89.0735 47.3397C86.7974 44.5196 85.2799 40.8318 85.3883 37.0355C85.3883 33.2391 86.9057 29.4428 89.6155 26.8397C90.0491 26.5143 91.2414 27.382 91.133 27.8158C90.2658 30.9614 89.8323 33.9984 89.8323 37.0355C89.8323 40.0725 90.1574 43.1096 90.8078 46.472C90.8078 47.1228 89.5071 47.7736 89.0735 47.3397Z" fill="#F2BC1E"/>
<path d="M143.594 50.2683C147.066 50.2683 149.88 45.3636 149.88 39.3132C149.88 33.2629 147.066 28.3582 143.594 28.3582C140.122 28.3582 137.307 33.2629 137.307 39.3132C137.307 45.3636 140.122 50.2683 143.594 50.2683Z" stroke="#F2BC1E" stroke-width="2" stroke-miterlimit="10"/>
<path d="M276.588 214.594C276.588 214.594 222.285 220.452 195.513 181.404" stroke="#272453" stroke-width="2" stroke-miterlimit="10"/>
<path d="M187.6 198.65C179.254 208.846 164.838 232.925 151.506 232.274" stroke="#272453" stroke-width="2" stroke-miterlimit="10"/>
<path d="M137.307 136.282C137.307 136.282 149.338 140.078 153.132 128.581" stroke="#272453" stroke-width="2" stroke-miterlimit="10"/>
<path d="M97.6364 87.7976C97.6364 87.7976 105.44 78.578 118.772 83.7844" stroke="#272453" stroke-width="2" stroke-miterlimit="10"/>
<path d="M296.207 227.719C296.207 227.719 267.484 235.854 235.942 234.335" stroke="#272453" stroke-width="2" stroke-miterlimit="10"/>
<path d="M184 112C199 103.667 240.4 101.2 286 158" stroke="#272453" stroke-width="2"/>
<path d="M534.177 231.976H53V234.126H534.177V231.976Z" fill="#272453"/>
<path d="M561.431 169.511H361.287C356.401 169.511 352.404 165.501 352.404 160.598V48.2061C352.404 43.304 356.401 39.2932 361.287 39.2932H561.431C566.317 39.2932 570.314 43.304 570.314 48.2061V160.598C570.314 165.501 566.317 169.511 561.431 169.511Z" stroke="#272453" stroke-width="2" stroke-miterlimit="10"/>
<path d="M461.315 205.43C445.946 205.43 433.421 217.998 433.421 233.417H489.209C489.297 217.998 476.772 205.43 461.315 205.43Z" fill="#272453"/>
<path d="M461.315 216.928C466.662 216.928 470.998 212.579 470.998 207.213C470.998 201.848 466.662 197.498 461.315 197.498C455.967 197.498 451.632 201.848 451.632 207.213C451.632 212.579 455.967 216.928 461.315 216.928Z" fill="#1E1559"/>
<path d="M488.765 59.5256H433.954C431.822 59.5256 430.134 57.743 430.134 55.693C430.134 53.5539 431.911 51.8604 433.954 51.8604H488.765C490.897 51.8604 492.584 53.643 492.584 55.693C492.673 57.743 490.897 59.5256 488.765 59.5256Z" stroke="#272453" stroke-width="2" stroke-miterlimit="10"/>
<path d="M461.315 195.805C458.205 195.805 455.629 193.22 455.629 190.1V150.259C455.629 147.14 458.205 144.555 461.315 144.555C464.424 144.555 467 147.14 467 150.259V190.1C467 193.309 464.424 195.805 461.315 195.805Z" fill="#272453"/>
<path d="M461.315 134.84C464.455 134.84 467 132.286 467 129.136C467 125.985 464.455 123.431 461.315 123.431C458.175 123.431 455.629 125.985 455.629 129.136C455.629 132.286 458.175 134.84 461.315 134.84Z" stroke="#272453" stroke-width="2.5964" stroke-miterlimit="10"/>
</g>
<defs>
<clipPath id="clip0_32_3351">
<rect width="624" height="234" fill="white"/>
</clipPath>
</defs>
</svg>
