<svg width="640" height="300" viewBox="0 0 640 300" fill="none" xmlns="http://www.w3.org/2000/svg">
<g clip-path="url(#clip0_13_81)">
<g clip-path="url(#clip1_13_81)">
<path d="M335.435 181.943L434.043 90.3896L456.348 121.648L388.652 217.256C388.652 217.256 333.478 282.782 321.348 256.232C321.478 256.232 321.739 188.221 335.435 181.943Z" fill="#F2BC1E" stroke="#272453" stroke-width="3.0717" stroke-miterlimit="10"/>
<path d="M317.043 166.248L322.391 164.809C322.391 138.39 296.565 132.504 296.565 132.504C295.261 130.804 293.826 129.234 292.391 127.534C292.391 127.534 266.957 102.292 236.565 107.262C236.565 107.262 195.478 106.085 178.261 132.504C161.043 159.055 163 172.657 163 172.657L224.826 190.967L213.217 299H317.565C317.565 299 345.087 231.251 317.043 166.248Z" fill="white"/>
<mask id="mask0_13_81" style="mask-type:alpha" maskUnits="userSpaceOnUse" x="162" y="106" width="168" height="193">
<path d="M317.043 166.248L322.391 164.809C322.391 138.39 296.565 132.504 296.565 132.504C295.261 130.804 293.826 129.234 292.391 127.534C292.391 127.534 266.957 102.292 236.565 107.262C236.565 107.262 195.478 106.085 178.261 132.504C161.043 159.055 163 172.657 163 172.657L224.826 190.967L213.217 299H317.565C317.565 299 345.087 231.251 317.043 166.248Z" fill="white"/>
</mask>
<g mask="url(#mask0_13_81)">
<path d="M1196.73 -478.853H-1323.71V2047.46H1196.73V-478.853Z" fill="white"/>
<path d="M376.958 394.242H-503.056V-529.505H376.958V394.242ZM-502.3 393.484H376.202V-528.747H-502.3V393.484Z" fill="#00082E"/>
<path d="M-258.825 121.526C-261.597 121.779 -264.496 121.905 -267.268 122.158C-266.638 123.295 -266.008 124.305 -265.378 125.442C-237.905 80.0948 -186.614 49.9053 -133.558 49.4001C-118.184 49.2737 -101.675 51.9264 -90.3329 63.0422C-89.3247 64.0527 -87.4344 64.179 -86.4262 63.0422C-69.5392 44.6001 -47.1072 29.1895 -21.5247 26.7895C1.1593 24.7685 25.4816 33.6106 38.3359 53.0632C39.218 54.3264 40.8563 54.8316 42.2425 54.0738C62.2801 42.7053 85.8463 38.0316 108.656 41.0632C127.434 43.4632 149.992 51.9264 156.419 71.758C156.923 73.2738 158.435 74.2843 160.073 73.779C191.831 63.2948 230.772 58.2422 258.875 80.7264C269.335 89.1896 278.787 103.716 274.88 117.737C270.343 133.779 249.297 136.432 235.561 138.2C214.893 140.853 193.973 139.463 173.81 134.411C171.793 133.905 170.407 135.295 170.155 137.19C168.139 156.011 144.195 164.474 129.198 170.032C109.16 177.484 87.9887 182.663 66.5649 183.421C45.5192 184.305 25.7336 180.39 6.32618 172.432C1.66336 170.537 -2.49535 170.411 -7.03215 172.558C-11.569 174.705 -15.8537 177.611 -20.3905 180.011C-29.8422 185.063 -39.5458 189.484 -49.6276 193.147C-88.3164 207.295 -130.66 211.337 -171.239 204.011C-190.143 200.6 -210.936 195.547 -225.051 181.779C-228.075 178.874 -230.47 175.084 -234.124 172.937C-238.031 170.663 -242.19 171.295 -246.222 173.063C-250.255 174.832 -253.91 176.221 -258.321 175.211C-262.731 174.326 -266.638 171.674 -269.537 168.263C-276.846 159.926 -275.712 148.305 -270.293 139.211C-264.244 129.105 -253.91 123.042 -243.072 119.379C-232.99 115.968 -222.026 113.695 -211.314 113.19C-201.106 112.684 -190.395 114.326 -182.959 122.032C-181.951 123.042 -180.187 123.042 -179.305 122.032C-158.889 100.811 -129.526 89.5685 -100.163 90.579C-85.67 91.0843 -71.3035 94.3685 -58.3232 100.937C-55.2986 102.453 -52.2741 104.726 -48.8715 105.611C-44.8388 106.621 -41.0582 104.979 -37.7816 102.705C-31.4805 98.4106 -25.4314 94.2422 -18.3742 91.0843C-4.13364 84.7685 11.7453 82.3685 27.246 83.6316C43.2508 84.8948 57.7433 90.4527 71.2277 99.0422C78.1589 103.463 85.0902 105.99 93.4077 103.842C101.851 101.695 109.412 96.7685 117.856 94.4948C126.677 92.0948 135.877 91.3369 144.951 92.0948C152.638 92.7264 161.208 94.1159 167.131 99.5474C170.155 102.326 172.046 106.242 169.903 110.158C168.013 113.442 164.106 114.832 160.703 115.842C151.126 118.621 140.918 119.632 131.088 121.274C109.286 125.063 86.9806 129.105 65.0527 123.926C64.1705 123.674 63.0363 123.926 62.5322 124.558C41.6125 151.337 -0.100954 157.274 -27.6998 137.442C-28.708 136.684 -29.9682 137.19 -30.8504 137.821C-62.734 163.59 -105.834 175.084 -146.287 168.769C-156.117 167.253 -167.711 164.726 -173.003 155.253C-173.76 153.99 -175.524 153.484 -176.658 154.242C-187.874 161.316 -201.358 164.347 -214.591 162.326C-220.514 161.442 -227.445 159.674 -232.108 155.505C-237.779 150.453 -235.132 143.884 -229.966 139.716C-220.514 132.39 -206.651 130.242 -195.057 131C-182.455 131.758 -170.231 136.432 -160.401 144.39C-159.519 145.147 -158.637 145.274 -157.629 144.769C-140.364 136.305 -120.074 126.832 -100.667 134.411C-93.7355 137.063 -87.6864 146.032 -79.999 140.853C-76.2183 138.326 -72.8157 135.168 -69.0351 132.642C-64.6243 129.737 -59.9615 127.084 -55.0466 125.063C-46.099 121.4 -36.1433 120.011 -26.5656 122.158C-22.1548 123.168 -17.996 124.937 -14.3414 127.59C-11.1908 129.863 -8.29231 132.895 -4.13357 133.4C-0.100861 133.905 3.42773 131.758 6.70431 129.737C11.2411 126.958 15.652 124.179 20.3148 121.653C28.6323 117.232 38.0839 114.2 47.5356 116.726C52.1984 117.99 55.3488 120.642 58.6254 123.926C62.2801 127.716 65.9348 127.59 70.7237 125.695C80.8055 121.779 93.0296 115.337 103.615 120.642C106.766 122.158 109.412 117.484 106.388 115.968C97.4403 111.547 87.9887 113.442 79.0411 116.726C76.7727 117.611 74.5043 118.495 72.3619 119.379C70.3455 120.137 67.447 122.032 65.3047 121.905C62.9102 121.779 61.146 118.495 59.5077 117.105C57.9954 115.842 56.3571 114.705 54.5928 113.695C36.9496 104.726 19.0545 116.095 4.18387 125.19C1.91547 126.579 -0.730942 128.6 -3.62945 128.095C-5.64581 127.716 -7.41019 126.074 -9.04848 124.811C-12.8291 121.779 -16.8619 119.505 -21.5247 117.99C-29.9682 115.211 -39.1677 115.211 -47.7373 117.232C-57.441 119.505 -66.5147 124.432 -74.4541 130.368C-77.4786 132.642 -83.0236 139.211 -86.8043 137.063C-90.7109 134.916 -93.7354 131.884 -98.0202 130.116C-118.94 121.526 -140.868 131.505 -159.645 140.726C-158.763 140.853 -157.755 140.979 -156.873 141.105C-174.894 126.579 -200.35 122.158 -222.026 130.495C-230.596 133.779 -242.568 141.105 -239.669 152.095C-236.897 162.832 -222.53 166.368 -213.079 167.632C-199.468 169.4 -185.354 166.242 -173.76 158.916C-175.02 158.537 -176.154 158.284 -177.414 157.905C-172.625 166.368 -163.552 170.411 -154.478 172.558C-144.144 174.958 -133.306 175.842 -122.721 175.716C-100.541 175.463 -78.6127 170.411 -58.4492 161.19C-47.1071 156.011 -36.5213 149.316 -26.8176 141.484C-27.8258 141.611 -28.96 141.737 -29.9681 141.863C-0.604951 163.211 44.385 156.768 66.5649 128.221C65.6827 128.474 64.8006 128.726 64.0444 128.853C84.082 133.526 104.498 131.126 124.535 127.842C134.869 126.2 145.077 124.432 155.285 122.663C161.964 121.526 169.651 119.884 174.188 114.2C178.473 108.768 177.465 101.568 172.928 96.6422C167.761 90.8316 159.947 88.4316 152.512 87.1685C143.438 85.6527 134.113 85.6527 125.039 87.1685C115.588 88.6843 107.396 92.3474 98.7006 96.0106C94.6679 97.779 90.257 99.4211 85.7202 98.9159C80.3013 98.4106 75.6385 94.7474 71.1017 91.9685C64.2965 87.6738 56.8611 84.3896 49.1737 81.9896C33.925 77.3159 17.5422 76.558 1.78941 79.3369C-6.14999 80.7264 -13.8373 83.1264 -21.2726 86.5369C-24.8012 88.179 -28.3299 89.9474 -31.6065 91.9685C-35.2611 94.2422 -38.4117 97.1474 -42.1924 99.1685C-47.1073 101.947 -51.392 97.9053 -55.6767 95.758C-59.0793 94.1159 -62.4819 92.6001 -66.0105 91.2106C-73.3198 88.558 -80.7552 86.6632 -88.4425 85.6527C-122.469 81.1053 -158.889 92.4737 -182.455 117.863C-181.195 117.863 -180.061 117.863 -178.801 117.863C-192.537 104.221 -213.835 106.747 -230.974 110.537C-250.759 114.705 -272.687 124.179 -278.484 145.653C-280.879 154.368 -279.492 163.59 -273.821 170.663C-268.654 177.232 -260.337 181.526 -251.893 180.516C-247.483 179.884 -242.064 175.463 -237.653 176.853C-235.385 177.611 -233.494 179.884 -231.982 181.653C-230.218 183.674 -228.327 185.695 -226.311 187.463C-218.624 194.284 -209.298 198.958 -199.594 202.242C-179.305 209.316 -156.999 212.347 -135.575 212.853C-113.647 213.358 -91.5931 210.832 -70.2953 205.4C-48.8715 199.968 -28.0778 191.505 -9.04848 180.263C-6.78007 178.874 -4.38559 177.232 -1.73912 176.6C1.7895 175.59 5.06608 177.611 8.34266 178.874C13.2575 181.021 18.4244 182.789 23.5913 184.179C34.3032 187.084 45.3931 188.6 56.4831 188.979C79.0411 189.611 101.599 185.316 122.897 178.242C132.979 174.832 143.187 171.042 152.638 165.99C160.452 161.821 168.265 156.263 172.928 148.558C175.07 144.895 176.33 140.979 176.708 136.684C175.448 137.568 174.314 138.579 173.054 139.463C192.965 144.516 213.759 146.158 234.175 143.884C249.675 142.116 271.477 139.59 279.543 123.8C286.6 109.905 280.299 93.1053 270.595 82.2422C259.253 69.4843 242.114 62.1579 225.605 59.5053C203.173 55.9685 180.615 60.5158 159.317 67.5895C160.577 68.2211 161.712 68.979 162.972 69.6106C156.167 48.1369 133.231 38.158 112.689 35.1264C87.8626 31.4632 62.2801 36.2632 40.3522 48.6422C41.6124 49.0211 42.8728 49.2738 44.259 49.6527C33.6731 33.4843 15.7779 23.6316 -3.12549 21.1053C-23.5411 18.3264 -44.0827 24.2632 -61.3477 35.0001C-71.6816 41.4422 -81.0072 49.5264 -89.1986 58.4948C-87.9384 58.4948 -86.6782 58.4948 -85.292 58.4948C-105.456 38.6632 -139.482 41.4422 -164.812 47.2527C-192.159 53.4422 -217.741 67.0843 -238.409 85.779C-250.129 96.3895 -260.085 108.895 -267.898 122.537C-268.654 123.926 -267.646 125.947 -266.008 125.821C-263.235 125.569 -260.337 125.316 -257.564 125.063C-256.178 125.442 -256.052 121.274 -258.825 121.526Z" fill="#00082E"/>
<path d="M-19.7603 251.253C-12.451 237.863 -1.99124 225.105 11.3671 217.653C25.1036 210.074 42.4947 208.305 56.3572 216.389C57.2393 216.895 58.6256 216.768 59.3817 216.011C73.7483 200.347 95.0461 191.884 116.092 191.632C126.552 191.505 137.138 193.4 146.967 197.316C151.882 199.337 156.545 201.863 160.956 204.895C165.114 207.8 168.895 211.716 174.566 210.074C179.607 208.558 184.018 204.263 188.555 201.737C193.343 199.084 198.384 197.063 203.551 195.547C213.885 192.516 224.723 191.505 235.561 192.263C246.399 193.147 257.237 195.926 266.94 200.726C271.729 203.126 276.392 205.905 280.677 209.19C284.962 212.474 288.364 216.768 292.649 220.305C298.32 224.979 304.369 222.074 310.67 220.305C317.979 218.284 325.919 217.274 333.354 218.916C346.46 221.568 358.685 233.947 355.03 248.221C354.778 249.484 355.408 250.874 356.668 251.126C366.876 253.274 370.027 266.663 365.49 275.126C359.567 286.116 344.444 288.263 333.228 286.747C330.834 286.368 329.195 288.895 330.834 290.79C335.244 296.095 325.667 302.79 321.886 305.063C316.089 308.347 310.04 311.126 303.739 313.274C291.263 317.442 278.156 319.337 264.924 318.958C258.245 318.705 251.692 317.821 245.138 316.432C241.988 315.674 238.838 314.79 235.813 313.779C233.293 312.895 230.646 311.632 227.999 312.137C222.959 313.021 219.304 319.084 215.901 322.368C211.743 326.284 207.332 329.695 202.543 332.853C183.766 345.105 161.082 351.042 138.65 350.411C127.434 350.032 116.344 348.011 105.884 344.221C100.591 342.326 95.4241 339.926 90.5092 337.147C85.3423 334.242 80.0493 330.453 73.7482 332.347C70.3456 333.358 67.4471 335.632 64.2965 337.4C60.8939 339.295 57.3654 340.811 53.7107 341.947C46.5275 344.221 39.0922 345.232 31.6568 344.853C24.3475 344.474 16.7862 343.084 10.233 339.926C4.05795 336.895 -3.62953 330.705 -0.604996 323C0.655227 319.59 -5.01568 317.947 -6.02386 321.484C-10.0566 334.495 4.05783 343.59 14.5177 346.874C27.876 351.169 42.6207 350.916 55.8531 346.495C58.8776 345.484 61.9021 344.221 64.8006 342.705C68.2032 340.937 71.4799 338.158 75.1345 337.021C79.2933 335.758 82.8218 338.411 86.2244 340.432C88.9969 342.074 91.8954 343.716 94.92 345.105C105.632 350.158 117.226 353.316 128.946 354.705C152.89 357.484 177.843 352.558 199.014 340.811C204.055 338.032 208.844 334.874 213.381 331.211C218.422 327.295 222.329 322.495 227.117 318.326C230.016 315.8 234.049 318.453 237.199 319.337C240.854 320.474 244.635 321.484 248.415 322.116C255.22 323.505 262.152 324.137 269.083 324.263C284.583 324.39 299.958 321.105 314.073 314.79C322.768 311 344.822 299.758 334.74 287.253C333.984 288.642 333.102 290.032 332.346 291.295C346.208 293.442 364.482 290.284 370.657 275.884C375.32 265.021 371.035 249.105 358.307 246.453C358.811 247.463 359.441 248.474 359.945 249.358C362.717 238.495 357.676 227.126 349.107 220.432C338.899 212.347 324.911 211.842 312.56 214.621C309.284 215.379 306.133 216.768 302.857 217.526C298.194 218.663 295.925 216.39 293.027 213.358C289.246 209.316 284.962 205.779 280.425 202.621C271.225 196.305 260.639 191.758 249.801 189.358C228.126 184.432 204.559 187.084 185.026 198.2C180.111 200.979 174.062 207.926 168.391 203.884C163.602 200.474 159.191 197.19 153.898 194.537C144.069 189.737 133.483 187.084 122.645 186.453C97.9445 184.937 73.1182 193.905 56.2312 212.347C57.2394 212.221 58.2474 212.095 59.2556 211.968C44.637 203.505 25.9857 204.263 11.2411 212.221C-4.13359 220.432 -14.4674 234.579 -21.7766 249.99C-22.7848 251.505 -20.6425 252.768 -19.7603 251.253Z" fill="#00082E"/>
<path d="M14.1397 263.379C18.2985 261.358 25.2297 264.516 24.3475 269.821C23.4653 275.379 15.652 277.147 13.3836 271.589C11.6193 267.168 15.1479 264.516 18.0464 261.863C21.701 258.453 25.4816 255.295 29.6404 252.389C44.385 242.158 66.0609 236.347 81.1835 249.232C82.0657 249.989 83.5779 250.242 84.4601 249.232C97.4404 233.695 116.848 223.968 137.137 223.716C157.805 223.337 177.969 232.811 191.453 248.347C192.083 249.105 193.343 249.232 194.226 248.726C210.861 239.379 230.016 232.937 249.423 235.211C265.932 237.232 281.811 246.2 290.129 260.853C290.759 261.989 292.019 262.116 293.153 261.611C298.698 259.211 305.125 256.811 311.3 257.695C318.484 258.705 321.886 265.147 319.87 271.968C317.727 279.042 311.048 282.705 304.495 284.726C297.06 286.874 289.12 287.884 281.433 288.389C273.494 288.895 265.428 288.895 257.489 287.884C253.582 287.379 249.801 286.747 246.021 285.863C244.256 285.484 242.492 284.979 240.728 284.474C238.711 283.842 236.317 282.453 234.175 282.326C231.528 282.2 228.882 285.105 226.739 286.368C223.589 288.389 220.312 290.158 216.91 291.8C210.23 295.084 203.047 297.484 195.738 299.126C187.798 300.895 179.733 301.653 171.668 301.526C167.005 301.4 151.756 301.905 151.882 294.579C151.882 292.937 149.74 291.295 148.228 292.432C124.031 310.747 92.5256 314.537 63.2884 309.611C56.1052 308.347 49.0478 306.705 42.1166 304.558C35.6895 302.537 26.742 300.389 22.8353 294.326C21.071 291.674 21.071 288.137 22.9613 285.611C25.3557 282.326 29.1364 283.968 32.539 283.968C40.6044 283.968 48.4177 281.19 55.9791 278.663C68.0772 274.621 88.7448 269.821 95.172 285.232C95.6761 286.495 97.8185 286.747 98.7007 285.737C106.64 275.758 117.982 269.316 130.458 267.042C136.759 265.905 143.313 265.905 149.614 267.042C152.638 267.547 155.537 268.432 158.435 269.568C161.46 270.705 164.106 272.6 167.131 273.611C181.245 278.411 192.965 264.263 206.45 263.126C209.6 262.874 213.003 263.253 215.649 265.4C217.414 266.916 218.548 268.684 220.69 269.821C224.345 271.842 228.63 271.716 232.662 271.084C237.955 270.2 242.996 268.432 248.289 267.168C253.078 266.032 258.623 265.274 262.404 269.19C264.798 271.59 268.453 267.926 266.058 265.526C258.875 258.074 248.037 261.989 239.468 264.389C235.057 265.653 229.764 267.547 225.101 266.284C222.833 265.653 221.572 264.263 219.934 262.621C217.792 260.474 215.145 259.211 212.121 258.579C205.946 257.442 199.644 259.337 194.099 261.863C186.916 265.021 179.481 270.705 171.289 269.821C167.635 269.442 164.484 267.042 161.208 265.779C158.057 264.516 154.781 263.505 151.504 262.874C145.329 261.737 139.028 261.484 132.727 262.368C118.36 264.263 104.75 271.337 95.5501 282.705C96.8103 283.084 98.0706 283.337 99.3308 283.716C93.7858 270.579 77.907 268.558 65.4308 271.211C55.601 273.358 46.5274 278.284 36.4456 279.547C29.6404 280.305 22.4572 277.147 18.5505 284.726C10.233 300.895 35.4374 307.716 45.8973 310.621C62.6583 315.295 80.1754 317.442 97.5664 316.053C116.722 314.537 135.247 308.347 150.622 296.726C149.362 295.968 148.228 295.337 146.967 294.579C146.967 301.526 153.898 304.558 159.821 305.442C168.265 306.705 176.834 306.705 185.278 305.695C193.973 304.684 202.417 302.663 210.609 299.505C214.515 297.99 218.296 296.347 221.951 294.453C223.841 293.442 225.605 292.432 227.369 291.421C228.882 290.537 231.906 287.632 233.545 287.253C235.057 287 237.829 288.39 239.342 288.768C241.484 289.4 243.752 289.905 246.021 290.411C250.684 291.421 255.346 292.179 260.135 292.558C270.217 293.568 280.299 293.19 290.255 291.926C304.117 290.158 323.776 286.116 325.037 268.811C325.541 261.484 320.878 255.042 313.695 253.4C306.007 251.758 298.068 254.537 291.137 257.568C292.145 257.821 293.153 258.074 294.161 258.326C285.466 242.663 268.831 233.063 251.44 230.537C230.772 227.505 210.104 234.326 192.335 244.305C193.217 244.432 194.226 244.558 195.108 244.684C180.867 228.137 159.443 218.411 137.516 218.789C116.092 219.168 95.2981 229.274 81.5617 245.695C82.6959 245.695 83.704 245.695 84.8382 245.695C66.817 230.284 41.8646 237.484 24.8516 250.495C20.3148 253.905 15.6519 257.695 11.8713 261.99C9.47684 264.768 8.72074 268.432 9.85494 271.968C12.6274 280.305 23.7175 280.305 27.2461 272.474C30.9007 264.263 20.6929 257.189 14.0137 262.495C13.1316 263 13.6356 263.632 14.1397 263.379Z" fill="#00082E"/>
<path d="M142.682 173.19C157.301 168.011 174.314 166.874 189.563 170.032C197.124 171.547 204.181 175.211 211.743 176.6C219.052 177.989 226.235 176.726 233.292 175.084C249.045 171.421 264.546 170.284 280.425 173.19C288.364 174.705 296.177 176.979 303.613 180.263C309.788 182.916 315.963 187.589 322.894 187.968C326.927 188.221 330.456 186.579 334.236 185.442C338.269 184.179 342.428 183.421 346.586 183.421C355.03 183.295 363.347 185.568 370.531 189.99C373.177 191.632 375.572 187.463 372.925 185.821C360.827 178.495 345.83 176.6 332.346 181.021C328.565 182.284 325.037 183.674 321.004 182.916C316.593 181.905 312.56 179.253 308.402 177.358C301.47 174.2 294.161 171.8 286.726 170.032C271.603 166.621 255.976 166.368 240.728 169.147C232.41 170.663 224.093 173.442 215.523 172.684C207.458 171.926 199.897 167.632 191.831 165.99C174.566 162.326 157.805 164.347 141.674 171.295C140.54 171.674 141.422 173.569 142.682 173.19Z" fill="#00082E"/>
<path d="M250.936 137.947C261.9 136.053 273.116 138.453 283.449 142.495C288.616 144.516 293.657 147.042 298.572 149.442C302.983 151.716 307.52 153.863 312.56 154.116C317.601 154.368 322.264 152.6 326.801 150.832C331.716 148.937 336.631 147.295 341.798 146.537C347.091 145.653 352.636 145.526 358.055 146.032C360.827 146.284 363.6 146.789 366.372 147.421C368.766 147.926 370.657 149.063 373.051 148.305C374.311 147.926 374.564 146.411 373.807 145.526C371.161 142.116 363.978 141.863 359.945 141.358C354.778 140.726 349.485 140.6 344.318 141.232C338.899 141.863 333.606 143.126 328.565 145.021C323.398 146.916 318.231 149.821 312.56 149.442C306.763 149.063 301.471 145.526 296.304 143.126C291.515 140.853 286.6 138.832 281.433 137.19C271.225 134.032 260.765 133.021 250.432 136.432C249.423 136.558 249.927 138.074 250.936 137.947Z" fill="#00082E"/>
<path d="M276.266 113.063C286.096 110.663 295.673 112.179 304.369 116.979C311.93 121.147 319.24 122.158 327.683 120.389C335.874 118.621 343.436 114.832 351.753 113.316C355.408 112.684 359.189 112.432 362.843 113.063C366.876 113.821 369.144 116.095 372.673 117.989C374.437 119 376.202 116.979 375.445 115.211C372.421 108.895 362.591 107.505 356.416 107.758C347.469 108.263 339.403 111.926 330.96 114.453C326.045 115.968 320.752 117.105 315.585 116.221C310.544 115.463 306.385 112.179 301.596 110.411C293.027 107 283.953 107.253 275.636 111.295C274.628 111.8 275.258 113.189 276.266 113.063Z" fill="#00082E"/>
</g>
<path d="M167.957 171.872C167.957 171.872 151.391 227.981 153.739 252.57C156.087 277.158 151.391 288.929 190.913 293.899C224.957 288.668 269.304 274.804 302.044 255.316C334.783 235.698 340.391 237.398 344.696 223.142C349 208.886 353.826 192.798 353.826 192.798C353.826 192.798 337.261 158.401 325 165.856C312.739 173.311 305.826 183.12 305.826 183.12L297.87 191.098C297.87 191.098 226.913 220.788 215.304 227.065C203.696 233.343 228.348 217.387 228.348 217.387L224.957 190.967C224.826 190.967 172.13 163.632 167.957 171.872Z" fill="#F2BC1E"/>
<path d="M347.304 212.286L339.348 217.125" stroke="#272453" stroke-width="2" stroke-miterlimit="10"/>
<path d="M345.348 223.142L337.261 228.112" stroke="#272453" stroke-width="2" stroke-miterlimit="10"/>
<path d="M166.522 173.834C166.522 173.834 143.174 266.826 159.217 282.782C175.261 298.738 213.87 304.886 308.435 252.046C323.826 245.245 342.87 229.943 342.87 229.943L353.957 193.06C353.957 193.06 344.174 170.433 329.826 166.64C315.478 162.847 308.565 180.766 308.565 180.766L296.957 192.406C296.957 192.406 254.565 201.3 210.348 230.074" stroke="#272453" stroke-width="4" stroke-miterlimit="10"/>
<path d="M276.478 141.267L288.087 112.886C288.087 112.886 330.739 133.812 329.696 59.9155C328.652 -13.9809 248.174 34.673 257.957 77.1798L241.391 115.371C241.391 115.371 248.826 148.722 276.478 141.267Z" fill="#F2BC1E" stroke="#272453" stroke-width="4" stroke-miterlimit="10"/>
<path d="M393.94 94.5477C398.107 56.0552 381.279 22.652 356.356 19.9397C331.432 17.2274 307.851 46.233 303.684 84.7256C299.518 123.218 316.345 156.621 341.269 159.334C366.192 162.046 389.774 133.04 393.94 94.5477Z" stroke="#272453" stroke-width="4" stroke-miterlimit="10"/>
<path d="M316.522 78.357C318.467 78.357 320.043 76.7759 320.043 74.8256C320.043 72.8753 318.467 71.2943 316.522 71.2943C314.577 71.2943 313 72.8753 313 74.8256C313 76.7759 314.577 78.357 316.522 78.357Z" fill="#272453"/>
<path d="M289.13 73.3869C291.075 73.3869 292.652 71.8059 292.652 69.8556C292.652 67.9053 291.075 66.3242 289.13 66.3242C287.185 66.3242 285.609 67.9053 285.609 69.8556C285.609 71.8059 287.185 73.3869 289.13 73.3869Z" fill="#272453"/>
<path d="M311.174 84.2425C311.174 84.2425 314.565 88.5586 311.174 91.3052" stroke="#272453" stroke-width="2" stroke-miterlimit="10"/>
<path d="M285.609 92.8747C285.609 92.8747 287.696 98.3679 292.652 99.0218" stroke="#272453" stroke-width="2" stroke-miterlimit="10"/>
<path d="M270.609 78.357C270.609 78.357 272.696 65.4087 266.304 66.3243" stroke="#272453" stroke-width="2" stroke-miterlimit="10"/>
<path d="M332.696 157.093L329.696 182.074C329.696 182.074 330.217 187.567 335.696 187.305L341.304 159.447L332.696 157.093Z" fill="#272453"/>
<path d="M324.348 177.104C324.348 177.104 328.391 189.398 339.348 185.997" stroke="#272453" stroke-width="2" stroke-miterlimit="10"/>
<path d="M352.522 196.984L339.348 207.97" stroke="#272453" stroke-width="2" stroke-miterlimit="10"/>
<path d="M323.174 32.3188C323.174 32.3188 307.261 55.3379 271 61.7466C271 61.7466 254.957 60.0463 257.565 78.3569C260.174 96.6676 290.174 124.787 253.783 153.431C217.391 182.074 237.87 132.635 237.87 132.635C237.87 132.635 175.261 107 208.913 87.643C242.565 68.2861 248.174 -19.0818 323.174 21.7248C323.174 21.7248 332.435 25.6485 323.174 32.3188Z" fill="#272453"/>
<path d="M327.217 33.7575C327.217 33.7575 349.522 52.0681 327.217 89.6049Z" fill="#272453"/>
<path d="M164.174 162.324C164.174 162.324 174.739 127.272 191.826 119.033" stroke="#272453" stroke-width="2" stroke-miterlimit="10"/>
<path d="M195.087 177.104C195.087 177.104 214.391 186.39 224.826 190.967L227.043 207.839" stroke="#272453" stroke-width="2" stroke-miterlimit="10"/>
<path d="M320.044 292.068C320.435 290.76 329.826 262.379 329.696 243.937" stroke="#272453" stroke-width="2" stroke-miterlimit="10"/>
<path d="M296.565 132.635C296.565 132.635 307 135.251 312.87 142.313" stroke="#272453" stroke-width="2" stroke-miterlimit="10"/>
<path d="M464.304 256.232L359.565 226.673L380.826 61.7466L488.826 91.5667L464.304 256.232Z" fill="#E72F74" stroke="#272453" stroke-width="1.6341" stroke-miterlimit="10"/>
<path d="M417.609 72.3406C417.87 72.3406 437.696 45.921 437.696 45.921H445L446.826 59.1308L439.522 66.3243H452.435L468.609 73.3869L479.174 84.1117L471.87 110.924L458.565 104.515L435.087 92.8747L428.696 73.5177L417.609 72.3406Z" fill="#F2BC1E" stroke="#272453" stroke-width="4" stroke-miterlimit="10"/>
<path d="M447.348 99.0218L452.435 84.2425" stroke="#272453" stroke-width="1.6341" stroke-miterlimit="10"/>
<path d="M456.348 103.469L462.609 91.5667" stroke="#272453" stroke-width="1.6341" stroke-miterlimit="10"/>
<path d="M465.087 107.785L469.522 99.0218" stroke="#272453" stroke-width="1.6341" stroke-miterlimit="10"/>
<path d="M422.826 212.286C443.357 212.286 460 195.597 460 175.011C460 154.424 443.357 137.736 422.826 137.736C402.295 137.736 385.652 154.424 385.652 175.011C385.652 195.597 402.295 212.286 422.826 212.286Z" fill="#E72F74" stroke="#272453" stroke-width="3.403" stroke-miterlimit="10"/>
<path d="M404.304 155.523L415.652 156.308L426.348 191.621L461.435 118.64" fill="#E72F74"/>
<path d="M404.304 155.523L415.652 156.308L426.348 191.621L461.435 118.64" stroke="#272453" stroke-width="3.0717" stroke-miterlimit="10"/>
</g>
<path d="M493.5 298.2H146V300.2H493.5V298.2Z" fill="#272453"/>
</g>
<defs>
<clipPath id="clip0_13_81">
<rect width="640" height="300" fill="white"/>
</clipPath>
<clipPath id="clip1_13_81">
<rect width="339" height="288" fill="white" transform="translate(151 11)"/>
</clipPath>
</defs>
</svg>
