<svg width="624" height="234" viewBox="0 0 624 234" fill="none" xmlns="http://www.w3.org/2000/svg">
<path d="M287 94.5L204 76.5L301 62.5L512 33L584 23L456 174L395.5 142.5L324 193L287 94.5Z" fill="#F2BC1B"/>
<path d="M585 23L204 76.125L289.975 95.0139L324.13 193L395.972 142.826" stroke="#272453" stroke-width="4"/>
<path d="M584 23L344 114" stroke="#272453" stroke-width="4"/>
<path d="M291 95.5448L585 22L456.559 174.428L344.026 115.117C337.349 140.423 323.994 191.628 323.994 194" stroke="#272453" stroke-width="4"/>
<path d="M253.621 140.31C253.621 186.945 208.284 224.782 152.402 224.782C107.633 224.782 71.3788 194.526 71.3788 157.164C71.3788 127.314 100.414 103.083 136.182 103.083C164.811 103.083 188.007 122.441 188.007 146.334C188.007 165.421 169.434 180.921 146.563 180.921C128.233 180.921 113.391 168.535 113.391 153.238" stroke="#E72F74" stroke-width="3.403" stroke-miterlimit="10" stroke-dasharray="6.81 6.81"/>
</svg>
