<svg width="640" height="300" viewBox="0 0 640 300" fill="none" xmlns="http://www.w3.org/2000/svg">
<g clip-path="url(#clip0_13_81)">
<path d="M271.979 28.3275L254.04 27.1989C254.04 27.1989 241.185 20.9915 233.84 22.2612C226.495 23.5309 221.41 32.1366 221.41 32.1366L226.354 44.5513C226.354 44.5513 238.784 48.0783 242.033 47.7961C245.282 47.5139 253.475 44.1281 253.475 44.1281L260.255 46.6675C260.255 46.6675 272.826 31.7134 271.979 28.3275Z" stroke="#272453" stroke-width="4" stroke-miterlimit="10"/>
<path d="M242.174 46.6675L243.445 34.9581C243.445 34.9581 235.676 35.6635 235.253 31.149" stroke="#272453" stroke-width="4" stroke-miterlimit="10"/>
<path d="M210.07 109.08C224.86 102.802 230.789 83.4722 223.314 65.9045C215.839 48.3369 197.79 39.1842 183 45.4615C168.21 51.7388 162.28 71.069 169.755 88.6367C177.231 106.204 195.28 115.357 210.07 109.08Z" stroke="#272453" stroke-width="4" stroke-miterlimit="10"/>
<path d="M221.41 62.0448C221.41 62.0448 239.067 61.6216 246.412 54.4267" stroke="#272453" stroke-width="2" stroke-miterlimit="10"/>
<path d="M221.41 99.2891C221.41 99.2891 227.201 88.7083 227.907 99.2891" stroke="#272453" stroke-width="2" stroke-miterlimit="10"/>
<path d="M211.946 69.0987C215.477 67.829 219.715 70.9327 221.692 76.0115C223.529 81.0902 222.257 86.3101 218.726 87.5798" stroke="#272453" stroke-width="0.8012" stroke-miterlimit="10"/>
<path d="M211.946 69.0987C211.946 69.0987 184.542 59.3644 166.462 73.331C148.381 87.2976 132.419 51.4641 145.697 39.7547C158.975 28.0454 175.078 24.3774 175.078 24.3774C175.078 24.3774 160.811 36.3689 173.101 33.5474C185.39 30.7258 234.123 28.0454 231.156 54.5678C228.19 81.0902 226.071 87.7209 226.071 87.7209L221.551 93.3639L218.867 87.7209C218.867 87.7209 224.517 85.1815 222.681 77.4222C220.703 69.5219 213.641 69.663 211.946 69.0987Z" fill="#272453"/>
<path d="M179.87 95.8755C180.815 95.3301 180.886 93.6846 180.028 92.2002C179.17 90.7157 177.708 89.9545 176.762 90.4999C175.816 91.0453 175.745 92.6908 176.603 94.1753C177.461 95.6597 178.924 96.4209 179.87 95.8755Z" fill="#272453"/>
<path d="M180.446 103.945C180.446 103.945 179.316 114.243 182.847 113.397C186.379 112.55 188.074 108.318 188.074 108.318" stroke="#272453" stroke-miterlimit="10"/>
<path d="M454.904 137.944L458.153 28.3275C458.153 28.3275 457.305 9.98754 467.334 9.98754C477.364 9.98754 515.502 4.90877 520.446 24.2363C525.531 43.4227 513.101 274.93 513.101 274.93C513.101 274.93 516.35 290.448 508.581 291.436C500.812 292.282 455.045 253.627 455.045 253.627V201.006" fill="#F9EEF6"/>
<path d="M454.904 137.944L458.153 28.3275C458.153 28.3275 457.305 9.98754 467.334 9.98754C477.364 9.98754 515.502 4.90877 520.446 24.2363C525.531 43.4227 513.101 274.93 513.101 274.93C513.101 274.93 516.35 290.448 508.581 291.436C500.812 292.282 455.045 253.627 455.045 253.627V201.006" stroke="#272453" stroke-width="2" stroke-miterlimit="10"/>
<path d="M492.195 26.6346L472.278 25.3649C470.159 25.2238 468.606 23.3898 468.747 21.2737C468.888 19.1575 470.725 17.6057 472.843 17.7468L492.76 19.0164C494.879 19.1575 496.433 20.9915 496.292 23.1077C496.009 25.2238 494.314 26.7757 492.195 26.6346Z" stroke="#272453" stroke-width="2" stroke-miterlimit="10"/>
<path d="M454.904 139.778C454.904 139.778 483.579 140.484 490.5 144.01C490.5 144.01 506.462 178.998 498.552 196.914C498.552 196.914 486.828 206.649 484.709 206.225C482.59 205.802 466.911 204.815 449.819 199.595C432.727 194.375 418.601 191.271 418.036 188.732C417.33 186.334 454.48 138.508 454.904 139.778Z" fill="white"/>
<path d="M226.071 108.318C226.071 108.318 207.991 173.778 187.367 185.628C166.885 197.761 141.601 229.503 141.601 229.503L124.933 238.109C124.933 238.109 118.011 247.702 121.26 252.781C124.65 257.718 131.007 265.336 131.007 265.336H144.285L148.24 247.42L150.924 244.739C150.924 244.739 198.385 240.084 226.212 222.872C254.04 205.661 293.874 171.097 294.58 149.512C295.145 127.928 238.925 92.7996 226.071 108.318Z" stroke="#272453" stroke-width="4" stroke-miterlimit="10"/>
<path d="M152.619 244.88V254.474L145.838 258.565" stroke="#272453" stroke-width="4" stroke-miterlimit="10"/>
<path d="M145.697 247.561L135.668 258.565L131.007 265.478" stroke="#272453" stroke-width="2" stroke-miterlimit="10"/>
<path d="M229.603 206.366L222.964 220.897L210.674 224.283" stroke="#272453" stroke-width="2" stroke-miterlimit="10"/>
<path d="M387.525 197.055C387.525 197.055 329.046 246.855 300.512 244.88" stroke="#272453" stroke-width="4" stroke-miterlimit="10"/>
<path d="M355.743 221.038C355.743 221.038 384.135 227.669 387.525 221.038C390.916 214.408 401.086 209.47 408.149 215.395C419.732 225.13 438.66 251.793 438.66 251.793C438.66 251.793 404.052 249.536 391.481 244.88C378.909 240.225 329.046 248.831 313.084 256.449C297.122 264.067 240.62 268.017 256.582 230.914C272.544 193.811 315.768 173.213 317.746 173.213" stroke="#272453" stroke-width="4" stroke-miterlimit="10"/>
<path d="M454.904 137.944C456.74 139.919 482.025 140.625 491.913 144.575" stroke="#272453" stroke-width="4" stroke-miterlimit="10"/>
<path d="M425.099 191.977C425.099 191.977 468.606 206.225 478.635 206.225C488.664 206.225 498.552 196.914 498.552 196.914" stroke="#272453" stroke-width="4" stroke-miterlimit="10"/>
<path d="M439.083 129.338C431.173 114.384 408.996 115.936 408.996 115.936C405.606 115.09 401.651 114.525 397.131 114.384C397.131 114.384 352.494 52.5926 305.598 38.2028C301.784 33.5473 296.275 29.315 288.506 27.0577C263.927 19.7217 253.616 47.796 253.616 47.796C239.914 58.6589 233.416 73.3309 232.428 88.144C232.428 88.144 222.681 103.521 226.071 132.019C229.461 160.516 267.883 169.263 294.58 149.653C319.723 147.961 337.239 146.127 352.353 150.641C352.212 150.641 325.938 153.745 310.118 173.213C294.156 192.682 338.086 218.217 361.958 215.395C376.225 213.702 389.927 199.454 398.685 188.308C404.9 190.566 413.799 192.964 422.274 192.682C437.247 192.118 456.74 156.284 457.164 143.869C457.447 131.313 446.994 144.293 439.083 129.338Z" fill="#E72F74"/>
<mask id="mask0_13_81" style="mask-type:alpha" maskUnits="userSpaceOnUse" x="225" y="25" width="233" height="191">
<path d="M439.083 129.338C431.173 114.384 408.996 115.936 408.996 115.936C405.606 115.09 401.651 114.525 397.131 114.384C397.131 114.384 352.494 52.5926 305.598 38.2028C301.784 33.5473 296.275 29.315 288.506 27.0577C263.927 19.7217 253.616 47.796 253.616 47.796C239.914 58.6589 233.416 73.3309 232.428 88.144C232.428 88.144 222.681 103.521 226.071 132.019C229.461 160.516 267.883 169.263 294.58 149.653C319.723 147.961 337.239 146.127 352.353 150.641C352.212 150.641 325.938 153.745 310.118 173.213C294.156 192.682 338.086 218.217 361.958 215.395C376.225 213.702 389.927 199.454 398.685 188.308C404.9 190.566 413.799 192.964 422.274 192.682C437.247 192.118 456.74 156.284 457.164 143.869C457.447 131.313 446.994 144.293 439.083 129.338Z" fill="#E72F74"/>
</mask>
<g mask="url(#mask0_13_81)">
<path d="M2468.18 -1530.1H-492.839V1428.21H2468.18V-1530.1Z" fill="white"/>
<path d="M509.17 487.616H-524.67V-593.944H509.17V487.616V487.616ZM-523.782 486.729H508.282V-593.056H-523.782V486.729Z" fill="#00082E"/>
<path d="M176.351 -518.063C181.977 -507.117 187.899 -496.467 192.785 -485.226C197.819 -473.688 201.816 -461.855 205.369 -449.874C212.476 -426.059 216.621 -401.505 218.25 -376.655C221.211 -329.618 215.289 -282.285 201.076 -237.319C173.242 -149.013 114.17 -73.2802 34.9626 -25.2076C13.4952 -12.191 -9.30464 -1.09738 -32.8448 7.48174C-56.3849 16.0608 -80.6652 21.8296 -105.242 26.415C-109.239 27.1546 -108.351 33.9588 -104.353 33.515C-59.0498 27.5984 -14.3384 11.0318 25.4873 -11.3035C65.3131 -33.4908 101.438 -62.7782 131.196 -97.3905C193.673 -170.017 227.577 -266.014 224.764 -361.716C224.024 -389.376 220.174 -417.184 212.772 -443.957C209.071 -457.417 204.185 -470.582 198.263 -483.303C192.489 -495.875 185.975 -508.3 177.536 -519.098C177.092 -519.69 176.055 -518.802 176.351 -518.063Z" fill="#00082E"/>
<path d="M180.349 -532.411C197.671 -511.85 212.624 -488.775 221.655 -463.482C230.982 -437.153 234.98 -408.901 236.608 -381.241C239.717 -329.618 232.907 -277.7 217.213 -228.444C201.52 -179.336 176.795 -132.742 144.224 -92.8049C113.282 -54.7906 75.3805 -22.5449 33.186 2.45283C-9.00854 27.4506 -55.4965 45.2003 -103.613 54.0753C-109.831 55.2586 -116.049 56.1461 -122.268 56.8857C-128.19 57.6253 -127.153 65.9086 -121.231 65.0211C-71.338 57.0336 -23.2214 41.6504 21.1939 17.5402C65.4611 -6.42219 105.583 -38.0761 138.746 -75.7946C173.094 -114.992 199.743 -160.55 217.51 -209.511C235.572 -259.21 244.603 -312.312 243.418 -365.266C242.826 -393.074 240.013 -421.622 232.315 -448.394C225.06 -473.688 213.068 -499.721 195.45 -519.542C191.008 -524.571 186.419 -529.156 181.533 -533.742C180.645 -534.334 179.608 -533.15 180.349 -532.411Z" fill="#00082E"/>
<path d="M184.198 -556.817C202.26 -536.108 218.102 -513.33 229.65 -488.184C241.198 -463.186 249.044 -436.265 253.19 -409.197C262.961 -346.776 253.338 -282.729 234.979 -222.971C217.806 -166.763 192.637 -112.034 155.772 -65.8844C121.868 -23.4326 78.7856 10.736 31.5573 37.2129C7.72114 50.5254 -17.1514 62.0627 -42.7643 71.6772C-55.3486 76.4105 -68.229 80.848 -81.1095 84.8417C-95.9146 89.4271 -111.312 93.2729 -127.005 92.9771C-134.556 92.8292 -141.81 91.498 -148.917 89.1313C-153.802 87.5043 -155.875 95.1958 -150.99 96.8229C-121.675 106.881 -89.9925 96.3792 -62.0109 86.7647C-35.5098 77.7419 -9.60082 67.0919 15.4198 54.3711C64.8688 29.3734 110.765 -3.6119 147.777 -45.1762C187.455 -89.6989 215.437 -143.392 234.831 -199.6C255.855 -260.541 268.439 -325.92 262.369 -390.707C257.187 -446.028 237.644 -501.2 201.076 -543.8C196.486 -549.125 191.304 -554.006 185.975 -558.74C184.79 -559.627 183.162 -558 184.198 -556.817Z" fill="#00082E"/>
<path d="M295.68 -162.917C293.46 -155.521 292.571 -147.534 290.943 -139.99C289.314 -132.003 287.389 -124.163 285.317 -116.324C281.171 -100.94 275.842 -85.853 269.771 -71.0614C257.483 -41.7741 240.753 -14.2617 220.47 10.1444C214.844 16.9485 208.922 23.4567 202.852 29.6692C196.338 36.3254 189.084 42.0941 182.865 48.8982C180.645 51.2649 183.606 55.4067 186.419 53.4837C199.595 44.6088 210.995 31.7401 221.507 19.7589C232.166 7.48188 241.938 -5.53474 250.673 -19.2909C268.291 -46.9512 281.615 -77.126 289.906 -108.78C292.275 -117.803 294.052 -126.826 295.384 -135.996C296.717 -144.723 298.197 -153.894 297.309 -162.769C297.309 -163.657 295.976 -163.952 295.68 -162.917Z" fill="#00082E"/>
<path d="M186.567 70.1979C191.452 69.4583 195.598 66.7958 199.743 64.2813C204.185 61.6188 208.626 58.8084 212.92 55.998C221.063 50.6731 228.613 44.3128 235.868 37.9524C250.969 24.4921 264.59 9.40458 276.434 -6.86615C299.974 -39.2597 316.407 -77.2741 324.254 -116.62C326.475 -127.565 327.955 -138.659 328.696 -149.753C329.14 -155.374 329.288 -160.994 329.436 -166.615C329.436 -172.532 329.732 -178.596 327.955 -184.217C327.363 -186.288 323.81 -186.732 323.218 -184.217C321.441 -174.751 322.922 -164.544 322.329 -154.93C321.885 -145.019 320.701 -135.257 319.072 -125.495C315.815 -105.97 310.337 -86.8886 302.935 -68.695C288.278 -32.3077 265.774 1.4171 237.496 28.7815C229.649 36.3252 221.359 43.2773 212.772 49.9335C208.182 53.4835 203.444 57.0334 198.559 60.4355C194.117 63.3938 189.38 65.7605 185.826 69.9022C185.974 69.9022 186.123 70.3458 186.567 70.1979Z" fill="#00082E"/>
<path d="M179.904 99.9291C185.234 97.5624 190.416 95.6396 195.598 92.8292C200.632 90.0188 205.665 87.0605 210.551 84.1022C220.47 78.0376 229.946 71.5294 239.125 64.5774C257.335 50.9691 274.361 35.7338 289.462 18.8714C304.563 1.86107 317.74 -16.7764 327.807 -37.1887C339.207 -60.1157 346.314 -84.8176 350.755 -110.111C353.272 -124.607 355.049 -139.103 356.381 -153.746C356.974 -161.142 357.566 -168.686 358.158 -176.082C358.602 -183.773 359.638 -191.613 359.046 -199.156C358.75 -202.263 353.864 -203.446 353.124 -199.896C351.94 -193.831 351.94 -187.767 351.496 -181.554C351.051 -174.602 350.607 -167.65 350.163 -160.846C349.127 -147.83 347.942 -134.961 346.018 -122.092C342.316 -96.503 336.246 -70.9136 325.587 -47.2471C307.376 -6.42233 277.174 27.4505 242.382 55.1107C232.463 62.9503 222.099 70.1981 211.587 77.446C206.258 81.1439 200.78 84.5459 195.302 87.948C192.637 89.7229 189.824 91.35 187.011 92.9771C184.198 94.7521 181.977 96.9709 179.312 98.7459C178.424 99.1896 179.016 100.225 179.904 99.9291Z" fill="#00082E"/>
<path d="M170.429 131.435C183.31 127.59 195.746 120.342 207.738 114.129C220.174 107.473 232.315 100.373 244.011 92.6815C267.107 77.5941 288.574 59.5483 306.932 38.988C345.722 -4.49926 366.153 -58.9323 372.667 -116.324C376.368 -149.161 376.664 -183.477 372.075 -216.167C371.631 -219.717 365.412 -218.977 365.708 -215.279C367.633 -186.436 369.41 -157.888 367.189 -128.896C364.968 -100.201 359.49 -71.653 349.719 -44.5844C330.62 8.07358 293.756 50.2296 248.6 82.4752C236.164 91.3502 223.431 99.6334 210.255 107.325C203.593 111.171 196.782 114.869 189.972 118.567C183.162 122.117 176.055 125.371 169.689 129.512C168.356 129.956 169.097 131.879 170.429 131.435Z" fill="#00082E"/>
<path d="M158.289 166.491C188.788 155.989 218.25 141.05 246.083 124.779C273.621 108.508 299.826 89.4271 322.182 66.3522C345.129 42.5378 363.044 14.7297 375.332 -16.0368C388.064 -48.1345 394.727 -82.599 397.54 -116.915C399.168 -136.144 399.76 -155.669 398.872 -174.898C397.984 -193.24 395.171 -213.652 383.771 -228.74C381.402 -231.698 376.516 -229.183 378.589 -225.633C395.467 -196.346 393.542 -160.698 391.766 -128.009C389.841 -94.2843 384.363 -60.7073 373.407 -28.6096C362.6 2.45269 346.166 31.2962 324.106 55.8502C303.231 79.2209 278.358 98.5978 251.857 115.312C236.756 124.779 221.211 133.358 205.369 141.345C189.528 149.333 173.39 156.729 157.697 164.864C156.364 165.012 157.105 166.935 158.289 166.491Z" fill="#00082E"/>
<path d="M401.833 -239.537C416.342 -203.15 420.635 -164.692 417.23 -125.79C413.973 -87.9239 404.794 -49.9095 391.469 -14.2618C378.441 20.6463 360.083 53.9274 334.914 81.7356C311.078 108.065 281.764 128.921 250.377 145.487C214.4 164.568 175.759 178.029 136.674 189.418C132.528 190.601 134.305 196.962 138.45 195.779C208.33 175.366 279.395 146.966 331.361 94.3084C384.955 40.0233 412.197 -37.4845 421.228 -112.034C426.557 -155.078 424.781 -201.523 404.35 -240.721C403.906 -242.052 401.241 -241.017 401.833 -239.537Z" fill="#00082E"/>
<path d="M413.973 -255.069C424.781 -235.1 429.666 -212.173 431.739 -189.69C433.812 -167.946 433.664 -145.759 431.887 -124.015C428.63 -80.824 418.415 -38.0763 401.833 2.00883C369.706 79.5167 312.114 144.747 237.792 184.241C197.523 205.689 152.811 219.297 107.211 222.551C102.622 222.847 102.622 230.095 107.211 229.799C191.008 222.995 270.068 184.537 328.844 124.779C390.433 62.2105 426.854 -21.8056 436.477 -108.484C439.29 -133.334 439.882 -158.48 438.105 -183.478C436.181 -209.215 430.851 -234.656 417.674 -257.14C416.342 -259.802 412.641 -257.583 413.973 -255.069Z" fill="#00082E"/>
<path d="M393.394 42.0941C404.942 40.7629 416.342 34.9942 426.854 30.113C438.253 24.788 449.357 18.7234 460.017 11.9193C469.936 5.70683 479.56 -1.09729 488.443 -8.78891C492.736 -12.4868 496.586 -16.3326 500.139 -20.77C502.656 -24.0242 507.097 -29.3491 505.913 -33.6386C505.617 -34.5261 504.728 -34.822 503.988 -34.3782C500.139 -32.4553 497.918 -26.095 495.105 -22.8409C491.7 -18.6993 487.851 -15.0013 483.705 -11.4513C474.822 -3.90758 465.199 2.74852 455.427 8.96098C445.656 15.1734 435.44 20.7943 425.077 25.8234C420.043 28.338 414.861 30.5568 409.68 32.9234C404.054 35.438 398.132 37.3609 392.95 40.4671C392.21 40.7629 392.506 42.2421 393.394 42.0941Z" fill="#00082E"/>
<path d="M376.368 65.7606C378.145 69.6064 383.179 69.1627 386.732 68.4231C393.246 67.0919 399.612 64.8731 405.978 62.6544C419.007 58.2169 431.591 52.1524 443.583 45.3483C455.427 38.6921 466.679 31.0004 477.339 22.5692C482.817 18.2797 487.999 13.6942 493.032 8.96089C497.918 4.3755 503.248 -0.357658 506.653 -6.4222C507.541 -7.90136 505.765 -10.1202 504.136 -8.93688C499.251 -5.53482 495.401 -1.09738 491.256 3.04426C486.814 7.33382 482.225 11.4755 477.487 15.4692C468.012 23.4567 457.796 30.7045 447.285 37.0649C436.921 43.4253 426.113 49.0461 414.862 53.7794C408.939 56.294 402.869 58.6607 396.799 60.8795C394.134 61.9149 391.321 62.8022 388.656 63.6897C386.14 64.5772 380.218 67.8315 378.145 64.7252C377.256 63.9857 375.924 64.7252 376.368 65.7606Z" fill="#00082E"/>
<path d="M357.122 99.1896C380.514 95.4917 403.461 86.7647 425.077 77.0023C446.396 67.2398 466.531 55.1108 484.149 39.7276C494.069 31.1485 503.84 21.6819 510.206 10.1444C511.094 8.66528 509.022 7.03813 507.689 8.22146C497.326 18.4276 487.85 29.5214 476.599 38.8401C465.199 48.3067 452.614 56.442 439.586 63.6899C426.409 70.9377 412.641 77.1503 398.576 82.4753C384.659 87.8002 370.446 91.9419 356.529 97.2668C355.197 97.5627 355.789 99.3376 357.122 99.1896Z" fill="#00082E"/>
<path d="M332.101 126.85C360.231 125.223 386.88 115.165 412.641 104.367C435.441 94.9001 459.425 85.7294 479.708 71.5295C490.219 64.1337 499.102 55.1109 505.469 43.8693C506.949 41.3548 503.1 38.988 501.471 41.5025C485.63 66.6482 456.76 78.7775 430.703 90.4628C398.576 104.811 366.301 117.383 331.657 124.335C330.472 124.779 330.768 126.85 332.101 126.85Z" fill="#00082E"/>
<path d="M294.792 157.468C309.449 162.941 326.475 161.018 340.096 153.327C346.166 149.777 351.644 145.043 356.085 139.571C358.75 136.168 366.597 127.146 363.34 122.56C363.044 122.116 362.451 121.821 361.859 121.969C359.342 122.56 358.75 124.631 357.714 126.702C356.381 129.512 354.901 132.175 353.124 134.689C349.127 140.31 344.093 145.191 338.171 148.741C325.291 156.729 310.041 158.06 295.532 154.51C293.608 154.066 293.015 156.729 294.792 157.468Z" fill="#00082E"/>
<path d="M286.057 172.556C284.577 172.26 283.244 171.52 282.06 170.633C279.987 169.006 277.47 172.112 279.839 173.591C300.27 187.052 325.291 182.022 345.129 170.189C354.753 164.568 363.488 157.468 370.446 148.741C376.22 141.346 382.882 130.4 381.846 120.489C381.55 117.975 378.293 117.383 377.405 119.898C375.776 124.631 375.332 129.512 373.111 134.246C371.186 138.387 368.67 142.381 365.857 146.079C359.638 153.918 351.644 160.279 343.205 165.604C325.143 176.993 300.714 183.65 281.764 170.337C281.616 171.52 281.468 172.704 281.32 173.739C282.948 173.295 284.429 173.148 286.057 173.295C286.501 173.443 286.501 172.704 286.057 172.556Z" fill="#00082E"/>
<path d="M260 192.229C258.371 190.749 256.151 188.827 255.559 186.608C254.966 184.537 251.709 184.981 251.709 187.052C251.709 192.229 257.039 194.595 261.333 195.926C268.439 198.145 275.842 199.772 283.244 200.808C297.605 202.731 312.262 202.139 326.475 198.737C353.42 192.229 376.96 175.218 390.729 150.96C397.835 138.387 403.017 123.004 401.685 108.36C401.389 105.106 396.799 105.106 396.503 108.36C395.319 120.194 393.246 131.731 388.064 142.529C383.03 153.179 375.924 162.645 367.189 170.633C348.238 188.235 322.478 196.074 297.013 196.222C289.758 196.222 282.356 195.631 275.249 194.447C269.623 193.412 257.483 192.672 255.559 186.312C254.818 187.052 253.93 187.939 253.19 188.679C255.707 188.974 257.631 190.897 259.556 192.376C260 192.968 260.444 192.524 260 192.229Z" fill="#00082E"/>
<path d="M226.245 202.435C231.426 208.647 240.013 212.345 247.564 214.86C256.151 217.818 265.182 219.445 274.213 220.629C292.423 222.995 311.078 222.699 329.14 219.001C363.488 212.197 394.727 192.229 411.308 160.871C419.451 145.487 425.521 125.223 420.932 107.917C420.191 105.106 415.898 105.698 415.898 108.656C415.75 116.496 416.046 124.188 414.713 131.879C413.381 139.571 411.012 147.114 407.755 154.214C401.241 168.266 391.469 180.691 379.477 190.454C352.532 212.493 316.26 219.001 282.504 216.635C273.029 216.043 263.553 214.712 254.374 212.493C249.489 211.31 244.751 209.683 240.161 207.612C235.868 205.689 232.019 203.027 228.021 200.66C226.393 199.92 225.356 201.547 226.245 202.435Z" fill="#00082E"/>
<path d="M193.673 214.564C212.92 229.503 236.756 238.822 260.592 243.703C283.392 248.289 307.08 248.585 330.028 243.851C373.259 234.828 409.976 206.577 426.409 165.16C430.703 154.362 433.368 142.825 434.256 131.14C434.996 119.75 434.552 107.917 429.518 97.7105C428.778 96.0834 425.965 96.8231 426.113 98.5981C426.706 108.213 428.334 117.679 428.038 127.442C427.742 137.204 425.965 146.967 422.856 156.433C416.786 175.366 405.682 192.82 391.173 206.577C358.898 237.047 311.818 246.218 269.031 240.153C242.53 236.456 218.102 226.249 194.562 213.676C193.821 213.085 193.081 214.12 193.673 214.564Z" fill="#00082E"/>
<path d="M167.024 220.924C184.494 240.597 208.626 254.649 233.351 263.376C258.371 272.251 285.465 275.949 311.966 273.73C339.503 271.363 367.041 262.932 389.1 245.922C408.495 230.983 422.264 209.831 429.963 186.756C438.698 160.575 440.474 130.696 433.812 103.923C432.924 100.225 427.594 101.852 428.334 105.402C436.181 151.552 428.334 202.731 392.358 235.864C353.568 271.511 292.867 275.949 244.159 261.601C215.881 253.318 191.304 238.378 168.356 219.889C167.32 219.149 166.284 220.185 167.024 220.924Z" fill="#00082E"/>
<path d="M131.492 231.722C154.884 253.91 183.31 271.068 213.364 282.753C242.826 294.143 275.249 300.207 306.932 297.249C360.971 292.22 415.454 258.939 437.217 208.056C444.175 191.637 447.433 173.887 448.025 155.989C448.469 145.635 448.025 135.281 447.433 124.927C446.84 114.721 446.396 104.515 444.62 94.4563C444.027 91.35 439.142 92.0896 439.29 95.1959C439.586 112.798 442.103 130.252 442.103 147.854C442.103 164.272 440.77 180.839 435.885 196.666C427.742 222.403 410.272 244.591 388.656 260.566C367.041 276.541 341.428 286.895 314.927 290.74C284.577 295.178 253.338 291.036 224.32 281.274C190.712 270.032 160.806 251.395 132.084 230.983C131.64 230.687 131.048 231.278 131.492 231.722Z" fill="#00082E"/>
<path d="M98.4765 242.372C109.876 254.945 124.681 265.595 138.894 274.47C153.551 283.64 169.245 291.48 185.382 297.693C218.398 310.413 253.93 316.922 289.462 316.182C327.067 315.442 367.189 307.011 398.872 286.303C426.409 268.257 446.84 240.893 458.685 210.274C474.378 169.893 474.23 125.075 464.31 83.3626C463.274 78.7772 456.168 80.7002 457.204 85.2856C465.791 121.821 466.827 160.722 455.872 196.814C446.692 227.285 428.63 255.537 403.165 274.914C373.851 297.397 335.654 306.863 299.234 309.23C264.886 311.449 230.39 307.011 197.523 296.213C179.46 290.297 161.99 282.457 145.409 272.843C137.562 268.257 129.715 263.376 122.313 258.051C114.466 252.43 107.211 246.218 99.5128 240.449C98.7726 239.709 97.5882 241.337 98.4765 242.372Z" fill="#00082E"/>
<path d="M83.9675 266.482C84.2636 265.447 88.7051 270.18 89.1493 270.772C90.6298 272.399 92.1103 274.026 93.7389 275.653C97.1441 279.055 100.697 282.309 104.399 285.415C111.357 291.184 118.76 296.213 126.606 300.503C142.892 309.526 160.51 315.59 178.572 320.028C197.375 324.613 216.769 327.276 236.016 329.198C259.112 331.417 282.356 332.305 305.6 330.678C346.462 327.719 386.584 316.478 420.487 292.811C452.17 270.624 474.526 238.674 484.742 201.399C490.516 180.395 492.44 158.504 492.292 136.76C492.144 114.277 490.071 91.4979 485.778 69.4585C485.038 65.7606 478.523 66.5001 478.968 70.346C484.297 111.614 488.295 152.883 478.968 194.004C474.378 214.12 466.531 233.497 454.835 250.507C443.435 266.926 428.334 280.534 411.604 291.332C374.444 315.294 329.288 324.169 285.761 324.909C262.369 325.353 238.681 323.578 215.437 320.619C196.042 318.105 176.647 314.259 157.993 308.047C137.118 301.095 116.983 291.184 100.549 276.393C96.5519 272.843 93.2947 268.701 89.4454 265.003C87.3727 263.08 83.3753 260.714 81.1546 263.82C78.3416 267.666 86.1883 270.476 85.448 266.63C85.3 265.743 84.2636 265.743 83.9675 266.482Z" fill="#00082E"/>
<path d="M63.2403 277.872C92.8505 308.047 128.235 330.826 168.653 343.842C212.328 357.894 259.408 359.226 304.711 354.048C348.683 348.871 392.506 336.151 428.778 310.413C460.461 287.93 486.518 256.572 498.51 219.149C506.505 193.856 506.209 166.935 507.097 140.754C508.134 111.763 510.058 82.771 510.058 53.7796C510.058 49.7858 504.136 49.9338 503.84 53.7796C501.915 78.6294 501.619 103.627 500.731 128.477C499.695 152.735 500.435 178.029 495.845 201.991C488.591 239.414 465.939 272.695 436.625 296.509C403.461 323.43 361.711 338.222 319.813 345.174C297.605 348.871 275.101 350.203 252.597 350.351C229.798 350.351 207.294 348.28 185.086 342.807C140.523 331.713 97.5881 308.491 65.0169 276.097C63.9805 274.618 62.0559 276.541 63.2403 277.872Z" fill="#00082E"/>
</g>
<g style="mix-blend-mode:multiply">
<path d="M439.083 129.338C431.173 114.384 408.996 115.936 408.996 115.936C405.606 115.09 401.651 114.525 397.131 114.384C397.131 114.384 352.494 52.5926 305.598 38.2028C301.784 33.5473 296.275 29.315 288.506 27.0577C263.927 19.7217 253.616 47.796 253.616 47.796C239.914 58.6589 233.416 73.3309 232.428 88.144C232.428 88.144 222.681 103.521 226.071 132.019C229.461 160.516 267.883 169.263 294.58 149.653C319.723 147.961 337.239 146.127 352.353 150.641C352.212 150.641 325.938 153.745 310.118 173.213C294.156 192.682 338.086 218.217 361.958 215.395C376.225 213.702 389.927 199.454 398.685 188.308C404.9 190.566 413.799 192.964 422.274 192.682C437.247 192.118 456.74 156.284 457.164 143.869C457.447 131.313 446.994 144.293 439.083 129.338Z" fill="#E72F74"/>
</g>
<path d="M244.434 54.4267C244.434 54.4267 352.353 -42.493 509.428 68.8166L506.179 135.123C506.179 135.123 354.613 14.9252 250.791 160.093C250.649 160.234 191.746 146.55 244.434 54.4267Z" fill="#F2BC1E"/>
<path d="M211.946 75.8704C211.946 75.8704 216.183 71.9202 217.172 78.2687" stroke="#272453" stroke-miterlimit="10"/>
<path d="M458.012 28.3275L509.428 33.4063L501.094 288.614" stroke="#272453" stroke-width="2" stroke-miterlimit="10"/>
<path d="M425.099 191.977C425.099 191.977 381.593 194.234 370.292 158.4" stroke="#272453" stroke-width="2" stroke-miterlimit="10"/>
<path d="M250.649 160.234C250.649 160.234 294.862 88.2851 375.519 88.5673" stroke="#272453" stroke-width="2" stroke-miterlimit="10"/>
<path d="M508.298 68.1112C508.298 68.1112 437.953 14.3609 352.353 15.4895" stroke="#272453" stroke-width="2" stroke-miterlimit="10"/>
<path d="M322.124 147.82C322.124 147.82 344.301 144.857 358.992 153.463" stroke="#272453" stroke-width="2" stroke-miterlimit="10"/>
<path d="M397.131 114.384C397.131 114.384 433.292 114.808 438.66 128.774" stroke="#272453" stroke-width="2" stroke-miterlimit="10"/>
<path d="M318.752 75.5284C343.142 67.546 360.374 53.332 357.241 43.7806C354.107 34.2291 331.794 32.9572 307.403 40.9395C283.013 48.9219 265.781 63.1359 268.914 72.6874C272.048 82.2388 294.361 83.5108 318.752 75.5284Z" fill="white"/>
<path d="M235.111 74.0364C235.111 74.0364 208.273 126.376 233.981 150.359" stroke="#272453" stroke-width="2" stroke-miterlimit="10"/>
</g>
<defs>
<clipPath id="clip0_13_81">
<rect width="403" height="283" fill="white" transform="translate(119 9)"/>
</clipPath>
</defs>
</svg>
