<svg width="640" height="300" viewBox="0 0 640 300" fill="none" xmlns="http://www.w3.org/2000/svg">
<g clip-path="url(#clip0_13_81)">
<g clip-path="url(#clip1_13_81)">
<path d="M658.1 140H597.4C592.9 140 589.2 143.7 589.2 148.2V159.1H459.2C454.7 159.1 451 162.8 451 167.3V290.8C451 295.3 454.7 299 459.2 299H658.1C662.6 299 666.3 295.3 666.3 290.8V271.6V167.4V148.2C666.4 143.7 662.7 140 658.1 140Z" fill="#FAEEFF" stroke="#272453" stroke-width="2" stroke-miterlimit="10"/>
<path d="M563 265L567.5 187L665.5 197.5V269L563 265Z" fill="white"/>
</g>
<path d="M418.059 152.667C431.329 149.75 439.154 134.048 435.537 117.596C431.921 101.144 418.232 90.1714 404.962 93.0884C391.693 96.0053 383.867 111.707 387.484 128.159C391.1 144.612 404.789 155.584 418.059 152.667Z" stroke="#272453" stroke-width="1.9306" stroke-miterlimit="10"/>
<path d="M138.6 101.8L164.2 105.2" stroke="#272453" stroke-width="1.9532" stroke-miterlimit="10"/>
<path d="M138.6 122.9L164.2 132.2" stroke="#272453" stroke-width="1.9532" stroke-miterlimit="10"/>
<path d="M179 105.2C179 105.2 168.2 122.8 184.4 139.8" stroke="#272453" stroke-width="1.9532" stroke-miterlimit="10"/>
<path d="M138.6 113L161.5 117.2" stroke="#272453" stroke-width="1.9532" stroke-miterlimit="10"/>
<path d="M282.7 162.7L205.3 114.4L192.5 98.9L184.4 78.4L175.5 83.3L175 95.3L138.6 91.8V132.2L191.1 155.3L262.2 217.4L376.1 266.8L385.8 187.3C384.6 188.6 282.7 162.7 282.7 162.7Z" stroke="#272453" stroke-width="4" stroke-miterlimit="10"/>
<path d="M573.4 188.7L665.7 197" stroke="#272453" stroke-width="4" stroke-miterlimit="10"/>
<path d="M562.1 264.4L665.7 269" stroke="#272453" stroke-width="4" stroke-miterlimit="10"/>
<path d="M571.3 182.1L457.2 172.6C444.4 168.5 431 167.5 417.2 170.8C407.2 173.2 399.2 176.9 392.7 181.4L339 168.8C339 168.8 320.3 253.3 380.1 280.9C384.2 292.1 388 299.4 388 299.4L575.8 298.8C575.2 298.2 569.3 286.6 559.3 270.6C598.4 258.6 571.3 182.1 571.3 182.1Z" fill="#6CC4E9"/>
<mask id="mask0_13_81" style="mask-type:alpha" maskUnits="userSpaceOnUse" x="336" y="168" width="245" height="132">
<path d="M571.3 182.1L457.2 172.6C444.4 168.5 431 167.5 417.2 170.8C407.2 173.2 399.2 176.9 392.7 181.4L339 168.8C339 168.8 320.3 253.3 380.1 280.9C384.2 292.1 388 299.4 388 299.4L575.8 298.8C575.2 298.2 569.3 286.6 559.3 270.6C598.4 258.6 571.3 182.1 571.3 182.1Z" fill="#F2BC1E"/>
</mask>
<g mask="url(#mask0_13_81)">
<path d="M2245.68 -1587.89H-176.56V834.345H2245.68V-1587.89Z" fill="white"/>
<path d="M643.367 877.946H-202.357V-7.6239H643.367V877.946ZM-201.751 877.219H642.519V-7.01834H-201.751V877.219Z" fill="#00082E"/>
<path d="M-195.453 870.8C-199.934 828.774 -170.625 793.046 -137.198 771.609C-101.592 748.719 -60.6558 735.639 -24.5644 713.234C9.34687 692.16 39.9882 666 66.0272 635.722C93.5196 603.748 114.472 567.778 132.033 529.507C150.684 488.935 166.55 447.151 188.956 408.516C208.697 374.484 232.435 342.632 260.412 314.897C288.631 286.92 321.089 263.303 357.059 246.469C397.147 227.696 440.626 217.039 478.897 194.391C513.293 174.044 542.118 145.219 562.949 111.187C582.085 79.8188 595.528 44.0908 621.325 17.204C627.623 10.664 634.526 4.85067 642.156 0.00619611C644.699 -1.56826 642.398 -5.56501 639.855 -3.99055C608.124 15.8718 590.926 50.0253 573.849 81.9988C564.645 99.1967 555.077 116.152 543.087 131.655C530.37 148.005 515.473 162.659 499.002 175.255C463.274 202.384 420.885 215.464 379.828 231.814C341.92 246.832 307.161 267.179 276.277 293.944C246.605 319.62 221.05 349.898 199.613 382.72C175.876 418.932 158.435 458.293 141.359 497.897C123.676 538.712 104.783 578.921 77.775 614.649C53.1893 647.107 23.3958 675.689 -10.031 698.942C-26.7445 710.569 -44.4268 720.743 -62.8358 729.705C-82.6981 739.394 -103.287 747.872 -122.665 758.529C-156.697 777.059 -190.003 805.279 -197.875 845.124C-199.571 853.844 -199.813 862.443 -198.481 871.284C-198.481 873.101 -195.332 872.617 -195.453 870.8Z" fill="#00082E"/>
<path d="M-18.63 874.312C-13.4222 841.37 9.10464 814.725 35.2648 795.347C63.8472 774.274 97.1529 761.799 129.369 747.508C160.131 733.701 189.319 717.351 212.815 692.644C232.314 672.055 247.453 647.954 260.533 623.005C287.541 571.654 306.313 515.579 339.861 467.74C357.059 443.275 378.375 422.202 404.292 407.063C435.903 388.654 471.267 377.875 503.12 359.829C533.882 342.51 560.163 317.803 579.178 288.131C587.656 274.93 594.075 260.518 601.462 246.711C608.245 233.994 615.996 221.035 627.38 211.71C632.83 207.228 639.128 203.837 645.911 201.899C648.696 201.052 647.485 196.813 644.699 197.539C615.39 206.017 601.584 235.811 588.867 260.881C581.116 276.141 572.396 290.796 561.617 304.118C550.232 318.167 537.152 330.763 522.498 341.541C492.704 363.463 457.461 375.21 424.276 390.955C408.531 398.464 393.392 406.942 379.586 417.721C368.322 426.562 358.028 436.614 348.823 447.635C311.4 492.568 291.295 548.643 266.225 600.721C253.629 626.76 239.823 652.557 221.656 675.326C212.694 686.589 202.762 697.005 191.62 706.209C177.692 717.715 162.069 726.919 146.082 735.034C113.382 751.384 78.2595 762.889 47.1337 782.388C20.4891 799.102 -4.94433 822.113 -15.8444 852.391C-18.3877 859.416 -19.9622 866.682 -20.81 874.07C-20.9311 875.281 -18.7511 875.644 -18.63 874.312Z" fill="#00082E"/>
<path d="M-197.149 648.923C-188.308 616.707 -161.542 593.454 -134.292 576.377C-105.104 558.21 -73.6147 543.677 -48.9079 519.091C-9.7888 480.215 10.9213 427.531 33.6903 378.359C45.196 353.41 57.4283 328.704 73.1728 306.177C89.5229 282.802 109.749 263.061 134.576 248.77C164.249 231.693 197.555 221.156 224.684 199.598C245.757 182.764 262.107 160.843 276.398 138.074C304.86 92.6567 326.296 38.883 370.26 5.57728C375.468 1.7017 380.918 -1.93172 386.61 -5.08062C388.79 -6.29174 386.852 -9.68278 384.551 -8.47167C335.985 18.6574 310.794 70.7353 283.665 116.758C269.737 140.254 255.204 163.628 235.826 183.127C224.805 194.269 212.33 203.474 198.766 211.225C183.506 219.945 167.277 226.849 151.532 234.479C136.756 241.624 122.465 249.618 109.506 259.791C98.9696 268.148 89.4018 277.715 80.8028 288.131C63.4838 309.083 50.2827 332.943 38.2926 357.286C14.0702 406.942 -4.7021 461.079 -40.6723 503.831C-49.9979 514.974 -60.5346 525.147 -72.2825 533.746C-86.937 544.646 -103.045 553.487 -118.789 562.692C-146.524 578.8 -176.923 597.814 -191.457 627.729C-194.727 634.39 -197.028 641.414 -198.481 648.681C-198.481 649.408 -197.27 649.771 -197.149 648.923Z" fill="#00082E"/>
<path d="M597.829 48.8142C585.839 70.251 574.212 92.0511 566.946 115.547C563.312 127.174 561.011 139.043 559.921 151.033C558.831 164.234 559.437 177.435 560.042 190.515C560.769 205.533 561.496 220.672 562.949 235.569C563.191 237.385 565.977 238.839 566.946 236.659C573.365 222.246 577.846 207.228 584.628 192.937C591.289 179.009 598.798 165.445 605.823 151.638C618.418 126.326 629.076 99.4389 628.107 70.6143C627.623 55.8387 623.868 41.0631 615.754 28.5886C614.664 27.0141 611.757 27.0141 611.394 29.1941C607.034 50.3887 602.189 71.4621 597.345 92.5355C592.5 113.609 587.292 134.561 583.417 155.877C583.054 157.815 585.96 158.663 586.445 156.725C592.137 135.894 596.497 114.699 601.22 93.6256C605.944 72.5521 610.788 51.4787 615.875 30.5263C614.421 30.7686 612.968 30.8897 611.515 31.1319C625.806 54.3854 625.322 82.4833 618.297 107.917C610.546 136.015 594.922 161.085 582.811 187.366C579.42 194.633 576.392 202.021 573.607 209.651C570.458 218.129 567.672 226.606 563.312 234.6C564.645 234.963 565.977 235.326 567.309 235.69C566.946 210.014 563.676 184.338 564.16 158.663C564.645 133.714 571.306 110.097 580.874 87.2067C586.324 74.3689 592.379 61.7732 598.435 49.1776C598.677 48.8143 598.071 48.4509 597.829 48.8142Z" fill="#00082E"/>
<path d="M555.077 114.215C526.615 129.717 495.369 135.894 464.122 142.676C447.529 146.309 431.058 150.669 414.829 155.756C399.327 160.6 383.098 165.566 369.412 174.407C356.332 182.764 345.432 195.602 343.252 211.346C343.01 213.163 344.463 214.374 346.159 213.647C372.803 201.899 402.234 199.719 430.574 194.148C444.138 191.484 457.582 187.851 470.298 182.279C484.105 176.224 496.701 167.746 508.933 158.905C522.861 148.853 536.183 137.952 548.779 126.205C550.838 124.267 547.81 121.239 545.751 123.056C534.245 133.35 522.255 143.16 509.902 152.244C497.791 161.206 485.195 169.926 471.631 176.466C445.955 188.819 417.13 191.605 389.396 196.934C373.893 199.841 358.633 203.716 344.221 210.135C345.19 210.862 346.159 211.71 347.128 212.436C351.609 179.252 389.396 167.867 416.525 159.389C432.511 154.303 448.74 150.064 465.212 146.43C480.108 143.039 495.126 140.011 509.781 135.894C526.01 131.291 541.997 125.357 555.803 115.547C556.53 114.941 555.924 113.851 555.077 114.215Z" fill="#00082E"/>
<path d="M347.733 207.834C355.848 199.962 366.748 195.602 377.285 191.968C387.821 188.214 398.721 185.065 409.5 182.037C431.3 175.982 453.464 170.774 474.901 163.144C486.649 158.905 498.639 154.303 508.812 146.915C509.902 146.067 509.054 144.492 507.722 145.098C496.943 149.579 486.527 154.787 475.627 158.784C464.727 162.78 453.585 166.172 442.443 169.32C420.4 175.497 397.995 180.826 376.558 189.183C365.658 193.422 355.121 198.266 347.612 207.592C347.249 207.713 347.491 207.955 347.733 207.834Z" fill="#00082E"/>
<path d="M490.282 185.913C467.876 199.235 445.47 214.98 428.757 235.205C411.922 255.431 402.839 280.38 398.116 306.056C395.33 321.074 393.756 336.334 392.545 351.594C392.302 354.258 396.057 354.985 397.389 352.926C405.988 338.514 414.708 323.98 426.698 311.99C438.93 299.758 453.948 291.038 467.392 280.259C492.462 260.154 514.141 234.479 524.557 203.595C530.37 186.155 532.308 167.746 529.401 149.579C529.038 147.52 525.889 147.157 524.92 148.974C504.936 189.91 481.198 228.907 454.917 266.089C453.343 268.269 456.976 270.328 458.429 268.148C484.711 230.966 507.964 191.726 529.038 151.396C527.584 151.154 526.131 151.033 524.557 150.79C529.28 183.612 517.29 216.554 497.67 242.472C488.102 255.068 476.596 266.331 464.243 276.262C451.405 286.678 436.993 295.156 424.882 306.661C411.801 319.136 402.234 334.88 392.787 350.14C394.361 350.625 395.936 350.988 397.631 351.473C400.296 325.797 402.718 299.637 411.196 275.172C419.916 250.344 435.782 230.482 455.765 213.647C467.028 204.201 479.261 195.965 490.887 187.003C491.735 186.518 491.13 185.428 490.282 185.913Z" fill="#00082E"/>
<path d="M378.132 234.357C338.529 220.672 291.901 232.904 259.443 257.974C250.117 265.241 241.76 273.598 234.615 283.165C233.646 284.377 234.978 286.072 236.31 286.072C287.056 288.252 329.809 257.005 374.136 237.264C375.71 236.537 374.983 233.752 373.167 233.873C368.08 234.357 362.993 235.69 357.786 236.416C352.941 237.022 348.097 237.748 343.373 238.475C332.958 239.929 322.663 241.988 312.49 244.652C292.991 249.86 274.582 257.853 258.595 270.328C257.263 271.418 259.079 273.719 260.412 272.75C276.398 261.002 294.807 252.645 313.701 247.195C323.269 244.41 332.958 242.23 342.647 240.534C347.612 239.686 352.699 238.96 357.786 238.354C362.872 237.749 368.08 238.112 373.167 237.627C372.803 236.537 372.561 235.326 372.198 234.236C328.598 253.614 286.208 285.103 236.189 282.318C236.795 283.287 237.279 284.256 237.885 285.224C262.713 252.888 302.68 233.752 343.252 232.783C354.758 232.541 366.384 233.51 377.769 235.569C378.496 235.447 378.738 234.6 378.132 234.357Z" fill="#00082E"/>
<path d="M362.024 243.199C345.795 255.068 329.809 267.179 313.943 279.411C300.136 290.069 286.693 301.211 276.035 315.139C256.778 340.451 247.695 371.819 245.152 403.187C243.577 421.596 244.425 440.126 246.726 458.535C247.089 461.079 250.723 462.048 251.449 459.141C255.688 443.154 263.682 428.621 275.187 416.51C286.814 404.398 301.105 395.315 313.216 383.688C336.107 361.888 348.097 331.489 358.028 302.059C364.81 281.954 370.987 261.608 377.89 241.503C378.496 239.686 376.073 238.596 374.862 239.686C337.318 271.781 307.282 313.322 289.115 359.345C284.028 372.183 279.305 385.384 277.731 399.07C277.609 400.644 279.911 400.765 280.395 399.433C284.876 388.169 288.146 376.422 292.385 365.037C296.745 353.531 301.832 342.268 307.524 331.368C318.788 309.81 332.473 289.584 348.46 271.297C357.422 261.002 367.111 251.313 377.406 242.351C376.437 241.745 375.347 241.14 374.378 240.534C368.322 258.701 361.782 276.625 355.606 294.671C350.277 310.052 345.069 325.676 338.044 340.33C331.141 354.743 322.421 368.428 310.915 379.692C299.046 391.318 285.118 400.402 273.371 412.15C260.775 424.745 251.57 440.732 246.726 457.809C248.3 458.051 249.875 458.293 251.449 458.414C247.574 427.046 248.058 394.588 256.778 364.068C261.017 349.414 267.073 335.244 275.429 322.527C285.118 307.872 297.956 296.003 311.521 284.982C328.355 271.175 345.674 257.974 362.509 244.046C363.357 243.804 362.63 242.835 362.024 243.199Z" fill="#00082E"/>
<path d="M554.956 317.319C563.191 303.391 578.209 295.398 592.621 289.463C608.366 282.923 626.533 276.989 642.035 287.404C642.035 286.072 642.035 284.619 642.035 283.287C625.564 296.003 607.034 305.935 587.292 312.353C582.448 313.928 577.482 315.381 572.517 316.592C569.973 317.198 567.309 317.804 564.645 318.288C563.555 318.53 562.101 319.015 561.011 318.894C557.62 318.651 559.316 316.592 560.89 315.139C564.766 311.869 570.095 309.447 574.576 307.267C579.541 304.845 584.507 302.665 589.594 300.727C600.857 296.488 612.484 293.46 623.868 289.463C626.533 288.495 625.564 284.377 622.657 285.103C610.425 288.131 598.314 292.249 586.687 297.093C581.116 299.395 575.545 301.938 570.216 304.724C565.735 307.146 559.8 309.689 556.53 313.928C554.35 316.714 553.866 321.195 557.983 322.527C560.042 323.132 562.343 322.406 564.402 322.042C567.672 321.437 570.821 320.831 574.091 320.105C585.839 317.44 597.345 313.444 608.487 308.478C621.204 302.786 633.315 295.64 644.457 287.162C645.911 286.072 646.032 284.134 644.457 283.044C628.592 272.144 608.124 278.321 592.258 285.588C577.119 292.491 561.859 301.211 554.471 316.835C554.229 317.319 554.834 317.683 554.956 317.319Z" fill="#00082E"/>
<path d="M637.069 201.415C629.56 199.356 620.356 201.294 613.21 203.837C605.58 206.623 598.556 211.346 593.106 217.402C587.535 223.458 583.659 230.966 581.479 238.839C579.42 246.469 578.209 256.158 581.842 263.424C582.448 264.636 584.144 263.909 584.144 262.819C584.265 259.064 583.78 255.431 583.78 251.676C583.901 247.68 584.265 243.804 585.234 239.929C587.05 232.42 590.684 225.274 595.891 219.461C600.978 213.769 607.397 209.409 614.543 206.623C617.934 205.291 621.446 204.201 625.079 203.716C628.955 203.111 632.831 203.232 636.827 202.99C637.675 202.868 637.917 201.657 637.069 201.415Z" fill="#00082E"/>
<path d="M580.389 266.331C580.752 267.058 581.237 267.784 581.6 268.632C581.964 269.359 582.327 270.085 582.932 270.691C583.296 271.054 584.265 270.812 584.144 270.207C584.022 269.359 583.659 268.632 583.175 267.905C582.811 267.058 582.327 266.21 581.963 265.483C581.479 264.393 579.783 265.241 580.389 266.331Z" fill="#00082E"/>
<path d="M557.136 308.841C566.825 299.031 570.942 285.224 568.036 271.66C566.703 265.12 563.676 258.943 559.437 253.735C557.378 251.192 555.077 248.891 552.412 246.832C550.353 245.136 547.447 242.714 544.661 242.714C542.602 242.714 541.391 244.289 540.664 245.984C538.848 249.86 537.758 254.341 536.547 258.459C534.245 266.331 532.55 274.688 532.913 282.923C533.519 294.913 539.453 307.872 550.838 313.201C551.443 313.443 552.049 313.807 552.654 313.928C556.167 314.776 555.803 313.565 556.409 311.264C557.014 309.084 557.62 306.903 557.983 304.723C558.952 300.363 559.437 295.761 559.073 291.28C558.468 284.377 556.046 276.504 549.384 273.234C548.416 272.75 547.083 273.84 547.81 274.809C551.807 280.38 554.834 285.951 555.198 292.976C555.44 297.093 554.834 301.09 554.108 305.087C553.744 306.903 553.26 308.599 552.897 310.416C552.533 311.748 551.443 313.928 551.807 315.26C552.654 318.409 557.499 316.714 556.772 313.686C556.409 311.748 554.229 311.142 552.654 310.416C549.627 309.083 547.083 307.146 544.782 304.602C534.851 293.823 534.851 278.079 538.121 264.635C538.969 260.881 540.18 257.126 541.27 253.493C541.876 251.798 542.36 249.981 542.966 248.285C543.571 246.59 543.208 246.469 545.146 246.59C546.962 246.711 547.81 247.316 549.142 248.406C554.471 252.524 558.71 257.974 561.496 264.151C567.915 278.563 565.371 295.64 555.924 308.114C555.924 308.72 556.772 309.326 557.136 308.841Z" fill="#00082E"/>
<path d="M494.279 362.978C503.846 352.441 511.355 340.936 513.172 326.524C515.231 311.142 511.355 295.64 507.48 280.743C507.116 279.411 505.179 278.805 504.21 279.895C493.189 291.886 483.621 306.177 480.351 322.406C477.081 338.271 480.23 353.41 489.071 366.854C490.282 368.67 493.431 368.065 493.431 365.643C493.189 349.05 502.635 332.579 497.791 315.866C497.185 313.565 494.157 314.291 493.915 316.35C492.825 324.949 493.31 333.548 491.735 342.147C490.282 349.898 487.254 358.255 488.95 366.248C490.282 365.521 491.493 364.795 492.825 363.947C483.378 352.805 481.804 335.486 484.832 321.8C488.223 306.782 496.701 293.702 507.116 282.56C506.026 282.318 504.936 281.954 503.846 281.712C507.48 295.64 511.234 310.052 509.781 324.465C508.449 338.392 501.303 350.867 493.31 362.13C492.825 362.857 493.794 363.584 494.279 362.978Z" fill="#00082E"/>
<path d="M315.275 264.393C322.179 255.794 330.656 249.133 339.74 242.956C340.224 242.593 339.861 241.866 339.255 242.108C329.203 246.711 320.725 254.462 314.064 263.182C313.337 264.03 314.549 265.362 315.275 264.393Z" fill="#00082E"/>
<path d="M342.525 245.015C343.252 245.015 343.252 243.925 342.525 243.925C341.92 244.046 341.92 245.015 342.525 245.015Z" fill="#00082E"/>
<path d="M360.208 205.291C366.384 199.356 373.288 194.875 380.555 190.394C381.281 189.91 380.676 189.062 379.949 189.304C372.077 192.695 365.173 198.145 359.239 204.201C358.512 204.806 359.481 205.896 360.208 205.291Z" fill="#00082E"/>
<path d="M378.617 201.899C384.43 194.148 391.697 188.819 399.811 183.854C400.296 183.49 400.054 182.522 399.327 182.764C390.243 186.276 382.735 193.3 377.042 200.931C376.437 201.899 377.89 202.747 378.617 201.899Z" fill="#00082E"/>
<path d="M394.482 195.48C399.811 189.546 405.988 184.823 412.77 180.826C413.376 180.463 412.891 179.615 412.165 179.857C404.777 183.127 398.479 188.093 393.15 194.148C392.545 195.117 393.756 196.328 394.482 195.48Z" fill="#00082E"/>
<path d="M405.988 192.695C405.867 192.574 405.867 192.453 405.746 192.332C405.504 191.968 405.14 191.847 404.898 191.968C403.929 192.211 403.081 193.179 403.687 194.269C404.535 195.965 406.715 194.633 407.684 193.906C411.317 191.121 414.708 187.851 418.463 185.065C421.975 182.522 425.608 180.221 428.999 177.435C429.484 177.072 428.878 176.466 428.394 176.708C423.913 178.646 419.795 181.674 415.919 184.58C414.829 185.428 404.777 193.664 404.656 193.543C405.14 194.391 406.594 193.543 405.988 192.695Z" fill="#00082E"/>
<path d="M422.701 191.484C428.394 184.459 435.297 179.857 442.564 174.892C443.169 174.528 442.806 173.438 442.079 173.68C433.844 176.708 426.819 183.491 421.369 190.152C420.643 191 421.975 192.332 422.701 191.484Z" fill="#00082E"/>
<path d="M436.629 189.183C443.169 182.885 450.436 177.314 457.945 172.106C458.551 171.743 458.066 170.774 457.34 171.137C449.225 175.739 442.079 181.432 435.297 187.972C434.449 188.698 435.782 190.031 436.629 189.183Z" fill="#00082E"/>
<path d="M451.768 183.975C459.156 176.466 467.634 170.653 476.112 164.476C476.596 164.112 476.233 163.386 475.627 163.628C466.059 167.988 457.703 175.255 450.557 182.643C449.588 183.49 450.92 184.701 451.768 183.975Z" fill="#00082E"/>
<path d="M467.513 177.435C475.385 171.379 483.257 165.203 491.009 158.784C491.372 158.541 490.887 157.936 490.524 158.178C482.531 164.113 474.537 170.168 466.665 176.345C466.181 176.829 466.907 177.919 467.513 177.435Z" fill="#00082E"/>
<path d="M353.91 266.936C350.882 283.892 347.733 301.332 347.491 318.651C347.491 319.015 348.097 319.136 348.097 318.772C350.64 301.696 351.851 284.377 354.637 267.3C354.879 266.694 354.031 266.452 353.91 266.936Z" fill="#00082E"/>
<path d="M343.494 284.256C343.01 293.46 342.404 302.543 341.435 311.627C340.588 320.71 338.771 329.794 338.529 338.877C338.529 339.361 339.134 339.361 339.255 338.998C341.557 330.52 342.041 321.073 342.889 312.353C343.737 303.028 344.221 293.581 344.584 284.256C344.463 283.65 343.494 283.65 343.494 284.256Z" fill="#00082E"/>
<path d="M515.958 172.591C515.958 180.342 515.715 188.093 514.989 195.844C514.262 203.595 512.688 211.104 511.961 218.855C511.961 219.461 512.809 219.582 513.051 218.976C515.231 211.831 515.958 203.958 516.563 196.449C517.29 188.456 517.411 180.463 517.169 172.469C517.169 171.743 515.958 171.743 515.958 172.591Z" fill="#00082E"/>
<path d="M506.874 190.757C506.511 198.145 505.905 205.533 505.3 212.8C504.694 220.066 503.362 227.575 503.483 234.842C503.483 235.448 504.452 235.69 504.694 234.963C506.39 228.06 506.511 220.551 506.995 213.526C507.601 205.896 508.085 198.387 508.449 190.757C508.449 189.788 506.874 189.788 506.874 190.757Z" fill="#00082E"/>
<path d="M496.459 209.893C495.49 216.554 494.642 223.215 493.673 229.876C492.825 236.053 491.372 242.472 491.493 248.77C491.493 249.254 492.22 249.376 492.341 248.891C494.279 242.714 494.642 236.053 495.49 229.634C496.338 223.215 497.307 216.796 498.154 210.256C498.275 209.287 496.58 208.803 496.459 209.893Z" fill="#00082E"/>
<path d="M489.797 217.402C487.981 223.942 486.406 230.603 484.953 237.264C483.621 243.441 481.683 249.981 481.804 256.279C481.804 256.884 482.652 257.005 482.894 256.4C485.074 250.344 485.559 243.32 486.891 237.022C488.223 230.603 489.676 224.063 491.372 217.765C491.493 216.796 490.04 216.433 489.797 217.402Z" fill="#00082E"/>
<path d="M479.503 233.631C477.686 239.929 475.87 246.105 474.174 252.403C472.478 258.701 470.42 264.999 469.33 271.297C469.208 271.902 470.056 272.144 470.298 271.539C472.6 265.483 474.053 259.064 475.749 252.767C477.444 246.469 479.019 240.171 480.593 233.873C480.593 233.268 479.624 233.025 479.503 233.631Z" fill="#00082E"/>
<path d="M469.208 256.279C466.302 262.334 463.032 268.39 460.731 274.688C460.488 275.172 461.336 275.535 461.578 275.051C464.727 269.238 467.149 262.819 469.935 256.642C470.056 256.158 469.451 255.794 469.208 256.279Z" fill="#00082E"/>
<path d="M455.281 274.567C453.827 277.473 452.132 280.259 450.921 283.165C450.799 283.529 451.284 283.65 451.405 283.408C453.222 280.743 454.554 277.837 456.007 275.051C456.37 274.446 455.523 274.082 455.281 274.567Z" fill="#00082E"/>
<path d="M583.78 171.379C581.479 177.435 579.905 184.338 580.631 190.878C580.631 191.363 581.358 191.363 581.358 190.878C581.721 184.217 582.327 178.041 584.749 171.743C584.991 171.016 584.022 170.653 583.78 171.379Z" fill="#00082E"/>
<path d="M579.662 186.276C576.514 193.179 574.455 200.325 574.091 207.955C574.091 208.318 574.697 208.439 574.697 208.076C575.666 200.688 577.482 193.664 580.51 186.882C580.752 186.276 579.905 185.67 579.662 186.276Z" fill="#00082E"/>
<path d="M496.701 292.855C496.58 300.969 495.611 309.568 496.822 317.682C496.943 318.167 497.67 318.167 497.67 317.682C498.76 309.568 497.912 300.969 497.791 292.855C497.791 292.128 496.701 292.128 496.701 292.855Z" fill="#00082E"/>
<path d="M543.692 244.652C545.267 256.036 547.204 268.39 551.807 279.048C552.049 279.653 553.018 279.169 552.897 278.563C551.686 272.871 549.748 267.179 548.416 261.486C547.083 255.794 545.872 250.102 544.782 244.289C544.661 243.683 543.571 244.046 543.692 244.652Z" fill="#00082E"/>
<path d="M536.304 260.76C538.363 267.784 542.966 275.657 549.869 278.927C550.232 279.048 550.596 278.684 550.353 278.321C547.689 275.778 544.903 273.719 542.723 270.812C540.301 267.663 538.606 264.151 537.516 260.397C537.152 259.791 536.062 260.154 536.304 260.76Z" fill="#00082E"/>
<path d="M535.336 278.684C540.301 281.47 545.267 284.74 550.596 286.92C551.322 287.283 551.928 286.314 551.201 285.83C546.599 282.439 541.27 279.895 536.304 277.11C535.336 276.504 534.367 278.079 535.336 278.684Z" fill="#00082E"/>
<path d="M536.789 289.463C542.118 291.038 547.568 293.097 553.139 294.187C553.744 294.308 554.35 293.339 553.623 292.976C548.416 290.674 542.723 289.342 537.273 287.647C536.062 287.405 535.699 289.1 536.789 289.463Z" fill="#00082E"/>
<path d="M565.008 309.205C571.185 304.602 577.482 300.121 583.296 295.034C583.659 294.792 583.175 294.187 582.811 294.429C576.392 298.668 570.579 303.755 564.523 308.478C564.16 308.841 564.645 309.568 565.008 309.205Z" fill="#00082E"/>
<path d="M433.48 238.96C432.512 240.413 431.664 241.745 430.695 243.199C430.453 243.683 431.058 244.167 431.421 243.804C440.505 233.51 450.073 223.578 460.367 214.495C471.025 205.169 482.531 197.176 494.036 188.819C494.521 188.456 494.157 187.608 493.552 187.972C481.683 194.754 470.662 203.595 460.367 212.678C449.709 222.004 439.657 232.056 430.695 243.077C430.937 243.32 431.179 243.441 431.421 243.683C432.269 242.23 433.117 240.776 433.844 239.323C434.207 238.96 433.723 238.596 433.48 238.96Z" fill="#00082E"/>
<path d="M423.065 259.549C433.723 248.77 444.623 238.354 456.007 228.423C467.392 218.492 479.382 209.408 491.13 199.841C491.493 199.598 491.009 198.993 490.645 199.235C478.292 207.592 466.786 217.281 455.644 227.091C444.138 237.264 433.117 247.922 422.701 259.185C422.58 259.428 422.944 259.67 423.065 259.549Z" fill="#00082E"/>
<path d="M429.605 266.089C440.384 255.431 451.526 245.015 461.942 233.994C462.305 233.51 461.699 232.904 461.215 233.267C450.073 243.562 439.536 254.583 428.757 265.241C428.273 265.725 429.12 266.573 429.605 266.089Z" fill="#00082E"/>
<path d="M569.126 116.031C564.281 126.204 558.831 136.015 552.533 145.34C549.385 150.064 546.114 154.787 542.602 159.268C539.211 163.628 535.336 167.746 532.187 172.227C531.702 172.954 532.792 173.802 533.398 173.196C537.516 169.442 540.786 164.718 544.056 160.358C547.326 155.998 550.474 151.396 553.502 146.794C559.679 137.105 565.25 127.052 569.974 116.637C570.337 116.031 569.368 115.426 569.126 116.031Z" fill="#00082E"/>
<path d="M438.93 227.333C426.577 230.119 414.345 234.115 402.112 237.87C396.299 239.686 390.486 241.503 384.793 243.562C380.797 245.015 376.437 246.711 374.014 250.586C373.651 251.192 374.378 252.161 375.104 251.677C383.946 245.258 394.967 242.593 405.382 239.202C416.646 235.569 428.03 232.42 439.294 228.665C440.02 228.302 439.778 227.212 438.93 227.333Z" fill="#00082E"/>
<path d="M529.28 169.32C535.214 163.022 541.149 156.967 548.052 151.638C548.416 151.396 548.052 150.669 547.689 150.911C540.18 155.271 533.155 161.085 528.311 168.473C527.948 169.199 528.795 169.805 529.28 169.32Z" fill="#00082E"/>
<path d="M377.769 240.05C377.648 239.929 377.648 239.929 377.527 239.808C377.406 239.686 377.163 239.565 377.042 239.686C376.437 239.929 376.316 239.929 376.073 240.655C376.073 240.776 376.073 241.019 376.195 241.14C377.89 242.593 380.555 241.745 382.613 241.624C385.762 241.382 389.032 241.261 392.06 240.413C392.666 240.292 392.424 239.444 391.939 239.444C389.396 239.202 386.852 239.565 384.43 239.808C383.582 239.929 377.406 241.14 377.042 240.776C377.527 241.14 378.132 240.534 377.769 240.05Z" fill="#00082E"/>
<path d="M371.956 248.164C378.011 246.953 384.067 245.742 389.88 243.562C390.486 243.32 390.365 242.351 389.759 242.472C383.582 243.199 377.527 244.894 371.592 246.59C370.502 246.832 370.987 248.285 371.956 248.164Z" fill="#00082E"/>
<path d="M379.101 239.444C387.7 238.839 396.541 238.475 405.14 237.022C405.867 236.901 405.625 235.811 405.019 235.811C396.42 235.69 387.7 236.901 379.101 237.749C378.011 237.87 377.89 239.565 379.101 239.444Z" fill="#00082E"/>
<path d="M383.34 237.506C392.302 236.901 401.628 237.022 410.469 235.326C411.317 235.205 411.075 233.873 410.227 233.873C401.386 233.389 392.181 234.963 383.34 235.69C382.129 235.69 382.129 237.506 383.34 237.506Z" fill="#00082E"/>
<path d="M396.057 232.42C403.445 233.51 411.68 234.721 419.068 233.389C419.795 233.267 419.795 232.056 419.068 231.935C411.559 230.845 403.929 231.33 396.299 230.361C395.209 230.24 394.846 232.298 396.057 232.42Z" fill="#00082E"/>
<path d="M404.05 230.482C411.559 228.786 418.826 228.907 426.335 228.06C427.183 227.939 427.546 226.727 426.577 226.485C419.068 225.274 410.832 226.849 403.566 228.544C402.355 228.907 402.839 230.724 404.05 230.482Z" fill="#00082E"/>
<path d="M416.04 225.395C421.369 224.063 426.456 224.426 431.785 224.547C432.633 224.547 432.633 223.457 431.906 223.215C426.698 221.277 420.643 222.125 415.435 223.457C414.102 223.7 414.708 225.759 416.04 225.395Z" fill="#00082E"/>
<path d="M425.608 221.883C428.757 221.035 432.269 220.429 435.297 218.976C435.903 218.734 435.539 217.765 434.934 217.886C431.543 218.007 428.273 219.097 425.003 219.945C423.792 220.308 424.276 222.246 425.608 221.883Z" fill="#00082E"/>
<path d="M443.533 217.281C444.38 217.281 444.38 215.948 443.533 215.948C442.685 215.948 442.685 217.281 443.533 217.281Z" fill="#00082E"/>
<path d="M325.57 262.94C328.84 261.365 332.231 259.791 335.501 258.095C338.771 256.4 342.404 255.189 345.432 253.251C345.917 253.009 345.553 252.161 345.069 252.403C341.799 253.493 338.65 255.31 335.501 256.763C331.868 258.338 328.355 260.033 324.843 261.729C323.874 261.971 324.601 263.303 325.57 262.94Z" fill="#00082E"/>
<path d="M578.088 293.218C581.6 289.221 584.749 284.982 587.535 280.501C590.32 276.141 593.348 271.297 594.438 266.21C594.559 265.725 593.833 265.362 593.59 265.847C590.926 270.086 589.109 274.93 586.687 279.29C584.022 284.013 580.874 288.373 577.361 292.612C576.998 292.976 577.725 293.702 578.088 293.218Z" fill="#00082E"/>
<path d="M394.119 264.393C379.465 265.241 371.592 283.287 366.021 294.671C358.512 310.052 352.336 327.008 350.398 344.085C348.944 357.528 351.246 378.844 367.232 382.719C380.191 385.868 393.998 372.909 388.669 359.708C385.641 352.078 378.496 352.926 372.925 357.286C367.596 361.525 360.571 368.792 366.263 375.574C367.111 376.543 368.686 375.332 368.08 374.242C364.083 367.58 372.198 360.435 377.648 357.528C386.005 353.047 388.064 364.674 386.126 370.245C383.946 376.3 378.496 380.418 371.956 380.539C364.931 380.66 359.602 376.058 356.574 370.003C350.761 358.255 352.214 344.206 355 331.852C357.907 319.136 362.388 306.661 368.08 294.913C370.987 288.858 374.136 282.681 377.89 276.989C381.766 271.175 386.974 265.483 394.24 264.635C394.361 264.757 394.361 264.393 394.119 264.393Z" fill="#00082E"/>
<path d="M549.869 159.631C541.512 167.504 534.488 176.829 529.401 187.124C524.314 197.297 519.349 209.651 520.439 221.156C521.287 229.876 526.979 239.202 536.304 240.534C545.267 241.866 553.26 234.236 553.745 225.516C553.745 224.911 553.26 224.305 552.776 224.184C546.357 222.367 539.938 224.668 535.941 229.876C534.972 231.087 537.031 232.662 538 231.451C541.512 227.212 546.72 225.395 552.049 226.727C551.686 226.243 551.322 225.88 551.08 225.395C550.838 235.569 539.211 241.261 530.976 235.569C522.255 229.513 521.892 218.007 523.951 208.682C527.948 190.515 537.879 173.68 550.717 160.237C550.959 159.874 550.232 159.268 549.869 159.631Z" fill="#00082E"/>
</g>
<g style="mix-blend-mode:multiply">
<path d="M571.3 182.1L457.2 172.6C444.4 168.5 431 167.5 417.2 170.8C407.2 173.2 399.2 176.9 392.7 181.4L339 168.8C339 168.8 320.3 253.3 380.1 280.9C384.2 292.1 388 299.4 388 299.4L575.8 298.8C575.2 298.2 569.3 286.6 559.3 270.6C598.4 258.6 571.3 182.1 571.3 182.1Z" fill="#6CC4E9"/>
</g>
<path d="M428.2 147L445.1 169.7L428.2 197L402.8 175.8L408.2 152.4C408.2 152.4 423.2 154 428.2 147Z" fill="white" stroke="#272453" stroke-width="1.6443" stroke-miterlimit="10"/>
<path d="M149.599 176.482L103.386 211.69L153.2 277.072L199.412 241.864L149.599 176.482Z" fill="#F2BC1E" stroke="#272453" stroke-width="2" stroke-miterlimit="10"/>
<path d="M386.288 139.602C388.863 138.767 389.873 134.769 388.546 130.671C387.218 126.573 384.055 123.927 381.48 124.761C378.906 125.595 377.895 129.594 379.223 133.692C380.551 137.79 383.714 140.436 386.288 139.602Z" stroke="#272453" stroke-width="2" stroke-miterlimit="10"/>
<path d="M442.283 120.504C444.857 119.67 445.868 115.672 444.54 111.574C443.213 107.476 440.049 104.83 437.475 105.664C434.901 106.498 433.89 110.496 435.218 114.594C436.545 118.692 439.709 121.338 442.283 120.504Z" stroke="#272453" stroke-width="2" stroke-miterlimit="10"/>
<path d="M387.4 128.2C387.4 128.2 394.3 129.4 391.3 122.6C385.8 110.1 399.1 90.8 428.4 92.2C457.7 93.6 415.8 56.9 391 78.4C366.2 99.9 371 110 379.8 126.2C379.7 126.2 385.8 122.7 387.4 128.2Z" fill="#272453"/>
<path d="M437.5 105.8C437.5 105.8 437.7 94.6 433 92C428.3 89.4 416.4 90.1 415.1 92C413.8 93.9 425.4 99.4 425.4 99.4L433 110L437.5 105.8Z" fill="#272453"/>
<path d="M400.6 123C401.76 123 402.7 121.523 402.7 119.7C402.7 117.877 401.76 116.4 400.6 116.4C399.44 116.4 398.5 117.877 398.5 119.7C398.5 121.523 399.44 123 400.6 123Z" fill="#272453"/>
<path d="M415 119.7C416.16 119.7 417.1 118.223 417.1 116.4C417.1 114.577 416.16 113.1 415 113.1C413.84 113.1 412.9 114.577 412.9 116.4C412.9 118.223 413.84 119.7 415 119.7Z" fill="#272453"/>
<path d="M405.7 129.9C405.7 129.9 403.5 136 407.1 135.1" stroke="#272453" stroke-width="2" stroke-miterlimit="10"/>
<path d="M415 141.6C415 141.6 427.3 139.1 426.3 135.2" stroke="#272453" stroke-width="2" stroke-miterlimit="10"/>
<path d="M437.5 113.9C437.5 113.9 435.6 108.1 439 107.9" stroke="#272453" stroke-miterlimit="10"/>
<path d="M381.3 129.9C381.3 129.9 382.9 126 385.9 131.1" stroke="#272453" stroke-miterlimit="10"/>
<path d="M118.4 216.5L150.1 192.9" stroke="#272453" stroke-width="2" stroke-miterlimit="10"/>
<path d="M126 226.1L157.6 202.4" stroke="#272453" stroke-width="2" stroke-miterlimit="10"/>
<path d="M134.2 236.9L165.9 213.3" stroke="#272453" stroke-width="2" stroke-miterlimit="10"/>
<path d="M143.2 248.7L174.9 225.1" stroke="#272453" stroke-width="2" stroke-miterlimit="10"/>
<path d="M282.7 162.7L273.8 182.1" stroke="#272453" stroke-width="2" stroke-miterlimit="10"/>
<path d="M411.7 107.8C411.7 107.8 413.5 102.5 420.9 105.2" stroke="#272453" stroke-width="2" stroke-miterlimit="10"/>
<path d="M393.9 112.6C393.9 112.6 395.7 107.3 403.1 110" stroke="#272453" stroke-width="2" stroke-miterlimit="10"/>
<g clip-path="url(#clip2_13_81)">
<path d="M342.6 169L389.3 180" stroke="#272453" stroke-width="2" stroke-miterlimit="10"/>
<path d="M563.9 271.6C563.9 271.6 540.7 266.3 535.3 255.4" stroke="#272453" stroke-width="2" stroke-miterlimit="10"/>
<path d="M517.4 176.8L570.3 181.2C570.3 181.2 582.1 207.6 579.4 231.3" stroke="#272453" stroke-width="2" stroke-miterlimit="10"/>
<path d="M337 219.1C337 219.1 346.2 258.9 362.7 269.4" stroke="#272453" stroke-width="2" stroke-miterlimit="10"/>
</g>
<rect x="274" y="298" width="302" height="2" fill="#1E1559"/>
</g>
<defs>
<clipPath id="clip0_13_81">
<rect width="640" height="300" fill="white"/>
</clipPath>
<clipPath id="clip1_13_81">
<rect width="217.4" height="161.1" fill="white" transform="translate(450 139)"/>
</clipPath>
<clipPath id="clip2_13_81">
<rect width="244.8" height="104.6" fill="white" transform="translate(336 168)"/>
</clipPath>
</defs>
</svg>
