<svg width="640" height="300" viewBox="0 0 640 300" fill="none" xmlns="http://www.w3.org/2000/svg">
<g clip-path="url(#clip0_13_81)">
<path d="M113.621 47.6354C95.2428 47.6354 80.4089 60.5092 80.4089 76.4044C80.4089 85.8627 85.6598 94.2701 93.7988 99.5247C89.2042 107.932 81.3278 116.471 81.3278 116.471C94.3238 127.637 113.752 130.264 113.752 130.264C111.914 125.272 106.401 110.559 103.907 103.991C107.057 104.779 110.339 105.305 113.752 105.305C132.131 105.305 146.964 92.431 146.964 76.5358C146.964 60.6406 131.999 47.6354 113.621 47.6354Z" fill="#F9EEF6" stroke="#272453" stroke-width="1.8592" stroke-miterlimit="10"/>
<path d="M243.844 159.821C206.694 133.68 165.605 152.334 134.625 176.242C149.065 164.156 117.165 127.111 95.5053 118.441C73.8452 109.771 55.9921 127.768 63.9997 169.148C68.7256 193.32 67.9379 207.901 66.4939 215.914C65.8376 216.703 65.3125 217.622 64.6561 218.542C38.7953 259.002 48.5095 282.517 55.3357 292.106C57.3048 297.492 62.4245 300.776 72.4012 300.776C189.497 300.776 183.065 226.686 192.91 242.319C215.489 278.444 313.682 276.342 313.682 276.342L337.179 273.846C337.179 273.846 315.126 210.003 243.844 159.821Z" fill="#E72F74"/>
<path d="M243.844 159.821C206.694 133.68 165.605 152.334 134.625 176.242C149.065 164.156 117.165 127.111 95.5053 118.441C73.8452 109.771 55.9921 127.768 63.9997 169.148C68.7256 193.32 67.9379 207.901 66.4939 215.914C65.8376 216.703 65.3125 217.622 64.6561 218.542C38.7953 259.002 48.5095 282.517 55.3357 292.106C57.3048 297.492 62.4245 300.776 72.4012 300.776C189.497 300.776 183.065 226.686 192.91 242.319C215.489 278.444 313.682 276.342 313.682 276.342L337.179 273.846C337.179 273.846 315.126 210.003 243.844 159.821Z" fill="#E72F74"/>
<mask id="mask0_13_81" style="mask-type:alpha" maskUnits="userSpaceOnUse" x="47" y="116" width="291" height="185">
<path d="M243.844 159.821C206.694 133.68 165.605 152.334 134.625 176.242C149.065 164.156 117.165 127.111 95.5053 118.441C73.8452 109.771 55.9921 127.768 63.9997 169.148C68.7256 193.32 67.9379 207.901 66.4939 215.914C65.8376 216.703 65.3125 217.622 64.6561 218.542C38.7953 259.002 48.5095 282.517 55.3357 292.106C57.3048 297.492 62.4245 300.776 72.4012 300.776C189.497 300.776 183.065 226.686 192.91 242.319C215.489 278.444 313.682 276.342 313.682 276.342L337.179 273.846C337.179 273.846 315.126 210.003 243.844 159.821Z" fill="#E72F74"/>
</mask>
<g mask="url(#mask0_13_81)">
<path d="M1991.05 -371.427H-431.184V2050.81H1991.05V-371.427Z" fill="white"/>
<path d="M385.231 466.183H-460.614V-419.508H385.11V466.183H385.231ZM-459.888 465.456H384.383V-418.781H-459.888V465.456Z" fill="#00082E"/>
<path d="M-267.925 60.8213C-257.994 66.6347 -253.15 78.9881 -247.942 88.677C-241.765 100.062 -235.71 111.567 -229.775 123.073C-217.664 146.326 -206.037 169.701 -194.895 193.439C-172.61 240.43 -151.9 288.027 -131.432 335.745C-119.563 363.48 -107.694 391.214 -95.8255 418.828C-94.7355 421.492 -90.2544 420.644 -89.6488 417.98C-84.0777 392.183 -75.4787 366.871 -67.2431 341.801C-59.1286 316.488 -50.4086 291.418 -41.4463 266.469C-23.4006 216.087 -3.90165 166.189 17.0507 117.017C22.8641 103.332 28.7985 89.6459 34.8541 76.0814C37.8819 69.4203 40.7886 62.7591 43.8164 56.098C46.7231 49.679 50.5987 43.3812 49.3875 36.2356C49.1453 34.54 46.8442 33.3289 45.2697 33.8134C-19.5251 56.0979 -84.441 77.4136 -150.205 96.5493C-168.856 101.999 -187.507 107.328 -206.158 112.536C-208.217 113.142 -208.702 115.201 -207.975 116.896C-181.33 178.179 -153.233 238.856 -123.923 299.048C-115.688 316.004 -107.331 332.96 -98.7322 349.794C-97.4 352.459 -93.5244 351.49 -92.6766 348.946C-69.4232 278.58 -48.3497 207.488 -29.6985 135.668C-24.3696 115.322 -19.404 94.9748 -14.4384 74.6281C-13.7117 71.7214 -16.6184 69.7836 -19.1617 70.9947C-42.6574 81.7737 -66.3953 92.0681 -90.6177 101.152C-114.598 110.235 -138.941 118.349 -163.527 125.737C-164.98 126.222 -166.07 127.796 -165.586 129.371C-151.658 173.576 -135.55 216.934 -117.02 259.324C-111.691 271.435 -106.241 283.425 -100.428 295.294C-99.2167 297.837 -95.0988 297.11 -94.3722 294.567C-82.7454 247.455 -70.0287 200.705 -55.9797 154.32C-51.983 141.118 -47.8652 127.917 -43.8685 114.595C-43.0208 111.93 -46.0486 109.993 -48.3497 111.083C-75.721 124.768 -104.424 135.547 -133.734 144.388C-135.55 144.994 -136.398 146.932 -135.429 148.627C-122.107 173.092 -113.992 200.1 -111.812 227.835C-111.57 230.499 -107.452 232.437 -106.12 229.409C-93.2821 201.795 -82.1399 173.334 -74.1465 144.025C-73.662 142.087 -75.5998 139.665 -77.7798 140.392C-90.6177 145.357 -103.577 149.96 -116.536 154.562C-117.989 155.046 -118.958 156.5 -118.595 158.195C-116.899 164.735 -115.325 171.396 -113.629 177.936C-112.66 181.812 -106.604 180.116 -107.573 176.241C-109.269 169.701 -111.207 163.161 -113.023 156.621C-113.75 157.832 -114.356 159.043 -115.082 160.254C-102.244 155.41 -89.2855 150.565 -76.3265 146.084C-77.5376 144.873 -78.7488 143.662 -79.9599 142.451C-88.9222 171.033 -99.0955 199.131 -111.691 226.26C-109.753 226.745 -107.937 227.35 -105.999 227.835C-108.421 199.01 -116.778 171.033 -130.827 145.721C-131.432 147.174 -132.038 148.506 -132.522 149.96C-102.729 140.755 -73.9043 129.128 -45.5641 116.291C-47.0174 115.079 -48.5919 113.989 -50.0452 112.778C-65.5476 158.68 -78.5065 205.55 -90.8599 252.42C-94.3722 265.742 -97.7633 279.186 -101.033 292.629C-98.9744 292.387 -97.0366 292.145 -94.9777 291.903C-114.84 250.482 -132.643 207.972 -147.904 164.614C-152.264 152.382 -156.381 140.028 -160.257 127.675C-160.984 128.886 -161.589 130.097 -162.316 131.308C-112.539 116.412 -63.4887 98.2449 -16.2551 76.5659C-17.8295 75.3547 -19.404 74.1436 -20.9784 72.9325C-38.1763 144.994 -57.7964 216.571 -79.8388 287.3C-86.1366 307.284 -92.5555 327.267 -99.2167 347.13C-97.1577 346.887 -95.22 346.645 -93.1611 346.282C-123.197 286.574 -152.143 226.381 -179.756 165.462C-187.507 148.264 -195.258 131.066 -202.888 113.868C-203.494 115.322 -204.099 116.775 -204.705 118.228C-138.82 99.6982 -73.2987 79.8359 -8.26167 58.7624C10.1473 52.8279 28.5563 46.6512 46.9653 40.3534C45.6331 39.5056 44.1797 38.779 42.8475 37.9312C43.332 41.3223 41.6364 44.7135 40.1831 47.6201C38.7297 50.769 37.2764 53.9179 35.9441 56.9457C33.1586 63.0013 30.4941 69.0569 27.8296 75.1125C22.5007 86.9815 17.2929 98.9715 12.2062 110.962C2.03282 134.821 -7.89834 158.801 -17.3451 182.902C-36.6018 231.952 -54.2842 281.487 -70.7554 331.506C-79.9599 359.362 -89.6488 387.46 -95.9466 416.163C-93.8877 415.921 -91.8288 415.679 -89.7699 415.316C-110.843 366.023 -131.796 316.731 -153.475 267.68C-174.79 219.599 -196.833 171.881 -221.055 125.132C-227.837 112.052 -234.983 99.0926 -242.25 86.1337C-248.305 75.4758 -253.998 62.5169 -265.14 56.3402C-268.168 55.0079 -270.711 59.2469 -267.925 60.8213Z" fill="#00082E"/>
<path d="M30.2519 86.2548C81.3611 134.457 139.737 175.03 201.867 207.851C219.429 217.177 237.353 225.776 255.52 233.769C255.762 231.831 256.004 229.772 256.247 227.834C175.223 253.389 94.5623 279.913 13.7807 306.073C-9.23053 313.582 -32.2418 320.969 -55.253 328.478C-54.0419 330.053 -52.8308 331.627 -51.7408 333.081C-24.7328 279.913 2.39619 226.623 23.7119 170.912C29.8886 154.925 35.4597 138.817 40.4253 122.467C38.972 123.073 37.3975 123.678 35.9442 124.284C77.6066 150.807 118.421 178.663 160.447 204.823C170.863 211.363 182.005 217.177 194.237 219.478C194.237 217.54 194.237 215.602 194.237 213.664C142.28 230.983 89.96 247.334 37.7608 263.805C22.743 268.528 7.84621 273.251 -7.17165 277.975C-5.96053 279.549 -4.74942 281.003 -3.65941 282.577C15.7185 245.638 34.1275 208.214 52.052 170.67C50.5987 171.033 49.1454 171.396 47.692 171.76C76.2744 192.107 106.795 210.152 138.768 224.322C139.01 222.384 139.253 220.568 139.495 218.63C103.403 226.018 68.0388 236.312 33.8853 250.482C35.2175 251.815 36.4286 253.026 37.7608 254.358C44.422 238.25 51.0831 222.021 57.6232 205.913C56.6543 206.64 55.5643 207.488 54.5954 208.214C67.191 209.91 79.1811 214.512 89.8389 221.537C90.0811 219.599 90.3234 217.782 90.5656 215.844C77.1222 220.326 63.6788 224.686 50.2353 228.925C51.4465 230.499 52.6576 232.073 53.7476 233.527C54.3532 232.679 54.9587 231.71 55.5643 230.862C57.8654 227.471 52.4154 224.322 50.1143 227.592C49.5087 228.44 48.9031 229.409 48.2976 230.257C46.8442 232.558 49.2665 235.707 51.8098 234.859C65.2532 230.378 78.6966 226.018 92.14 221.658C94.6834 220.81 95.1678 217.54 92.8667 215.966C81.6033 208.457 68.7655 203.612 55.3221 201.795C53.3843 201.553 52.1731 202.28 51.4465 203.975C44.7853 220.083 38.1242 236.312 31.5841 252.42C30.7364 254.479 33.4008 257.265 35.4597 256.296C69.371 242.126 104.857 230.983 140.948 224.322C143.491 223.838 143.976 219.841 141.675 218.63C109.822 203.733 79.3022 186.414 50.7198 165.825C49.3876 164.856 47.0865 165.462 46.3598 166.915C28.3141 204.46 9.66291 241.762 -9.23053 278.944C-10.4416 281.245 -8.50386 284.515 -5.71829 283.546C46.3598 266.59 98.559 249.877 150.637 233.042C165.534 228.198 180.552 223.596 195.57 218.872C198.234 218.024 198.597 213.664 195.57 213.059C184.669 210.758 174.981 205.913 165.534 200.1C155.482 193.923 145.671 187.262 135.74 180.964C115.151 167.763 94.6834 154.441 74.0944 141.24C62.3465 133.61 50.4776 126.101 38.8508 118.471C37.1553 117.381 34.8542 118.471 34.3697 120.287C16.3241 177.21 -8.26164 231.347 -34.7851 284.757C-42.1729 299.654 -49.803 314.551 -57.3119 329.326C-58.523 331.627 -56.4642 334.897 -53.7997 333.928C26.9819 307.647 107.642 281.124 188.545 255.327C211.556 247.939 234.689 240.793 257.7 233.406C260.122 232.679 261.212 228.682 258.427 227.471C194.237 199.373 133.803 163.161 78.5755 120.045C63.0732 107.934 47.8131 95.3382 33.0375 82.3792C31.2208 81.1681 28.193 84.1959 30.2519 86.2548Z" fill="#00082E"/>
<path d="M47.0865 38.7789C89.96 -5.79023 132.107 -51.086 175.102 -95.6552C187.092 -108.13 199.203 -120.604 211.314 -132.958C209.618 -133.442 207.923 -133.805 206.106 -134.29C212.283 -115.033 214.463 -94.8074 216.28 -74.7028C218.217 -53.3872 220.034 -32.0715 221.851 -10.7558C225.484 31.8755 228.875 74.628 232.145 117.38C233.962 141.603 235.536 165.825 237.474 190.048C239.049 189.2 240.502 188.231 242.076 187.383C219.065 171.881 195.933 156.742 171.953 142.693C147.973 128.644 123.387 115.685 98.4379 103.574C92.14 100.546 85.9634 97.5181 79.7867 94.3692C76.6377 92.7948 73.6099 91.2203 70.5821 89.5248C67.0699 87.587 65.1321 86.0125 65.2532 81.7736C65.4955 69.7835 70.3399 58.2779 76.6377 48.2257C83.0567 37.81 91.1711 28.6055 99.5279 19.6433C108.732 9.83321 118.179 0.0231426 127.747 -9.54469C149.91 -31.8293 172.922 -53.0238 196.781 -73.3706C194.843 -74.0973 193.026 -74.9451 191.088 -75.6717C194.964 -23.3514 196.417 29.2111 202.715 81.2892C204.411 95.7015 206.591 109.993 209.497 124.163C210.83 122.831 212.162 121.498 213.494 120.166C190.967 112.173 168.44 104.058 145.793 96.0648C134.65 92.0681 123.508 88.0714 112.245 84.0747C102.798 80.6836 92.3823 77.898 85.4789 70.1469C85.4789 71.6002 85.4789 73.0536 85.4789 74.5069C115.272 43.9867 145.429 13.8299 175.465 -16.4481C173.648 -17.1747 171.953 -17.9014 170.136 -18.6281C173.164 16.131 176.797 50.769 181.642 85.407C182.853 84.1958 184.185 82.8636 185.396 81.6525C161.053 72.8113 135.498 67.6035 109.58 66.1502C110.307 67.8458 111.033 69.5413 111.639 71.2369C126.899 57.6724 142.159 44.1078 157.419 30.5433C155.845 30.0589 154.149 29.6955 152.575 29.2111C155.603 39.8689 158.509 50.5268 161.537 61.1846C162.506 59.9735 163.475 58.6412 164.444 57.4301C155.239 57.4301 146.156 57.309 136.951 57.309C132.955 57.309 132.955 63.4857 136.951 63.4857C146.156 63.4857 155.239 63.4857 164.444 63.3646C166.382 63.3646 167.835 61.4268 167.35 59.6102C164.323 48.9523 161.174 38.2945 158.146 27.6367C157.54 25.4566 154.876 24.9722 153.301 26.3044C138.041 39.8689 122.66 53.3123 107.4 66.8769C105.341 68.6935 107.158 71.8424 109.459 71.9635C134.771 73.4169 159.842 78.6247 183.701 87.3448C186.123 88.1925 187.697 85.6492 187.455 83.5903C182.732 49.5579 178.735 15.4043 176.313 -18.7492C176.071 -21.4137 173.043 -22.9881 170.984 -20.9292C140.585 8.98542 110.791 39.5056 80.9978 70.0258C79.7867 71.2369 79.9078 73.1747 80.9978 74.3858C87.5378 81.6525 96.7423 84.9225 105.826 88.1926C117.695 92.4315 129.442 96.6704 141.311 100.909C164.686 109.387 188.182 117.744 211.556 126.222C214.1 127.069 216.037 124.405 215.553 122.225C205.38 71.6002 203.442 19.7644 200.172 -31.7081C199.203 -46.4838 198.234 -61.1383 197.507 -75.9139C197.386 -78.9417 194.116 -80.0318 191.815 -78.2151C169.531 -59.9272 148.336 -40.0649 127.868 -19.7181C117.574 -9.42357 107.4 0.992037 97.4689 11.6499C88.9911 20.7333 80.6344 29.9378 73.6099 40.3534C66.8277 50.4057 61.2565 61.7902 59.4398 73.9013C58.5921 79.2303 57.5021 86.0125 61.2565 90.6148C63.1943 92.9159 65.8588 94.127 68.4021 95.5803C71.9144 97.397 75.3055 99.2137 78.8177 101.03C104.615 113.989 130.532 126.585 155.724 140.876C184.064 156.984 212.041 173.819 238.685 192.591C240.502 193.923 243.409 192.106 243.288 189.926C240.744 146.69 237.111 103.574 233.599 60.3368C230.208 17.221 226.453 -26.0159 222.699 -69.1317C220.64 -91.6585 218.823 -114.306 211.799 -135.985C211.072 -138.165 208.286 -139.013 206.591 -137.318C163.354 -92.9907 120.601 -48.3005 78.5755 -2.88354C66.8277 9.8332 54.9587 22.55 43.4531 35.5089C41.7575 37.81 44.9065 41.08 47.0865 38.7789Z" fill="#00082E"/>
<path d="M60.5299 300.986C68.4022 357.303 77.8489 413.499 89.5967 469.21C90.0812 471.269 93.3512 472.359 94.6834 470.543C107.279 454.314 123.871 441.839 139.495 428.759C155.603 415.195 171.589 401.388 187.334 387.46C219.186 359.12 250.07 329.811 280.106 299.654C297.182 282.577 314.259 265.258 330.367 247.333C332.184 245.275 330.488 241.641 327.581 242.489C296.092 251.33 264.24 259.081 232.63 267.075C200.899 275.189 169.167 283.183 137.436 291.176C119.511 295.657 101.587 300.38 83.6622 304.741C82.0878 305.104 81.6033 306.678 81.7245 308.011C88.1434 349.552 94.4412 390.972 100.981 432.513C101.345 434.693 104.493 435.299 105.947 433.846C146.035 391.093 188.061 350.279 231.903 311.402C244.378 300.38 256.852 289.359 269.569 278.459C272.233 276.158 268.842 272.888 266.178 273.978C217.37 294.93 166.745 311.038 115.03 322.907C113.819 323.15 112.85 324.482 112.971 325.693C113.819 344.465 115.394 363.116 117.695 381.768C117.937 384.19 120.722 385.885 122.66 383.827C145.066 360.815 169.167 339.621 194.843 320.243C197.871 317.942 195.327 313.339 191.815 315.035C170.984 325.087 149.91 333.928 127.868 341.074C126.415 341.559 125.325 343.133 125.809 344.586C126.415 346.282 126.899 348.099 127.505 349.794C128.716 353.306 134.408 351.853 133.197 348.22C132.591 346.524 131.986 344.829 131.38 343.133C130.654 344.344 130.048 345.555 129.321 346.645C151.364 338.773 173.406 330.053 194.722 320.243C193.753 318.547 192.663 316.852 191.694 315.035C165.534 334.655 141.069 356.213 118.3 379.588C119.996 380.314 121.691 380.92 123.266 381.647C120.965 362.995 119.269 344.344 118.421 325.572C117.695 326.541 116.968 327.388 116.362 328.357C168.198 316.367 218.944 299.654 268.116 279.065C267.147 277.49 266.299 275.916 265.33 274.341C220.519 312.007 177.524 351.974 136.346 393.637C124.598 405.506 112.971 417.375 101.587 429.486C103.282 429.97 104.857 430.333 106.552 430.818C100.133 389.398 93.3512 347.856 86.69 306.436C86.0845 307.526 85.4789 308.616 84.7522 309.706C148.215 293.719 211.677 277.854 275.019 261.504C292.943 256.901 310.747 252.057 328.793 247.818C327.824 246.244 326.976 244.548 326.007 242.973C296.335 273.615 267.025 304.377 236.142 333.807C205.38 363.238 173.648 391.699 141.311 419.312C123.75 434.209 104.494 448.016 90.0812 466.061C91.7768 466.546 93.4723 466.909 95.1679 467.394C84.0256 411.682 73.3677 355.85 64.1632 299.775C64.0421 297.353 60.1666 298.443 60.5299 300.986Z" fill="#00082E"/>
<path d="M212.767 -133.684C212.041 -135.38 211.314 -137.075 210.587 -138.771C209.861 -138.165 209.013 -137.56 208.286 -136.954C219.307 -128.598 230.086 -119.999 241.229 -111.884C252.25 -103.891 263.513 -96.3818 275.019 -89.1151C298.03 -74.3395 321.889 -60.896 346.354 -48.6637C360.282 -41.7604 374.331 -35.2204 388.501 -29.0437C388.258 -30.1337 387.895 -31.1026 387.653 -32.1926C374.694 -9.54466 357.496 10.4388 339.814 29.3322C320.799 49.679 301.058 69.6625 281.438 89.4037C269.811 101.03 258.184 112.657 246.436 124.163C247.89 124.768 249.343 125.374 250.797 125.979C256.125 74.8703 255.399 23.1556 253.098 -28.0747C252.371 -42.7293 251.644 -57.2627 250.918 -71.9172C249.585 -71.1906 248.253 -70.3428 246.921 -69.6161C267.025 -60.0483 287.857 -51.5704 308.809 -43.9404C330.004 -36.1892 351.562 -29.5281 373.483 -23.9569C373.119 -25.4103 372.756 -26.7425 372.393 -28.1959C337.391 6.80545 302.269 42.1701 275.261 83.9537C276.836 84.4381 278.41 84.8014 279.984 85.2859C281.68 44.9556 280.59 3.89876 275.14 -36.1892C274.05 -35.0992 273.081 -34.1303 271.991 -33.0403C294.033 -25.8947 316.681 -20.5658 339.814 -17.538C339.208 -18.8703 338.724 -20.3236 338.118 -21.6558C323.706 -3.36795 309.293 14.9199 294.881 33.2078C296.335 33.8134 297.667 34.4189 299.12 34.9034C299.847 21.2178 298.636 7.65324 295.487 -5.66906C294.639 -4.57905 293.912 -3.48907 293.065 -2.52018C296.698 -2.88351 300.21 -3.36796 303.843 -3.7313C305.66 -3.97352 307.477 -4.09463 309.172 -4.33686C310.02 -4.45797 310.989 -4.45795 311.837 -4.57906C312.685 -4.33683 313.169 -4.70016 313.29 -5.66906C314.017 -5.66906 314.744 -5.66906 315.591 -5.66906C315.349 -5.79017 315.228 -5.79018 314.986 -5.91129C312.321 -7.0013 310.02 -3.12571 312.685 -2.0357C317.166 -0.0979132 319.83 -6.51687 315.47 -8.57577C312.685 -9.908 308.688 -8.69687 305.781 -8.45465C301.542 -8.09131 297.303 -7.97019 293.065 -7.60685C291.369 -7.48574 290.279 -6.1535 290.642 -4.45794C293.67 8.37991 294.881 21.5811 294.276 34.7823C294.155 36.7201 297.182 38.1734 298.515 36.4778C312.927 18.1899 327.339 -0.0979208 341.63 -18.5069C342.963 -20.2025 342.115 -22.3825 339.935 -22.6247C317.287 -25.2892 295.002 -30.3759 273.566 -38.2482C272.112 -38.7326 270.174 -37.4004 270.296 -35.8259C274.292 4.3832 276.593 44.4712 275.019 84.9226C274.898 87.587 278.531 88.1926 279.742 86.2548C306.508 44.8346 341.388 9.83323 376.026 -24.8047C377.358 -26.137 376.753 -28.5592 374.936 -29.0437C353.499 -34.4937 332.305 -40.7915 311.474 -48.3004C301.179 -51.9338 291.006 -55.9305 280.832 -60.1694C270.296 -64.5294 260.122 -69.6161 249.706 -74.4606C248.011 -75.3084 245.589 -74.3395 245.71 -72.1595C248.495 -20.8081 251.281 30.6645 249.222 82.0159C248.616 96.6704 247.405 111.204 245.952 125.737C245.71 128.038 248.859 129.007 250.312 127.554C271.143 107.207 291.732 86.497 312.079 65.6658C330.973 46.2879 350.229 27.0311 367.306 5.95765C376.511 -5.42686 384.746 -17.4169 392.013 -30.1337C392.618 -31.1026 392.376 -32.7981 391.165 -33.2826C341.267 -54.7194 293.549 -81.1217 248.859 -111.884C235.9 -120.846 222.699 -129.688 210.587 -139.74C209.497 -140.588 207.317 -139.861 207.923 -138.165C208.528 -136.47 209.255 -134.653 209.861 -132.958C210.345 -130.778 213.615 -131.746 212.767 -133.684Z" fill="#00082E"/>
<path d="M253.461 136.879C295.366 103.574 334.242 66.3924 372.15 28.6055C371.06 28.3633 369.97 28 368.759 27.7577C375.905 72.9324 382.687 118.107 390.075 163.161C390.681 161.95 391.407 160.86 392.013 159.649C348.897 176.968 306.992 198.041 268.115 223.353C269.448 224.08 270.78 224.928 272.233 225.654C269.569 197.557 265.451 169.701 258.548 142.33C258.184 143.298 257.7 144.388 257.337 145.357C292.701 120.166 327.097 92.9159 359.434 63.8491C358.465 63.6069 357.617 63.3646 356.648 63.1224C360.766 87.7081 363.067 112.778 364.157 137.727C364.399 143.783 364.763 149.838 364.642 155.894C364.642 160.133 361.856 160.617 358.465 161.707C355.679 162.676 352.894 163.766 350.108 164.735C339.935 168.611 330.125 173.092 320.436 178.057C309.051 183.871 298.151 190.532 287.614 197.799C288.826 198.283 290.037 198.768 291.369 199.252C289.795 190.048 288.341 180.722 286.767 171.517C285.919 166.915 285.192 162.313 284.344 157.711C283.86 155.167 283.012 152.866 285.071 150.928C286.524 149.475 289.31 148.385 291.127 147.295C307.113 137.606 323.221 127.796 339.208 118.107C337.997 117.623 336.907 117.138 335.696 116.654C337.391 122.952 339.087 129.249 340.783 135.547C341.63 138.575 342.841 141.845 343.326 144.994C343.81 147.901 343.689 149.233 341.025 150.444C339.814 151.05 338.481 151.534 337.27 152.018C324.796 157.468 312.321 162.919 299.726 168.126C300.695 168.49 301.663 168.974 302.632 169.337C301.663 167.642 302.027 166.31 303.48 165.099C306.145 162.676 302.269 158.801 299.605 161.223C296.456 164.009 295.971 168.49 298.151 172.002C298.999 173.334 300.452 173.576 301.785 172.971C309.051 169.701 316.318 166.552 323.585 163.282C327.218 161.707 330.851 160.012 334.485 158.437C337.755 156.984 341.388 155.773 344.416 153.835C349.987 150.444 347.444 144.146 346.111 139.06C344.174 131.187 342.115 123.315 340.177 115.322C339.814 113.868 337.997 113.142 336.665 113.868C318.498 124.526 299.968 134.821 282.164 146.084C279.137 148.022 277.683 150.202 278.047 153.835C278.652 158.801 279.742 163.887 280.711 168.853C282.528 179.511 284.466 190.048 286.403 200.705C286.646 202.28 288.826 203.128 290.158 202.159C310.02 188.11 331.578 176.604 354.226 168.005C358.223 166.431 364.763 165.462 367.548 161.829C370.576 157.832 368.759 150.686 368.517 146.084C367.669 132.762 366.579 119.318 365.247 105.996C363.794 91.3414 361.735 76.8081 359.676 62.1535C359.434 60.8213 357.738 60.7002 356.89 61.4268C340.54 75.3547 324.069 89.0403 307.114 102.363C290.037 115.685 272.233 128.281 254.43 140.634C253.461 141.361 252.855 142.451 253.219 143.662C259.638 170.549 264.603 197.92 266.662 225.533C266.783 227.471 268.842 229.046 270.78 227.834C309.899 203.37 350.714 182.054 393.466 164.856C395.041 164.251 395.767 163.04 395.404 161.344C388.016 116.29 380.144 71.358 372.514 26.4255C372.272 24.8511 370.092 24.6088 369.123 25.5777C331.578 63.728 291.732 99.4559 252.371 135.668C251.887 136.516 252.855 137.485 253.461 136.879Z" fill="#00082E"/>
<path d="M375.42 227.229C362.825 241.52 351.44 256.901 339.814 271.798C328.429 286.453 316.923 301.107 305.539 315.762C282.528 345.313 259.638 374.864 236.869 404.415C223.789 421.371 210.466 438.206 197.628 455.404C196.054 457.463 198.597 459.521 200.535 459.279C204.29 458.674 208.044 458.068 211.798 457.462C214.221 457.099 213.736 452.739 211.193 453.102C207.438 453.466 203.684 453.829 199.93 454.192C200.535 455.646 201.141 457.099 201.746 458.674C224.879 429.365 247.526 399.45 270.174 369.656C292.943 339.742 315.833 309.706 338.481 279.791C351.44 262.715 364.884 246.001 376.753 228.198C377.358 227.471 376.147 226.502 375.42 227.229Z" fill="#00082E"/>
<path d="M200.414 462.065C258.79 463.881 317.166 463.518 375.663 464.003C377.479 464.003 378.569 462.307 378.206 460.732C372.514 433.967 369.607 406.595 367.791 379.345C365.974 351.974 365.732 324.482 366.7 296.989C367.185 281.487 368.154 266.106 369.244 250.603C369.486 247.212 364.157 245.759 362.704 248.787C350.35 275.916 337.149 302.56 321.768 328.115C306.387 353.549 289.31 378.134 270.174 401.024C259.395 413.862 247.89 426.095 235.9 437.721C234.083 439.417 235.415 443.05 238.08 442.808C256.247 441.234 274.292 440.628 292.58 440.87C310.747 441.112 328.793 442.687 346.959 444.14C348.292 444.261 349.624 442.808 349.503 441.597C349.018 423.067 349.503 404.416 349.382 385.885C349.26 367.355 348.776 348.825 348.17 330.174C348.049 327.267 343.931 325.935 342.478 328.6C324.19 361.663 303.359 392.789 279.016 421.856C277.683 423.43 278.41 426.458 280.832 426.337C295.971 425.489 311.11 424.762 326.249 424.036C327.097 424.036 328.187 423.551 328.55 422.703C334.606 408.654 337.755 393.637 337.997 378.255C337.997 376.075 335.575 374.743 333.758 375.833C322.616 382.494 314.501 393.031 309.899 405.142C308.809 408.17 313.532 409.381 314.744 406.474C318.982 395.574 326.855 386.854 336.786 380.799C335.333 379.951 333.879 379.224 332.547 378.376C332.547 392.91 329.519 407.201 323.827 420.645C324.675 420.039 325.523 419.312 326.491 418.707C311.352 419.554 296.213 420.402 281.074 421.129C281.68 422.582 282.286 424.157 282.891 425.61C307.356 396.543 329.398 364.933 347.928 331.748C345.99 331.264 344.174 330.658 342.236 330.174C342.72 348.704 343.084 367.234 343.568 385.885C344.053 404.416 344.9 423.067 344.537 441.597C345.385 440.749 346.233 439.901 347.08 439.054C311.231 434.33 274.292 434.693 238.201 436.873C238.928 438.569 239.654 440.265 240.381 441.96C284.466 401.024 317.529 350.521 345.99 297.958C354.105 283.062 361.856 267.801 369.002 252.42C366.822 251.815 364.642 251.209 362.462 250.603C358.223 305.467 357.012 361.3 364.884 415.921C367.064 431.423 370.092 446.805 373.362 462.065C374.209 460.975 375.057 459.885 375.905 458.795C317.529 458.674 259.032 457.705 200.656 458.795C198.234 458.795 198.355 461.944 200.414 462.065Z" fill="#00082E"/>
<path d="M132.591 461.096C137.557 458.31 142.159 455.525 146.761 452.012C151 448.742 155.118 445.351 159.115 441.718C167.593 434.209 175.828 426.337 184.064 418.586C201.141 402.478 218.339 386.491 235.173 370.141C268.963 337.562 302.269 304.498 334.485 270.466C352.652 251.33 370.455 231.831 387.653 211.727C389.954 208.941 386.078 204.944 383.656 207.73C353.015 242.61 321.405 276.642 288.705 309.706C255.883 342.891 222.214 375.349 188.666 407.807C179.462 416.769 170.257 425.61 161.053 434.572C151.848 443.414 142.159 452.255 131.501 459.521C130.654 460.127 131.501 461.701 132.591 461.096Z" fill="#00082E"/>
</g>
<g style="mix-blend-mode:multiply">
<path d="M243.844 159.821C206.694 133.68 165.605 152.334 134.625 176.242C149.065 164.156 117.165 127.111 95.5053 118.441C73.8452 109.771 55.9921 127.768 63.9997 169.148C68.7256 193.32 67.9379 207.901 66.4939 215.914C65.8376 216.703 65.3125 217.622 64.6561 218.542C38.7953 259.002 48.5095 282.517 55.3357 292.106C57.3048 297.492 62.4245 300.776 72.4012 300.776C189.497 300.776 183.065 226.686 192.91 242.319C215.489 278.444 313.682 276.342 313.682 276.342L337.179 273.846C337.179 273.846 315.126 210.003 243.844 159.821Z" fill="#E72F74"/>
</g>
<path d="M310.531 292.894L330.353 289.216L317.62 272.27H256.971L293.597 292.894H310.531Z" fill="#E72F74"/>
<path d="M329.697 257.163C329.697 257.163 344.531 265.833 356.87 268.986L327.859 274.897L329.697 257.163Z" fill="#E72F74"/>
<path d="M333.766 272.27C333.766 272.27 384.175 295.784 382.6 299.725C381.025 303.535 382.863 308.527 339.674 304.849C296.485 301.17 315.519 276.211 315.519 276.211L333.766 272.27Z" fill="#F9EEF6" stroke="#272453" stroke-width="2" stroke-miterlimit="10"/>
<path d="M353.983 268.198C353.983 268.198 422.376 272.139 413.712 279.364C405.048 286.589 377.874 294.996 374.199 292.894C370.523 290.792 333.766 272.27 333.766 272.27L353.983 268.198Z" fill="#F9EEF6" stroke="#272453" stroke-width="2" stroke-miterlimit="10"/>
<mask id="mask1_13_81" style="mask-type:alpha" maskUnits="userSpaceOnUse" x="105" y="257" width="206" height="45">
<path d="M105.613 298.543C105.613 298.543 259.072 308.396 310.4 292.894C310.4 292.894 244.5 252.171 178.995 257.689C113.49 263.206 105.613 298.543 105.613 298.543Z" fill="#E72F74"/>
</mask>
<g mask="url(#mask1_13_81)">
<path d="M2049.19 -230.937H-373.05V2191.3H2049.19V-230.937Z" fill="white"/>
<path d="M443.364 606.672H-402.481V-279.018H443.243V606.672H443.364ZM-401.754 605.946H442.517V-278.292H-401.754V605.946Z" fill="#00082E"/>
<path d="M-209.792 201.311C-199.861 207.124 -195.016 219.478 -189.808 229.167C-183.632 240.551 -177.576 252.057 -171.642 263.563C-159.53 286.816 -147.904 310.191 -136.761 333.928C-114.477 380.92 -93.7666 428.517 -73.2987 476.235C-61.4298 503.969 -49.5608 531.704 -37.6918 559.318C-36.6018 561.982 -32.1207 561.134 -31.5152 558.47C-25.944 532.673 -17.3451 507.361 -9.10947 482.29C-0.994982 456.978 7.72509 431.908 16.6874 406.959C34.733 356.576 54.232 306.678 75.1844 257.507C80.9977 243.821 86.9322 230.136 92.9878 216.571C96.0156 209.91 98.9223 203.249 101.95 196.588C104.857 190.169 108.732 183.871 107.521 176.725C107.279 175.03 104.978 173.819 103.403 174.303C38.6086 196.588 -26.3074 217.903 -92.0711 237.039C-110.722 242.489 -129.373 247.818 -148.025 253.026C-150.084 253.631 -150.568 255.69 -149.841 257.386C-123.197 318.668 -95.0988 379.345 -65.7898 439.538C-57.5542 456.494 -49.1975 473.449 -40.5985 490.284C-39.2663 492.948 -35.3907 491.979 -34.543 489.436C-11.2895 419.07 9.78397 347.977 28.4352 276.158C33.7641 255.811 38.7297 235.465 43.6953 215.118C44.422 212.211 41.5153 210.273 38.9719 211.484C15.4762 222.263 -8.26168 232.558 -32.484 241.641C-56.4642 250.725 -80.8076 258.839 -105.393 266.227C-106.847 266.711 -107.937 268.286 -107.452 269.86C-93.5244 314.066 -77.4165 357.424 -58.8864 399.813C-53.5575 411.924 -48.1075 423.915 -42.2941 435.784C-41.083 438.327 -36.9652 437.6 -36.2385 435.057C-24.6118 387.944 -11.895 341.195 2.15395 294.809C6.15064 281.608 10.2684 268.407 14.2651 255.085C15.1129 252.42 12.0851 250.482 9.78398 251.572C-17.5873 265.258 -46.2908 276.037 -75.5998 284.878C-77.4165 285.484 -78.2643 287.422 -77.2954 289.117C-63.9731 313.582 -55.8586 340.59 -53.6786 368.324C-53.4364 370.989 -49.3186 372.926 -47.9863 369.899C-35.1485 342.285 -24.0062 313.824 -16.0128 284.515C-15.5284 282.577 -17.4662 280.155 -19.6462 280.881C-32.484 285.847 -45.443 290.449 -58.402 295.052C-59.8553 295.536 -60.8242 296.989 -60.4609 298.685C-58.7653 305.225 -57.1908 311.886 -55.4953 318.426C-54.5264 322.302 -48.4708 320.606 -49.4397 316.731C-51.1353 310.191 -53.073 303.651 -54.8897 297.11C-55.6164 298.322 -56.222 299.533 -56.9486 300.744C-44.1108 295.899 -31.1518 291.055 -18.1929 286.574C-19.404 285.363 -20.6151 284.152 -21.8262 282.94C-30.7885 311.523 -40.9619 339.621 -53.5575 366.75C-51.6197 367.234 -49.803 367.84 -47.8653 368.324C-50.2875 339.5 -58.6442 311.523 -72.6932 286.21C-73.2987 287.664 -73.9043 288.996 -74.3887 290.449C-44.5952 281.245 -15.7706 269.618 12.5696 256.78C11.1162 255.569 9.54176 254.479 8.08842 253.268C-7.41389 299.169 -20.3729 346.04 -32.7263 392.91C-36.2385 406.232 -39.6296 419.676 -42.8997 433.119C-40.8408 432.877 -38.903 432.635 -36.8441 432.392C-56.7064 390.972 -74.5098 348.462 -89.7699 305.104C-94.1299 292.872 -98.2478 280.518 -102.123 268.165C-102.85 269.376 -103.456 270.587 -104.182 271.798C-54.4053 256.901 -5.355 238.735 41.8786 217.056C40.3042 215.844 38.7297 214.633 37.1553 213.422C19.9574 285.484 0.337257 357.061 -21.7051 427.79C-28.0029 447.774 -34.4218 467.757 -41.083 487.619C-39.0241 487.377 -37.0863 487.135 -35.0274 486.772C-65.0631 427.063 -94.0088 366.871 -121.622 305.952C-129.373 288.754 -137.125 271.556 -144.755 254.358C-145.36 255.811 -145.966 257.265 -146.571 258.718C-80.6865 240.188 -15.165 220.326 49.872 199.252C68.281 193.318 86.69 187.141 105.099 180.843C103.767 179.995 102.313 179.269 100.981 178.421C101.466 181.812 99.7701 185.203 98.3167 188.11C96.8634 191.259 95.41 194.408 94.0778 197.435C91.2922 203.491 88.6278 209.547 85.9633 215.602C80.6344 227.471 75.4266 239.461 70.3399 251.451C60.1665 275.31 50.2353 299.29 40.7886 323.392C21.5318 372.442 3.8495 421.977 -12.6217 471.996C-21.8262 499.852 -31.5151 527.95 -37.8129 556.653C-35.754 556.411 -33.6951 556.169 -31.6362 555.805C-52.7097 506.513 -73.662 457.22 -95.3411 408.17C-116.657 360.089 -138.699 312.371 -162.921 265.621C-169.704 252.541 -176.849 239.582 -184.116 226.623C-190.172 215.966 -195.864 203.007 -207.006 196.83C-210.034 195.498 -212.577 199.737 -209.792 201.311Z" fill="#00082E"/>
<path d="M88.3856 226.744C139.495 274.947 197.871 315.519 260.001 348.341C277.562 357.666 295.487 366.265 313.654 374.259C313.896 372.321 314.138 370.262 314.38 368.324C233.356 393.879 152.696 420.402 71.9144 446.562C48.9031 454.071 25.8919 461.459 2.88065 468.968C4.09177 470.543 5.30288 472.117 6.39289 473.57C33.4008 420.402 60.5299 367.113 81.8455 311.402C88.0222 295.415 93.5934 279.307 98.559 262.957C97.1056 263.562 95.5312 264.168 94.0778 264.774C135.74 291.297 176.555 319.153 218.581 345.313C228.996 351.853 240.139 357.666 252.371 359.967C252.371 358.03 252.371 356.092 252.371 354.154C200.414 371.473 148.094 387.823 95.8945 404.294C80.8766 409.018 65.9799 413.741 50.962 418.464C52.1731 420.039 53.3842 421.492 54.4743 423.067C73.8521 386.128 92.2611 348.704 110.186 311.159C108.732 311.523 107.279 311.886 105.826 312.249C134.408 332.596 164.928 350.642 196.902 364.812C197.144 362.874 197.386 361.057 197.628 359.12C161.537 366.508 126.172 376.802 92.0189 390.972C93.3511 392.304 94.5623 393.515 95.8945 394.848C102.556 378.74 109.217 362.511 115.757 346.403C114.788 347.13 113.698 347.977 112.729 348.704C125.325 350.4 137.315 355.002 147.973 362.026C148.215 360.089 148.457 358.272 148.699 356.334C135.256 360.815 121.812 365.175 108.369 369.414C109.58 370.989 110.791 372.563 111.881 374.016C112.487 373.169 113.092 372.2 113.698 371.352C115.999 367.961 110.549 364.812 108.248 368.082C107.642 368.93 107.037 369.899 106.431 370.746C104.978 373.048 107.4 376.196 109.943 375.349C123.387 370.868 136.83 366.508 150.274 362.148C152.817 361.3 153.302 358.03 151 356.455C139.737 348.946 126.899 344.102 113.456 342.285C111.518 342.043 110.307 342.77 109.58 344.465C102.919 360.573 96.2578 376.802 89.7178 392.91C88.87 394.969 91.5345 397.754 93.5934 396.785C127.505 382.615 162.99 371.473 199.082 364.812C201.625 364.327 202.11 360.331 199.808 359.12C167.956 344.223 137.436 326.904 108.853 306.315C107.521 305.346 105.22 305.952 104.493 307.405C86.4478 344.95 67.7966 382.252 48.9031 419.433C47.692 421.734 49.6298 425.005 52.4154 424.036C104.493 407.08 156.693 390.367 208.771 373.532C223.667 368.687 238.685 364.085 253.703 359.362C256.368 358.514 256.731 354.154 253.703 353.549C242.803 351.247 233.114 346.403 223.667 340.59C213.615 334.413 203.805 327.752 193.874 321.454C173.285 308.253 152.817 294.93 132.228 281.729C120.48 274.099 108.611 266.59 96.9845 258.96C95.2889 257.87 92.9878 258.96 92.5034 260.777C74.4577 317.699 49.872 371.836 23.3485 425.247C15.9607 440.143 8.33067 455.04 0.821736 469.816C-0.389382 472.117 1.66951 475.387 4.33397 474.418C85.1155 448.137 165.776 421.613 246.679 395.817C269.69 388.429 292.822 381.283 315.834 373.895C318.256 373.169 319.346 369.172 316.56 367.961C252.371 339.863 191.936 303.65 136.709 260.535C121.207 248.423 105.947 235.828 91.1712 222.869C89.3545 221.658 86.3267 224.686 88.3856 226.744Z" fill="#00082E"/>
<path d="M105.22 179.269C148.094 134.699 190.241 89.4037 233.235 44.8345C245.225 32.36 257.337 19.8855 269.448 7.5321C267.752 7.04765 266.057 6.68431 264.24 6.19986C270.417 25.4566 272.597 45.6823 274.413 65.7869C276.351 87.1026 278.168 108.418 279.984 129.734C283.618 172.365 287.009 215.118 290.279 257.87C292.096 282.093 293.67 306.315 295.608 330.537C297.182 329.689 298.636 328.721 300.21 327.873C277.199 312.371 254.067 297.232 230.086 283.183C206.106 269.134 181.521 256.175 156.572 244.063C150.274 241.036 144.097 238.008 137.92 234.859C134.771 233.284 131.744 231.71 128.716 230.014C125.204 228.077 123.266 226.502 123.387 222.263C123.629 210.273 128.474 198.768 134.771 188.715C141.19 178.3 149.305 169.095 157.662 160.133C166.866 150.323 176.313 140.513 185.881 130.945C208.044 108.66 231.055 87.4659 254.914 67.1191C252.977 66.3924 251.16 65.5446 249.222 64.818C253.098 117.138 254.551 169.701 260.849 221.779C262.544 236.191 264.724 250.482 267.631 264.652C268.963 263.32 270.295 261.988 271.628 260.656C249.101 252.662 226.574 244.548 203.926 236.555C192.784 232.558 181.642 228.561 170.378 224.564C160.932 221.173 150.516 218.388 143.613 210.637C143.613 212.09 143.613 213.543 143.613 214.997C173.406 184.476 203.563 154.32 233.599 124.042C231.782 123.315 230.086 122.588 228.27 121.862C231.297 156.621 234.931 191.259 239.775 225.897C240.986 224.686 242.319 223.353 243.53 222.142C219.186 213.301 193.632 208.093 167.714 206.64C168.44 208.335 169.167 210.031 169.773 211.727C185.033 198.162 200.293 184.598 215.553 171.033C213.979 170.549 212.283 170.185 210.708 169.701C213.736 180.359 216.643 191.016 219.671 201.674C220.64 200.463 221.609 199.131 222.577 197.92C213.373 197.92 204.29 197.799 195.085 197.799C191.088 197.799 191.088 203.975 195.085 203.975C204.29 203.975 213.373 203.975 222.577 203.854C224.515 203.854 225.969 201.917 225.484 200.1C222.456 189.442 219.307 178.784 216.28 168.126C215.674 165.946 213.01 165.462 211.435 166.794C196.175 180.359 180.794 193.802 165.534 207.367C163.475 209.183 165.292 212.332 167.593 212.453C192.905 213.907 217.975 219.114 241.834 227.834C244.256 228.682 245.831 226.139 245.589 224.08C240.865 190.048 236.869 155.894 234.446 121.741C234.204 119.076 231.176 117.502 229.117 119.561C198.718 149.475 168.925 179.995 139.131 210.515C137.92 211.727 138.041 213.664 139.131 214.875C145.671 222.142 154.876 225.412 163.959 228.682C175.828 232.921 187.576 237.16 199.445 241.399C222.82 249.877 246.315 258.234 269.69 266.711C272.233 267.559 274.171 264.895 273.687 262.715C263.513 212.09 261.575 160.254 258.305 108.782C257.337 94.0059 256.368 79.3514 255.641 64.5758C255.52 61.548 252.25 60.4579 249.949 62.2746C227.664 80.5625 206.47 100.425 186.002 120.772C175.707 131.066 165.534 141.482 155.603 152.14C147.125 161.223 138.768 170.427 131.744 180.843C124.961 190.895 119.39 202.28 117.574 214.391C116.726 219.72 115.636 226.502 119.39 231.105C121.328 233.406 123.992 234.617 126.536 236.07C130.048 237.887 133.439 239.703 136.951 241.52C162.748 254.479 188.666 267.075 213.857 281.366C242.198 297.474 270.174 314.308 296.819 333.081C298.636 334.413 301.542 332.596 301.421 330.416C298.878 287.179 295.245 244.063 291.732 200.827C288.341 157.711 284.587 114.474 280.832 71.358C278.773 48.8312 276.957 26.1833 269.932 4.5043C269.206 2.32429 266.42 1.4765 264.724 3.17206C221.487 47.499 178.735 92.1892 136.709 137.606C124.961 150.323 113.092 163.04 101.587 175.999C99.8912 178.3 103.04 181.57 105.22 179.269Z" fill="#00082E"/>
<path d="M270.901 6.80549C270.174 5.10993 269.448 3.41436 268.721 1.7188C267.994 2.32436 267.147 2.92992 266.42 3.53548C277.441 11.8922 288.22 20.4911 299.362 28.6056C310.384 36.599 321.647 44.1079 333.153 51.3746C356.164 66.1503 380.023 79.5937 404.487 91.826C418.415 98.7294 432.464 105.269 446.634 111.446C446.392 110.356 446.029 109.387 445.787 108.297C432.828 130.945 415.63 150.929 397.947 169.822C378.933 190.169 359.192 210.152 339.571 229.893C327.945 241.52 316.318 253.147 304.57 264.653C306.023 265.258 307.477 265.864 308.93 266.469C314.259 215.36 313.532 163.645 311.231 112.415C310.505 97.7605 309.778 83.227 309.051 68.5725C307.719 69.2992 306.387 70.147 305.055 70.8736C325.159 80.4415 345.99 88.9193 366.943 96.5494C388.137 104.301 409.695 110.962 431.616 116.533C431.253 115.079 430.89 113.747 430.526 112.294C395.525 147.295 360.403 182.66 333.395 224.443C334.969 224.928 336.544 225.291 338.118 225.776C339.814 185.445 338.724 144.389 333.274 104.3C332.184 105.391 331.215 106.359 330.125 107.449C352.167 114.595 374.815 119.924 397.947 122.952C397.342 121.619 396.857 120.166 396.252 118.834C381.839 137.122 367.427 155.41 353.015 173.698C354.468 174.303 355.8 174.909 357.254 175.393C357.98 161.708 356.769 148.143 353.62 134.821C352.773 135.911 352.046 137.001 351.198 137.97C354.832 137.606 358.344 137.122 361.977 136.758C363.794 136.516 365.61 136.395 367.306 136.153C368.154 136.032 369.123 136.032 369.971 135.911C370.818 136.153 371.303 135.79 371.424 134.821C372.151 134.821 372.877 134.821 373.725 134.821C373.483 134.7 373.362 134.7 373.119 134.578C370.455 133.488 368.154 137.364 370.818 138.454C375.299 140.392 377.964 133.973 373.604 131.914C370.818 130.582 366.822 131.793 363.915 132.035C359.676 132.398 355.437 132.52 351.198 132.883C349.503 133.004 348.413 134.336 348.776 136.032C351.804 148.87 353.015 162.071 352.409 175.272C352.288 177.21 355.316 178.663 356.648 176.968C371.061 158.68 385.473 140.392 399.764 121.983C401.096 120.287 400.248 118.107 398.068 117.865C375.421 115.201 353.136 110.114 331.699 102.242C330.246 101.757 328.308 103.089 328.429 104.664C332.426 144.873 334.727 184.961 333.153 225.412C333.031 228.077 336.665 228.682 337.876 226.745C364.642 185.324 399.522 150.323 434.16 115.685C435.492 114.353 434.886 111.931 433.07 111.446C411.633 105.996 390.438 99.6982 369.607 92.1893C359.313 88.556 349.139 84.5593 338.966 80.3204C328.429 75.9603 318.256 70.8736 307.84 66.0292C306.145 65.1814 303.722 66.1503 303.843 68.3303C306.629 119.682 309.415 171.154 307.356 222.506C306.75 237.16 305.539 251.694 304.086 266.227C303.844 268.528 306.992 269.497 308.446 268.044C329.277 247.697 349.866 226.987 370.213 206.156C389.106 186.778 408.363 167.521 425.44 146.447C434.644 135.063 442.88 123.073 450.147 110.356C450.752 109.387 450.51 107.692 449.299 107.207C399.401 85.7704 351.683 59.368 306.992 28.6056C294.033 19.6433 280.832 10.8022 268.721 0.749901C267.631 -0.0978821 265.451 0.628793 266.057 2.32436C266.662 4.01992 267.389 5.8366 267.994 7.53217C268.479 9.71218 271.749 8.74328 270.901 6.80549Z" fill="#00082E"/>
<path d="M311.595 277.369C353.499 244.063 392.376 206.882 430.284 169.095C429.194 168.853 428.104 168.49 426.893 168.247C434.039 213.422 440.821 258.597 448.209 303.65C448.814 302.439 449.541 301.349 450.147 300.138C407.031 317.457 365.126 338.531 326.249 363.843C327.581 364.57 328.914 365.418 330.367 366.144C327.702 338.046 323.585 310.191 316.681 282.819C316.318 283.788 315.834 284.878 315.47 285.847C350.835 260.656 385.231 233.406 417.567 204.339C416.599 204.097 415.751 203.854 414.782 203.612C418.9 228.198 421.201 253.268 422.291 278.217C422.533 284.273 422.896 290.328 422.775 296.384C422.775 300.623 419.99 301.107 416.599 302.197C413.813 303.166 411.027 304.256 408.242 305.225C398.068 309.1 388.258 313.582 378.569 318.547C367.185 324.361 356.285 331.022 345.748 338.288C346.959 338.773 348.17 339.257 349.503 339.742C347.928 330.537 346.475 321.212 344.9 312.007C344.053 307.405 343.326 302.803 342.478 298.2C341.994 295.657 341.146 293.356 343.205 291.418C344.658 289.965 347.444 288.875 349.26 287.785C365.247 278.096 381.355 268.286 397.342 258.597C396.131 258.112 395.041 257.628 393.83 257.144C395.525 263.441 397.221 269.739 398.916 276.037C399.764 279.065 400.975 282.335 401.46 285.484C401.944 288.39 401.823 289.723 399.158 290.934C397.947 291.539 396.615 292.024 395.404 292.508C382.929 297.958 370.455 303.408 357.859 308.616C358.828 308.979 359.797 309.464 360.766 309.827C359.797 308.132 360.16 306.799 361.614 305.588C364.278 303.166 360.403 299.29 357.738 301.713C354.589 304.498 354.105 308.979 356.285 312.492C357.133 313.824 358.586 314.066 359.918 313.461C367.185 310.191 374.452 307.042 381.718 303.772C385.352 302.197 388.985 300.502 392.618 298.927C395.888 297.474 399.522 296.263 402.55 294.325C408.121 290.934 405.577 284.636 404.245 279.549C402.307 271.677 400.248 263.805 398.311 255.811C397.947 254.358 396.131 253.631 394.798 254.358C376.632 265.016 358.102 275.31 340.298 286.574C337.27 288.511 335.817 290.691 336.18 294.325C336.786 299.29 337.876 304.377 338.845 309.343C340.661 320.001 342.599 330.537 344.537 341.195C344.779 342.77 346.959 343.617 348.292 342.648C368.154 328.599 389.712 317.094 412.36 308.495C416.356 306.92 422.896 305.952 425.682 302.318C428.71 298.322 426.893 291.176 426.651 286.574C425.803 273.251 424.713 259.808 423.381 246.486C421.928 231.831 419.869 217.298 417.81 202.643C417.567 201.311 415.872 201.19 415.024 201.917C398.674 215.844 382.203 229.53 365.247 242.852C348.17 256.175 330.367 268.77 312.564 281.124C311.595 281.85 310.989 282.94 311.352 284.151C317.771 311.038 322.737 338.41 324.796 366.023C324.917 367.961 326.976 369.535 328.914 368.324C368.033 343.86 408.847 322.544 451.6 305.346C453.174 304.74 453.901 303.529 453.538 301.834C446.15 256.78 438.278 211.848 430.648 166.915C430.405 165.341 428.225 165.099 427.256 166.067C389.712 204.218 349.866 239.946 310.505 276.158C310.02 277.006 310.989 277.975 311.595 277.369Z" fill="#00082E"/>
</g>
<g style="mix-blend-mode:multiply">
<path d="M105.613 298.543C105.613 298.543 259.072 308.396 310.4 292.894C310.4 292.894 244.5 252.171 178.995 257.689C113.49 263.206 105.613 298.543 105.613 298.543Z" fill="#E72F74"/>
</g>
<path d="M88.154 292.894C88.154 292.894 120.841 262.549 105.482 138.934C105.482 138.934 93.7988 124.747 72.1387 133.942C72.1387 133.942 34.4633 179.263 75.8143 292.894L41.1582 306.031C41.1582 306.031 46.1466 313.256 62.8183 308.921C79.49 304.586 82.5093 305.243 83.0344 308.79C83.5595 312.205 92.8799 311.548 92.3548 307.607C91.8297 303.666 88.154 292.894 88.154 292.894Z" fill="#F9EEF6" stroke="#272453" stroke-width="2" stroke-miterlimit="10"/>
<path d="M72.4012 214.601C72.4012 214.601 83.2969 229.445 92.8799 214.601" stroke="#272453" stroke-miterlimit="10"/>
<path d="M347.419 283.436C345.318 284.487 343.612 285.407 341.905 286.326C340.199 287.114 338.361 287.902 336.261 288.953C335.867 289.085 334.423 288.034 334.554 287.64C335.21 285.012 337.179 282.779 339.542 281.597C342.037 280.415 344.925 280.283 347.419 281.334C347.944 281.334 347.813 283.173 347.419 283.436Z" fill="#272453"/>
<path d="M91.5671 103.728C89.598 106.093 86.4475 107.407 83.1656 107.275C79.8838 107.275 76.4707 105.699 74.1078 102.678C71.8761 99.6561 71.2198 95.9779 72.0074 92.8251C72.795 89.6724 74.8954 86.9137 77.6522 85.6C78.5711 85.3373 80.8027 88.096 80.8027 88.7528C80.4089 90.5919 80.6714 92.2997 81.1965 93.482C81.5904 94.7956 82.2467 95.5838 82.6405 96.2406C83.0344 96.7661 83.822 97.5543 84.8722 98.3425C86.0536 98.9993 87.4977 99.7875 89.3355 99.9189C89.9918 100.05 92.2235 102.809 91.5671 103.728Z" fill="#272453"/>
<path d="M85.1348 100.707C85.3973 99.3934 85.1348 98.3424 85.0035 97.4229C84.8722 96.5033 84.6097 95.8465 84.6097 95.1897C84.6097 94.4015 84.6097 93.3506 84.6097 91.9055C84.6097 90.5919 84.6097 88.8841 84.8722 87.045C85.0035 86.5196 88.1541 84.8118 88.6792 84.9432C90.3857 85.8627 91.8297 86.9137 93.0112 88.49C94.1926 89.9351 95.1115 91.9055 95.2428 94.2701C95.5054 96.6347 94.849 99.1306 93.405 101.101C92.0923 103.072 89.5981 104.648 87.2351 104.648C86.3162 104.648 85.1348 101.232 85.1348 100.707Z" fill="#272453"/>
<path d="M125.698 68.3912C127.728 68.3912 129.374 66.7444 129.374 64.713C129.374 62.6815 127.728 61.0347 125.698 61.0347C123.668 61.0347 122.023 62.6815 122.023 64.713C122.023 66.7444 123.668 68.3912 125.698 68.3912Z" fill="#272453"/>
<path d="M140.663 66.0266C141.461 66.0266 142.107 64.3798 142.107 62.3483C142.107 60.3169 141.461 58.6701 140.663 58.6701C139.866 58.6701 139.219 60.3169 139.219 62.3483C139.219 64.3798 139.866 66.0266 140.663 66.0266Z" fill="#272453"/>
<path d="M143.42 46.4532C138.957 46.4532 136.594 53.941 136.594 61.0347C136.594 63.2679 136.856 65.6325 137.382 67.7344C137.644 67.7344 137.775 67.8657 138.038 67.9971C139.088 68.7853 140.27 69.5735 141.188 70.6244C140.138 68.5225 139.351 65.2384 139.351 61.0347C139.351 53.8096 141.845 49.0805 143.551 49.0805C145.258 49.0805 147.752 53.6783 147.752 61.0347C147.752 68.3912 145.258 72.989 143.551 72.989C143.158 72.989 142.764 72.7262 142.37 72.3321C142.501 72.4635 142.501 72.7262 142.632 72.989C142.895 73.7772 142.895 74.6967 142.632 75.4849C142.895 75.6163 143.289 75.6163 143.551 75.6163C148.015 75.6163 150.378 68.1284 150.378 61.0347C150.378 53.941 147.883 46.4532 143.42 46.4532Z" fill="#F2BC1E"/>
<path d="M137.25 67.2088C137.25 67.2088 145.914 73.383 141.845 75.6162" stroke="#272453" stroke-miterlimit="10"/>
<path d="M139.219 82.9727C139.219 82.9727 135.412 86.3882 131.343 84.8118" stroke="#272453" stroke-miterlimit="10"/>
<path d="M142.501 36.4694C141.714 34.6303 140.27 33.3166 138.432 32.6598C137.644 32.3971 136.725 32.1344 135.806 32.003C135.281 32.003 134.756 32.003 134.362 32.003C133.837 32.003 133.443 32.003 133.181 32.003C132.393 32.1344 131.999 33.0539 131.868 33.8421C114.54 25.4347 92.6173 25.9602 75.158 36.338C70.5634 39.0967 66.3626 42.6436 63.0808 47.3727C61.5055 49.7373 60.0615 52.3646 59.2739 55.1233C58.355 57.8819 57.9612 60.9033 58.0924 63.7934C58.355 69.5735 60.7179 75.2222 64.6561 79.2945C67.6754 82.5786 71.6136 84.8118 75.683 85.8627C77.2583 90.3292 77.9147 94.5328 80.4089 101.232C84.6096 112.399 86.71 104.123 93.2737 100.313C99.8373 96.5033 97.4744 86.7823 97.4744 86.7823L94.4551 82.3159C94.4551 82.3159 88.2853 80.8709 87.6289 76.2731C86.9725 71.6753 95.8991 70.3616 103.513 68.2598C109.026 66.8148 110.47 63.3993 110.864 61.4288C115.196 60.5092 119.528 59.0642 123.598 57.2251C127.536 55.386 131.212 53.1528 134.625 50.6569C135.544 50 136.331 49.3432 137.119 48.6864C137.907 48.0296 138.825 47.2414 140.27 45.665C142.895 43.0377 143.814 39.4908 142.501 36.4694Z" fill="#272453"/>
<path d="M110.733 58.6701C110.733 58.6701 115.721 69.1793 94.7177 70.7557C94.7177 70.7557 75.2892 76.1417 101.281 84.9432" stroke="#272453" stroke-miterlimit="10"/>
<path d="M98.9184 75.4849C98.9184 75.4849 92.486 72.2008 92.486 76.6672" stroke="#272453" stroke-miterlimit="10"/>
<path d="M87.6289 75.2222C87.8915 77.324 86.5787 78.6377 92.486 81.265C98.3933 83.8923 100.494 93.876 94.5864 99.3934" stroke="#272453" stroke-miterlimit="10"/>
<path d="M57.9612 75.4849C65.2112 75.4849 71.0885 69.6035 71.0885 62.3483C71.0885 55.0932 65.2112 49.2118 57.9612 49.2118C50.7112 49.2118 44.8339 55.0932 44.8339 62.3483C44.8339 69.6035 50.7112 75.4849 57.9612 75.4849Z" fill="#272453"/>
<path d="M20.5483 140.642C20.6796 141.824 21.7298 143.269 22.7799 143.663C23.6988 144.058 25.1429 143.926 26.4556 143.269C27.112 143.007 27.637 142.481 28.1621 142.087C28.6872 141.562 29.0811 141.036 29.6061 140.379C30.3938 139.066 31.0502 137.358 31.5752 135.519C33.6756 127.768 33.9382 119.361 33.8069 110.691C33.6756 102.021 33.2818 92.9565 34.5945 83.6296C35.2509 79.0318 36.1698 74.0399 39.0578 69.4421C41.9458 64.8443 46.9342 61.4288 52.579 61.6916C54.1543 61.8229 54.6793 63.0052 54.5481 64.0561C54.4168 65.1071 53.6292 65.8952 52.7102 66.158C51.0037 66.5521 49.4284 67.3403 48.247 68.6539C47.5906 69.3107 47.0655 69.9676 46.5404 70.6244C46.0153 71.2812 45.6215 72.0694 45.3589 72.989C44.0462 76.2731 43.6524 80.3454 43.6524 84.5491C43.5211 92.9565 44.3088 101.627 44.44 110.822C44.5713 119.886 43.7837 129.607 40.2393 138.803C39.3204 141.168 38.0076 143.532 36.1698 145.765C35.2509 146.816 34.2007 147.867 32.888 148.655C31.5752 149.444 30.2625 150.1 28.8185 150.494C25.9305 151.283 22.3861 151.02 19.6294 149.049C17.0039 146.948 15.6912 143.926 16.2163 140.642C16.4788 139.591 17.0039 138.934 17.6603 138.672C18.0541 138.015 18.5792 138.146 18.973 138.409C19.3668 138.672 19.7607 139.066 19.8919 139.46C20.2857 139.854 20.417 140.248 20.5483 140.642Z" fill="#272453"/>
<path d="M59.6678 74.434C56.911 71.0185 55.0732 66.5521 55.2045 61.9543C55.2045 57.3565 57.0423 52.7587 60.3241 49.6059C60.8492 49.2118 62.2932 50.2628 62.162 50.7882C61.1118 54.5978 60.5867 58.276 60.5867 61.9543C60.5867 65.6325 60.9805 69.3107 61.7681 73.383C61.7681 74.1712 60.1929 74.9594 59.6678 74.434Z" fill="#F2BC1E"/>
<path d="M125.698 77.9808C129.903 77.9808 133.312 72.0406 133.312 64.7129C133.312 57.3852 129.903 51.445 125.698 51.445C121.493 51.445 118.084 57.3852 118.084 64.7129C118.084 72.0406 121.493 77.9808 125.698 77.9808Z" stroke="#F2BC1E" stroke-width="2" stroke-miterlimit="10"/>
<path d="M286.77 276.999C286.77 276.999 221.003 284.093 188.578 236.801" stroke="#272453" stroke-width="2" stroke-miterlimit="10"/>
<path d="M178.995 257.689C168.887 270.037 151.428 299.2 135.281 298.412" stroke="#272453" stroke-width="2" stroke-miterlimit="10"/>
<path d="M118.084 182.153C118.084 182.153 132.656 186.751 137.25 172.827" stroke="#272453" stroke-width="2" stroke-miterlimit="10"/>
<path d="M70.0383 123.433C70.0383 123.433 79.49 112.267 95.6366 118.573" stroke="#272453" stroke-width="2" stroke-miterlimit="10"/>
<path d="M310.531 292.894C310.531 292.894 275.744 302.747 237.543 300.908" stroke="#272453" stroke-width="2" stroke-miterlimit="10"/>
<path d="M174.635 152.745C192.802 142.652 242.942 139.665 298.169 208.457" stroke="#272453" stroke-width="2"/>
<path d="M616.777 224.87H380.281C374.508 224.87 369.784 220.13 369.784 214.338V81.5318C369.784 75.7393 374.508 71 380.281 71H616.777C622.55 71 627.274 75.7393 627.274 81.5318V214.338C627.274 220.13 622.55 224.87 616.777 224.87Z" stroke="#272453" stroke-width="2" stroke-miterlimit="10"/>
<path d="M498.477 267.313C480.317 267.313 465.516 282.163 465.516 300.383H531.437C531.542 282.163 516.741 267.313 498.477 267.313Z" fill="#272453"/>
<path d="M498.477 280.899C504.796 280.899 509.918 275.759 509.918 269.419C509.918 263.079 504.796 257.94 498.477 257.94C492.158 257.94 487.035 263.079 487.035 269.419C487.035 275.759 492.158 280.899 498.477 280.899Z" fill="#1E1559"/>
<path d="M530.912 94.9072H466.146C463.627 94.9072 461.633 92.8008 461.633 90.3785C461.633 87.8509 463.732 85.8499 466.146 85.8499H530.912C533.432 85.8499 535.426 87.9562 535.426 90.3785C535.531 92.8008 533.432 94.9072 530.912 94.9072Z" stroke="#272453" stroke-width="2" stroke-miterlimit="10"/>
<path d="M498.477 255.939C494.803 255.939 491.759 252.884 491.759 249.198V202.121C491.759 198.435 494.803 195.381 498.477 195.381C502.151 195.381 505.195 198.435 505.195 202.121V249.198C505.195 252.99 502.151 255.939 498.477 255.939Z" fill="#272453"/>
<path d="M498.477 183.901C502.187 183.901 505.195 180.883 505.195 177.161C505.195 173.438 502.187 170.42 498.477 170.42C494.766 170.42 491.759 173.438 491.759 177.161C491.759 180.883 494.766 183.901 498.477 183.901Z" stroke="#272453" stroke-width="2.5964" stroke-miterlimit="10"/>
<path d="M497.177 297.976H16V300.126H497.177V297.976Z" fill="#272453"/>
</g>
<defs>
<clipPath id="clip0_13_81">
<rect width="640" height="300" fill="white"/>
</clipPath>
</defs>
</svg>
