<svg width="624" height="234" viewBox="0 0 624 234" fill="none" xmlns="http://www.w3.org/2000/svg">
<g clip-path="url(#clip0_32_3351)">
<path d="M273.815 22.0249L259.882 21.1476C259.882 21.1476 249.898 16.322 244.193 17.3091C238.489 18.2961 234.539 24.986 234.539 24.986L238.379 34.6371C238.379 34.6371 248.033 37.3789 250.557 37.1595C253.08 36.9402 259.443 34.3081 259.443 34.3081L264.709 36.2822C264.709 36.2822 274.473 24.657 273.815 22.0249Z" stroke="#272453" stroke-width="4" stroke-miterlimit="10"/>
<path d="M250.666 36.2822L251.654 27.1795C251.654 27.1795 245.62 27.7278 245.291 24.2183" stroke="#272453" stroke-width="4" stroke-miterlimit="10"/>
<path d="M225.732 84.8005C237.218 79.9206 241.824 64.8936 236.018 51.2367C230.212 37.5799 216.194 30.4648 204.707 35.3447C193.22 40.2245 188.615 55.2515 194.42 68.9084C200.226 82.5652 214.245 89.6803 225.732 84.8005Z" stroke="#272453" stroke-width="4" stroke-miterlimit="10"/>
<path d="M234.539 48.2363C234.539 48.2363 248.253 47.9073 253.958 42.3141" stroke="#272453" stroke-width="2" stroke-miterlimit="10"/>
<path d="M234.539 77.1894C234.539 77.1894 239.037 68.9641 239.586 77.1894" stroke="#272453" stroke-width="2" stroke-miterlimit="10"/>
<path d="M227.189 53.7198C229.931 52.7328 233.223 55.1456 234.759 59.0937C236.185 63.0419 235.197 67.0997 232.455 68.0867" stroke="#272453" stroke-width="0.8012" stroke-miterlimit="10"/>
<path d="M227.189 53.7198C227.189 53.7198 205.905 46.1525 191.862 57.01C177.819 67.8674 165.422 40.011 175.735 30.9083C186.048 21.8056 198.555 18.9541 198.555 18.9541C198.555 18.9541 187.474 28.2762 197.019 26.0828C206.563 23.8893 244.413 21.8056 242.109 42.4237C239.805 63.0419 238.159 68.1964 238.159 68.1964L234.649 72.5833L232.564 68.1964C232.564 68.1964 236.953 66.2223 235.526 60.1904C233.991 54.0489 228.505 54.1585 227.189 53.7198Z" fill="#272453"/>
<path d="M202.276 74.5357C203.01 74.1117 203.066 72.8325 202.399 71.6786C201.733 70.5246 200.597 69.9328 199.862 70.3568C199.128 70.7808 199.072 72.06 199.739 73.214C200.405 74.3679 201.541 74.9597 202.276 74.5357Z" fill="#272453"/>
<path d="M202.723 80.8086C202.723 80.8086 201.846 88.8145 204.589 88.1565C207.331 87.4985 208.648 84.2084 208.648 84.2084" stroke="#272453" stroke-miterlimit="10"/>
<path d="M415.888 107.239L418.412 22.0249C418.412 22.0249 417.753 7.7677 425.543 7.7677C433.332 7.7677 462.953 3.81954 466.793 18.8445C470.743 33.7597 461.088 213.73 461.088 213.73C461.088 213.73 463.612 225.794 457.578 226.561C451.544 227.219 415.998 197.169 415.998 197.169V156.262" fill="#F9EEF6"/>
<path d="M415.888 107.239L418.412 22.0249C418.412 22.0249 417.753 7.7677 425.543 7.7677C433.332 7.7677 462.953 3.81954 466.793 18.8445C470.743 33.7597 461.088 213.73 461.088 213.73C461.088 213.73 463.612 225.794 457.578 226.561C451.544 227.219 415.998 197.169 415.998 197.169V156.262" stroke="#272453" stroke-width="2" stroke-miterlimit="10"/>
<path d="M444.851 20.7089L429.382 19.7218C427.737 19.6122 426.53 18.1864 426.64 16.5414C426.749 14.8963 428.176 13.6899 429.821 13.7996L445.29 14.7866C446.936 14.8963 448.143 16.322 448.033 17.9671C447.814 19.6122 446.497 20.8185 444.851 20.7089Z" stroke="#272453" stroke-width="2" stroke-miterlimit="10"/>
<path d="M415.888 108.665C415.888 108.665 438.159 109.213 443.535 111.955C443.535 111.955 455.932 139.154 449.788 153.082C449.788 153.082 440.682 160.649 439.037 160.32C437.391 159.991 425.213 159.223 411.939 155.166C398.664 151.108 387.693 148.695 387.254 146.721C386.706 144.856 415.559 107.678 415.888 108.665Z" fill="white"/>
<path d="M238.159 84.2084C238.159 84.2084 224.117 135.096 208.099 144.308C192.191 153.74 172.553 178.416 172.553 178.416L159.608 185.106C159.608 185.106 154.232 192.563 156.755 196.511C159.388 200.35 164.325 206.272 164.325 206.272H174.638L177.71 192.344L179.794 190.26C179.794 190.26 216.657 186.641 238.269 173.261C259.882 159.881 290.82 133.012 291.368 116.232C291.807 99.4526 248.143 72.1446 238.159 84.2084Z" stroke="#272453" stroke-width="4" stroke-miterlimit="10"/>
<path d="M181.111 190.37V197.828L175.845 201.008" stroke="#272453" stroke-width="4" stroke-miterlimit="10"/>
<path d="M175.735 192.454L167.946 201.008L164.325 206.382" stroke="#272453" stroke-width="2" stroke-miterlimit="10"/>
<path d="M240.902 160.43L235.746 171.726L226.201 174.358" stroke="#272453" stroke-width="2" stroke-miterlimit="10"/>
<path d="M363.557 153.191C363.557 153.191 318.137 191.905 295.976 190.37" stroke="#272453" stroke-width="4" stroke-miterlimit="10"/>
<path d="M338.872 171.835C338.872 171.835 360.924 176.99 363.557 171.835C366.19 166.681 374.089 162.842 379.575 167.449C388.571 175.016 403.272 195.744 403.272 195.744C403.272 195.744 376.393 193.989 366.629 190.37C356.865 186.751 318.137 193.441 305.74 199.363C293.343 205.285 249.46 208.356 261.857 179.512C274.254 150.669 307.825 134.657 309.361 134.657" stroke="#272453" stroke-width="4" stroke-miterlimit="10"/>
<path d="M415.888 107.239C417.314 108.775 436.952 109.323 444.632 112.394" stroke="#272453" stroke-width="4" stroke-miterlimit="10"/>
<path d="M392.74 149.243C392.74 149.243 426.53 160.32 434.319 160.32C442.109 160.32 449.788 153.082 449.788 153.082" stroke="#272453" stroke-width="4" stroke-miterlimit="10"/>
<path d="M403.601 100.549C397.457 88.9242 380.233 90.1306 380.233 90.1306C377.6 89.4725 374.528 89.0338 371.017 88.9242C371.017 88.9242 336.349 40.8883 299.926 29.7018C296.964 26.0827 292.685 22.7926 286.651 21.0378C267.562 15.3349 259.553 37.1595 259.553 37.1595C248.911 45.6041 243.864 57.0099 243.096 68.5254C243.096 68.5254 235.526 80.4795 238.159 102.633C240.793 124.787 270.633 131.586 291.368 116.342C310.897 115.026 324.501 113.6 336.239 117.11C336.13 117.11 315.724 119.522 303.436 134.657C291.039 149.792 325.159 169.642 343.7 167.449C354.78 166.133 365.422 155.056 372.224 146.392C377.051 148.146 383.963 150.011 390.545 149.792C402.175 149.353 417.314 121.496 417.644 111.845C417.863 102.085 409.744 112.174 403.601 100.549Z" fill="#E72F74"/>
<mask id="mask0_32_3351" style="mask-type:alpha" maskUnits="userSpaceOnUse" x="237" y="20" width="181" height="148">
<path d="M403.601 100.549C397.457 88.9242 380.233 90.1306 380.233 90.1306C377.6 89.4725 374.528 89.0338 371.017 88.9242C371.017 88.9242 336.349 40.8883 299.926 29.7018C296.964 26.0827 292.685 22.7926 286.651 21.0378C267.562 15.3349 259.553 37.1595 259.553 37.1595C248.911 45.6041 243.864 57.0099 243.096 68.5254C243.096 68.5254 235.526 80.4795 238.159 102.633C240.793 124.787 270.633 131.586 291.368 116.342C310.897 115.026 324.501 113.6 336.239 117.11C336.13 117.11 315.724 119.522 303.436 134.657C291.039 149.792 325.159 169.642 343.7 167.449C354.78 166.133 365.422 155.056 372.224 146.392C377.051 148.146 383.963 150.011 390.545 149.792C402.175 149.353 417.314 121.496 417.644 111.845C417.863 102.085 409.744 112.174 403.601 100.549Z" fill="#E72F74"/>
</mask>
<g mask="url(#mask0_32_3351)">
<path d="M1979.55 -1189.48H-320.2V1110.27H1979.55V-1189.48Z" fill="white"/>
<path d="M458.035 379.069H-344.922V-461.719H458.035V379.069V379.069ZM-344.233 378.379H457.345V-461.029H-344.233V378.379Z" fill="#00082E"/>
<path d="M199.543 -402.731C203.913 -394.222 208.512 -385.943 212.307 -377.204C216.217 -368.235 219.321 -359.036 222.081 -349.722C227.6 -331.209 230.82 -312.121 232.085 -292.803C234.385 -256.237 229.785 -219.441 218.746 -184.484C197.129 -115.837 151.249 -56.9634 89.7303 -19.5925C73.0571 -9.47359 55.349 -0.849554 37.066 5.81972C18.783 12.489 -0.0749523 16.9736 -19.1629 20.5382C-22.2675 21.1131 -21.5776 26.4026 -18.4729 26.0576C16.7132 21.4581 51.4394 8.57948 82.3711 -8.78363C113.303 -26.0318 141.36 -48.7993 164.472 -75.7064C212.997 -132.165 239.329 -206.792 237.144 -281.189C236.569 -302.692 233.58 -324.309 227.83 -345.122C224.956 -355.586 221.161 -365.82 216.562 -375.709C212.077 -385.483 207.018 -395.142 200.463 -403.536C200.118 -403.996 199.313 -403.306 199.543 -402.731Z" fill="#00082E"/>
<path d="M202.648 -413.885C216.102 -397.901 227.715 -379.963 234.73 -360.3C241.974 -339.833 245.078 -317.87 246.343 -296.367C248.758 -256.237 243.469 -215.876 231.28 -177.585C219.091 -139.409 199.888 -103.188 174.591 -72.1417C150.559 -42.5899 121.122 -17.5226 88.3504 1.91031C55.579 21.3432 19.4729 35.1416 -17.898 42.0408C-22.7275 42.9607 -27.557 43.6507 -32.3864 44.2256C-36.9859 44.8006 -36.1811 51.2399 -31.5816 50.5499C7.16924 44.3406 44.5402 32.3819 79.0364 13.639C113.418 -4.989 144.579 -29.5963 170.337 -58.9181C197.014 -89.3898 217.711 -124.806 231.51 -162.867C245.538 -201.503 252.553 -242.783 251.633 -283.949C251.173 -305.566 248.988 -327.759 243.009 -348.572C237.374 -368.235 228.06 -388.472 214.377 -403.881C210.927 -407.79 207.362 -411.355 203.568 -414.919C202.878 -415.379 202.073 -414.459 202.648 -413.885Z" fill="#00082E"/>
<path d="M205.638 -432.858C219.666 -416.759 231.97 -399.051 240.939 -379.503C249.908 -360.07 256.002 -339.143 259.222 -318.1C266.811 -269.575 259.337 -219.786 245.078 -173.331C231.74 -129.635 212.192 -87.0902 183.56 -51.2141C157.228 -18.2127 123.767 8.34954 87.0855 28.9323C68.5725 39.2812 49.2546 48.2501 29.3618 55.7243C19.5878 59.4039 9.58394 62.8536 -0.419971 65.9582C-11.9187 69.5228 -23.8774 72.5125 -36.0661 72.2825C-41.9305 72.1675 -47.5648 71.1327 -53.0842 69.2929C-56.8788 68.028 -58.4886 74.0073 -54.694 75.2722C-31.9265 83.0913 -7.31923 74.9273 14.4134 67.4531C34.9962 60.4389 55.119 52.1597 74.5519 42.2708C112.958 22.8379 148.604 -2.80433 177.351 -35.1158C208.167 -69.7271 229.9 -111.467 244.963 -155.163C261.292 -202.538 271.066 -253.362 266.351 -303.727C262.326 -346.732 247.148 -389.622 218.746 -422.739C215.182 -426.878 211.157 -430.673 207.017 -434.352C206.098 -435.042 204.833 -433.777 205.638 -432.858Z" fill="#00082E"/>
<path d="M292.223 -126.646C290.498 -120.896 289.808 -114.687 288.544 -108.823C287.279 -102.613 285.784 -96.5191 284.174 -90.4247C280.954 -78.466 276.815 -66.7373 272.1 -55.2386C262.556 -32.471 249.563 -11.0833 233.81 7.8896C229.44 13.179 224.841 18.2384 220.126 23.0679C215.067 28.2423 209.432 32.7268 204.603 38.0163C202.878 39.8561 205.178 43.0758 207.362 41.581C217.596 34.6817 226.45 24.6778 234.614 15.3638C242.894 5.81982 250.483 -4.2991 257.267 -14.9929C270.951 -36.4956 281.299 -59.9531 287.739 -84.5604C289.578 -91.5746 290.958 -98.5888 291.993 -105.718C293.028 -112.502 294.178 -119.632 293.488 -126.531C293.488 -127.221 292.453 -127.451 292.223 -126.646Z" fill="#00082E"/>
<path d="M207.477 54.5744C211.272 53.9994 214.492 51.9296 217.711 49.9749C221.161 47.9051 224.611 45.7203 227.945 43.5356C234.269 39.396 240.134 34.4516 245.768 29.5072C257.497 19.0433 268.076 7.31452 277.275 -5.3341C295.558 -30.5164 308.321 -60.0682 314.416 -90.6548C316.141 -99.1639 317.29 -107.788 317.865 -116.412C318.21 -120.782 318.325 -125.151 318.44 -129.521C318.44 -134.12 318.67 -138.835 317.29 -143.204C316.831 -144.814 314.071 -145.159 313.611 -143.204C312.231 -135.845 313.381 -127.911 312.921 -120.437C312.576 -112.732 311.656 -105.143 310.391 -97.5541C307.861 -82.3757 303.607 -67.5424 297.858 -53.3989C286.474 -25.112 268.996 1.10517 247.033 22.3779C240.939 28.2422 234.499 33.6467 227.83 38.8211C224.266 41.5808 220.586 44.3405 216.791 46.9852C213.342 49.285 209.662 51.1248 206.902 54.3444C207.017 54.3444 207.132 54.6893 207.477 54.5744Z" fill="#00082E"/>
<path d="M202.303 77.6869C206.443 75.8471 210.467 74.3524 214.492 72.1676C218.401 69.9829 222.311 67.6831 226.105 65.3833C233.81 60.6688 241.169 55.6095 248.298 50.205C262.441 39.6262 275.665 27.7824 287.394 14.6739C299.123 1.45031 309.356 -13.0382 317.176 -28.9064C326.03 -46.7295 331.549 -65.9324 334.999 -85.5953C336.953 -96.864 338.333 -108.133 339.368 -119.517C339.828 -125.266 340.288 -131.13 340.748 -136.88C341.093 -142.859 341.898 -148.953 341.438 -154.818C341.208 -157.232 337.413 -158.152 336.838 -155.393C335.919 -150.678 335.918 -145.964 335.574 -141.134C335.229 -135.73 334.884 -130.325 334.539 -125.036C333.734 -114.917 332.814 -104.913 331.319 -94.9093C328.444 -75.0164 323.73 -55.1236 315.451 -36.7256C301.307 -4.98908 277.85 21.3431 250.828 42.8458C243.124 48.9401 235.074 54.5745 226.91 60.2089C222.771 63.0836 218.516 65.7283 214.262 68.373C212.192 69.7528 210.007 71.0177 207.822 72.2826C205.638 73.6624 203.913 75.3873 201.843 76.7671C201.153 77.1121 201.613 77.9169 202.303 77.6869Z" fill="#00082E"/>
<path d="M194.944 102.179C204.948 99.1897 214.607 93.5554 223.921 88.7259C233.58 83.5515 243.009 78.0321 252.093 72.0527C270.031 60.324 286.704 46.2955 300.962 30.3122C331.089 -3.49413 346.957 -45.8095 352.017 -90.4247C354.891 -115.952 355.121 -142.629 351.557 -168.041C351.212 -170.801 346.382 -170.226 346.612 -167.351C348.107 -144.929 349.487 -122.736 347.762 -100.199C346.037 -77.891 341.783 -55.6985 334.194 -34.6557C319.36 6.2798 290.728 39.0513 255.657 64.1185C245.998 71.0178 236.109 77.457 225.875 83.4364C220.701 86.426 215.412 89.3008 210.122 92.1755C204.833 94.9352 199.313 97.4648 194.369 100.684C193.334 101.029 193.909 102.524 194.944 102.179Z" fill="#00082E"/>
<path d="M185.515 129.431C209.202 121.267 232.085 109.653 253.702 97.0048C275.09 84.3562 295.443 69.5228 312.806 51.5848C330.629 33.0718 344.543 11.4542 354.087 -12.4632C363.975 -37.4155 369.15 -64.2077 371.335 -90.8848C372.6 -105.833 373.059 -121.011 372.37 -135.96C371.68 -150.218 369.495 -166.087 360.641 -177.815C358.801 -180.115 355.006 -178.16 356.616 -175.401C369.725 -152.633 368.23 -124.921 366.85 -99.5088C365.355 -73.2917 361.101 -47.1894 352.592 -22.2371C344.198 1.91023 331.434 24.3328 314.301 43.4207C298.088 61.5887 278.77 76.652 258.187 89.6456C246.458 97.0048 234.385 103.674 222.081 109.883C209.777 116.093 197.244 121.842 185.055 128.166C184.02 128.281 184.595 129.776 185.515 129.431Z" fill="#00082E"/>
<path d="M374.669 -186.209C385.938 -157.922 389.273 -128.026 386.628 -97.784C384.098 -68.3472 376.969 -38.7954 366.62 -11.0834C356.501 16.0537 342.243 41.9259 322.695 63.5435C304.182 84.0113 281.414 100.225 257.037 113.103C229.095 127.937 199.083 138.4 168.727 147.254C165.507 148.174 166.887 153.119 170.107 152.199C224.381 136.331 279.575 114.253 319.935 73.3175C361.561 31.1171 382.718 -29.1364 389.733 -87.0901C393.872 -120.551 392.492 -156.657 376.624 -187.129C376.279 -188.164 374.209 -187.359 374.669 -186.209Z" fill="#00082E"/>
<path d="M384.098 -198.283C392.492 -182.76 396.287 -164.937 397.897 -147.459C399.507 -130.555 399.392 -113.307 398.012 -96.4042C395.482 -62.8278 387.548 -29.5964 374.669 1.56518C349.717 61.8186 304.987 112.528 247.263 143.23C215.986 159.903 181.26 170.482 145.844 173.011C142.28 173.241 142.28 178.876 145.844 178.646C210.927 173.356 272.33 143.46 317.98 97.0048C365.815 48.3651 394.102 -16.9478 401.576 -84.3305C403.761 -103.648 404.221 -123.196 402.841 -142.629C401.346 -162.637 397.207 -182.415 386.973 -199.893C385.938 -201.963 383.063 -200.238 384.098 -198.283Z" fill="#00082E"/>
<path d="M368.115 32.7269C377.084 31.692 385.938 27.2075 394.102 23.4129C402.956 19.2734 411.58 14.5588 419.859 9.26942C427.563 4.43995 435.038 -0.849476 441.937 -6.82883C445.272 -9.70351 448.261 -12.6932 451.021 -16.1428C452.976 -18.6725 456.425 -22.812 455.505 -26.1466C455.275 -26.8366 454.585 -27.0665 454.011 -26.7216C451.021 -25.2267 449.296 -20.2824 447.111 -17.7526C444.467 -14.533 441.477 -11.6582 438.257 -8.89852C431.358 -3.03415 423.884 2.1402 416.295 6.96967C408.705 11.7991 400.771 16.1687 392.722 20.0783C388.813 22.0331 384.788 23.7579 380.764 25.5977C376.394 27.5525 371.794 29.0473 367.77 31.4621C367.195 31.692 367.425 32.8419 368.115 32.7269Z" fill="#00082E"/>
<path d="M354.891 51.1248C356.271 54.1145 360.181 53.7696 362.941 53.1947C368 52.1598 372.944 50.4349 377.889 48.7101C388.008 45.2605 397.782 40.5461 407.096 35.2566C416.295 30.0822 425.034 24.1028 433.313 17.5485C437.567 14.2139 441.592 10.6492 445.502 6.96959C449.296 3.40498 453.436 -0.27451 456.08 -4.989C456.77 -6.13887 455.391 -7.86377 454.126 -6.94387C450.331 -4.29916 447.341 -0.849559 444.122 2.37009C440.672 5.70473 437.108 8.92441 433.428 12.0291C426.069 18.2384 418.135 23.8728 409.97 28.8172C401.921 33.7617 393.527 38.1313 384.788 41.8109C380.189 43.7657 375.474 45.6055 370.76 47.3303C368.69 48.1352 366.505 48.825 364.435 49.515C362.481 50.2049 357.881 52.7347 356.271 50.32C355.581 49.745 354.546 50.3199 354.891 51.1248Z" fill="#00082E"/>
<path d="M339.943 77.1121C358.111 74.2374 375.934 67.4531 392.722 59.864C409.28 52.2748 424.919 42.8459 438.602 30.8872C446.306 24.2179 453.896 16.8587 458.84 7.88967C459.53 6.7398 457.92 5.47488 456.885 6.39478C448.836 14.3289 441.477 22.9531 432.738 30.1973C423.884 37.5565 414.11 43.8807 403.991 49.5151C393.757 55.1495 383.063 59.979 372.14 64.1186C361.331 68.2581 350.292 71.4778 339.483 75.6173C338.448 75.8473 338.908 77.2271 339.943 77.1121Z" fill="#00082E"/>
<path d="M320.51 98.6149C342.358 97.35 363.056 89.5308 383.063 81.1367C400.771 73.7775 419.399 66.6483 435.153 55.6095C443.317 49.8602 450.216 42.846 455.161 34.1069C456.31 32.1521 453.321 30.3122 452.056 32.267C439.752 51.8149 417.33 61.244 397.092 70.328C372.14 81.4818 347.072 91.2556 320.165 96.66C319.245 97.005 319.475 98.6149 320.51 98.6149Z" fill="#00082E"/>
<path d="M291.533 122.417C302.917 126.672 316.141 125.177 326.72 119.198C331.434 116.438 335.689 112.758 339.138 108.504C341.208 105.859 347.302 98.8447 344.773 95.28C344.543 94.9351 344.083 94.7051 343.623 94.8201C341.668 95.28 341.208 96.8899 340.403 98.4998C339.368 100.685 338.218 102.754 336.838 104.709C333.734 109.078 329.824 112.873 325.225 115.633C315.221 121.842 303.377 122.877 292.108 120.117C290.613 119.772 290.153 121.842 291.533 122.417Z" fill="#00082E"/>
<path d="M284.749 134.146C283.599 133.916 282.564 133.341 281.644 132.651C280.035 131.386 278.08 133.801 279.92 134.951C295.788 145.415 315.221 141.505 330.629 132.306C338.103 127.936 344.888 122.417 350.292 115.633C354.776 109.883 359.951 101.374 359.146 93.6702C358.916 91.7154 356.386 91.2555 355.696 93.2103C354.431 96.8899 354.087 100.685 352.362 104.364C350.867 107.584 348.912 110.688 346.727 113.563C341.898 119.657 335.689 124.602 329.134 128.741C315.106 137.595 296.133 142.77 281.414 132.421C281.299 133.341 281.184 134.261 281.069 135.066C282.334 134.721 283.484 134.606 284.749 134.721C285.094 134.836 285.094 134.261 284.749 134.146Z" fill="#00082E"/>
<path d="M264.511 149.439C263.246 148.289 261.522 146.795 261.062 145.07C260.602 143.46 258.072 143.805 258.072 145.415C258.072 149.439 262.212 151.279 265.546 152.314C271.066 154.039 276.815 155.304 282.564 156.108C293.718 157.603 305.102 157.143 316.141 154.499C337.068 149.439 355.351 136.216 366.045 117.358C371.565 107.584 375.589 95.625 374.554 84.2413C374.324 81.7116 370.76 81.7116 370.53 84.2413C369.61 93.4403 368 102.409 363.975 110.803C360.066 119.082 354.546 126.442 347.762 132.651C333.044 146.335 313.036 152.429 293.258 152.544C287.624 152.544 281.874 152.084 276.355 151.164C271.985 150.359 262.556 149.784 261.062 144.84C260.487 145.415 259.797 146.104 259.222 146.679C261.177 146.909 262.671 148.404 264.166 149.554C264.511 150.014 264.856 149.669 264.511 149.439Z" fill="#00082E"/>
<path d="M238.294 157.373C242.319 162.203 248.988 165.078 254.852 167.032C261.522 169.332 268.536 170.597 275.55 171.517C289.694 173.357 304.182 173.127 318.21 170.252C344.888 164.963 369.15 149.439 382.028 125.062C388.353 113.103 393.067 97.3499 389.503 83.8964C388.928 81.7116 385.593 82.1716 385.593 84.4713C385.478 90.5657 385.708 96.5451 384.673 102.524C383.638 108.504 381.798 114.368 379.269 119.888C374.209 130.811 366.62 140.47 357.306 148.059C336.378 165.193 308.207 170.252 281.989 168.412C274.63 167.952 267.271 166.917 260.142 165.193C256.347 164.273 252.668 163.008 249.103 161.398C245.768 159.903 242.779 157.833 239.674 155.994C238.409 155.419 237.604 156.683 238.294 157.373Z" fill="#00082E"/>
<path d="M212.997 166.802C227.945 178.416 246.458 185.66 264.971 189.455C282.679 193.02 301.077 193.25 318.9 189.57C352.477 182.556 380.994 160.593 393.757 128.397C397.092 120.003 399.162 111.033 399.852 101.949C400.426 93.0955 400.082 83.8963 396.172 75.9622C395.597 74.6973 393.412 75.2724 393.527 76.6522C393.987 84.1264 395.252 91.4856 395.022 99.0748C394.792 106.664 393.412 114.253 390.997 121.612C386.283 136.331 377.659 149.899 366.39 160.593C341.323 184.281 304.757 191.41 271.526 186.695C250.943 183.821 231.97 175.886 213.687 166.112C213.112 165.652 212.537 166.457 212.997 166.802Z" fill="#00082E"/>
<path d="M192.299 171.747C205.868 187.04 224.611 197.964 243.813 204.748C263.246 211.647 284.289 214.522 304.872 212.797C326.26 210.957 347.647 204.403 364.78 191.18C379.844 179.566 390.537 163.123 396.517 145.185C403.301 124.832 404.681 101.604 399.507 80.7917C398.817 77.917 394.677 79.1819 395.252 81.9416C401.346 117.818 395.252 157.603 367.31 183.36C337.183 211.072 290.038 214.522 252.208 203.368C230.245 196.929 211.157 185.315 193.334 170.942C192.529 170.367 191.724 171.172 192.299 171.747Z" fill="#00082E"/>
<path d="M164.702 180.141C182.87 197.389 204.948 210.728 228.29 219.812C251.173 228.666 276.355 233.38 300.962 231.08C342.933 227.171 385.248 201.299 402.151 161.743C407.556 148.979 410.085 135.181 410.545 121.267C410.89 113.218 410.545 105.169 410.085 97.1198C409.625 89.1857 409.28 81.2516 407.901 73.4324C407.441 71.0177 403.646 71.5926 403.761 74.0074C403.991 87.6909 405.946 101.259 405.946 114.943C405.946 127.707 404.911 140.585 401.116 152.889C394.792 172.897 381.224 190.145 364.435 202.563C347.647 214.982 327.754 223.031 307.172 226.021C283.599 229.47 259.337 226.251 236.799 218.662C210.697 209.923 187.47 195.434 165.162 179.566C164.817 179.336 164.357 179.796 164.702 180.141Z" fill="#00082E"/>
<path d="M139.06 188.42C147.914 198.194 159.413 206.473 170.452 213.372C181.835 220.501 194.024 226.596 206.558 231.425C232.2 241.314 259.797 246.374 287.394 245.799C316.601 245.224 347.762 238.669 372.37 222.571C393.757 208.543 409.625 187.27 418.824 163.468C431.013 132.076 430.898 97.2349 423.194 64.8084C422.389 61.2438 416.87 62.7387 417.675 66.3033C424.344 94.7052 425.149 124.947 416.64 153.004C409.51 176.691 395.482 198.654 375.704 213.717C352.937 231.195 323.27 238.554 294.983 240.394C268.306 242.119 241.514 238.67 215.987 230.275C201.958 225.676 188.39 219.582 175.511 212.107C169.417 208.543 163.322 204.748 157.573 200.609C151.479 196.239 145.844 191.41 139.865 186.925C139.29 186.35 138.37 187.615 139.06 188.42Z" fill="#00082E"/>
<path d="M127.791 207.163C128.021 206.358 131.471 210.038 131.816 210.497C132.966 211.762 134.115 213.027 135.38 214.292C138.025 216.937 140.785 219.467 143.659 221.881C149.064 226.366 154.813 230.275 160.908 233.61C173.556 240.624 187.24 245.339 201.268 248.788C215.872 252.353 230.935 254.423 245.883 255.918C263.821 257.642 281.874 258.332 299.927 257.067C331.664 254.768 362.826 246.029 389.158 227.631C413.765 210.383 431.128 185.545 439.062 156.568C443.547 140.24 445.042 123.222 444.927 106.319C444.812 88.8407 443.202 71.1327 439.867 53.9995C439.292 51.1248 434.233 51.6998 434.578 54.6894C438.717 86.7709 441.822 118.853 434.578 150.819C431.013 166.457 424.919 181.521 415.835 194.744C406.981 207.508 395.252 218.087 382.259 226.481C353.397 245.109 318.325 252.008 284.519 252.583C266.351 252.928 247.953 251.548 229.9 249.248C214.837 247.294 199.773 244.304 185.285 239.474C169.072 234.07 153.433 226.366 140.67 214.867C137.565 212.107 135.035 208.888 132.046 206.013C130.436 204.518 127.331 202.678 125.606 205.093C123.422 208.083 129.516 210.268 128.941 207.278C128.826 206.588 128.021 206.588 127.791 207.163Z" fill="#00082E"/>
<path d="M111.693 216.017C134.69 239.474 162.172 257.183 193.564 267.301C227.485 278.225 264.051 279.26 299.237 275.236C333.389 271.211 367.425 261.322 395.597 241.314C420.204 223.836 440.442 199.459 449.756 170.367C455.965 150.704 455.735 129.776 456.425 109.424C457.23 86.8861 458.725 64.3485 458.725 41.811C458.725 38.7063 454.126 38.8213 453.896 41.811C452.401 61.1289 452.171 80.5618 451.481 99.8797C450.676 118.738 451.251 138.4 447.686 157.028C442.052 186.12 424.459 211.992 401.691 230.505C375.934 251.433 343.508 262.932 310.966 268.336C293.718 271.211 276.24 272.246 258.762 272.361C241.054 272.361 223.576 270.751 206.328 266.497C171.716 257.873 138.37 239.82 113.073 214.637C112.268 213.487 110.773 214.982 111.693 216.017Z" fill="#00082E"/>
</g>
<g style="mix-blend-mode:multiply">
<path d="M403.601 100.549C397.457 88.9242 380.233 90.1306 380.233 90.1306C377.6 89.4725 374.528 89.0338 371.017 88.9242C371.017 88.9242 336.349 40.8883 299.926 29.7018C296.964 26.0827 292.685 22.7926 286.651 21.0378C267.562 15.3349 259.553 37.1595 259.553 37.1595C248.911 45.6041 243.864 57.0099 243.096 68.5254C243.096 68.5254 235.526 80.4795 238.159 102.633C240.793 124.787 270.633 131.586 291.368 116.342C310.897 115.026 324.501 113.6 336.239 117.11C336.13 117.11 315.724 119.522 303.436 134.657C291.039 149.792 325.159 169.642 343.7 167.449C354.78 166.133 365.422 155.056 372.224 146.392C377.051 148.146 383.963 150.011 390.545 149.792C402.175 149.353 417.314 121.496 417.644 111.845C417.863 102.085 409.744 112.174 403.601 100.549Z" fill="#E72F74"/>
</g>
<path d="M252.422 42.3141C252.422 42.3141 336.239 -33.0299 458.236 53.5005L455.713 105.046C455.713 105.046 337.995 11.6062 257.359 124.458C257.249 124.567 211.5 113.929 252.422 42.3141Z" fill="#F2BC1E"/>
<path d="M227.189 58.984C227.189 58.984 230.48 55.9133 231.248 60.8485" stroke="#272453" stroke-miterlimit="10"/>
<path d="M418.302 22.0249L458.236 25.9731L451.763 224.368" stroke="#272453" stroke-width="2" stroke-miterlimit="10"/>
<path d="M392.74 149.243C392.74 149.243 358.949 150.998 350.172 123.142" stroke="#272453" stroke-width="2" stroke-miterlimit="10"/>
<path d="M257.249 124.567C257.249 124.567 291.588 68.6351 354.232 68.8544" stroke="#272453" stroke-width="2" stroke-miterlimit="10"/>
<path d="M457.358 52.9521C457.358 52.9521 402.723 11.1675 336.239 12.0449" stroke="#272453" stroke-width="2" stroke-miterlimit="10"/>
<path d="M312.762 114.916C312.762 114.916 329.986 112.613 341.396 119.303" stroke="#272453" stroke-width="2" stroke-miterlimit="10"/>
<path d="M371.017 88.9242C371.017 88.9242 399.103 89.2532 403.272 100.111" stroke="#272453" stroke-width="2" stroke-miterlimit="10"/>
<path d="M310.142 58.7182C329.086 52.5128 342.469 41.463 340.036 34.0379C337.602 26.6127 320.272 25.6239 301.328 31.8293C282.384 38.0347 269.001 49.0845 271.435 56.5096C273.869 63.9348 291.199 64.9236 310.142 58.7182Z" fill="white"/>
<path d="M245.181 57.5583C245.181 57.5583 224.336 98.2463 244.303 116.89" stroke="#272453" stroke-width="2" stroke-miterlimit="10"/>
</g>
<defs>
<clipPath id="clip0_32_3351">
<rect width="313" height="220" fill="white" transform="translate(155 7)"/>
</clipPath>
</defs>
</svg>
