<svg width="640" height="300" viewBox="0 0 640 300" fill="none" xmlns="http://www.w3.org/2000/svg">
<path d="M270.289 115.959L172 94.5706L286.868 77.9353L536.737 42.8824L622 31L470.421 210.424L398.776 172.994L314.105 233L270.289 115.959Z" fill="#F2BC1B"/>
<path d="M623.828 31.1835L172.899 94.059L274.654 116.415L315.078 232.385L400.106 173.003" stroke="#272453" stroke-width="4"/>
<path d="M622.644 31.1835L338.595 138.886" stroke="#272453" stroke-width="4"/>
<path d="M275.867 117.043L623.828 30L471.813 210.404L338.626 140.208C330.723 170.158 314.917 230.761 314.917 233.569" stroke="#272453" stroke-width="4"/>
<path d="M231 170.049C231 225.23 177.513 270 111.587 270C58.7704 270 16 234.2 16 189.991C16 154.672 50.2546 126 92.4508 126C126.227 126 153.592 148.905 153.592 177.177C153.592 199.762 131.681 218.102 104.698 218.102C83.0739 218.102 65.5639 203.446 65.5639 185.346" stroke="#E72F74" stroke-width="3.403" stroke-miterlimit="10" stroke-dasharray="6.81 6.81"/>
</svg>
