<svg width="624" height="234" viewBox="0 0 624 234" fill="none" xmlns="http://www.w3.org/2000/svg">
<path fill-rule="evenodd" clip-rule="evenodd" d="M260.477 102.572C262.002 96.6361 263.44 90.5704 265.703 84.8654C267.12 81.2953 268.621 77.7575 270.125 74.2235C270.334 73.7328 270.422 73.26 270.827 73.0157C271.369 72.6894 272.49 72.6964 273.102 72.5843C281.787 70.9901 290.562 69.7733 299.367 69.0889C309.414 68.3078 319.209 68.665 329.151 70.3036C337.653 71.7049 346.072 73.6362 354.398 75.8477C355.622 76.1726 356.844 76.5048 358.064 76.8459C358.632 77.005 359.576 77.0862 360.071 77.418C361.13 78.1273 361.49 81.034 361.887 82.2654C362.418 83.916 362.728 86.1835 363.753 87.5877C365.28 89.6778 367.603 91.4909 369.495 93.2285C376.098 99.2927 383.337 104.825 391.865 107.823C405.058 112.461 418.97 115.368 432.637 118.242C432.956 118.309 433.274 118.375 433.592 118.441C430.054 122.362 426.516 126.283 422.978 130.204C420.983 132.415 418.988 134.625 416.994 136.835C415.969 137.972 416.081 138.175 414.63 137.858C407.363 136.271 400.108 134.541 392.973 132.433C389.475 131.399 385.916 130.326 382.662 128.652C378.182 126.347 373.978 123.499 369.885 120.573C366.227 117.958 362.655 115.222 359.147 112.408C358.455 111.853 355.96 109.18 355.151 109.354C354.453 109.504 353.245 111.094 352.733 111.557C351.382 112.781 350.024 114 348.659 115.209C346.485 117.133 344.265 119.489 341.726 120.936C339.051 122.462 335.985 123.501 333.161 124.717C331.586 125.394 330.01 126.069 328.433 126.742C328.021 126.918 327.446 127.301 327.002 127.31C325.687 127.338 323.779 126.269 322.56 125.852C319.428 124.782 316.319 123.645 313.242 122.424C306.673 119.82 299.453 116.989 294.046 112.301C293.103 111.484 292.181 110.569 291.557 109.476C291.34 109.097 291.018 108.57 290.996 108.123C290.961 107.41 291.362 107.27 291.957 106.824C295.033 104.524 298.349 102.519 301.61 100.497C302.376 100.022 303.144 99.5496 303.914 99.0814L265.81 102.144C264.032 102.287 262.254 102.429 260.477 102.572Z" fill="#F22973"/>
<path fill-rule="evenodd" clip-rule="evenodd" d="M317.216 29.964C321.242 30.1478 325.369 30.335 329.36 30.9021C333.338 31.4671 337.05 32.9123 340.645 34.6623C347.128 37.8174 353.753 41.6526 357.923 47.7216C359.872 50.5592 361.462 53.5303 364.153 55.764C364.783 56.2863 365.469 56.9142 366.304 57.074C366.968 57.201 367.554 56.932 368.205 56.8998C369.446 56.8382 369.917 57.4932 369.917 58.7275C370.849 58.3553 371.863 58.0185 372.88 58.1552C373.729 58.2697 374.405 58.7824 375.221 58.998C376.693 59.3871 378.134 58.8052 379.534 58.3717C383.07 57.2767 386.954 56.4476 390.67 56.8382C393.117 57.0956 396.082 58.1575 394.815 61.3121C393.764 63.9288 389.834 65.2534 387.352 65.9043C385.241 66.4582 382.402 65.9639 382.581 68.8791C382.705 70.9139 383.013 73.0968 385.174 73.757C386.359 74.119 390.557 74.6583 388.105 76.4944C386.295 77.8503 385.663 80.2368 384.286 82.0291C382.531 84.3136 380.152 86.1605 377.37 86.9943C374.258 87.9274 370.965 87.7483 367.768 88.1103C370.02 91.2199 373.271 93.3586 376.23 95.7232C379.341 98.2097 382.343 100.927 385.944 102.699C389.172 104.288 392.659 105.391 395.992 106.738C399.493 108.153 403.019 109.552 406.633 110.654C413.923 112.877 421.59 114.43 429.085 115.794C432.783 116.467 436.41 116.368 440.145 116.428C443.978 116.49 447.808 117.162 451.569 117.853C453.393 118.188 455.234 118.399 457.058 118.733C457.933 118.893 461.396 119.246 461.52 120.528C461.723 122.617 459.465 123.788 457.812 124.37C457.106 124.619 455.969 124.583 455.358 124.925C454.696 125.295 454.954 125.84 454.879 126.557C454.769 127.598 454.212 128.348 453.358 128.926C452.656 129.401 451.809 129.382 452.293 130.282C452.517 130.697 453.075 130.959 453.333 131.397C453.627 131.896 453.762 132.444 453.703 133.018C453.598 134.025 452.934 134.792 452.007 135.148C450.526 135.717 448.789 135.314 447.272 135.13C444.734 134.821 442.158 134.79 439.654 134.234C437.043 133.655 434.502 132.762 431.889 132.169C430.548 131.865 429.205 131.61 427.895 131.188C427.043 130.914 425.811 130.201 424.903 130.424C424.053 130.633 423.389 131.661 422.833 132.257C422.065 133.079 421.323 133.925 420.543 134.736C420.027 135.273 419.497 135.799 418.933 136.287C418.749 136.445 417.617 137.138 417.601 137.324C417.557 137.85 418.793 137.841 419.058 138.049C420.597 139.266 418.284 140.037 417.287 139.976C414.987 139.835 412.676 139.553 410.398 139.215C404.975 138.41 399.567 137.541 394.382 135.723C389.253 133.925 384.248 132.012 379.505 129.332C374.951 126.76 370.547 123.851 366.246 120.879C364.159 119.436 362.058 117.942 360.295 116.104C358.572 114.307 357.167 112.243 355.738 110.213C352.315 113.521 349.022 116.999 345.345 120.032C341.848 122.916 337.643 124.457 333.576 126.331C333.707 127.182 337.683 127.692 338.409 127.913C341.726 128.923 344.909 130.543 348.134 131.814C353.501 133.928 358.592 136.68 360.379 142.552C362.137 148.325 360.099 154.136 357.613 159.351C354.679 165.508 351.195 171.21 346.982 176.577C345.19 178.861 343.26 180.963 341.294 183.089C339.616 184.903 338.178 187.052 338.881 189.631C340.231 189.209 340.478 190.263 339.595 191.155C338.811 191.948 337.455 192.102 336.407 192.234C333.231 192.632 329.95 192.491 326.771 192.195C320.981 191.656 315.179 190.193 309.938 187.677C307.33 186.426 306.387 188.444 304.593 190.007C303.182 191.237 301.24 192.034 300.167 193.625C299.285 194.935 299.861 197.003 301.693 196.512C303.119 196.131 304.264 194.539 305.774 194.478C308.455 194.369 303.398 198.195 302.751 198.663C304.032 199.809 305.484 198.237 306.776 197.975C308.015 197.723 308.36 198.365 307.7 199.398C307.186 200.204 305.569 200.774 306.644 201.754C307.535 202.566 309.511 202.994 310.605 203.349C314.018 204.46 317.413 205.25 320.966 205.757C322.113 205.921 323.953 205.816 324.883 206.63C326.11 207.703 325.518 209.483 324.897 210.713C322.545 215.371 317.654 217.661 312.63 217.997C309.537 218.203 306.414 218.003 303.31 218.17C299.91 218.354 296.501 218.626 293.093 218.513C287.612 218.333 284.126 214.369 281.394 210.011C279.659 207.241 278.059 204.392 276.556 201.49C275.97 200.357 274.74 199.182 274.531 197.909C274.343 196.762 275.074 195.842 275.784 195.031C277.653 192.896 279.903 191.266 282.1 189.502C283.355 188.495 283.837 187.661 284.395 186.195C284.866 184.961 285.77 184.433 286.566 183.449C287.442 182.366 287.167 182.174 286.484 181.289C285.769 180.362 286.05 178.996 286.35 177.947C286.781 176.442 287.704 176.111 289.083 175.626C290.341 175.185 291.407 174.409 292.522 173.689C298.029 170.135 303.219 166.114 308.794 162.659C314.295 159.251 320.044 156.24 325.294 152.437C321.031 151.863 317.272 149.56 313.251 148.196C311.187 147.496 309.143 146.748 307.146 145.872C306.383 145.537 305.495 145.24 304.814 144.748C304.131 144.254 303.606 143.603 302.889 143.136C301.189 142.025 299.168 141.394 297.339 140.528C295.365 139.594 293.416 138.572 291.581 137.383C289.868 136.273 288.223 135.004 286.799 133.537C285.664 132.369 284.561 130.846 282.955 130.309C283.123 132.548 285.894 134.402 287.413 135.749C289.878 137.935 292.44 139.793 295.195 141.598C292.105 144.248 288.339 145.973 284.72 147.762C280.651 149.774 276.697 152.004 272.644 154.047C269.212 155.777 265.6 157.111 262.111 158.719C258.347 160.454 254.472 161.909 250.544 163.229C246.99 164.423 243.643 165.697 240.29 167.374C237.029 169.004 233.541 170.251 230.053 171.297C226.134 172.472 222.395 173.59 218.626 175.201C215.227 176.654 211.815 177.583 208.218 178.373C207.03 178.634 205.504 179.113 204.672 177.962C204.041 177.089 203.946 175.744 203.765 174.718C203.072 170.792 203.017 166.804 202.393 162.872C200.026 163.587 197.783 164.466 195.286 164.58C193.715 164.651 192.761 164.813 192.37 166.529C193.278 166.631 196.524 166.676 196.611 167.964C196.691 169.125 194.727 169.137 194.031 169.169C192.785 169.225 191.655 169.021 190.99 170.241C191.97 170.604 194.143 169.943 194.576 171.262C195.136 172.963 192.597 172.959 191.683 173.096C190.089 173.335 190.253 174.588 190.362 175.927C190.506 177.688 190.615 179.452 190.852 181.205C191.36 184.95 192.23 188.638 192.642 192.397C192.999 195.647 193.198 198.768 190.877 201.358C189.943 202.4 188.646 203.598 187.179 203.722C185.69 203.848 185.717 202.805 184.791 202.036C184.223 201.566 183.471 201.47 182.802 201.216C181.988 200.908 181.198 200.456 180.467 199.987C179.12 199.124 177.942 198.053 176.989 196.766C173.263 191.728 171.931 184.202 171.562 178.094C171.328 174.21 171.562 170.32 171.918 166.452C172.11 164.368 172.303 162.283 172.555 160.205C172.633 159.562 172.763 158.917 172.812 158.272C172.839 157.902 172.661 157.155 172.85 156.801C172.609 157.253 172.182 156.918 171.759 156.562C170.884 155.827 171.154 154.416 171.621 153.45C173.031 150.538 177.254 150.424 180.002 150.198C187.388 149.589 194.405 147.607 201.476 145.491C200.478 143.995 202.048 143.008 203.265 142.494C205.141 141.702 207.079 141.005 208.972 140.249C213.249 138.54 217.436 136.946 221.915 135.856C225.971 134.868 229.896 133.229 233.898 132.027C238.033 130.785 242.093 129.366 246.161 127.919C254.216 125.055 262.279 122.128 270.096 118.653C272.072 117.774 273.96 116.756 275.867 115.74C277.416 114.914 279.234 114.309 280.547 113.117C281.801 111.978 282.552 110.395 283.915 109.361C285.143 108.43 286.822 108.417 287.839 107.261C289.214 105.697 290.857 105.01 292.723 104.093C293.323 103.799 297.272 102.31 297.191 101.466C294.37 101.466 291.473 102.306 288.683 102.697C285.732 103.111 282.783 103.571 279.81 103.8C274.992 104.17 270.177 104.07 265.381 103.547C264.664 103.469 261.788 102.879 261.292 103.648C260.914 104.234 261.854 104.932 261.863 105.562C261.877 106.486 261.133 106.982 260.289 106.661C258.648 106.036 258.888 103.39 259.042 102.046C259.335 99.477 259.988 96.9312 260.559 94.4139C257.172 96.1387 253.956 98.3531 251.04 100.787C248.781 102.672 246.741 105.228 244.09 106.572C241.545 107.862 240.032 106.761 240.136 103.92C240.184 102.618 240.448 101.383 240.898 100.17C241.111 99.5973 241.985 97.976 241.576 97.3657C239.25 99.2216 236.939 101.083 234.497 102.786C232.771 103.991 230.268 105.869 228.015 105.391C226.024 104.969 226.219 102.778 226.85 101.301C227.397 100.02 228.38 98.8825 229.355 97.9044C230.161 97.096 231.307 96.3715 231.71 95.2508C229.037 96.453 226.284 97.3627 223.484 98.2076C221.492 98.8083 220.1 101.303 217.784 100.934C215.466 100.566 216.389 97.6987 217.314 96.4521C217.962 95.5801 218.858 94.812 219.727 94.1676C220.574 93.5389 221.863 92.9911 222.28 91.945C219.572 92.4536 216.849 93.3379 214.062 93.1749C212.407 93.0779 209.644 92.3548 209.971 90.1287C210.302 87.8745 213.301 87.7019 214.988 87.2815C217.288 86.708 219.489 85.6315 221.708 84.8105C226.185 83.1541 230.749 81.8254 235.33 80.5051L236.777 80.0881C241.947 78.597 247.147 77.327 252.381 76.0883C254.968 75.476 257.547 74.8082 260.154 74.2858C262.677 73.7804 265.24 73.4877 267.743 72.8835C265.634 69.6969 268.188 67.0781 270.947 65.5616C269.198 65.2075 267.418 64.9945 265.684 64.5654C264.202 64.199 262.774 63.6361 261.282 63.3118C258.717 62.7547 256.156 62.4617 253.967 60.8724C249.829 57.8692 249.477 53.09 252.963 49.4736C256.482 45.8236 261.646 44.1145 266.615 43.9448C272.178 43.7549 278.507 44.8338 283.712 46.8046C286.268 47.7727 288.931 49.0035 291.123 50.6524C292.613 51.7739 294.971 53.9229 296.972 53.9229C294.575 51.0225 291.634 48.0231 291.201 44.0949C290.791 40.376 292.477 36.423 295.306 34.0175C300.959 29.2123 310.286 29.6473 317.216 29.964ZM284.991 189.36C283.516 191.656 281.475 193.521 279.549 195.426C278.884 196.083 277.55 196.92 277.486 197.949C277.434 198.79 278.465 199.735 278.915 200.396C281.295 203.889 283.254 207.747 286.161 210.85C289.447 214.356 293.197 215.038 297.85 215.047C303.016 215.059 308.251 215.706 313.409 215.433C317.777 215.202 322.083 213.256 324.256 209.299C322.841 208.569 320.827 208.917 319.293 208.933C317.202 208.955 315.16 208.917 313.094 208.553C311.221 208.224 309.371 207.729 307.609 207.006C306.698 206.632 305.796 206.205 304.957 205.685C304.343 205.305 303.881 204.722 303.277 204.349C301.051 202.974 298.479 207.348 296.1 207.264C294.642 207.212 295.17 205.778 295.776 204.975C296.871 203.526 298.781 202.632 300.223 201.575C298.88 200.338 297.364 201.635 296.085 202.282C294.487 203.089 292.827 204.081 291.041 204.384C291.175 202.082 294.305 200.848 296.032 199.911C296.801 199.494 297.764 199.107 297.953 198.191C298.095 197.501 297.852 196.521 297.78 195.825C297.688 194.94 297.62 194.657 296.679 194.407C295.536 194.105 294.386 194.192 293.242 193.814C290.111 192.78 287.675 191.244 284.991 189.36ZM183.223 153.073C182.458 153.285 181.686 153.469 180.909 153.633C179.372 153.957 177.833 154.294 176.29 154.589C175.516 154.737 174.657 154.643 174.429 155.382C174.312 155.761 174.607 156.441 174.657 156.835C174.748 157.544 174.754 158.264 174.763 158.978C174.843 165.562 173.468 172.108 174.073 178.692C174.585 184.255 175.782 191.291 179.867 195.435C181.63 197.223 183.799 199.166 186.018 200.388C187.758 201.346 190.189 198.942 190.545 197.277C190.799 196.085 190.375 194.826 190.098 193.676C189.744 192.203 189.384 190.73 189.033 189.256C188.283 186.11 187.602 182.934 187.386 179.7C187.316 178.637 187.331 177.613 187.391 176.555C187.423 175.981 187.694 174.596 187.292 174.104C186.773 173.468 185.586 173.883 184.883 173.938C184.112 173.998 183.36 173.951 182.608 173.755C180.816 173.286 180.502 171.861 182.458 171.201C183.824 170.74 186.321 171.408 187.469 170.521C188.817 169.479 186.092 169.336 185.456 169.309C184.608 169.273 181.798 169.495 181.941 167.914C182.047 166.742 184.467 166.665 185.313 166.615C187.122 166.508 189.41 167.186 190.192 165.004C190.505 164.13 188.619 163.686 188.145 163.253C186.995 162.199 186.618 160.393 186.519 158.913C186.422 157.458 187.853 152.414 185.673 152.28C185.003 152.24 183.89 152.888 183.223 153.073ZM290.488 182.185C289.204 183.714 288.095 185.39 286.899 186.988C289.703 188.536 292.571 189.781 295.47 191.112C296.789 191.718 297.713 192.198 298.989 191.28C299.904 190.622 300.591 189.686 301.484 189.001C302.768 188.017 304.11 187.116 305.426 186.178C301.542 184.76 297.599 183.516 293.717 182.095C292.265 181.563 291.536 180.936 290.488 182.185ZM258.51 177.328C259.341 178.17 257.742 180.505 257.427 181.304C260.002 181.099 262.556 180.693 265.084 180.17C265.946 179.992 265.628 181.041 265.306 181.387C264.908 181.815 264.11 181.945 263.578 182.098C261.618 182.66 259.607 182.93 257.596 183.23C258.516 184.364 260.731 186.136 260.018 187.841C258.732 186.732 257.807 185.255 256.384 184.296C255.973 184.91 255.12 187.075 254.185 186.942C252.718 186.734 254.205 184.204 254.511 183.595C253.523 183.595 249.81 184.463 249.293 183.246C248.762 182.001 252.345 182.041 253.008 181.747L252.884 181.596L252.76 181.447C252.265 180.849 251.789 180.26 251.722 179.44C252.83 179.822 253.57 181.559 254.788 181.584C255.942 181.608 256.458 179.872 256.869 179.05C257.103 178.583 257.897 176.705 258.51 177.328ZM383.448 160.954C385.931 163.049 384.245 167.275 382.366 169.175C380.261 171.303 375.576 173.259 372.908 171.089C371.448 169.902 371.974 168.09 372.334 166.51C372.734 164.755 372.983 163.275 374.436 162.071C376.696 160.197 380.93 158.828 383.448 160.954ZM378.409 162.171C375.987 162.687 373.533 165.108 372.957 167.604C372.202 170.876 375.597 171.115 377.834 170.623C380.647 170.005 383.637 167.94 383.78 164.702C383.904 161.908 380.291 161.771 378.409 162.171ZM202.164 148.023C198.537 149.374 195.128 151.222 191.323 152.024C190.161 152.268 189.684 152.536 189.397 153.618C188.995 155.133 188.614 156.669 188.901 158.252C189.497 161.538 194.068 161.136 196.606 161.007C197.909 160.94 200.416 161.179 201.546 160.365C202.372 159.771 202.025 158.657 201.897 157.789C201.415 154.547 201.94 151.264 202.164 148.023ZM399.909 116.704C398.574 116.956 396.265 118.045 398.18 119.411C399.457 120.321 401.358 120.432 402.858 120.657C405.79 121.096 408.918 121.475 411.462 123.13C416.175 126.196 415.598 131.981 414.188 136.715C415.203 137.313 418.186 133.401 418.748 132.765C421.027 130.184 423.315 127.612 425.612 125.047C426.596 123.951 418.534 120.162 417.81 119.821C413.981 118.019 410.406 116.832 406.111 116.522C404.074 116.375 401.925 116.324 399.909 116.704ZM383.283 107.109C382.917 108.032 383.558 108.45 384.147 109.088C387.44 112.652 389.759 117.697 391.592 122.122C392.506 124.329 393.147 126.554 393.713 128.866C394.268 131.134 396.033 131.74 398.147 132.384C403.016 133.867 408.142 134.364 413.029 135.829C414.338 136.221 414.595 133.341 414.677 132.611C414.911 130.532 414.694 128.363 413.602 126.531C411.539 123.068 407.403 122.332 403.713 121.742C401.604 121.405 398.824 121.057 397.154 119.613C396.316 118.889 396.197 118.058 396.851 117.158C398.042 115.516 400.141 115.305 402.016 115.171C402.929 115.106 408.583 115.678 408.767 115.009C405.952 114.091 403.063 113.485 400.289 112.436C398.125 111.617 395.944 110.843 393.761 110.077L391.577 109.311C389.356 108.532 387.323 107.584 385.193 106.646C384.392 106.294 383.658 106.163 383.283 107.109ZM431.034 122.127C430.329 123.076 429.63 123.872 429.101 124.938C428.485 126.182 427.462 126.975 426.606 128.043C431.048 128.827 435.285 129.823 439.564 131.26C441.761 131.997 444.031 132.362 446.278 132.89C448.164 133.333 450.173 134.02 452.125 133.614C449.901 130.548 443.971 131.396 442.41 127.682C441.348 125.157 443.959 123.142 446.094 122.703C449.823 121.938 453.798 121.879 457.585 121.606C457.625 120.156 443.876 119.405 442.517 119.288C440.103 119.079 437.584 118.626 435.175 118.542C432.939 118.465 432.208 120.548 431.034 122.127ZM378.572 111.522C377.248 112.803 375.951 114.112 374.628 115.395C373.758 116.238 372.58 117.136 371.895 118.141C371.019 119.423 372.552 120.04 373.574 120.647C376.153 122.179 378.818 123.61 381.442 125.068C383.8 126.377 386.251 128.044 388.854 128.811C390.245 129.22 391.552 129.856 392.894 130.394C392.247 124.579 388.91 119.297 385.833 114.449C385.126 113.336 384.396 112.238 383.69 111.125C383.334 110.565 382.673 109.242 381.927 109.128C380.824 108.959 379.241 110.875 378.572 111.522ZM446.044 126.323C447.657 127.248 449.274 127.718 451.093 127.019C451.541 126.836 451.984 126.643 452.422 126.44C451.21 124.785 447.624 125.794 446.044 126.323ZM312.443 106.085C309.584 107.375 306.525 108.66 304.039 110.607C303.121 111.325 301.069 112.834 301.549 114.203C301.96 115.375 304.231 116.373 305.309 116.731C310.981 118.609 317.437 117.243 322.66 120.691C324.073 121.624 324.534 122.843 325.584 124.07C326.534 125.18 327.735 125.042 329.012 124.582C330.687 123.977 332.231 123.051 333.914 122.457C334.774 122.154 336.236 121.953 336.325 120.791C336.746 115.316 335.578 108.341 330.755 104.991C325.341 101.23 317.872 103.637 312.443 106.085ZM309.377 118.844C309.238 119.538 314.605 120.795 315.188 120.956C318.428 121.849 321.456 123.973 324.813 124.315C325.396 123.013 320.747 120.939 320.011 120.671C316.656 119.452 312.901 119.231 309.377 118.844ZM414.762 116.413C418.83 118.081 422.774 120.124 426.184 122.964C427.361 123.944 430.218 119.295 430.858 118.582C425.439 118.357 420.099 117.322 414.762 116.413ZM338.718 83.7097C334.946 86.2031 331.661 89.4634 327.52 91.3748C328.816 91.5789 330.231 90.7395 331.468 90.4451C332.673 90.1584 333.892 89.9692 335.065 89.5634C335.786 89.3141 338.762 87.7044 339.32 88.7954C340.193 90.4996 334.047 91.6786 333.173 91.9693C330.222 92.9507 327.29 93.9788 324.369 95.0468C321.54 96.0812 318.713 97.1944 315.789 97.9373C312.82 98.6919 309.671 98.8863 306.817 100.058C304.292 101.094 302.123 102.809 299.688 104.02C297.246 105.233 294.471 105.984 292.366 107.79C294.655 110.234 297.362 112.281 300.323 113.839C300.797 110.112 305.163 107.99 308.15 106.557C314.661 103.434 324.441 98.7236 331.077 104.017C335.928 107.885 336.585 115.225 336.585 120.972C337.899 120.553 339.099 119.887 340.319 119.259C341.165 118.823 341.174 117.61 341.28 116.8C341.455 115.474 341.813 114.189 342.225 112.916C343.135 110.101 344.275 107.355 345.362 104.605C347.12 100.156 349.287 95.7687 350.368 91.0885C351.073 88.0341 351.912 82.7843 348.232 81.2682C345.048 79.9567 341.303 82.0009 338.718 83.7097ZM322.246 71.2776C321.631 71.69 321.861 72.9273 321.903 73.5482C322.055 75.8056 321.96 78.0724 322.035 80.3339C322.127 83.0894 322.147 88.1424 324.987 89.6874C326.929 90.7441 329.344 89.1607 330.894 88.0824C333.517 86.2588 335.922 84.1408 338.581 82.3604C341.733 80.2497 347.705 77.3299 350.722 81.3005C352.354 83.4495 352.125 86.6516 351.718 89.152C351.18 92.4508 349.925 95.5796 348.677 98.6625C346.1 105.028 343.411 111.498 341.978 118.236C345.245 116.293 347.786 113.493 350.637 111.033C352.75 109.21 355.889 107.116 356.377 104.144C356.487 103.473 357.136 102.995 357.583 102.546C358.164 101.962 358.574 101.37 358.942 100.624C359.755 98.9779 360.283 97.1995 360.616 95.3978C361.314 91.6178 360.981 87.8553 360.337 84.0975C360.046 82.3981 360.473 80.5748 360.077 78.9183C359.802 77.7681 358.991 77.8362 357.912 77.5746C354.026 76.6325 350.133 75.7191 346.245 74.7858C344.665 74.4064 342.948 73.6949 341.308 73.7186C339.962 73.7382 338.831 74.5411 337.67 75.1228C335.763 76.0777 332.731 77.7485 330.541 76.7988C327.989 75.6922 330.963 73.1936 329.683 72.0116C328.806 71.201 326.183 71.6871 324.994 71.4857C324.342 71.3755 322.844 70.8766 322.246 71.2776ZM362.404 103.921C360.548 104.214 359.473 105.019 358.451 106.6C357.412 108.206 357.289 109.002 358.77 110.259C360.367 111.615 362.038 112.954 363.734 114.175C365.884 115.722 368.268 116.894 370.392 118.479C371.323 119.173 375.545 113.73 376.278 112.984C377.289 111.954 378.326 110.922 379.411 109.974C379.807 109.628 381.049 108.824 381.05 108.235C381.051 106.746 377.752 105.414 376.69 105.004C374.311 104.086 371.817 103.715 369.282 103.677C367.036 103.643 364.629 103.57 362.404 103.921ZM370.674 97.3711C368.932 98.2969 367.112 99.0771 365.358 99.9837C364.736 100.305 360.814 101.954 361.012 102.939C365.426 102.66 369.82 101.912 374.22 102.767C376.196 103.151 378.079 103.795 379.73 104.983C380.981 105.882 381.934 107.61 383.176 106.072C380.641 104.635 378.358 102.729 376.11 100.879C375.126 100.069 374.114 99.3078 373.115 98.5199C372.521 98.0515 371.541 96.9106 370.674 97.3711ZM266.271 75.8475C264.89 76.0415 263.545 76.4076 262.188 76.7218C256.695 77.9951 251.181 79.1383 245.702 80.4857C234.773 83.1731 223.518 85.7644 213.098 90.0698C213.974 91.039 216.295 90.3369 217.383 90.1469C219.511 89.7748 221.577 89.1245 223.68 88.6336C225.737 88.1538 227.801 87.5815 229.875 87.1814C230.83 86.9972 232.515 86.7546 232.553 88.1876C232.608 90.2191 228.664 91.7382 227.216 92.4807C225.668 93.2748 224.169 94.1523 222.696 95.0756C221.531 95.8056 219.382 96.7786 219.005 98.2293C222.785 96.6267 226.568 95.0305 230.325 93.3737C231.74 92.7496 233.174 92.1616 234.521 91.4001C235.42 90.8924 236.576 90.0014 237.639 89.9214C239.08 89.8129 239.318 91.1216 238.712 92.1776C237.952 93.4994 236.385 94.2452 235.232 95.1701C233.763 96.3497 232.462 97.7411 231.139 99.0763C230.041 100.185 228.626 101.276 228.053 102.774C230.028 103.435 232.271 101.317 233.722 100.27C236.002 98.6245 238.125 96.8347 240.301 95.0567C241.413 94.1471 242.74 92.6739 244.205 92.4025C246.061 92.058 245.907 94.1814 245.457 95.352C244.451 97.9683 242.095 100.15 241.927 103.099C241.824 104.915 243.36 104.224 244.386 103.496C246.113 102.269 247.282 100.4 248.849 98.9928C252.623 95.6045 256.943 92.7141 261.611 90.707C262.447 90.3477 262.747 89.0581 263.002 88.283C263.381 87.1261 263.817 86.0045 264.272 84.8738C265.271 82.3971 266.089 79.7202 267.488 77.4323C267.878 76.7943 268.885 76.1439 268.052 75.7686C267.6 75.5649 266.739 75.7817 266.271 75.8475ZM306.124 71.6578C304.71 71.823 303.279 71.8079 301.862 71.9574C299.55 72.2013 300.558 75.0161 300.186 76.7122C299.089 81.705 293.801 82.6478 289.793 80.2923C287.539 78.9668 286.185 77.0673 284.973 74.8451C284.282 73.5783 283.767 73.3744 282.337 73.6915C281.355 73.9093 280.462 73.8631 279.464 73.9354C278.208 74.0266 278.098 74.2931 278.073 75.4894C278.05 76.5519 277.897 77.288 277.191 78.1486C275.843 79.788 273.584 80.8673 271.66 81.691C269.732 82.5165 267.548 83.1301 266.489 85.081C265.956 86.0648 265.384 87.239 265.229 88.3572C265.06 89.5788 265.475 90.3366 264.763 91.4635C263.283 93.8062 262.605 96.3663 261.856 99.0287C261.613 99.896 261.516 100.253 262.462 100.491C263.82 100.834 265.748 100.314 267.141 100.26C268.134 100.221 268.715 98.4671 269.038 97.7566C269.666 96.375 270.436 95.067 271.207 93.7594C272.955 90.7974 274.824 87.8552 277.106 85.2672C278.83 83.3139 281.373 80.8824 283.58 83.6272C285.73 86.302 287.279 89.4351 289.866 91.7667C292.14 93.8175 294.484 93.8503 296.842 91.9066C299.165 89.9931 300.93 87.3825 302.373 84.7776C303.934 81.9608 305.111 78.9535 306.632 76.1198C307.109 75.2316 309.311 72.8288 308.64 71.7998C308.187 71.1046 306.76 71.5837 306.124 71.6578ZM317.967 71.0434C316.722 71.1023 315.47 70.9623 314.225 70.9374C311.972 70.8929 310.088 70.9717 308.957 73.1321C307.958 75.0386 307.107 77.0669 306.196 79.0192C304.216 83.2603 302.274 87.5998 299.234 91.2088C296.541 94.4061 293.062 96.0168 289.558 92.9625C288.005 91.6082 286.825 89.861 285.71 88.1436C284.817 86.7668 283.797 84.3437 282.3 83.5411C280.631 82.6463 278.72 84.6989 277.699 85.8128C275.984 87.6853 274.55 89.8876 273.173 92.014C272.174 93.5563 271.218 95.1311 270.247 96.6915C269.854 97.3243 268.251 99.3939 268.784 100.182C269.319 100.972 271.93 100.432 272.686 100.36C274.49 100.188 276.291 100.126 278.096 99.9701C283.709 99.487 289.239 98.2528 294.867 97.9234C298.574 97.7061 302.227 96.989 305.876 96.3375C309.425 95.7041 312.996 95.2719 316.506 94.4348C318.57 93.9425 320.638 93.4497 322.698 92.9391C323.411 92.7625 326.78 92.2808 326.989 91.3537C324.669 90.9485 323.451 90.0481 322.629 87.7831C321.599 84.9466 321.479 81.7854 321.391 78.7966C321.357 77.6469 321.352 76.4966 321.351 75.3464L321.351 73.9663C321.351 73.1414 321.707 71.6446 320.964 71.0724C320.276 70.543 318.764 71.0054 317.967 71.0434ZM364.021 89.3611C364.118 93.0988 363.45 96.8659 361.916 100.281C363.521 100.538 365.43 98.523 366.776 97.8481C367.295 97.5879 370.728 96.3393 369.578 95.3847C367.463 93.6291 366.076 91.1762 364.021 89.3611ZM410.043 92.4006C410.513 93.33 409.932 94.5096 409.617 95.3912C412.066 95.9801 414.505 96.5586 416.972 97.0585C418.832 97.4351 418.183 98.5512 416.569 98.4743C414.324 98.3673 412.235 97.4156 410.002 97.2921C407.874 97.1743 407.623 99.0334 405.809 99.3914C405.871 98.3685 406.698 97.6581 407.291 96.8909C406.312 96.3881 405.312 95.9209 404.363 95.3669C403.871 95.0801 402.512 93.877 403.035 93.2379C403.563 92.5927 404.948 93.8018 405.441 94.0681C406.142 94.4467 407.54 95.2811 408.365 95.0418C409.494 94.7138 409.259 93.0918 410.043 92.4006ZM374.757 68.0473C373.763 68.1163 372.682 67.7818 371.741 68.2193C370.803 68.6557 369.683 69.611 368.899 70.2734C368.139 70.9148 367.761 71.6935 366.817 72.0721C365.874 72.4506 364.907 72.4171 364.543 73.5714C365.399 73.8064 367.079 73.4948 367.75 74.1244C368.725 75.0406 367.023 76.0487 366.318 76.3371C365.305 76.7505 364.478 76.6163 363.443 76.5388C362.992 76.5053 362.996 76.3667 362.628 76.5899C361.26 77.4174 362.206 80.3613 362.65 81.4351C364.821 86.6915 372.24 84.9214 376.519 84.3831C375.157 83.0106 372.927 81.4965 372.815 79.3408C372.781 78.6989 372.94 77.5516 373.764 77.4982C374.423 77.4556 375.213 78.4511 375.623 78.8434C376.838 80.0062 378.411 81.9346 380.169 82.1014C382.519 82.3246 384.327 78.5157 385.302 76.8545C384.104 76.6292 382.791 76.6425 382.095 75.4664C381.268 74.0686 381.253 71.927 381.267 70.3533C381.28 69.0134 381.707 67.5475 379.917 67.4817C378.268 67.4212 376.421 67.9319 374.757 68.0473ZM216.957 71.4841C216.615 72.2315 215.127 72.5244 214.474 72.7243C211.989 73.4838 209.563 74.4484 207.14 75.3945C202.25 77.3049 197.413 79.4149 192.947 82.2222C192.113 82.7473 192.522 81.7347 192.738 81.3696C193.224 80.551 194.245 79.9718 195.008 79.4704C197.072 78.1132 199.258 77.1597 201.539 76.2518C206.105 74.4354 210.741 72.5094 215.424 71.038C215.967 70.8674 217.417 70.4798 216.957 71.4841ZM273.675 75.1853C272.767 75.2792 271.704 75.0726 270.831 75.3691C269.693 75.7555 269.881 76.537 269.544 77.4981C268.973 79.1295 268.362 80.7473 267.766 82.3702C269.971 82.2673 272.084 80.5198 273.954 79.5139C275.012 78.9446 278.691 77.0547 277.582 75.3245C276.879 74.2295 274.683 75.0806 273.675 75.1853ZM298.78 72.341C297.414 72.3163 295.912 72.7301 294.53 72.7988C292.676 72.891 290.851 73.2439 288.999 73.3292C287.781 73.3854 286.586 73.6359 285.381 73.8001C286.58 76.5793 288.919 79.0103 291.859 80.0171C294.179 80.8113 297.425 80.9461 299.01 78.7485C299.922 77.4843 301.411 72.3885 298.78 72.341ZM369.906 60.8607C368.417 61.8509 367.223 63.2697 365.979 64.5357C362.862 67.7062 359.637 71.1007 358.288 75.4467C358.103 76.0421 359.508 76.5682 359.888 76.5913C360.692 76.6398 360.856 76.2342 361.171 75.5546C361.952 73.872 362.251 71.9923 363.5 70.5576C365.023 68.8083 366.856 67.1029 368.623 65.6001C369.824 64.5789 372.767 63.1411 373.112 61.4529C373.52 59.4571 370.808 60.2612 369.906 60.8607ZM331.486 72.4096C330.643 72.6547 330.576 73.4347 330.384 74.2751C329.609 77.6514 337.44 73.9677 338.53 73.4157C338.168 72.3317 334.599 72.5294 333.772 72.4868C333.129 72.454 332.108 72.2284 331.486 72.4096ZM377.74 74.1633C376.58 74.2081 377.115 69.465 378.434 69.942C379.565 70.3515 378.484 74.1342 377.74 74.1633ZM214.616 68.7098C212.839 70.2445 210.05 70.4504 207.841 70.943C204.586 71.6689 201.359 72.5941 198.13 73.4289C196.091 73.9561 197.239 72.699 198.26 72.2267C200.015 71.4144 202.002 70.9816 203.878 70.5347C205.909 70.051 207.985 69.7279 210.004 69.2001C211.403 68.8345 213.206 67.8993 214.616 68.7098ZM269.891 35.7245C271.866 36.0874 273.837 36.7194 275.568 37.7545C277.001 38.6115 276.944 39.9448 275.127 39.1711C266.654 35.5617 256.139 37.7481 247.864 40.9442C246.951 41.2966 247.019 40.5277 247.295 39.9349C247.675 39.1183 248.487 38.6443 249.267 38.2651C251.609 37.1255 254.308 36.481 256.855 36.0076C261.098 35.2186 265.627 34.9413 269.891 35.7245ZM271.13 30.5402C272.206 30.8324 273.443 31.5573 274.102 32.4769C274.872 33.5531 274.26 34.1031 273.19 33.4702C271.996 32.7639 270.905 32.0596 269.535 31.6865C268.812 31.4898 268.841 31.0359 269.361 30.6375C269.847 30.2644 270.602 30.3968 271.13 30.5402Z" fill="#1E1559"/>
</svg>
