<svg width="640" height="480" viewBox="0 0 640 480" fill="none" xmlns="http://www.w3.org/2000/svg">
<path fill-rule="evenodd" clip-rule="evenodd" d="M479.837 408.72C479.756 381.265 479.229 353.801 478.302 326.361C477.614 306.024 476.733 285.673 475.028 265.393C474.353 257.359 473.567 249.318 472.331 241.348C471.566 236.413 470.862 231.037 468.78 226.442C468.098 224.938 467.44 223.96 465.989 223.191C460.626 220.345 453.278 219.926 447.365 219.326C437.671 218.341 427.859 218.057 418.118 218.258C418.689 228.736 419.259 239.214 419.83 249.691C420.269 257.761 420.709 265.831 421.148 273.9C421.425 278.994 422.094 284.232 421.989 289.334C421.903 293.49 417.016 297.467 414.531 300.712C411.484 291.391 408.437 282.069 405.389 272.748C403.778 276.908 402.056 281.033 400.182 285.081C398.946 287.751 397.688 290.499 396.049 292.954C394.551 295.196 394.113 295.513 391.51 295.13C388.377 294.67 385.998 293.741 384.146 296.07C382.505 298.134 380.976 300.24 379.195 302.2C359.524 323.835 329.211 337.271 301.123 343.349C284.579 346.928 267.891 349.835 251.354 353.485C226.106 359.058 200.172 364.553 176.057 374.079C172.277 375.572 168.457 377.175 165.009 379.347C161.207 381.742 158.491 385.365 155.86 388.952C149.432 397.717 141.896 412.094 151.811 421.243C159.412 428.256 171.288 428.96 181.162 429.75C191.369 430.566 201.612 430.964 211.845 431.297C239.715 432.202 267.612 432.398 295.496 432.425C320.972 432.444 346.453 432.3 371.924 431.813C383.48 431.592 394.616 431.86 405.797 428.895C428.682 422.827 451.501 416.509 474.329 410.235C476.165 409.731 478.001 409.226 479.837 408.72Z" fill="#F22973"/>
<path fill-rule="evenodd" clip-rule="evenodd" d="M247.287 168.774C248.357 169.885 246.624 170.74 245.844 170.983C245.97 169.911 246.487 169.427 247.287 168.774ZM393.825 377.635C394.237 376.664 394.852 375.864 395.976 376.323C397.835 377.081 394.075 377.625 393.825 377.635ZM232.244 221.04C231.475 221.136 228.333 220.939 229.305 219.229C230.431 217.248 231.978 220.427 232.244 221.04ZM288.585 203.51C286.933 202.094 285.453 199.93 285.435 197.681C286.992 198.714 287.824 201.912 288.585 203.51ZM248.977 175.083C247.601 175.152 248.86 173.215 248.847 172.829C248.818 172.002 248.044 171.291 248.169 170.309C248.174 170.269 249.561 167.164 249.927 166.967C250.956 166.412 251.554 167.428 252.478 167.743C253.846 168.208 254.513 167.797 255.982 167.941C257.276 168.067 258.366 168.697 259.719 168.696C260.04 168.696 260.396 168.015 260.765 168.053C261.34 168.111 261.395 168.845 261.801 168.881C263.231 169.008 263.314 168.441 264.647 167.907C266.863 167.021 268.418 169.083 268.368 171.521C268.303 174.75 264.934 176.07 262.353 176.812C259.025 177.768 257.176 178.345 253.794 177.743C252.816 177.568 251.823 177.879 251.051 177.205C250.014 176.298 250.564 174.384 249.38 173.5C249.245 174.028 249.112 174.555 248.977 175.083ZM366.075 303.556C365.799 305.666 366.379 306.753 364.332 308.167C363.123 309.002 361.604 309.551 360.324 310.388C358.47 311.6 355.692 312.378 354.048 313.772C353.004 314.657 352.818 317.161 351.37 317.465C350.138 317.722 348.67 315.496 348.247 314.494C347.78 313.383 348.092 312.469 347.902 311.36C347.774 310.616 347.217 310.461 347.315 309.587C347.417 308.67 348.307 308.185 348.693 307.457C349.039 306.805 349.144 305.88 349.415 305.365C350.055 304.153 351.475 301.579 352.741 300.777C353.807 303.576 354.616 300.739 356.094 299.918C356.646 299.903 357.198 299.897 357.749 299.903C358.035 299.631 358.326 299.364 358.622 299.103C359.304 299.04 360.427 299.404 361.042 299.594C361.38 299.517 361.722 299.472 362.07 299.459C362.531 299.593 362.714 299.85 362.617 300.229C362.416 300.137 363.53 300.812 363.636 300.885C365.834 302.378 367.851 302.974 368.258 306.151C367.53 305.287 366.803 304.421 366.075 303.556ZM348.93 190.117C351.28 184.026 350.534 178.658 350.307 172.282C350.254 170.785 349.935 167.574 351.499 166.58C353.452 165.341 355.076 168.143 356.096 169.303C357.847 171.293 360.29 173.121 361.186 175.704C361.979 177.982 361.161 180.778 360.557 183.036C359.906 185.469 359.1 188.74 356.886 190.088C354.52 191.527 351.313 191.385 348.93 190.117ZM266.072 319.676C266.41 315.007 272.904 316.643 275.825 318.082C278.008 319.159 279.23 320.8 280.605 322.752C282.166 324.968 282.678 325.587 282.554 328.222C282.439 330.625 282.573 333.042 281.971 335.433C281.666 336.647 281.597 336.861 280.792 337.697C280.792 337.697 279.397 339.087 279.786 338.864C277.984 339.893 275.297 340.065 273.18 340.225C270.154 340.452 269.427 340.493 268.199 337.618C267.963 338.118 267.726 338.618 267.491 339.119C267.415 338.765 266.575 334.565 266.769 334.606C267.108 334.679 267.472 335.656 267.638 335.905C267.533 333.97 266.156 332.524 265.489 330.799C264.874 329.212 264.622 327.416 264.148 325.775C263.69 324.187 263.177 321.978 263.621 320.329C264.21 318.14 264.396 318.764 266.072 319.676ZM226.865 216.751C225.81 217.746 226.75 219.353 226.613 220.585C225.179 219.705 225.676 219.234 225.121 217.804C224.763 216.883 223.709 215.12 222.788 216.63C222.401 217.264 223.681 218.136 222.815 218.509C222.305 218.728 220.949 217.022 220.701 216.754C218.992 214.904 217.899 213.012 217.758 210.489C217.718 209.798 217.729 208.075 217.974 207.678C218.684 206.533 220.574 207.21 220.412 205.117C219.659 205.492 218.907 205.865 218.155 206.24C217.921 203.886 220.462 202.493 221.523 200.625C222.733 198.497 223.518 196.949 225.489 195.118C226.399 194.272 227.879 192.531 229.06 192.124C229.978 191.808 230.351 192.275 231.277 192.283C233.214 192.302 236.126 191.778 233.242 193.927C233.828 194.202 234.598 194.373 235.097 194.806C235.467 195.127 235.606 196.044 236.04 196.264C236.977 196.737 237.677 195.814 238.735 196.865C239.848 197.973 238.709 198.671 238.957 199.159C239.67 200.562 240.651 199.864 240.619 202.004C240.567 205.532 238.536 209.707 237.442 213.004C236.799 214.942 236.081 217.971 233.37 217.177C233.473 218.11 233.709 219.014 233.103 219.846C232.538 219.18 232.335 217.719 231.954 216.937C231.392 215.786 230.476 214.673 229.83 213.554C229.925 215.323 230.117 215.815 231.32 217.156C229.737 217.35 227.787 218.618 226.865 216.751ZM342.672 268.02C341.221 266.921 343.127 265.694 340.263 266.318C339.533 266.478 340.267 267.332 339.164 267.363C338.747 267.374 337.726 266.35 337.438 266.109C337.173 265.889 335.987 264.289 335.796 264.186C336.115 264.357 334.355 263.676 334.905 264.118C333.856 263.274 333.058 261.886 332.587 260.198C331.432 256.062 331.596 251.119 333.992 247.565C334.997 246.076 335.798 244.258 337.311 243.258C339.364 241.903 342.756 241.096 345.049 240.235L344.307 238.43C350.6 241.275 354.94 247.915 355.47 254.661C355.66 257.088 356.352 260.169 354.874 262.321C353.331 264.566 349.442 266.927 347.294 264.433C347.621 265.823 346.663 267.485 345.194 267.842C344.638 267.977 344.114 267.574 343.868 267.61C343.555 267.654 342.895 268.065 342.672 268.02ZM400.441 127.173C404.67 126.67 404.014 134.308 403.221 136.601C402.582 138.452 400.29 141.027 399.078 142.639C397.633 144.559 395.705 145.992 393.656 147.217C392.953 147.637 392.438 147.771 391.832 148.006C391.617 147.792 391.359 147.68 391.058 147.671C390.794 148.111 390.42 148.441 389.936 148.659C388.398 149.138 385.854 149.065 384.326 149.001C381.863 148.897 378.988 147.479 376.538 147.007C375.393 146.786 374.756 146.697 373.743 146.102C373.233 145.803 372.234 143.495 372.092 145.762C371.46 145.373 371.66 144.734 371.198 144.449C370.757 144.177 369.348 143.916 368.823 143.318C368.091 142.484 367.117 140.581 366.607 139.442C366.279 138.711 365.585 136.827 365.639 136.066C365.756 134.454 366.275 134.825 367.653 134.157C368.573 133.711 369.103 133.337 370.023 133.091C370.13 133.062 370.385 133.612 370.566 133.564C370.881 133.483 371.008 133.119 371.229 133.048C372.909 132.503 374.892 130.889 376.97 131.045C377.866 131.112 378.706 132.479 379.167 132.409C379.876 132.302 379.522 130.848 380.016 130.32C381.277 128.978 385.482 129.195 387.114 128.963C391.552 128.33 395.995 127.74 400.441 127.173ZM252.316 243.27C251.911 240.101 251.413 236.954 254.888 235.394C256.192 234.809 257.277 235.02 258.615 234.861C260.352 234.655 260.1 233.906 261.389 235.771C262.102 234.855 261.628 234.558 262.795 234.449C263.277 234.405 265.38 235.772 265.927 235.996C268.207 236.929 271.112 236.843 272.833 238.725C274.505 240.554 275.857 242.313 276.562 244.809C276.917 246.066 277.151 247.368 277.59 248.602C278.066 249.937 279.134 251.087 279.5 252.422C280.989 257.855 274.659 262.815 270.214 264.256C269.641 264.139 269.08 264.176 268.529 264.366C268.141 264.622 267.794 264.924 267.486 265.273C266.087 265.711 265.754 265.567 264.331 264.924C261.985 263.867 259.243 263.507 257.467 265.981C256.919 263.101 254.92 264.815 253.958 262.96C253.427 261.937 254.587 259.102 253.915 258.365C252.773 257.113 249.213 259.34 249.305 256.415C249.339 255.349 250.55 254.996 250.969 254.154C251.723 252.642 251.305 251.042 250.257 249.713C250.159 249.942 249.78 251.449 249.278 251.05C247.946 249.991 250.135 248.323 250.613 247.745C251.4 246.793 252.117 246.066 251.941 244.736C251.832 243.912 250.51 243.054 250.557 242.253C250.594 241.643 252.228 243.199 252.316 243.27ZM314.153 277.483C314.063 279.705 315.482 279.995 316.417 281.523C316.671 281.939 316.688 282.936 317.043 283.546C317.707 284.69 318.169 284.761 318.382 285.876C318.358 285.751 318.026 286.98 318.018 287.12C317.927 288.688 319.017 289.941 318.717 291.665C318.296 294.091 316.453 296.792 315.153 298.809C312.215 303.37 308.108 306.905 302.482 307.227C298.725 307.443 289.884 305.941 289.079 302.012C289.291 301.557 289.471 301.088 289.617 300.605C289.704 299.907 289.445 299.43 288.841 299.176C288.377 299.053 288.014 298.796 287.753 298.402C287.88 298.002 288.089 297.651 288.38 297.348C288.276 296.822 287.39 296.797 287.404 296.458C287.43 295.826 287.986 294.244 288.135 293.524C288.393 292.281 288.534 291.097 288.76 289.845C288.944 288.833 289.565 288.333 289.725 287.404C289.834 286.771 289.191 286.197 289.246 285.525C289.669 285.146 290.013 284.704 290.276 284.199C290.306 283.674 290.177 283.188 289.889 282.74C290.52 278.322 296.772 274.611 301.218 274.51C303.607 274.455 307.687 274.283 309.835 275.531C311.271 276.365 312.234 279.323 314.153 277.483ZM410.058 433.202C413.198 431.786 416.011 430.278 419.374 429.59C421.802 429.094 423.886 427.73 426.326 427.285C431.73 426.3 437.567 425.391 442.751 423.496C448.309 421.463 454.362 420.735 460.058 419.046C462.863 418.214 465.31 417.668 468.211 417.507C471.037 417.351 473.943 415.775 476.768 416.042C479.129 416.265 480.813 418.078 482.661 419.371C485.057 421.048 487.669 422.494 490.244 423.878C492.976 425.348 496.02 426.085 498.717 427.518C500.956 428.708 503.155 429.869 505.464 430.96C517.729 436.755 529.573 442.169 540.634 450.233C537.067 451.319 533.009 450.237 529.465 449.854C524.426 449.309 519.406 448.9 514.418 447.967C511.499 447.422 505.802 445.34 503.015 446.94C500.566 448.346 500.754 451.955 500.402 454.369C498.09 453.476 495.789 452.561 493.456 451.723C491.622 451.064 488.646 449.253 486.777 449.189C481.569 449.013 482.138 456.32 482.645 459.674C479.603 458.64 476.71 457.919 473.76 456.639C471.396 455.613 468.786 455.386 466.489 454.162C460.783 451.121 454.452 449.215 448.343 447.057C441.45 444.621 434.572 442.139 427.738 439.54C424.93 438.471 422.159 437.061 419.286 436.194C416.192 435.261 413.024 434.56 410.058 433.202ZM342.049 154.562C342.486 158.672 342.036 162.817 341.91 166.932C341.763 171.751 341.757 176.518 341.133 181.308C340.007 189.95 338.422 198.594 335.328 206.77C332.512 214.218 327.758 219.484 319.707 221.094C312.475 222.539 305.426 220.06 300.823 214.281C296.048 208.288 294.582 200.72 291.786 193.774C290.419 190.378 289.407 186.963 288.266 183.488C287.582 181.407 284.193 175.431 285.162 173.293C286.109 171.205 291.696 170.492 293.63 169.331C296.703 167.487 299.545 163.79 301.89 161.088C303.461 159.277 304.379 157.938 305.439 160.811C306.713 164.262 305.79 168.249 306.978 171.597C308.148 174.889 310.702 171.642 310.964 169.496C311.467 165.376 310.862 160.696 310.667 156.556C310.304 148.839 309.798 139.914 302.84 135.157C296.245 130.648 289.087 129.245 285.426 121.46C283.958 118.339 282.233 115.069 283.15 111.577C284.209 107.547 285.778 103.333 287.321 99.4599C290.285 92.0218 294.927 85.5454 298.986 78.7163C299.534 77.7952 299.649 76.6145 300.846 76.3543C302.2 76.0596 305.362 78.3635 306.675 78.7352C310.251 79.7462 313.446 77.6485 316.601 80.0226C319.132 81.9285 321.279 84.6709 324.694 84.8703C326.165 84.9561 328.161 83.643 329.428 83.9566C331.042 84.356 331.509 86.7653 332.132 88.119C333.561 91.225 335.156 95.117 337.513 97.6561C338.313 98.5178 339.727 98.784 340.411 99.5862C341.206 100.518 340.764 102.41 341.903 102.58C342.564 102.678 343.091 101.783 343.646 101.569C344.59 101.205 345.516 101.136 346.527 101.166C348.396 101.22 350.336 101.672 351.978 102.567C355.799 104.647 357.211 107.81 352.619 109.713C350.779 110.476 348.781 111.043 346.79 111.22C344.605 111.414 342.394 110.733 340.233 110.999C336.067 111.512 334.786 114.996 333.707 118.577C332.224 123.502 331.026 128.489 329.361 133.363C328 137.345 325.529 141.392 324.815 145.552C324.377 148.107 324.951 147.917 326.657 149.497C327.957 150.7 328.738 152.279 330.145 153.486C334.071 156.851 337.491 155.954 342.049 154.562ZM88.7013 393.79C88.821 392.912 107.426 394.591 109.539 394.373C113.151 394.002 116.996 394.99 120.73 394.864C124.03 394.752 128.792 393.47 131.516 395.072C132.527 395.666 132.552 396.368 134.147 396.065C135.629 395.784 137.19 394.736 138.3 393.765C141.387 391.063 143.274 386.812 145.294 383.308C149.336 376.296 152.797 369.03 156.152 361.656C163.062 346.467 169.711 331.191 176.614 315.999C180.028 308.484 183.32 300.956 187.002 293.581C188.574 290.433 190.299 286.98 191.509 283.683C192.827 280.087 194.561 276.711 195.743 273.025C198.248 265.217 201.242 257.526 203.16 249.496C203.646 247.463 203.826 245.335 204.412 243.331C205.036 241.19 206.311 239.36 207.111 237.288C207.926 235.177 207.928 233.293 208.333 231.135C208.738 228.984 209.726 226.888 210.438 224.828C214.101 227.037 218.273 229.048 221.645 231.674C224.961 234.257 229.8 236.421 228.412 241.092C227.149 245.34 224.914 249.246 223.584 253.489C222.092 258.249 220.259 262.902 218.819 267.672C215.728 277.914 213.023 288.277 210.255 298.611C208.955 303.466 207.33 308.33 206.377 313.268C205.881 315.837 205.963 318.134 205.029 320.623C204.116 323.055 203.251 325.435 202.502 327.925C201.168 332.358 199.894 336.8 198.418 341.187C197.62 343.561 196.981 345.961 196.413 348.4C196.069 349.874 194.899 352.709 195.228 354.235C196.173 358.629 201.985 354.152 203.376 352.358C206.603 348.198 208.918 343.109 211.335 338.45C221.038 319.745 225.809 299.57 230.812 279.207C232.128 273.854 233.397 268.549 234.875 263.251C236.424 257.7 236.875 251.896 238.703 246.376C240.592 240.673 242.519 235.176 243.906 229.308C244.548 226.591 245.226 223.876 245.796 221.144C246.1 219.685 246.113 217.001 248.056 216.71C246.805 225.866 246.343 236.593 242.694 245.18C239.386 252.968 236.758 263.638 240.101 271.907C241.709 275.884 244.253 279.28 246.166 283.068C248.305 287.303 249.698 292.165 251.132 296.678C254.1 306.024 254.976 315.852 256.962 325.412C258.003 330.422 258.024 333.849 257.12 338.779C256.829 340.367 257.342 341.629 256.006 342.646C254.661 343.67 251.551 343.877 249.889 344.464C244.844 346.248 240.506 347.556 235.164 348.141C230.118 348.693 225.379 349.696 220.572 351.349C211.911 354.327 202.904 356.553 194.394 359.539C189.739 361.173 185.249 364.083 180.774 366.169C176.119 368.341 171.181 369.759 166.793 372.469C162.065 375.388 157.391 378.777 152.911 382.049C148.762 385.079 146.773 388.846 145.046 393.562C141.762 402.527 133.482 414.162 141.13 423.209C138.449 424.374 135.381 424.837 132.812 426.082C131.925 426.513 131.661 426.932 130.653 427.18C129.334 427.503 127.637 427.245 126.287 427.332C124.334 427.459 120.218 428.864 118.314 428.297C116.534 427.766 116.456 425.183 115.177 423.909C113.281 422.019 111.461 423.238 109.141 423.027C105.704 422.716 102.281 422.265 98.842 421.965C91.904 421.36 84.9856 421.218 78.0247 421.234C81.6484 417.212 94.9749 424.532 95.302 417.246C95.6812 408.816 85.3918 411.345 80.3901 408.914C84.9363 409.047 89.4826 409.091 94.02 409.452C96.7733 409.671 102.067 410.988 103.624 407.963C105.297 404.709 102.605 400.946 100.083 399.247C96.5942 396.897 92.5616 395.398 88.7013 393.79ZM467.887 281.385C468.721 283.047 467.429 283.717 466.844 285.057C466.036 286.909 466.834 286.541 466.996 288.283C467.105 289.451 466.786 290.003 466.852 291.097C466.88 291.563 467.542 292.181 467.62 292.711C467.76 293.662 467.245 294.1 467.301 294.79C467.329 295.133 466.886 295.194 466.976 295.69C467.055 296.124 468.052 296.428 468.111 296.701C468.449 298.28 467.502 297.489 467.358 298.238C467.116 299.488 467.818 299.702 468.219 300.852C468.909 302.834 468.242 303.758 467.815 305.616C467.454 307.183 467.99 307.194 468.194 308.691C468.317 309.599 468.055 309.71 468.059 310.554C468.071 313.469 468.723 316.501 468.75 319.59C468.815 326.901 469.434 334.106 469.526 341.399C469.617 348.566 470.139 355.821 470.453 363.078C470.606 366.616 470.964 370.141 471.119 373.68C471.3 377.789 470.897 381.878 471.244 385.971C471.558 389.691 471.369 393.424 471.523 397.154C471.596 398.924 472.507 404.28 471.344 405.47C469.834 407.015 463.717 405.37 461.738 405.479C458.018 405.683 454.097 406.431 450.452 407.199C441.814 409.018 433.157 411.335 424.516 412.967C417.311 414.328 410.552 417.789 403.846 420.718C404.46 414.557 405.545 408.547 405.745 402.337C405.925 396.756 405.399 391.205 405.523 385.63C405.787 373.737 406.461 361.976 406.195 350.085C405.924 337.993 404.95 325.647 403.266 313.67C402.493 308.167 401.889 302.304 399.92 297.075C399.028 294.706 397.576 292.97 398.179 290.364C398.832 287.541 400.123 284.591 401.077 281.854C401.779 286.311 404.251 316.016 414.407 307.086C418.373 303.6 420.209 296.046 421.096 291.096C422.293 284.405 421.863 277.372 421.832 270.601C421.77 256.806 420.253 242.732 418.862 229.012C418.584 226.272 417.2 223.821 420.715 223.952C424.011 224.076 427.398 224.857 430.676 225.241C433.513 225.574 436.362 224.764 439.065 225.126C440.305 225.292 441.401 226.026 442.652 226.212C444.232 226.447 445.882 226.103 447.472 226.105C450.152 226.109 453.259 226.095 455.483 227.762C457.819 229.513 459.822 232.411 460.607 235.213C461.391 238.015 461.181 241.169 461.677 243.969C462.096 246.328 462.185 249.239 462.576 251.919C464.272 249.794 464.163 252.861 464.181 253.767C464.202 254.862 465.38 257.078 465.077 257.72C464.881 258.134 463.564 257.915 463.453 258.239C463.224 258.908 464.016 259.191 464.031 259.691C464.087 261.64 463.975 263.655 463.98 265.62C464.439 265.268 464.9 264.917 465.361 264.565C465.602 265.091 465.679 265.776 465.909 266.308C466.013 266.55 466.985 266.483 467.031 266.959C467.091 267.58 465.732 268.776 465.469 269.454C465 270.667 464.7 270.188 465.496 271.495C466.413 273.001 467.913 273.084 467.673 275.272C467.188 274.9 466.765 274.468 466.403 273.975C466.176 275.281 466.743 276.432 466.812 277.732C466.857 278.582 465.823 281.975 466.603 282.543C466.93 282.782 467.807 281.477 467.887 281.385ZM399.363 174.33C399.357 171.466 403.538 167.061 404.976 164.663C407.27 160.839 409.737 157.377 412.653 153.997C415.582 150.602 418.71 147.365 421.551 143.896C422.727 142.461 423.6 140.785 424.799 139.38C426.297 137.625 426.613 138.165 428.469 138.211C429.88 138.247 430.801 138.007 432.105 138.426C432.798 138.649 433.246 138.979 433.99 139.184C434.456 139.313 435.07 138.861 435.695 139.079C437.242 139.618 437.768 140.996 439.633 140.968C439.857 140.965 440.574 140.434 440.677 140.464C440.803 140.5 441.383 140.943 441.363 140.938C441.487 140.967 441.451 141.844 441.783 141.997C442.349 142.257 442.75 141.383 443.266 141.44C444.569 141.583 445.538 142.928 446.98 143.254C448.831 143.672 450.433 143.062 452.202 143.923C453.615 144.611 454.329 146.176 455.504 144.559C456.569 146.819 458.528 146.134 460.485 147.086C463.214 148.414 466.172 149.087 469.078 150.09C475.057 152.153 481.078 154.267 486.906 156.751C498.996 161.903 510.704 167.617 522.523 173.156C534.082 178.573 544.774 185.756 555.177 192.988C560.277 196.532 565.348 200.256 569.326 205.111C570.532 206.581 572.545 208.865 571.733 210.935C570.873 213.123 567.24 214.481 565.186 214.901C562.492 215.453 559.53 215.637 556.788 215.82C553.827 216.019 550.647 216.117 547.716 216.077C541.941 215.997 536.276 215.434 530.474 215.307C523.873 215.161 517.402 213.768 510.815 213.686C503.573 213.595 496.414 212.688 489.162 212.971C475.184 213.518 461.217 213.922 447.197 213.989C445.453 213.998 443.742 213.787 442.029 214.091C440.639 214.337 439.635 214.824 438.144 214.717C436.755 214.618 435.468 214.01 434.053 213.937C432.194 213.84 430.29 214.146 428.422 214.108C422.116 213.979 414.636 213.406 408.556 215.4C406.141 216.193 403.105 218.501 404.577 221.492C406.033 224.449 409.751 222.038 412.053 223.383C414.198 224.635 413.008 228.052 412.857 230.095C412.571 233.966 412.519 237.817 412.621 241.696C412.846 250.263 413.368 258.819 413.468 267.389C413.516 271.551 413.456 275.712 413.237 279.869C413.043 283.538 413.172 287.531 411.917 291.033C410.17 286.661 409.958 281.834 409.265 277.227C408.515 272.243 407.781 267.259 407.068 262.269C406.645 259.304 406.205 241.502 400.404 243.827C394.238 246.299 396.382 259.994 396.102 264.918C395.838 269.566 395.363 274.196 394.31 278.737C393.82 280.847 392.474 289.81 389.768 290.389C387.783 281.01 385.684 271.645 384.225 262.164C383.581 257.98 383.013 253.763 382.756 249.535C382.622 247.335 382.785 242.045 379.604 241.789C370.253 241.036 376.526 280.434 369.539 285.39C366.955 280.249 365.944 274.888 365.243 269.189C364.924 266.594 364.241 263.674 364.645 261.072C365.174 257.668 365.748 255.581 365.037 252.063C364.456 249.183 364.038 246.227 363.366 243.372C362.881 241.315 361.617 240.311 360.95 238.455C359.071 233.232 359.191 226.62 358.442 221.137C357.683 215.584 356.883 210.124 357.867 204.523C358.841 198.975 362.899 197.211 367.513 194.921C372.162 192.613 376.647 190.078 381.752 189.06C387.485 187.918 392.745 186.809 398.613 186.506C408.968 185.971 419.116 186.592 429.424 187.082C440.886 187.628 452.359 186.948 463.815 186.79C469.384 186.714 475.057 186.607 480.616 186.697C483.402 186.743 486.105 187.226 488.909 187.156C491.298 187.097 495.968 187.833 498.059 186.563C499.7 185.566 499.697 183.357 498.312 182.14C496.939 180.934 494.248 180.87 492.534 180.498C487.056 179.309 481.596 178.627 476.08 177.672C472.903 177.123 470.237 176.94 467.053 177.095C463.962 177.247 460.808 176.363 457.682 176.213C451.057 175.896 444.393 175.583 437.765 175.479C424.919 175.279 412.221 174.299 399.363 174.33ZM392.659 299.981C393.693 300.38 393.43 305.317 393.524 306.303C393.803 309.255 394.109 312.205 394.372 315.159C394.979 321.978 395.436 328.813 395.809 335.649C396.181 342.485 396.623 349.344 396.601 356.192C396.591 359.108 396.46 362.021 396.519 364.936C396.563 367.116 397.522 371.194 395.662 372.742C394.414 373.781 391.971 373.313 390.513 373.217C387.633 373.028 384.745 372.836 381.857 372.814C378.521 372.788 375.208 373.147 371.871 373.06C370.59 373.027 369.16 372.813 367.892 373.055C366.974 373.231 365.971 374.023 365.11 374.058C364.476 374.083 363.656 373.454 362.955 373.33C361.864 373.138 360.584 373.361 359.475 373.347C358.685 373.338 356.782 372.981 356.056 373.447C355.349 373.902 355.621 374.936 354.974 375.165C354.728 375.253 353.324 373.585 353.083 373.479C352.008 373.01 350.44 373.375 349.307 373.388C346.044 373.424 342.779 373.218 339.515 373.249C336.333 373.279 333.264 373.649 330.21 374.019C328.191 374.264 325.872 373.651 323.729 373.471C320.302 373.184 316.86 373.237 313.424 373.306C311.699 373.341 309.973 373.368 308.248 373.41C307.84 373.42 307.032 373.262 306.638 373.379C305.055 373.854 306.059 373.882 304.941 374.604C306.408 373.656 301.658 373.038 301.384 373.036C299.228 373.02 297.253 374.079 295.458 373.872C293.515 373.647 291.531 372.447 289.392 372.819C288.393 372.993 287.563 374.111 286.82 374.239C285.62 374.447 285.21 373.58 284.109 373.146C281.912 372.28 279.364 373.034 277.071 372.884C273.852 372.674 270.753 372.667 267.521 372.624C261.626 372.546 255.732 372.449 249.836 372.506C244.407 372.559 240.045 374.735 234.646 374.617C231.815 374.556 228.935 374.308 226.107 374.377C223.679 374.434 222.439 376.244 224.274 378.37C225.515 379.808 227.794 379.96 229.544 380.222C232.141 380.614 234.692 381.176 237.28 381.61C243.435 382.641 249.877 382.609 256.102 382.797C281.492 383.561 306.887 385.818 332.293 386.057C343.448 386.162 354.722 387.101 365.842 386.663C372.046 386.418 378.11 387.752 384.361 386.793C386.997 386.389 389.588 386.144 392.245 385.954C392.591 385.93 394.621 385.537 395.004 385.711C396.136 386.227 395.504 385.756 395.979 387.065C396.758 389.216 396.433 392.645 396.429 394.935C396.421 398.584 396.243 402.24 396.121 405.887C396.003 409.381 395.809 412.872 395.601 416.363C395.515 417.807 396.083 423.237 394.969 424.314C394.108 425.147 390.076 424.753 388.986 424.52C387.677 424.24 387.555 424.171 386.138 424.337C385.094 424.46 384.722 424.43 383.676 424.317C380.68 423.993 377.249 423.936 374.241 424.477C371.906 424.897 369.454 423.789 368.561 426.244C367.051 424.395 367.085 425.46 365.425 425.832C363.715 426.214 364.239 425.11 362.79 424.958C361.769 424.851 360.858 425.658 359.754 425.665C357.93 425.677 356.289 425.195 354.338 425.438C345.727 426.513 336.994 427.478 328.311 427.558C324.708 427.592 321.148 427.647 317.564 427.757C315.736 427.812 314.008 428.003 312.21 428.218C310.516 428.423 309.184 428.015 307.423 427.926C303.528 427.727 299.442 428.32 295.547 428.533C293.716 428.633 291.422 428.318 289.665 428.559C287.9 428.8 287.767 430.141 286.363 430.918C286.142 426.568 277.044 429.354 274.676 429.36C273.746 429.363 272.61 428.967 271.488 429.038C269.63 429.158 267.759 429.188 265.899 429.254C262.932 429.358 260.065 429.538 257.246 429.178C253.564 428.709 249.566 429.209 245.847 429.186C241.797 429.16 237.747 429.106 233.699 428.973C229.599 428.839 225.505 428.588 221.405 428.456C217.843 428.341 214.065 428.629 210.554 428.368C209.644 428.3 208.773 427.633 207.96 427.599C206.832 427.551 205.569 428.035 204.267 427.924C200.164 427.574 196.341 427.516 192.194 427.53C185.08 427.555 177.69 426.241 170.869 424.357C167.725 423.488 164.458 423.441 161.336 422.51C157.733 421.434 154.433 419.558 151.117 417.823C148.519 416.463 144.868 415.831 145.926 412.393C147.054 408.722 148.857 405.164 150.2 401.558C151.368 398.424 152.113 395.37 154.644 393.012C157.146 390.681 160.342 389.117 163.008 386.968C168.817 382.286 174.881 379.487 181.76 376.714C188.694 373.918 195.02 369.797 202.304 367.938C209.067 366.212 215.583 363.898 222.211 362.129C229.461 360.195 236.939 359.493 244.252 357.773C251.261 356.124 258.142 353.699 265.243 352.444C272.927 351.086 280.681 350.387 288.336 348.73C294.826 347.326 301.018 344.574 307.541 343.477C309.447 343.156 311.508 342.96 313.352 342.361C315.077 341.801 316.311 340.667 318.054 340.207C322.08 339.147 325.578 337.701 329.389 335.978C330.991 335.253 331.879 334.362 333.268 333.463C334.924 332.392 337.046 332.012 338.905 331.421C342.486 330.284 346.053 329.165 349.266 327.168C352.596 325.099 355.656 322.759 358.721 320.341C360.019 319.317 361.408 318.289 362.738 317.331C364.378 316.152 366.06 315.939 367.897 315.168C375.867 311.824 379.357 303.974 383.699 297.143C384.106 302.675 389.399 305.242 392.659 299.981ZM279.39 203.086C278.841 200.608 278.057 197.053 281.145 196.914C281.344 196.905 283.39 197.416 283.601 197.552C284.653 198.229 285.051 200.485 285.452 201.581C285.806 202.547 286.051 203.834 286.836 204.564C287.611 205.285 288.42 205.302 289.143 206.166C291.343 208.794 292.982 213.309 294.312 216.482C292.507 216.045 293.819 217.256 293.051 217.946C291.852 219.024 292.225 218.829 290.52 218.996C287.549 219.286 286.194 218.495 283.871 216.645C281.901 215.075 281.268 214.048 280.134 211.782C278.513 208.546 279.304 206.484 279.394 203.084C278.581 203.832 277.768 204.58 276.955 205.329C277.207 204.348 277.459 203.368 277.711 202.388L279.39 203.086ZM364.849 7.45396C363.27 2.05011 360.321 1.6507 356.356 5.53328C355.727 4.14447 354.983 1.98794 353.155 2.00005C351.86 2.00889 351.63 3.05641 350.761 3.76331C349.712 4.61822 348.895 4.91829 347.563 5.14604C344.658 5.64276 341.958 5.47246 339.224 6.77138C336.733 7.95406 335.548 9.68145 333.63 11.4528C331.836 13.1099 330.527 12.0367 328.478 12.8754C326.201 13.808 325.182 16.568 324.741 18.8043C324.202 21.54 324.763 22.4118 322.862 24.3981C321.068 26.2721 320.116 28.6584 319.9 31.2333C319.697 33.6683 320.234 36.5581 321.64 38.6112C323.222 40.9239 324.861 40.2845 322.801 43.0317C321.765 44.4151 321.648 47.3597 320.401 48.2463C318.219 49.796 315.403 47.2961 313.476 46.667C310.858 45.8121 311.442 47.2421 310.293 48.9668C308.596 51.5146 307.587 48.8857 305.273 49.3946C304.422 49.5818 304.172 50.5002 303.873 50.6104C302.816 51.0023 303.939 50.857 302.731 50.4211C301.928 50.1319 302.478 48.5748 300.861 49.4635C299.737 50.0819 300.583 51.1814 300.072 51.9775C299.069 53.5427 297.578 52.6304 296.836 54.6504C296.098 56.6623 295.099 59.3304 294.689 61.5302C294.189 64.2024 295.362 66.5279 295.191 69.0561C295.011 71.6966 292.395 73.476 290.768 75.3271C282.787 84.3992 279.408 96.3315 276.805 107.865C274.384 118.584 278.643 130.719 287.006 137.984C291.245 141.667 296.542 143.247 300.613 147.3C302.42 149.099 302.396 149.669 300.243 151.144C298.479 152.351 296.861 153.89 294.992 154.845C290.186 157.298 285.504 159.05 280.138 160.08C277.432 160.6 274.614 160.392 271.876 160.294C269.027 160.193 265.81 160.597 263.024 160.249C260.563 159.942 258.617 157.955 256.041 158.166C255.031 158.249 254.412 158.635 253.384 158.543C252.034 158.424 250.899 157.71 249.464 157.746C247.281 157.802 245.122 157.838 243.012 157.918C240.616 158.007 237.799 157.351 235.414 157.765C233.151 158.158 230.459 160.194 228.49 161.38C226.063 162.843 223.15 164.536 220.977 166.323C218.925 168.013 217.477 170.701 215.876 172.799C214.183 175.018 212.224 177.001 210.522 179.21C203.819 187.908 196.759 198.62 194.663 209.57C194.132 212.34 194.161 215.077 194.561 217.86C194.918 220.345 197.251 221.29 197.322 223.962C197.465 229.37 194.874 235.64 193.37 240.765C191.785 246.162 189.8 251.403 187.342 256.478C186.391 258.443 185.184 260.068 184.586 262.104C183.854 264.59 182.741 266.949 181.926 269.457C174.88 291.15 163.958 311.344 155.996 332.708C151.717 344.188 147.193 355.569 142.528 366.903C140.232 372.482 137.745 377.891 135.249 383.385C134.921 384.107 134.687 385.499 134.116 385.995C133.15 386.835 134.001 386.357 132.649 386.214C131.483 386.091 130.272 385.559 129.094 385.362C126.253 384.885 123.343 384.803 120.478 384.521C117.185 384.195 114.286 384.025 110.992 384.185C107.926 384.333 104.907 383.422 101.855 383.22C95.3128 382.787 88.8608 383.016 82.3229 383.138C77.2286 383.233 70.7056 382.628 65.9918 384.993C61.2692 387.363 62.8986 392.819 66.9035 394.897C71.7024 397.388 77.3509 397.743 82.1202 400.281C78.541 401.382 74.674 401.098 71.028 401.958C68.6782 402.512 65.0456 402.922 63.2743 404.637C61.5591 406.299 61.7328 409.161 62.8648 411.11C64.2745 413.536 66.9859 413.955 69.4263 414.797C68.3268 416.254 66.6176 416.14 65.6282 418.06C64.3137 420.614 65.1355 423.342 66.7453 425.55C70.2386 430.344 77.1563 430.749 82.5568 431.432C87.8633 432.104 93.4361 432.265 98.7784 431.901C101.822 431.693 104.826 431.541 107.832 431.113C111.29 430.62 110.957 433.042 112.189 435.522C113.382 437.922 115.102 438.951 117.765 438.803C120.64 438.642 123.828 438.447 126.676 437.965C129.402 437.504 131.764 436.096 134.379 435.51C136.734 434.981 138.604 434.126 140.842 432.981C143.41 431.666 144.776 429.467 147.024 427.956C149.331 426.406 151.745 428.841 154.014 430.054C159.528 433 165.579 434.303 171.61 435.751C177.76 437.228 183.749 439.119 190.004 440.141C192.915 440.616 195.679 440.553 198.577 440.862C201.915 441.218 204.809 442.493 208.218 442.5C220.259 442.525 232.377 444.698 244.423 445.1C256.348 445.498 268.466 444.512 280.378 445.311C286.468 445.719 292.363 444.9 298.419 445.215C304.667 445.54 311.136 445.211 317.371 444.734C330.31 443.744 342.848 444.001 355.651 443.36C362.311 443.026 369.102 442.399 375.678 441.341C382.126 440.305 389.423 441.499 393.983 435.89C394.485 438.089 394.622 440.369 396.229 442.103C397.919 443.926 400.642 444.662 402.905 445.493C408.682 447.613 414.523 449.627 420.34 451.639C425.854 453.547 431.404 455.613 436.962 457.361C442.804 459.199 448.361 461.426 454.104 463.583C459.308 465.538 464.7 467.082 469.714 469.439C471.783 470.41 473.949 470.491 475.927 471.398C478.369 472.519 480.638 473.594 483.255 474.402C485.499 475.096 487.552 475.595 489.724 476.496C491.875 477.389 494.921 478.939 497.172 477.752C498.754 476.918 499.375 475.001 499.862 473.401C500.471 471.4 499.952 467.927 502.321 468.017C504.662 468.106 507.967 470.359 510.262 471.123C513.008 472.038 515.818 473.569 518.647 474.087C521.478 474.605 523.707 474.45 525.193 471.817C526.865 468.854 526.586 465.714 526.086 462.491C530.906 462.48 535.371 462.932 540.232 463.097C542.911 463.189 545.515 463.308 548.186 463.012C550.597 462.747 554.181 463.502 556.272 462.399C560.522 460.156 559.889 453.81 557.746 450.339C556.555 448.413 554.689 447.114 552.792 445.944C550.414 444.479 548.671 442.817 546.588 440.951C547.946 440.015 549.713 440.47 551.045 439.355C552.079 438.489 552.724 437.046 553.196 435.815C554.077 433.519 552.942 428.252 554.929 426.951C555.99 426.257 557.869 426.551 559.082 425.994C560.738 425.234 561.901 423.832 562.615 422.163C564.222 418.401 562.845 414.486 561.277 410.972C567.217 409.958 575.926 409.556 577.625 402.677C578.168 400.479 578.242 397.936 577.495 395.775C576.385 392.569 573.801 392.396 570.935 391.456C558.955 387.524 547.735 381.139 534.827 380.192C527.914 379.685 520.95 379.418 514.044 378.701C507.109 377.981 500.422 376.71 493.44 377.573C490.47 377.94 487.031 377.612 484.19 378.15C481.443 378.668 481.095 381.909 483.195 383.779C485.236 385.597 488.196 384.434 490.626 384.638C494.07 384.927 496.971 386.556 500.187 387.582C508.077 390.1 516.723 391.887 524.951 392.791C529.368 393.277 533.54 393.341 537.864 394.519C541.792 395.59 545.679 396.806 549.62 397.83C545.314 398.982 536.972 398.853 535.539 404.1C534.865 406.569 535.612 409.985 537.783 411.512C539.044 412.398 541.797 411.993 542.59 413.318C539.2 413.734 535.333 411.126 533.472 414.856C531.347 419.113 533.426 422.473 536.143 425.634C533.742 425.236 531.273 425.69 528.848 425.382C526.977 425.144 525.229 424.581 523.451 425.167C522.559 425.461 522.677 426.256 521.55 426.261C520.731 426.264 519.504 425.373 518.793 425.03C516.091 423.726 513.35 422.665 510.557 421.576C507.159 420.251 503.93 419.233 500.539 418.401C495.856 417.253 491.156 414.304 486.587 412.637C484.652 411.931 482.163 411.207 481.202 409.191C480.21 407.113 480.97 404.069 481.031 401.87C481.203 395.685 481.129 389.491 481.092 383.305C481.06 378.102 480.935 372.997 480.472 367.814C479.918 361.612 480.414 355.432 480.176 349.221C479.958 343.517 480.47 337.826 480.314 332.124C480.141 325.772 479.823 319.443 479.757 313.084C479.641 301.661 479.256 290.251 479.035 278.83C478.808 267.099 477.564 255.362 475.057 243.891C473.934 238.753 472.467 233.519 470.512 228.637C469.893 227.091 469.244 227.003 470.733 226.119C471.615 225.595 472.705 226.181 473.571 226.297C475.392 226.54 477.017 226.647 478.87 226.539C489.493 225.916 500.491 226.42 511.075 227.375C516.579 227.871 522.114 228.344 527.641 228.542C533.153 228.738 538.664 229.593 544.177 229.189C553.414 228.512 563.948 229.569 571.864 223.62C580.311 217.273 579.516 206.026 574.061 197.901C568.042 188.933 557.987 183.824 549.592 177.541C541.343 171.367 531.648 166.839 522.652 161.867C503.395 151.222 482.701 141.369 461.967 134.013C440.872 126.53 419.706 117.927 396.731 119.389C385.092 120.13 372.069 120.562 361.801 126.747C356.317 130.051 351.007 133.497 346.294 137.862C344.074 139.918 342.118 142.453 339.754 144.331C337.557 146.078 335.401 144.882 332.891 144.24C334.669 138.501 336.448 132.76 338.227 127.02C340.683 128.926 344.063 129.651 347.257 128.977C351.134 128.158 350.819 126.502 350.473 123.184C350.311 121.646 349.891 121.909 351.226 120.937C352.321 120.139 354.322 119.878 355.583 119.188C358.727 117.465 361.453 114.935 362.612 111.462C363.764 108.009 362.948 104.806 362.193 101.378C361.287 97.256 363.528 98.9793 366.091 97.0627C367.218 96.2193 367.622 95.4867 367.428 94.0939C367.27 92.9632 365.035 91.3352 365.135 90.2221C365.256 88.8806 366.003 89.0306 367.064 88.2217C368.235 87.3289 369.077 86.2341 369.594 84.8291C370.687 81.8534 368.458 80.0152 367.524 77.2714C367.072 75.9414 366.626 74.804 365.737 73.6848C364.161 71.702 363.549 71.7452 361.351 71.7628C359.5 71.777 359.52 71.6256 358.133 69.9516C357.595 69.3021 357.059 68.6567 356.594 67.9519C355.795 66.7415 355.573 66.9057 356.427 65.9602C359.031 63.0785 360.218 67.5774 362.53 67.3058C365.204 66.9915 365.684 62.7508 367.361 61.3342C368.534 60.3428 369.873 60.7206 371.155 60.0509C372.725 59.2325 373.04 57.672 374.058 56.3643C375.711 54.2422 378.111 53.8678 379.214 51.1753C379.84 49.6473 379.926 48.074 380.053 46.4541C380.234 44.1475 380.838 42.3242 381.509 40.1284C382.193 37.8888 382.025 36.2702 380.912 34.2096C379.766 32.0862 379.631 31.3718 379.92 28.9767C380.139 27.1534 380.207 25.5348 379.255 23.9081C378.229 22.155 378.016 21.24 377.681 19.2429C377.39 17.4919 376.834 16.2308 375.141 15.5043C373.987 15.0089 372.738 15.5604 371.923 14.4325C371.11 13.3065 371.327 11.5028 370.492 10.2586C369.129 8.22912 367.08 7.91148 364.849 7.45396Z" fill="#1E1559"/>
<path fill-rule="evenodd" clip-rule="evenodd" d="M297.398 97.6394C298.191 95.7789 300.84 87.1974 296.482 87.1533C293.024 87.1183 294.117 94.5651 294.074 96.3932C293.995 99.8149 290.415 100.301 289.076 103.405C287.514 107.024 288.592 111.345 291.027 114.295C292.886 116.546 296.464 119.126 299.018 116.37C301.858 113.303 299.129 111.582 297.14 109.672C294.261 106.904 299.771 106.1 301.201 103.855C303.632 100.039 300.963 98.0544 297.398 97.6394Z" fill="black"/>
<path fill-rule="evenodd" clip-rule="evenodd" d="M309.885 99.5751C310.282 101.342 310.161 105.376 312.08 106.328C315.299 107.925 316.043 100.223 316.018 98.5229C315.991 96.7144 315.365 92.4412 312.698 92.9947C309.705 93.6158 311.403 99.1568 309.885 99.5751Z" fill="black"/>
<path fill-rule="evenodd" clip-rule="evenodd" d="M297.844 121.944C293.085 122.092 293.352 127.768 297.916 127.966C302.163 128.15 302.058 121.814 297.844 121.944Z" fill="black"/>
<path fill-rule="evenodd" clip-rule="evenodd" d="M287.722 206.54C288.167 208.43 289.204 210.213 290.758 211.405C290.391 210.657 288.801 206.203 287.722 206.54Z" fill="black"/>
</svg>
