<svg width="624" height="234" viewBox="0 0 624 234" fill="none" xmlns="http://www.w3.org/2000/svg">
<mask id="mask0_11_22" style="mask-type:alpha" maskUnits="userSpaceOnUse" x="0" y="0" width="624" height="234">
<rect width="624" height="234" fill="#FAEEFF"/>
</mask>
<g mask="url(#mask0_11_22)">
<path fill-rule="evenodd" clip-rule="evenodd" d="M390.284 199.448C390.245 185.959 389.986 172.465 389.53 158.984C389.192 148.993 388.759 138.994 387.922 129.03C387.59 125.083 387.204 121.133 386.597 117.217C386.221 114.793 385.875 112.151 384.852 109.894C384.517 109.155 384.194 108.675 383.481 108.297C380.846 106.898 377.236 106.693 374.331 106.397C369.568 105.914 364.748 105.774 359.962 105.873C360.242 111.021 360.522 116.168 360.803 121.316C361.018 125.281 361.235 129.246 361.45 133.21C361.587 135.712 361.915 138.286 361.863 140.793C361.821 142.835 359.42 144.789 358.2 146.383C356.702 141.803 355.205 137.224 353.708 132.644C352.916 134.688 352.07 136.714 351.15 138.703C350.543 140.015 349.924 141.365 349.119 142.571C348.383 143.673 348.168 143.828 346.889 143.64C345.35 143.414 344.181 142.958 343.271 144.102C342.465 145.116 341.714 146.151 340.839 147.114C331.174 157.743 316.281 164.344 302.482 167.331C294.354 169.089 286.155 170.517 278.03 172.31C265.626 175.048 252.884 177.748 241.036 182.428C239.18 183.161 237.303 183.949 235.609 185.017C233.741 186.193 232.406 187.973 231.114 189.735C227.956 194.042 224.253 201.105 229.124 205.6C232.859 209.046 238.693 209.392 243.545 209.779C248.559 210.18 253.592 210.376 258.619 210.539C272.312 210.984 286.018 211.081 299.717 211.094C312.234 211.103 324.752 211.032 337.267 210.793C342.944 210.685 348.415 210.816 353.908 209.359C365.152 206.378 376.363 203.274 387.578 200.192C388.48 199.944 389.382 199.696 390.284 199.448Z" fill="#F22973"/>
<path fill-rule="evenodd" clip-rule="evenodd" d="M276.032 81.5612C276.557 82.107 275.706 82.5274 275.323 82.6466C275.385 82.12 275.639 81.8819 276.032 81.5612ZM348.027 184.175C348.229 183.698 348.531 183.305 349.083 183.531C349.996 183.903 348.149 184.17 348.027 184.175ZM268.641 107.24C268.264 107.287 266.72 107.19 267.197 106.35C267.75 105.376 268.511 106.938 268.641 107.24ZM296.322 98.6272C295.51 97.9316 294.783 96.8681 294.774 95.7631C295.539 96.2708 295.948 97.842 296.322 98.6272ZM276.862 84.6607C276.186 84.6949 276.805 83.7433 276.798 83.5537C276.784 83.1469 276.404 82.7977 276.465 82.3152C276.468 82.2956 277.149 80.7703 277.329 80.6733C277.834 80.401 278.128 80.9001 278.582 81.0545C279.254 81.2833 279.582 81.0814 280.304 81.1518C280.94 81.2139 281.475 81.5233 282.14 81.523C282.298 81.523 282.472 81.1883 282.654 81.2069C282.936 81.2358 282.963 81.596 283.163 81.614C283.865 81.6764 283.906 81.3975 284.561 81.1355C285.65 80.6999 286.414 81.7132 286.389 82.9109C286.357 84.4973 284.702 85.1458 283.434 85.5103C281.799 85.9802 280.89 86.2634 279.229 85.9675C278.749 85.8815 278.26 86.0346 277.881 85.7033C277.372 85.2577 277.642 84.3177 277.06 83.8834C276.994 84.1424 276.928 84.4017 276.862 84.6607ZM334.393 147.78C334.257 148.817 334.542 149.351 333.536 150.045C332.943 150.456 332.196 150.726 331.567 151.137C330.657 151.732 329.292 152.114 328.484 152.799C327.971 153.234 327.88 154.464 327.168 154.613C326.563 154.74 325.842 153.646 325.634 153.154C325.404 152.608 325.558 152.159 325.464 151.614C325.402 151.249 325.128 151.173 325.176 150.743C325.226 150.292 325.663 150.054 325.853 149.697C326.023 149.376 326.075 148.922 326.208 148.669C326.522 148.073 327.22 146.809 327.842 146.415C328.366 147.79 328.763 146.396 329.489 145.992C329.76 145.985 330.031 145.983 330.302 145.986C330.443 145.852 330.586 145.721 330.731 145.592C331.066 145.561 331.618 145.74 331.92 145.833C332.086 145.796 332.254 145.773 332.425 145.767C332.651 145.833 332.741 145.959 332.694 146.145C332.595 146.1 333.142 146.432 333.194 146.468C334.274 147.201 335.265 147.494 335.465 149.055C335.108 148.63 334.75 148.205 334.393 147.78ZM325.969 92.0474C327.124 89.0544 326.758 86.4175 326.646 83.2847C326.62 82.5493 326.463 80.9715 327.232 80.4834C328.191 79.8748 328.989 81.2514 329.49 81.8211C330.35 82.799 331.55 83.6968 331.991 84.9658C332.38 86.0854 331.979 87.459 331.682 88.5683C331.362 89.7637 330.966 91.3707 329.878 92.0328C328.716 92.7397 327.14 92.6703 325.969 92.0474ZM285.261 155.7C285.427 153.406 288.618 154.21 290.053 154.917C291.125 155.446 291.726 156.252 292.401 157.211C293.168 158.3 293.42 158.604 293.359 159.898C293.302 161.079 293.368 162.267 293.072 163.441C292.922 164.038 292.889 164.143 292.493 164.554C292.493 164.554 291.808 165.236 291.999 165.127C291.113 165.632 289.793 165.717 288.753 165.795C287.267 165.907 286.909 165.927 286.306 164.515C286.19 164.761 286.074 165.006 285.958 165.252C285.921 165.078 285.508 163.015 285.603 163.035C285.77 163.071 285.949 163.551 286.031 163.673C285.979 162.723 285.302 162.012 284.974 161.164C284.673 160.385 284.549 159.503 284.316 158.696C284.091 157.916 283.839 156.831 284.057 156.021C284.346 154.945 284.438 155.252 285.261 155.7ZM265.999 105.133C265.48 105.621 265.942 106.411 265.875 107.016C265.17 106.584 265.415 106.353 265.142 105.65C264.966 105.197 264.448 104.331 263.996 105.073C263.805 105.385 264.434 105.813 264.009 105.996C263.758 106.104 263.092 105.266 262.97 105.134C262.131 104.225 261.593 103.296 261.524 102.056C261.505 101.716 261.51 100.87 261.63 100.675C261.979 100.112 262.908 100.445 262.828 99.4168C262.458 99.6008 262.089 99.7844 261.719 99.9683C261.604 98.8118 262.853 98.1275 263.374 97.2098C263.969 96.1642 264.354 95.4036 265.323 94.5041C265.769 94.0887 266.497 93.2331 267.077 93.0332C267.528 92.8778 267.711 93.1072 268.166 93.1115C269.118 93.1205 270.548 92.8632 269.132 93.919C269.419 94.0542 269.798 94.1382 270.043 94.351C270.225 94.5087 270.293 94.9593 270.506 95.0672C270.966 95.2996 271.311 94.8461 271.83 95.3624C272.377 95.9066 271.817 96.2496 271.939 96.4893C272.29 97.1789 272.772 96.8359 272.756 97.8871C272.73 99.6203 271.732 101.672 271.195 103.292C270.879 104.244 270.526 105.732 269.195 105.342C269.245 105.8 269.361 106.244 269.064 106.653C268.786 106.326 268.686 105.608 268.499 105.224C268.222 104.658 267.773 104.112 267.455 103.562C267.502 104.431 267.596 104.673 268.187 105.331C267.41 105.427 266.452 106.05 265.999 105.133ZM322.895 130.321C322.182 129.781 323.119 129.178 321.711 129.485C321.352 129.563 321.713 129.983 321.171 129.998C320.967 130.004 320.465 129.5 320.323 129.382C320.193 129.274 319.61 128.488 319.517 128.437C319.673 128.522 318.809 128.187 319.079 128.404C318.564 127.989 318.172 127.307 317.94 126.478C317.372 124.446 317.453 122.018 318.63 120.272C319.124 119.54 319.518 118.647 320.261 118.156C321.269 117.49 322.936 117.093 324.063 116.67L323.698 115.784C326.79 117.181 328.922 120.443 329.182 123.758C329.276 124.95 329.616 126.464 328.89 127.521C328.132 128.624 326.221 129.784 325.166 128.559C325.326 129.242 324.856 130.058 324.134 130.234C323.861 130.3 323.603 130.102 323.482 130.119C323.329 130.141 323.004 130.343 322.895 130.321ZM351.277 61.1227C353.355 60.8753 353.033 64.6279 352.643 65.7548C352.329 66.6639 351.203 67.929 350.607 68.7209C349.897 69.6642 348.95 70.3684 347.943 70.9704C347.598 71.1766 347.345 71.2426 347.047 71.3578C346.941 71.2526 346.815 71.1978 346.667 71.1932C346.537 71.4096 346.353 71.5717 346.116 71.6789C345.36 71.914 344.11 71.8781 343.36 71.8466C342.15 71.7955 340.737 71.0992 339.533 70.8671C338.971 70.7585 338.658 70.7147 338.16 70.4225C337.91 70.2754 337.419 69.1415 337.349 70.2552C337.039 70.0643 337.137 69.7502 336.91 69.6104C336.693 69.4769 336.001 69.3484 335.743 69.0545C335.383 68.6448 334.905 67.7102 334.654 67.1504C334.493 66.7911 334.152 65.8654 334.179 65.4915C334.236 64.6996 334.491 64.8819 335.168 64.5539C335.62 64.3347 335.881 64.1511 336.332 64.0299C336.385 64.016 336.51 64.2859 336.599 64.2627C336.754 64.2225 336.816 64.0439 336.925 64.009C337.751 63.7414 338.725 62.9482 339.745 63.0249C340.186 63.0581 340.599 63.7294 340.825 63.6952C341.173 63.6424 340.999 62.9279 341.242 62.6689C341.861 62.0095 343.927 62.1161 344.729 62.0019C346.91 61.6911 349.093 61.4012 351.277 61.1227ZM278.503 118.161C278.304 116.604 278.059 115.058 279.766 114.292C280.407 114.004 280.94 114.108 281.597 114.03C282.451 113.929 282.327 113.561 282.96 114.477C283.311 114.027 283.078 113.881 283.651 113.828C283.888 113.806 284.921 114.478 285.19 114.588C286.31 115.046 287.737 115.004 288.583 115.928C289.404 116.827 290.068 117.691 290.415 118.917C290.589 119.535 290.704 120.175 290.92 120.781C291.154 121.437 291.679 122.002 291.858 122.658C292.59 125.327 289.48 127.764 287.296 128.472C287.015 128.414 286.739 128.432 286.468 128.526C286.278 128.652 286.107 128.8 285.956 128.971C285.268 129.187 285.105 129.116 284.406 128.8C283.253 128.281 281.906 128.104 281.034 129.32C280.764 127.904 279.782 128.746 279.309 127.835C279.048 127.332 279.618 125.94 279.288 125.578C278.727 124.962 276.978 126.056 277.023 124.619C277.04 124.096 277.635 123.922 277.841 123.509C278.211 122.766 278.006 121.98 277.491 121.327C277.443 121.439 277.257 122.18 277.01 121.984C276.356 121.463 277.431 120.644 277.666 120.36C278.053 119.892 278.405 119.535 278.319 118.882C278.265 118.477 277.615 118.055 277.639 117.662C277.656 117.362 278.459 118.126 278.503 118.161ZM308.883 134.97C308.839 136.062 309.536 136.204 309.996 136.955C310.121 137.159 310.129 137.649 310.303 137.949C310.63 138.511 310.856 138.546 310.961 139.094C310.949 139.032 310.786 139.636 310.782 139.705C310.737 140.475 311.273 141.091 311.126 141.938C310.919 143.13 310.013 144.457 309.375 145.448C307.931 147.689 305.914 149.425 303.15 149.584C301.303 149.69 296.96 148.952 296.564 147.021C296.669 146.798 296.757 146.567 296.829 146.33C296.871 145.987 296.744 145.753 296.447 145.628C296.22 145.568 296.041 145.441 295.913 145.248C295.975 145.052 296.078 144.879 296.221 144.73C296.17 144.472 295.735 144.459 295.741 144.292C295.755 143.982 296.027 143.205 296.1 142.851C296.227 142.241 296.297 141.659 296.408 141.044C296.498 140.547 296.803 140.301 296.882 139.845C296.936 139.533 296.619 139.251 296.646 138.921C296.854 138.735 297.023 138.518 297.153 138.27C297.167 138.012 297.104 137.773 296.962 137.553C297.273 135.382 300.344 133.559 302.529 133.509C303.702 133.483 305.706 133.398 306.762 134.011C307.468 134.421 307.941 135.875 308.883 134.97ZM356.002 211.475C357.545 210.78 358.926 210.039 360.579 209.701C361.772 209.457 362.796 208.787 363.994 208.568C366.65 208.084 369.517 207.638 372.064 206.707C374.795 205.708 377.768 205.35 380.567 204.52C381.945 204.112 383.147 203.844 384.573 203.765C385.961 203.688 387.389 202.914 388.776 203.044C389.937 203.154 390.764 204.045 391.672 204.68C392.849 205.504 394.132 206.214 395.397 206.895C396.74 207.617 398.235 207.979 399.56 208.683C400.66 209.267 401.741 209.838 402.875 210.374C408.901 213.221 414.72 215.881 420.154 219.843C418.402 220.376 416.408 219.845 414.667 219.657C412.191 219.389 409.725 219.188 407.274 218.73C405.84 218.462 403.041 217.439 401.672 218.225C400.469 218.916 400.561 220.689 400.388 221.875C399.252 221.436 398.121 220.987 396.976 220.575C396.074 220.251 394.612 219.361 393.694 219.33C391.135 219.243 391.415 222.833 391.664 224.481C390.169 223.973 388.748 223.619 387.299 222.99C386.137 222.486 384.855 222.375 383.727 221.773C380.923 220.279 377.813 219.343 374.811 218.282C371.425 217.085 368.046 215.866 364.688 214.589C363.308 214.064 361.947 213.371 360.535 212.946C359.015 212.487 357.459 212.142 356.002 211.475ZM322.589 74.5789C322.803 76.5983 322.582 78.6346 322.521 80.6564C322.448 83.0238 322.445 85.3659 322.139 87.7193C321.586 91.965 320.807 96.2117 319.287 100.229C317.903 103.888 315.567 106.475 311.612 107.266C308.059 107.976 304.596 106.758 302.334 103.919C299.989 100.975 299.268 97.2563 297.894 93.844C297.223 92.1755 296.725 90.4978 296.165 88.7905C295.829 87.7678 294.164 84.832 294.64 83.7815C295.105 82.7558 297.85 82.4052 298.801 81.8351C300.31 80.929 301.707 79.1124 302.859 77.785C303.631 76.8955 304.082 76.2377 304.602 77.6488C305.228 79.3445 304.774 81.3035 305.359 82.9484C305.933 84.5657 307.188 82.9703 307.317 81.9161C307.564 79.892 307.266 77.5927 307.171 75.5584C306.992 71.7672 306.744 67.3824 303.325 65.0449C300.085 62.8296 296.569 62.1403 294.77 58.3157C294.049 56.7823 293.201 55.176 293.651 53.4604C294.172 51.4805 294.943 49.4099 295.701 47.507C297.157 43.8527 299.438 40.6709 301.432 37.3157C301.701 36.8631 301.757 36.2831 302.346 36.1552C303.011 36.0105 304.564 37.1424 305.209 37.325C306.966 37.8217 308.536 36.7911 310.086 37.9575C311.33 38.8938 312.384 40.2412 314.062 40.3392C314.785 40.3813 315.765 39.7362 316.388 39.8902C317.181 40.0865 317.411 41.2702 317.716 41.9352C318.419 43.4612 319.202 45.3734 320.36 46.6209C320.753 47.0442 321.448 47.175 321.784 47.5691C322.175 48.027 321.957 48.9567 322.517 49.04C322.842 49.0882 323.101 48.6482 323.374 48.5433C323.837 48.3647 324.292 48.3305 324.789 48.3451C325.707 48.372 326.66 48.5938 327.467 49.0334C329.344 50.0554 330.038 51.6096 327.782 52.5443C326.878 52.9192 325.896 53.1981 324.918 53.2851C323.844 53.3803 322.758 53.0453 321.697 53.1761C319.65 53.4282 319.02 55.1401 318.49 56.8992C317.762 59.3191 317.173 61.7691 316.355 64.1637C315.687 66.1201 314.472 68.1086 314.122 70.1522C313.906 71.4077 314.189 71.314 315.027 72.0903C315.665 72.6813 316.049 73.4573 316.741 74.0503C318.669 75.7035 320.349 75.2629 322.589 74.5789ZM198.118 192.112C198.177 191.681 207.318 192.506 208.356 192.399C210.131 192.216 212.02 192.702 213.854 192.64C215.476 192.585 217.815 191.955 219.154 192.742C219.65 193.034 219.662 193.379 220.446 193.23C221.174 193.092 221.941 192.577 222.486 192.1C224.003 190.773 224.93 188.684 225.922 186.962C227.908 183.517 229.609 179.948 231.257 176.325C234.652 168.862 237.919 161.357 241.31 153.893C242.987 150.201 244.605 146.503 246.414 142.879C247.186 141.333 248.034 139.636 248.628 138.016C249.276 136.25 250.127 134.591 250.708 132.78C251.939 128.944 253.41 125.165 254.352 121.22C254.591 120.222 254.68 119.176 254.967 118.191C255.274 117.14 255.9 116.241 256.293 115.222C256.694 114.185 256.695 113.26 256.894 112.199C257.093 111.143 257.578 110.113 257.928 109.101C259.728 110.186 261.777 111.174 263.434 112.464C265.063 113.733 267.441 114.796 266.759 117.091C266.138 119.178 265.04 121.097 264.387 123.182C263.653 125.52 262.753 127.806 262.045 130.15C260.527 135.182 259.198 140.273 257.838 145.35C257.199 147.736 256.401 150.126 255.933 152.552C255.689 153.814 255.729 154.942 255.27 156.165C254.822 157.36 254.397 158.529 254.029 159.753C253.373 161.93 252.748 164.113 252.023 166.268C251.63 167.434 251.316 168.614 251.038 169.812C250.869 170.536 250.294 171.929 250.455 172.679C250.92 174.838 253.775 172.638 254.458 171.757C256.044 169.713 257.181 167.212 258.368 164.924C263.136 155.734 265.48 145.821 267.938 135.817C268.584 133.187 269.208 130.581 269.934 127.978C270.695 125.251 270.917 122.399 271.815 119.687C272.743 116.885 273.689 114.185 274.371 111.302C274.686 109.967 275.02 108.633 275.299 107.291C275.449 106.574 275.455 105.255 276.41 105.112C275.795 109.611 275.568 114.881 273.775 119.1C272.15 122.926 270.859 128.168 272.502 132.231C273.292 134.184 274.541 135.853 275.481 137.714C276.532 139.795 277.217 142.184 277.921 144.401C279.379 148.992 279.809 153.821 280.785 158.518C281.297 160.979 281.307 162.663 280.863 165.085C280.72 165.865 280.972 166.485 280.315 166.985C279.655 167.488 278.127 167.59 277.31 167.878C274.832 168.755 272.701 169.397 270.076 169.685C267.597 169.956 265.268 170.449 262.907 171.261C258.652 172.724 254.227 173.818 250.045 175.285C247.758 176.087 245.553 177.517 243.354 178.542C241.067 179.609 238.641 180.306 236.485 181.637C234.162 183.071 231.866 184.736 229.665 186.344C227.626 187.832 226.649 189.683 225.801 192C224.187 196.405 220.119 202.121 223.877 206.566C222.56 207.138 221.052 207.365 219.79 207.977C219.354 208.189 219.225 208.395 218.729 208.517C218.081 208.676 217.248 208.549 216.584 208.592C215.625 208.654 213.603 209.344 212.667 209.065C211.792 208.804 211.754 207.536 211.126 206.91C210.194 205.981 209.3 206.58 208.16 206.477C206.472 206.324 204.79 206.102 203.101 205.955C199.692 205.657 196.293 205.587 192.873 205.595C194.653 203.62 201.201 207.216 201.361 203.636C201.548 199.495 196.492 200.737 194.035 199.542C196.269 199.608 198.502 199.63 200.732 199.807C202.084 199.914 204.685 200.562 205.45 199.075C206.272 197.477 204.949 195.628 203.71 194.793C201.996 193.639 200.015 192.902 198.118 192.112ZM384.413 136.887C384.823 137.704 384.188 138.033 383.901 138.691C383.504 139.601 383.896 139.42 383.976 140.276C384.029 140.85 383.872 141.121 383.905 141.659C383.918 141.888 384.244 142.191 384.282 142.452C384.351 142.919 384.098 143.134 384.126 143.473C384.139 143.642 383.921 143.672 383.966 143.916C384.004 144.128 384.495 144.278 384.523 144.412C384.689 145.188 384.224 144.8 384.153 145.167C384.034 145.781 384.38 145.887 384.576 146.451C384.915 147.425 384.587 147.879 384.378 148.792C384.201 149.562 384.464 149.567 384.564 150.303C384.625 150.749 384.496 150.803 384.498 151.218C384.504 152.65 384.824 154.14 384.838 155.658C384.869 159.25 385.173 162.789 385.219 166.373C385.264 169.893 385.52 173.458 385.674 177.023C385.749 178.761 385.925 180.494 386.001 182.232C386.09 184.251 385.892 186.26 386.062 188.271C386.217 190.099 386.124 191.932 386.2 193.765C386.235 194.635 386.683 197.266 386.112 197.851C385.37 198.61 382.365 197.802 381.392 197.855C379.565 197.955 377.638 198.323 375.847 198.7C371.604 199.594 367.35 200.732 363.105 201.534C359.565 202.202 356.244 203.903 352.95 205.342C353.251 202.315 353.784 199.362 353.883 196.311C353.971 193.57 353.713 190.842 353.774 188.103C353.903 182.26 354.235 176.482 354.104 170.64C353.971 164.699 353.492 158.633 352.665 152.749C352.285 150.045 351.988 147.165 351.021 144.596C350.583 143.432 349.869 142.579 350.165 141.299C350.487 139.912 351.121 138.462 351.59 137.118C351.934 139.308 353.149 153.901 358.139 149.514C360.087 147.801 360.989 144.09 361.425 141.658C362.013 138.371 361.802 134.916 361.787 131.589C361.756 124.812 361.011 117.897 360.327 111.156C360.191 109.81 359.51 108.606 361.238 108.671C362.857 108.731 364.521 109.115 366.132 109.304C367.525 109.467 368.925 109.069 370.253 109.247C370.862 109.329 371.401 109.69 372.015 109.781C372.791 109.896 373.602 109.727 374.384 109.728C375.7 109.73 377.226 109.723 378.319 110.542C379.467 111.402 380.451 112.826 380.837 114.203C381.222 115.58 381.119 117.129 381.362 118.505C381.568 119.664 381.612 121.094 381.804 122.411C382.637 121.367 382.584 122.873 382.593 123.319C382.603 123.857 383.182 124.945 383.033 125.26C382.936 125.464 382.29 125.356 382.235 125.516C382.122 125.845 382.512 125.983 382.519 126.229C382.546 127.187 382.491 128.176 382.494 129.142C382.719 128.969 382.946 128.797 383.172 128.624C383.291 128.882 383.328 129.219 383.442 129.48C383.493 129.599 383.97 129.566 383.993 129.8C384.022 130.105 383.354 130.692 383.226 131.026C382.995 131.622 382.848 131.386 383.239 132.029C383.689 132.768 384.426 132.809 384.308 133.884C384.07 133.701 383.862 133.489 383.684 133.247C383.572 133.888 383.851 134.454 383.885 135.093C383.907 135.51 383.399 137.177 383.782 137.456C383.943 137.574 384.374 136.932 384.413 136.887ZM350.747 84.2908C350.744 82.8837 352.798 80.7195 353.505 79.5418C354.632 77.6628 355.844 75.9618 357.277 74.3013C358.716 72.6332 360.253 71.0431 361.648 69.3384C362.226 68.6335 362.655 67.8101 363.244 67.1198C363.98 66.2578 364.135 66.5228 365.047 66.5457C365.74 66.5633 366.193 66.4454 366.833 66.6513C367.174 66.7605 367.394 66.9229 367.76 67.0235C367.989 67.0869 368.29 66.8648 368.598 66.972C369.357 67.2367 369.616 67.914 370.532 67.9001C370.642 67.8984 370.994 67.6378 371.045 67.6524C371.107 67.6703 371.392 67.8878 371.382 67.8855C371.443 67.8994 371.425 68.3307 371.588 68.4054C371.866 68.5336 372.064 68.1039 372.317 68.1318C372.957 68.2022 373.433 68.863 374.141 69.023C375.051 69.2285 375.838 68.9287 376.707 69.352C377.401 69.6901 377.752 70.459 378.33 69.6642C378.853 70.7745 379.815 70.4381 380.777 70.906C382.118 71.5584 383.571 71.8891 384.999 72.3818C387.936 73.3955 390.894 74.4341 393.758 75.6543C399.697 78.1857 405.449 80.9927 411.256 83.7141C416.935 86.3756 422.188 89.9048 427.299 93.4575C429.805 95.199 432.296 97.0285 434.251 99.4135C434.843 100.136 435.832 101.258 435.433 102.275C435.011 103.35 433.226 104.017 432.216 104.224C430.893 104.495 429.438 104.585 428.091 104.675C426.636 104.773 425.073 104.821 423.634 104.801C420.796 104.762 418.013 104.486 415.162 104.423C411.919 104.351 408.74 103.667 405.504 103.627C401.946 103.582 398.429 103.136 394.866 103.275C387.998 103.544 381.136 103.743 374.248 103.776C373.391 103.78 372.551 103.676 371.709 103.826C371.026 103.947 370.533 104.186 369.8 104.133C369.118 104.084 368.486 103.786 367.79 103.75C366.877 103.702 365.942 103.853 365.024 103.834C361.926 103.77 358.251 103.489 355.264 104.469C354.077 104.858 352.586 105.992 353.309 107.462C354.024 108.915 355.851 107.73 356.982 108.391C358.036 109.006 357.451 110.685 357.377 111.688C357.236 113.59 357.211 115.482 357.261 117.388C357.372 121.597 357.628 125.801 357.677 130.011C357.701 132.056 357.671 134.1 357.563 136.142C357.468 137.945 357.532 139.907 356.915 141.627C356.057 139.479 355.952 137.108 355.612 134.845C355.244 132.396 354.883 129.947 354.533 127.495C354.325 126.039 354.109 117.293 351.259 118.435C348.229 119.649 349.283 126.378 349.145 128.797C349.015 131.081 348.782 133.355 348.265 135.586C348.024 136.623 347.362 141.027 346.033 141.311C345.058 136.703 344.027 132.102 343.31 127.444C342.994 125.388 342.714 123.317 342.588 121.24C342.522 120.158 342.602 117.56 341.04 117.434C336.446 117.064 339.528 136.42 336.095 138.855C334.825 136.329 334.329 133.695 333.984 130.895C333.827 129.621 333.492 128.186 333.69 126.907C333.95 125.235 334.232 124.21 333.883 122.481C333.597 121.067 333.392 119.614 333.062 118.211C332.824 117.201 332.203 116.707 331.875 115.796C330.951 113.23 331.011 109.981 330.643 107.287C330.27 104.559 329.877 101.877 330.36 99.1246C330.839 96.399 332.832 95.5324 335.099 94.4071C337.383 93.2736 339.587 92.0278 342.095 91.5277C344.911 90.9666 347.496 90.4221 350.379 90.273C355.466 90.0104 360.452 90.3152 365.516 90.5562C371.148 90.8245 376.784 90.4901 382.413 90.4128C385.149 90.3753 387.936 90.3225 390.667 90.367C392.036 90.3895 393.364 90.6269 394.741 90.5924C395.915 90.5632 398.209 90.9251 399.237 90.3009C400.043 89.8111 400.042 88.7261 399.361 88.1281C398.687 87.5354 397.364 87.5042 396.522 87.3212C393.831 86.7372 391.149 86.4018 388.438 85.933C386.878 85.6631 385.568 85.5734 384.004 85.6495C382.485 85.7238 380.935 85.2895 379.4 85.2158C376.145 85.0604 372.871 84.9064 369.614 84.8556C363.303 84.7573 357.064 84.2755 350.747 84.2908ZM347.454 146.024C347.961 146.22 347.832 148.645 347.878 149.13C348.016 150.58 348.166 152.029 348.295 153.48C348.593 156.831 348.818 160.189 349.001 163.547C349.184 166.906 349.401 170.276 349.39 173.64C349.385 175.073 349.321 176.504 349.35 177.936C349.372 179.007 349.843 181.011 348.929 181.771C348.316 182.282 347.115 182.052 346.399 182.005C344.984 181.912 343.565 181.817 342.147 181.807C340.508 181.794 338.88 181.97 337.24 181.928C336.611 181.911 335.908 181.806 335.286 181.925C334.834 182.012 334.342 182.401 333.919 182.418C333.607 182.43 333.204 182.121 332.86 182.06C332.324 181.966 331.695 182.075 331.15 182.069C330.762 182.064 329.827 181.889 329.471 182.118C329.123 182.341 329.257 182.849 328.939 182.962C328.818 183.005 328.128 182.185 328.01 182.133C327.482 181.903 326.711 182.082 326.155 182.089C324.552 182.107 322.948 182.005 321.344 182.021C319.781 182.035 318.273 182.217 316.772 182.399C315.78 182.519 314.641 182.218 313.588 182.129C311.904 181.988 310.213 182.015 308.525 182.048C307.678 182.065 306.83 182.079 305.982 182.1C305.782 182.105 305.385 182.027 305.191 182.084C304.414 182.318 304.907 182.331 304.357 182.686C305.078 182.22 302.744 181.917 302.61 181.916C301.551 181.908 300.58 182.428 299.699 182.326C298.744 182.216 297.769 181.626 296.718 181.809C296.227 181.895 295.82 182.444 295.455 182.507C294.865 182.609 294.663 182.183 294.123 181.97C293.043 181.544 291.791 181.915 290.665 181.841C289.083 181.738 287.561 181.734 285.973 181.713C283.077 181.675 280.181 181.627 277.284 181.655C274.617 181.681 272.474 182.751 269.822 182.693C268.43 182.662 267.016 182.541 265.626 182.574C264.433 182.603 263.824 183.492 264.726 184.536C265.335 185.243 266.455 185.317 267.315 185.446C268.591 185.639 269.844 185.915 271.115 186.128C274.139 186.635 277.304 186.619 280.363 186.711C292.837 187.087 305.314 188.196 317.795 188.313C323.276 188.364 328.815 188.826 334.278 188.611C337.326 188.491 340.305 189.146 343.377 188.675C344.672 188.476 345.945 188.356 347.25 188.262C347.42 188.25 348.417 188.058 348.606 188.143C349.162 188.397 348.851 188.165 349.085 188.808C349.468 189.865 349.308 191.55 349.306 192.675C349.302 194.467 349.215 196.264 349.154 198.055C349.096 199.772 349.001 201.487 348.899 203.202C348.857 203.912 349.136 206.58 348.589 207.108C348.165 207.518 346.185 207.324 345.649 207.21C345.006 207.072 344.946 207.038 344.25 207.12C343.737 207.181 343.554 207.166 343.04 207.11C341.568 206.951 339.882 206.923 338.405 207.189C337.258 207.395 336.053 206.851 335.614 208.057C334.872 207.149 334.889 207.672 334.074 207.855C333.234 208.042 333.491 207.5 332.779 207.425C332.277 207.372 331.83 207.769 331.287 207.773C330.391 207.778 329.585 207.541 328.627 207.661C324.396 208.189 320.105 208.663 315.839 208.703C314.069 208.719 312.32 208.746 310.559 208.8C309.661 208.827 308.812 208.921 307.929 209.027C307.096 209.127 306.442 208.927 305.577 208.883C303.664 208.786 301.656 209.077 299.742 209.182C298.842 209.231 297.716 209.076 296.853 209.194C295.985 209.313 295.92 209.972 295.23 210.353C295.121 208.216 290.652 209.585 289.488 209.588C289.032 209.589 288.473 209.395 287.922 209.43C287.009 209.488 286.09 209.503 285.176 209.536C283.718 209.587 282.31 209.675 280.925 209.498C279.116 209.268 277.151 209.514 275.324 209.502C273.335 209.49 271.345 209.463 269.356 209.398C267.342 209.332 265.331 209.209 263.316 209.144C261.566 209.087 259.71 209.229 257.985 209.1C257.538 209.067 257.11 208.739 256.71 208.722C256.156 208.699 255.536 208.937 254.896 208.882C252.88 208.71 251.002 208.682 248.965 208.689C245.47 208.701 241.839 208.055 238.488 207.13C236.943 206.703 235.338 206.68 233.804 206.222C232.034 205.694 230.412 204.772 228.783 203.92C227.507 203.252 225.713 202.941 226.233 201.252C226.787 199.449 227.673 197.7 228.333 195.929C228.907 194.389 229.273 192.888 230.516 191.73C231.746 190.585 233.316 189.816 234.625 188.761C237.479 186.46 240.459 185.085 243.838 183.723C247.245 182.349 250.353 180.324 253.932 179.411C257.254 178.563 260.456 177.426 263.712 176.557C267.274 175.607 270.948 175.262 274.541 174.417C277.984 173.607 281.365 172.416 284.854 171.799C288.629 171.132 292.439 170.788 296.199 169.974C299.388 169.284 302.43 167.932 305.635 167.393C306.571 167.236 307.584 167.139 308.49 166.845C309.337 166.57 309.944 166.013 310.8 165.787C312.778 165.266 314.496 164.556 316.369 163.709C317.156 163.353 317.592 162.915 318.275 162.474C319.088 161.947 320.131 161.76 321.044 161.47C322.803 160.911 324.556 160.362 326.134 159.381C327.771 158.364 329.274 157.214 330.78 156.026C331.418 155.523 332.1 155.018 332.753 154.548C333.559 153.969 334.385 153.864 335.288 153.485C339.204 151.842 340.918 147.985 343.051 144.629C343.252 147.347 345.852 148.608 347.454 146.024ZM291.804 98.4187C291.534 97.2015 291.15 95.4547 292.667 95.3865C292.764 95.3823 293.769 95.6333 293.873 95.7C294.39 96.0324 294.585 97.1411 294.783 97.6793C294.956 98.1541 295.077 98.7863 295.463 99.1449C295.843 99.4992 296.241 99.5078 296.596 99.9321C297.677 101.223 298.482 103.441 299.136 105C298.249 104.786 298.893 105.381 298.516 105.72C297.927 106.249 298.11 106.153 297.273 106.235C295.813 106.378 295.147 105.989 294.006 105.08C293.038 104.309 292.727 103.804 292.17 102.691C291.373 101.102 291.762 100.089 291.806 98.4177C291.407 98.7853 291.007 99.1528 290.608 99.5207C290.732 99.0389 290.856 98.5572 290.98 98.0757L291.804 98.4187ZM333.79 2.30431C333.015 -0.35061 331.566 -0.546841 329.618 1.36068C329.309 0.678355 328.943 -0.381157 328.045 -0.375206C327.409 -0.370864 327.296 0.143784 326.869 0.491089C326.354 0.911108 325.952 1.05853 325.298 1.17042C323.871 1.41447 322.544 1.3308 321.201 1.96896C319.977 2.55001 319.395 3.39869 318.453 4.26894C317.571 5.08308 316.928 4.55582 315.921 4.96787C314.802 5.42607 314.302 6.78208 314.085 7.88078C313.821 9.22484 314.096 9.65316 313.162 10.629C312.281 11.5497 311.813 12.7221 311.707 13.9872C311.607 15.1835 311.871 16.6032 312.562 17.6119C313.339 18.7482 314.144 18.4341 313.132 19.7838C312.623 20.4634 312.566 21.9101 311.953 22.3457C310.881 23.1071 309.497 21.8789 308.551 21.5698C307.264 21.1497 307.551 21.8523 306.987 22.6997C306.153 23.9514 305.658 22.6598 304.52 22.9098C304.102 23.0018 303.98 23.453 303.833 23.5072C303.314 23.6997 303.865 23.6284 303.272 23.4142C302.877 23.2721 303.148 22.5071 302.353 22.9437C301.801 23.2475 302.217 23.7877 301.965 24.1789C301.472 24.9478 300.74 24.4996 300.376 25.492C300.013 26.4805 299.522 27.7914 299.321 28.8721C299.075 30.185 299.652 31.3275 299.567 32.5696C299.479 33.8669 298.194 34.7411 297.394 35.6505C293.473 40.1077 291.813 45.9701 290.534 51.6365C289.345 56.9029 291.437 62.8648 295.546 66.4342C297.629 68.2437 300.231 69.0197 302.231 71.0112C303.119 71.8951 303.107 72.175 302.05 72.8995C301.183 73.4928 300.388 74.2488 299.47 74.7177C297.109 75.9229 294.808 76.7839 292.172 77.2899C290.842 77.5452 289.458 77.443 288.113 77.3952C286.713 77.3454 285.132 77.5439 283.764 77.3729C282.555 77.2218 281.598 76.246 280.333 76.3496C279.837 76.3901 279.532 76.5797 279.027 76.5349C278.364 76.4764 277.807 76.1255 277.101 76.1434C276.029 76.1706 274.968 76.1886 273.932 76.2278C272.754 76.2716 271.37 75.9492 270.199 76.1527C269.087 76.3456 267.764 77.3457 266.797 77.9287C265.605 78.6476 264.173 79.479 263.106 80.3572C262.098 81.1873 261.386 82.5081 260.6 83.5387C259.768 84.6291 258.805 85.6033 257.969 86.6887C254.676 90.9616 251.207 96.2247 250.178 101.604C249.917 102.966 249.931 104.31 250.127 105.677C250.303 106.898 251.449 107.363 251.484 108.676C251.555 111.332 250.282 114.413 249.542 116.931C248.764 119.582 247.789 122.157 246.581 124.651C246.114 125.616 245.521 126.414 245.227 127.414C244.867 128.636 244.32 129.795 243.92 131.027C240.458 141.685 235.092 151.606 231.18 162.102C229.078 167.743 226.855 173.334 224.563 178.902C223.435 181.644 222.214 184.301 220.987 187C220.826 187.355 220.711 188.039 220.431 188.283C219.956 188.695 220.374 188.46 219.71 188.39C219.137 188.33 218.542 188.068 217.964 187.972C216.568 187.737 215.138 187.697 213.73 187.558C212.113 187.398 210.688 187.315 209.07 187.393C207.563 187.466 206.081 187.019 204.581 186.919C201.367 186.707 198.197 186.819 194.985 186.879C192.482 186.926 189.277 186.628 186.961 187.79C184.641 188.954 185.441 191.635 187.409 192.656C189.767 193.88 192.542 194.054 194.885 195.301C193.127 195.842 191.227 195.703 189.435 196.125C188.281 196.397 186.496 196.599 185.626 197.441C184.783 198.258 184.869 199.664 185.425 200.622C186.117 201.814 187.45 202.019 188.649 202.433C188.108 203.149 187.269 203.093 186.783 204.036C186.137 205.291 186.54 206.631 187.331 207.716C189.048 210.071 192.446 210.27 195.1 210.606C197.707 210.936 200.445 211.015 203.069 210.836C204.565 210.734 206.04 210.66 207.517 210.449C209.216 210.207 209.053 211.397 209.658 212.615C210.244 213.795 211.089 214.3 212.397 214.227C213.81 214.148 215.376 214.052 216.775 213.816C218.115 213.589 219.275 212.897 220.56 212.609C221.717 212.349 222.636 211.93 223.735 211.367C224.997 210.721 225.668 209.64 226.772 208.898C227.906 208.136 229.092 209.333 230.207 209.929C232.916 211.376 235.889 212.016 238.852 212.728C241.873 213.454 244.816 214.382 247.889 214.885C249.319 215.118 250.677 215.087 252.1 215.239C253.741 215.414 255.162 216.04 256.837 216.043C262.753 216.056 268.707 217.124 274.625 217.321C280.483 217.517 286.437 217.032 292.289 217.424C295.282 217.625 298.178 217.222 301.153 217.377C304.223 217.537 307.401 217.376 310.465 217.141C316.822 216.655 322.981 216.781 329.271 216.466C332.544 216.302 335.88 215.994 339.111 215.474C342.279 214.965 345.864 215.552 348.104 212.796C348.351 213.876 348.418 214.997 349.208 215.849C350.038 216.744 351.376 217.106 352.487 217.514C355.326 218.556 358.195 219.545 361.053 220.534C363.762 221.471 366.489 222.486 369.22 223.345C372.09 224.248 374.82 225.342 377.642 226.402C380.198 227.362 382.847 228.121 385.311 229.279C386.327 229.756 387.392 229.796 388.363 230.241C389.563 230.792 390.678 231.32 391.964 231.717C393.066 232.058 394.075 232.303 395.142 232.746C396.199 233.185 397.695 233.946 398.801 233.363C399.578 232.953 399.884 232.011 400.123 231.225C400.422 230.242 400.167 228.536 401.331 228.58C402.481 228.624 404.105 229.731 405.232 230.106C406.581 230.556 407.962 231.308 409.352 231.562C410.743 231.817 411.838 231.741 412.568 230.447C413.389 228.991 413.252 227.449 413.007 225.865C415.375 225.86 417.568 226.082 419.957 226.163C421.273 226.208 422.552 226.266 423.864 226.121C425.049 225.991 426.81 226.362 427.837 225.82C429.925 224.718 429.614 221.6 428.561 219.895C427.976 218.948 427.059 218.31 426.128 217.736C424.959 217.016 424.103 216.199 423.079 215.282C423.747 214.823 424.615 215.046 425.269 214.498C425.777 214.073 426.094 213.364 426.326 212.759C426.758 211.631 426.201 209.044 427.177 208.404C427.698 208.063 428.622 208.208 429.217 207.934C430.031 207.561 430.603 206.872 430.953 206.052C431.743 204.204 431.066 202.28 430.296 200.554C433.214 200.056 437.493 199.858 438.328 196.478C438.595 195.399 438.631 194.149 438.264 193.087C437.719 191.512 436.449 191.427 435.041 190.965C429.155 189.034 423.643 185.897 417.301 185.432C413.905 185.182 410.483 185.051 407.091 184.699C403.683 184.345 400.398 183.721 396.968 184.145C395.508 184.325 393.819 184.164 392.423 184.428C391.073 184.683 390.902 186.275 391.934 187.194C392.937 188.087 394.391 187.516 395.585 187.616C397.277 187.758 398.702 188.558 400.282 189.062C404.159 190.299 408.406 191.177 412.449 191.622C414.619 191.86 416.669 191.892 418.793 192.471C420.723 192.997 422.633 193.594 424.569 194.097C422.453 194.663 418.355 194.6 417.651 197.177C417.32 198.39 417.687 200.069 418.754 200.819C419.373 201.254 420.725 201.056 421.115 201.706C419.449 201.911 417.55 200.629 416.635 202.462C415.592 204.553 416.613 206.204 417.948 207.757C416.768 207.562 415.555 207.785 414.364 207.633C413.444 207.517 412.586 207.24 411.712 207.528C411.274 207.672 411.332 208.063 410.778 208.065C410.376 208.067 409.773 207.629 409.424 207.46C408.096 206.82 406.749 206.298 405.377 205.763C403.708 205.113 402.121 204.612 400.455 204.204C398.155 203.639 395.845 202.191 393.601 201.372C392.65 201.025 391.427 200.669 390.955 199.679C390.467 198.658 390.841 197.162 390.871 196.082C390.956 193.043 390.919 190 390.901 186.961C390.885 184.405 390.824 181.896 390.596 179.35C390.324 176.303 390.568 173.267 390.451 170.215C390.344 167.413 390.595 164.617 390.519 161.816C390.434 158.695 390.278 155.586 390.245 152.461C390.188 146.849 389.999 141.243 389.89 135.632C389.779 129.868 389.168 124.102 387.936 118.466C387.384 115.942 386.664 113.371 385.703 110.972C385.399 110.212 385.08 110.169 385.811 109.735C386.245 109.478 386.781 109.765 387.206 109.822C388.1 109.942 388.899 109.995 389.809 109.941C395.028 109.635 400.432 109.883 405.632 110.352C408.336 110.596 411.055 110.828 413.77 110.925C416.478 111.022 419.186 111.442 421.895 111.243C426.433 110.911 431.608 111.43 435.498 108.507C439.648 105.389 439.257 99.8634 436.577 95.8714C433.62 91.4657 428.68 88.9555 424.555 85.8683C420.503 82.8352 415.739 80.6106 411.32 78.1678C401.858 72.938 391.692 68.0973 381.505 64.4831C371.141 60.8066 360.742 56.5798 349.454 57.2983C343.736 57.6622 337.338 57.8747 332.293 60.9131C329.598 62.5368 326.99 64.2295 324.674 66.3741C323.584 67.3844 322.622 68.6295 321.461 69.5526C320.382 70.4109 319.323 69.8232 318.089 69.5078C318.963 66.6878 319.837 63.8676 320.711 61.0476C321.918 61.9839 323.578 62.3399 325.147 62.0088C327.052 61.6068 326.898 60.7929 326.727 59.163C326.648 58.407 326.442 58.5361 327.098 58.0587C327.636 57.6669 328.619 57.5387 329.238 57.1994C330.783 56.353 332.122 55.1102 332.691 53.4039C333.257 51.7072 332.856 50.1334 332.486 48.4494C332.041 46.4243 333.142 47.271 334.401 46.3293C334.954 45.915 335.153 45.555 335.058 44.8707C334.98 44.3152 333.882 43.5154 333.931 42.9685C333.991 42.3094 334.357 42.3831 334.879 41.9857C335.454 41.5471 335.868 41.0092 336.122 40.3189C336.659 38.857 335.564 37.9538 335.105 36.6058C334.882 35.9524 334.664 35.3935 334.227 34.8437C333.452 33.8695 333.152 33.8908 332.072 33.8994C331.162 33.9064 331.172 33.832 330.491 33.0096C330.227 32.6905 329.963 32.3734 329.735 32.0271C329.342 31.4324 329.233 31.5131 329.653 31.0486C330.932 29.6328 331.515 31.8431 332.651 31.7097C333.965 31.5553 334.201 29.4718 335.025 28.7758C335.601 28.2887 336.259 28.4744 336.889 28.1453C337.66 27.7432 337.815 26.9766 338.315 26.3341C339.127 25.2915 340.306 25.1076 340.848 23.7847C341.155 23.034 341.198 22.2611 341.26 21.4652C341.349 20.3319 341.646 19.4361 341.976 18.3574C342.312 17.257 342.229 16.4618 341.682 15.4494C341.119 14.4062 341.053 14.0552 341.195 12.8785C341.303 11.9827 341.336 11.1875 340.868 10.3883C340.364 9.52699 340.259 9.07742 340.095 8.09626C339.952 7.23597 339.679 6.6164 338.847 6.25947C338.28 6.01609 337.666 6.28703 337.266 5.73287C336.867 5.1797 336.973 4.29351 336.563 3.68224C335.893 2.68515 334.887 2.5291 333.79 2.30431Z" fill="#1E1559"/>
<path fill-rule="evenodd" clip-rule="evenodd" d="M300.652 46.6126C301.041 45.6986 302.343 41.4824 300.202 41.4608C298.503 41.4436 299.039 45.1022 299.019 46.0004C298.98 47.6814 297.221 47.9202 296.563 49.4452C295.796 51.2232 296.325 53.3462 297.521 54.7955C298.435 55.9015 300.193 57.1689 301.447 55.8149C302.843 54.3081 301.502 53.4624 300.525 52.5241C299.11 51.1645 301.817 50.7693 302.52 49.6663C303.714 47.7917 302.403 46.8165 300.652 46.6126Z" fill="black"/>
<path fill-rule="evenodd" clip-rule="evenodd" d="M306.786 47.5637C306.982 48.4316 306.922 50.4135 307.865 50.8813C309.447 51.6659 309.812 47.8821 309.8 47.0467C309.786 46.1582 309.479 44.0587 308.169 44.3307C306.698 44.6358 307.532 47.3581 306.786 47.5637Z" fill="black"/>
<path fill-rule="evenodd" clip-rule="evenodd" d="M300.871 58.5538C298.533 58.6265 298.664 61.4149 300.906 61.5122C302.993 61.6028 302.941 58.4897 300.871 58.5538Z" fill="black"/>
<path fill-rule="evenodd" clip-rule="evenodd" d="M295.898 100.116C296.116 101.045 296.626 101.92 297.389 102.506C297.209 102.139 296.428 99.9502 295.898 100.116Z" fill="black"/>
</g>
</svg>
