<svg width="640" height="480" viewBox="0 0 640 480" fill="none" xmlns="http://www.w3.org/2000/svg">
<path fill-rule="evenodd" clip-rule="evenodd" d="M209 194.377C212.199 181.871 215.214 169.092 219.96 157.073C222.931 149.551 226.079 142.098 229.232 134.652C229.669 133.619 229.853 132.623 230.705 132.108C231.841 131.421 234.191 131.435 235.474 131.199C253.685 127.841 272.086 125.277 290.548 123.835C311.616 122.19 332.155 122.942 353.002 126.394C370.83 129.346 388.482 133.415 405.941 138.074C408.508 138.759 411.071 139.459 413.628 140.177C414.82 140.513 416.799 140.683 417.837 141.383C420.058 142.877 420.811 149.001 421.643 151.595C422.759 155.072 423.408 159.85 425.558 162.808C428.758 167.211 433.63 171.031 437.598 174.692C451.444 187.468 466.622 199.122 484.504 205.438C512.168 215.21 541.341 221.334 569.999 227.389C570.666 227.53 571.333 227.67 572 227.809C564.581 236.07 557.162 244.331 549.743 252.591C545.561 257.248 541.379 261.905 537.197 266.561C535.046 268.956 535.282 269.383 532.241 268.716C517.002 265.373 501.79 261.728 486.827 257.286C479.492 255.108 472.031 252.847 465.207 249.32C455.813 244.465 446.997 238.464 438.416 232.301C430.745 226.79 423.255 221.026 415.899 215.098C414.449 213.93 409.217 208.297 407.52 208.664C406.056 208.981 403.522 212.33 402.451 213.305C399.616 215.885 396.77 218.453 393.906 221C389.349 225.052 384.694 230.016 379.37 233.066C373.761 236.28 367.331 238.47 361.41 241.03C358.107 242.457 354.801 243.879 351.495 245.298C350.631 245.668 349.426 246.474 348.495 246.494C345.739 246.552 341.736 244.3 339.18 243.422C332.613 241.168 326.094 238.771 319.642 236.201C305.867 230.713 290.728 224.75 279.391 214.874C277.413 213.152 275.48 211.223 274.171 208.922C273.717 208.124 273.042 207.012 272.996 206.07C272.922 204.568 273.762 204.273 275.011 203.334C281.46 198.488 288.413 194.264 295.251 190.005C296.857 189.005 298.467 188.009 300.083 187.022L220.183 193.474C216.456 193.775 212.728 194.076 209 194.377Z" fill="#F22973"/>
<path fill-rule="evenodd" clip-rule="evenodd" d="M209 194.377C212.199 181.871 215.214 169.092 219.96 157.073C222.931 149.551 226.079 142.098 229.232 134.652C229.669 133.619 229.853 132.623 230.705 132.108C231.841 131.421 234.191 131.435 235.474 131.199C253.685 127.841 272.086 125.277 290.548 123.835C311.616 122.19 332.155 122.942 353.002 126.394C370.83 129.346 388.482 133.415 405.941 138.074C408.508 138.759 411.071 139.459 413.628 140.177C414.82 140.513 416.799 140.683 417.837 141.383C420.058 142.877 420.811 149.001 421.643 151.595C422.759 155.072 423.408 159.85 425.558 162.808C428.758 167.211 433.63 171.031 437.598 174.692C451.444 187.468 466.622 199.122 484.504 205.438C512.168 215.21 541.341 221.334 569.999 227.389C570.666 227.53 571.333 227.67 572 227.809C564.581 236.07 557.162 244.331 549.743 252.591C545.561 257.248 541.379 261.905 537.197 266.561C535.046 268.956 535.282 269.383 532.241 268.716C517.002 265.373 501.79 261.728 486.827 257.286C479.492 255.108 472.031 252.847 465.207 249.32C455.813 244.465 446.997 238.464 438.416 232.301C430.745 226.79 423.255 221.026 415.899 215.098C414.449 213.93 409.217 208.297 407.52 208.664C406.056 208.981 403.522 212.33 402.451 213.305C399.616 215.885 396.77 218.453 393.906 221C389.349 225.052 384.694 230.016 379.37 233.066C373.761 236.28 367.331 238.47 361.41 241.03C358.107 242.457 354.801 243.879 351.495 245.298C350.631 245.668 349.426 246.474 348.495 246.494C345.739 246.552 341.736 244.3 339.18 243.422C332.613 241.168 326.094 238.771 319.642 236.201C305.867 230.713 290.728 224.75 279.391 214.874C277.413 213.152 275.48 211.223 274.171 208.922C273.717 208.124 273.042 207.012 272.996 206.07C272.922 204.568 273.762 204.273 275.011 203.334C281.46 198.488 288.413 194.264 295.251 190.005C296.857 189.005 298.467 188.009 300.083 187.022L220.183 193.474C216.456 193.775 212.728 194.076 209 194.377Z" fill="#F22973"/>
<path fill-rule="evenodd" clip-rule="evenodd" d="M328.8 42.3713C337.258 42.7568 345.929 43.1497 354.313 44.3393C362.67 45.5247 370.469 48.5568 378.023 52.2281C391.642 58.8476 405.562 66.8939 414.322 79.6265C418.418 85.5797 421.758 91.813 427.412 96.4993C428.734 97.5952 430.176 98.9123 431.931 99.2476C433.326 99.5142 434.557 98.9497 435.924 98.8823C438.532 98.753 439.521 100.127 439.521 102.717C441.479 101.936 443.61 101.229 445.746 101.516C447.531 101.756 448.95 102.832 450.664 103.284C453.757 104.101 456.784 102.88 459.725 101.97C467.155 99.6729 475.315 97.9335 483.121 98.753C488.262 99.2929 494.492 101.521 491.829 108.139C489.622 113.629 481.366 116.408 476.151 117.773C471.715 118.936 465.752 117.898 466.127 124.015C466.388 128.284 467.034 132.863 471.575 134.248C474.064 135.008 482.885 136.139 477.734 139.991C473.93 142.836 472.602 147.843 469.71 151.603C466.022 156.396 461.023 160.271 455.18 162.02C448.642 163.978 441.723 163.602 435.006 164.361C439.737 170.885 446.567 175.372 452.784 180.333C459.321 185.55 465.627 191.25 473.193 194.969C479.973 198.302 487.299 200.616 494.303 203.442C501.658 206.411 509.066 209.345 516.658 211.657C531.974 216.322 548.083 219.58 563.828 222.441C571.599 223.853 579.217 223.646 587.066 223.771C595.117 223.901 603.163 225.312 611.067 226.761C614.898 227.464 618.766 227.907 622.597 228.607C624.436 228.943 631.713 229.683 631.973 232.374C632.398 236.756 627.655 239.213 624.182 240.435C622.699 240.957 620.31 240.881 619.026 241.599C617.636 242.375 618.179 243.518 618.02 245.022C617.788 247.207 616.618 248.779 614.825 249.991C613.349 250.988 611.571 250.949 612.588 252.838C613.057 253.708 614.23 254.257 614.771 255.176C615.389 256.223 615.674 257.372 615.548 258.578C615.329 260.689 613.933 262.3 611.987 263.046C608.876 264.239 605.225 263.395 602.038 263.008C596.705 262.36 591.295 262.295 586.034 261.129C580.548 259.914 575.21 258.041 569.719 256.796C566.903 256.158 564.081 255.623 561.329 254.738C559.539 254.162 556.951 252.667 555.044 253.135C553.257 253.574 551.861 255.729 550.693 256.98C549.081 258.706 547.521 260.479 545.883 262.181C544.798 263.308 543.684 264.412 542.499 265.435C542.114 265.767 539.735 267.221 539.701 267.611C539.609 268.714 542.206 268.695 542.762 269.133C545.995 271.686 541.137 273.302 539.041 273.174C534.21 272.88 529.354 272.287 524.569 271.578C513.175 269.889 501.814 268.065 490.92 264.252C480.145 260.479 469.63 256.467 459.664 250.844C450.098 245.447 440.845 239.346 431.809 233.109C427.424 230.083 423.009 226.947 419.307 223.092C415.686 219.321 412.734 214.992 409.732 210.732C402.541 217.672 395.621 224.97 387.897 231.332C380.549 237.384 371.716 240.617 363.17 244.547C363.447 246.333 371.8 247.403 373.326 247.867C380.294 249.986 386.98 253.385 393.757 256.052C405.031 260.487 415.728 266.26 419.483 278.579C423.175 290.69 418.893 302.882 413.671 313.824C407.507 326.74 400.187 338.704 391.336 349.964C387.572 354.755 383.517 359.165 379.385 363.625C375.861 367.432 372.839 371.94 374.316 377.35C377.152 376.464 377.673 378.676 375.818 380.548C374.169 382.212 371.32 382.535 369.119 382.811C362.446 383.647 355.554 383.351 348.874 382.73C336.711 381.598 324.521 378.53 313.509 373.252C308.031 370.626 306.048 374.86 302.281 378.14C299.316 380.72 295.234 382.392 292.981 385.731C291.128 388.477 292.338 392.817 296.188 391.788C299.183 390.986 301.589 387.647 304.762 387.519C310.393 387.291 299.769 395.319 298.409 396.299C301.1 398.704 304.152 395.406 306.865 394.855C309.468 394.327 310.195 395.673 308.808 397.841C307.727 399.532 304.33 400.729 306.589 402.785C308.461 404.488 312.611 405.385 314.91 406.131C322.08 408.461 329.214 410.118 336.678 411.182C339.089 411.526 342.954 411.306 344.908 413.014C347.486 415.266 346.243 418.999 344.938 421.579C339.996 431.353 329.72 436.158 319.166 436.862C312.667 437.294 306.106 436.875 299.585 437.226C292.44 437.61 285.279 438.181 278.118 437.945C266.605 437.566 259.281 429.25 253.541 420.106C249.895 414.297 246.534 408.318 243.377 402.231C242.144 399.853 239.562 397.389 239.122 394.717C238.726 392.311 240.262 390.382 241.754 388.679C245.682 384.2 250.407 380.781 255.023 377.08C257.659 374.967 258.673 373.218 259.846 370.142C260.834 367.553 262.734 366.446 264.407 364.381C266.247 362.108 265.669 361.706 264.234 359.849C262.732 357.904 263.322 355.039 263.953 352.838C264.857 349.681 266.797 348.986 269.695 347.969C272.337 347.042 274.576 345.415 276.919 343.905C288.49 336.449 299.392 328.012 311.106 320.764C322.663 313.613 334.741 307.296 345.771 299.317C336.814 298.114 328.918 293.281 320.469 290.419C316.133 288.951 311.838 287.382 307.643 285.544C306.041 284.843 304.174 284.219 302.745 283.186C301.309 282.149 300.205 280.785 298.7 279.804C295.128 277.475 290.881 276.149 287.04 274.334C282.892 272.373 278.797 270.23 274.942 267.735C271.343 265.405 267.888 262.743 264.896 259.666C262.512 257.215 260.194 254.02 256.819 252.895C257.173 257.591 262.995 261.48 266.186 264.307C271.364 268.893 276.747 272.791 282.535 276.579C276.043 282.137 268.13 285.756 260.528 289.51C251.98 293.73 243.671 298.409 235.158 302.695C227.946 306.326 220.358 309.124 213.028 312.498C205.119 316.138 196.979 319.19 188.727 321.959C181.26 324.465 174.229 327.138 167.183 330.655C160.333 334.075 153.004 336.69 145.676 338.885C137.442 341.351 129.587 343.697 121.669 347.077C114.529 350.125 107.359 352.074 99.8022 353.731C97.3062 354.279 94.1011 355.283 92.3529 352.868C91.0279 351.038 90.8285 348.216 90.4482 346.064C88.9913 337.827 88.876 329.459 87.5657 321.21C82.5915 322.71 77.8804 324.555 72.6326 324.793C69.3336 324.943 67.329 325.283 66.507 328.882C68.4154 329.097 75.2341 329.192 75.4182 331.893C75.585 334.329 71.4592 334.354 69.9962 334.421C67.3781 334.54 65.0054 334.111 63.608 336.671C65.6666 337.431 70.2311 336.046 71.1426 338.813C72.3173 342.382 66.983 342.373 65.0636 342.661C61.715 343.162 62.0591 345.79 62.2885 348.599C62.5903 352.295 62.8191 355.995 63.3185 359.672C64.3858 367.529 66.2138 375.267 67.0793 383.153C67.8277 389.971 68.2473 396.52 63.37 401.954C61.4089 404.139 58.6828 406.654 55.601 406.914C52.4732 407.177 52.5302 404.988 50.5832 403.377C49.3901 402.39 47.81 402.189 46.4046 401.656C44.695 401.009 43.0363 400.061 41.5003 399.078C38.6694 397.268 36.1948 395.02 34.1933 392.319C26.3654 381.75 23.567 365.96 22.7916 353.145C22.2984 344.997 22.7904 336.837 23.5388 328.72C23.9418 324.348 24.3472 319.975 24.8766 315.616C25.0404 314.266 25.3146 312.913 25.4164 311.559C25.4747 310.783 25.1005 309.216 25.4968 308.473C24.9907 309.421 24.0945 308.72 23.2044 307.973C21.3672 306.431 21.9328 303.47 22.9155 301.443C25.8765 295.333 34.7502 295.095 40.5231 294.62C56.0408 293.343 70.7832 289.186 85.639 284.744C83.5423 281.608 86.8401 279.537 89.3962 278.458C93.338 276.796 97.4087 275.334 101.387 273.747C110.372 270.161 119.17 266.819 128.578 264.531C137.101 262.459 145.347 259.019 153.755 256.498C162.442 253.892 170.973 250.915 179.517 247.88C196.441 241.87 213.38 235.729 229.804 228.439C233.955 226.596 237.921 224.459 241.927 222.327C245.182 220.596 249.002 219.326 251.761 216.825C254.396 214.436 255.974 211.115 258.838 208.946C261.416 206.992 264.945 206.965 267.081 204.539C269.971 201.259 273.42 199.817 277.343 197.893C278.603 197.275 286.898 194.153 286.729 192.381C280.801 192.381 274.716 194.143 268.854 194.964C262.653 195.832 256.458 196.797 250.212 197.277C240.091 198.054 229.975 197.844 219.897 196.748C218.391 196.585 212.35 195.345 211.308 196.959C210.514 198.189 212.488 199.653 212.507 200.975C212.537 202.914 210.972 203.954 209.201 203.281C205.752 201.97 206.258 196.417 206.58 193.599C207.196 188.209 208.568 182.868 209.766 177.586C202.651 181.205 195.895 185.851 189.768 190.957C185.022 194.911 180.737 200.274 175.168 203.093C169.821 205.801 166.641 203.491 166.86 197.53C166.961 194.799 167.515 192.207 168.461 189.663C168.908 188.461 170.746 185.059 169.885 183.779C164.998 187.673 160.143 191.577 155.013 195.152C151.387 197.679 146.129 201.62 141.394 200.617C137.212 199.731 137.621 195.133 138.947 192.036C140.097 189.349 142.163 186.961 144.21 184.909C145.903 183.213 148.31 181.693 149.158 179.342C143.542 181.864 137.759 183.773 131.875 185.545C127.691 186.806 124.766 192.04 119.9 191.266C115.03 190.492 116.969 184.478 118.913 181.862C120.274 180.033 122.156 178.422 123.981 177.069C125.762 175.75 128.47 174.601 129.346 172.406C123.656 173.474 117.935 175.329 112.08 174.987C108.603 174.783 102.799 173.266 103.485 168.596C104.18 163.867 110.483 163.505 114.026 162.623C118.858 161.419 123.482 159.161 128.145 157.439C137.55 153.963 147.139 151.176 156.763 148.406L159.803 147.531C170.665 144.403 181.589 141.738 192.586 139.14C198.022 137.855 203.438 136.454 208.917 135.358C214.217 134.298 219.602 133.683 224.861 132.416C220.429 125.73 225.796 120.236 231.593 117.054C227.916 116.312 224.178 115.865 220.534 114.964C217.421 114.196 214.422 113.015 211.287 112.334C205.898 111.166 200.517 110.551 195.917 107.217C187.224 100.916 186.485 90.8893 193.81 83.3021C201.201 75.6444 212.05 72.0589 222.491 71.7028C234.178 71.3044 247.474 73.5678 258.409 77.7025C263.781 79.7337 269.374 82.3159 273.979 85.7752C277.111 88.1282 282.065 92.6367 286.269 92.6367C281.234 86.5517 275.054 80.259 274.145 72.0178C273.284 64.2154 276.826 55.9221 282.769 50.8754C294.644 40.7943 314.241 41.7069 328.8 42.3713ZM261.097 376.783C257.998 381.6 253.711 385.511 249.664 389.509C248.267 390.887 245.465 392.642 245.33 394.802C245.221 396.565 247.386 398.549 248.332 399.934C253.332 407.263 257.449 415.358 263.556 421.867C270.46 429.223 278.338 430.653 288.114 430.674C298.967 430.698 309.966 432.055 320.801 431.483C329.979 430.998 339.026 426.915 343.59 418.613C340.617 417.082 336.386 417.812 333.163 417.846C328.769 417.892 324.48 417.813 320.14 417.05C316.205 416.358 312.317 415.319 308.616 413.803C306.702 413.019 304.808 412.121 303.045 411.031C301.754 410.234 300.783 409.012 299.515 408.229C294.837 405.343 289.436 414.52 284.436 414.343C281.374 414.236 282.482 411.226 283.757 409.542C286.057 406.502 290.069 404.625 293.099 402.409C290.278 399.815 287.091 402.536 284.406 403.891C281.048 405.586 277.56 407.666 273.809 408.303C274.09 403.472 280.666 400.883 284.294 398.917C285.909 398.043 287.932 397.232 288.33 395.309C288.629 393.862 288.117 391.805 287.965 390.345C287.773 388.488 287.631 387.895 285.652 387.371C283.253 386.736 280.836 386.92 278.432 386.127C271.853 383.956 266.736 380.734 261.097 376.783ZM47.2899 300.652C45.6834 301.097 44.0603 301.483 42.4286 301.827C39.1989 302.508 35.9649 303.215 32.7242 303.832C31.0986 304.142 29.2937 303.946 28.8147 305.496C28.5685 306.291 29.1881 307.719 29.2944 308.545C29.4853 310.033 29.4976 311.542 29.5154 313.042C29.6849 326.855 26.7949 340.588 28.0673 354.4C29.1421 366.073 31.6575 380.833 40.2386 389.527C43.9424 393.279 48.4991 397.354 53.1628 399.919C56.8186 401.928 61.9257 396.884 62.6725 393.392C63.2073 390.89 62.315 388.249 61.7341 385.837C60.9891 382.746 60.2344 379.657 59.4968 376.564C57.9216 369.963 56.4895 363.3 56.0369 356.514C55.8883 354.285 55.9202 352.137 56.0461 349.918C56.1143 348.712 56.6823 345.808 55.8385 344.775C54.7472 343.44 52.2539 344.312 50.7775 344.426C49.1587 344.552 47.5786 344.455 45.9972 344.042C42.2327 343.059 41.5731 340.069 45.6834 338.684C48.5532 337.718 53.799 339.118 56.2101 337.258C59.043 335.071 53.3175 334.771 51.9806 334.714C50.2003 334.639 44.2955 335.104 44.597 331.788C44.82 329.331 49.903 329.167 51.6815 329.062C55.4811 328.84 60.2884 330.261 61.9306 325.684C62.5889 323.85 58.626 322.919 57.6317 322.01C55.2152 319.799 54.423 316.01 54.2154 312.905C54.0109 309.852 57.0182 299.269 52.4363 298.989C51.0293 298.904 48.6908 300.264 47.2899 300.652ZM272.646 361.729C269.949 364.938 267.618 368.452 265.107 371.805C270.997 375.053 277.023 377.666 283.114 380.458C285.884 381.729 287.825 382.736 290.506 380.81C292.429 379.429 293.871 377.465 295.748 376.028C298.445 373.965 301.264 372.073 304.029 370.106C295.87 367.131 287.586 364.521 279.43 361.54C276.379 360.425 274.848 359.108 272.646 361.729ZM205.463 351.538C207.208 353.305 203.849 358.203 203.187 359.88C208.598 359.451 213.962 358.599 219.275 357.501C221.084 357.128 220.417 359.329 219.74 360.055C218.903 360.953 217.229 361.225 216.11 361.545C211.992 362.725 207.768 363.292 203.542 363.922C205.476 366.299 210.129 370.019 208.631 373.594C205.928 371.267 203.985 368.171 200.996 366.158C200.133 367.446 198.341 371.988 196.377 371.71C193.294 371.273 196.417 365.966 197.062 364.688C194.986 364.688 187.186 366.508 186.097 363.955C184.984 361.342 192.511 361.427 193.903 360.81L193.643 360.494L193.383 360.18C192.342 358.926 191.343 357.691 191.202 355.97C193.53 356.771 195.084 360.415 197.642 360.468C200.068 360.518 201.151 356.876 202.015 355.152C202.506 354.171 204.175 350.232 205.463 351.538ZM467.949 317.186C473.165 321.582 469.622 330.448 465.675 334.434C461.254 338.899 451.409 343.001 445.805 338.449C442.736 335.958 443.844 332.157 444.6 328.844C445.439 325.161 445.962 322.056 449.014 319.529C453.763 315.597 462.658 312.727 467.949 317.186ZM457.362 319.741C452.274 320.822 447.117 325.902 445.908 331.137C444.321 338.003 451.454 338.505 456.153 337.473C462.065 336.175 468.345 331.844 468.646 325.05C468.906 319.187 461.316 318.9 457.362 319.741ZM87.0837 290.058C79.4638 292.892 72.3013 296.769 64.3066 298.451C61.8668 298.964 60.8647 299.525 60.2615 301.796C59.4165 304.975 58.6157 308.196 59.2189 311.517C60.4714 318.412 70.0744 317.567 75.4071 317.297C78.1448 317.158 83.4104 317.658 85.7856 315.951C87.5207 314.705 86.7926 312.367 86.5224 310.547C85.5111 303.744 86.6141 296.857 87.0837 290.058ZM502.532 224.351C499.727 224.88 494.877 227.165 498.899 230.029C501.582 231.939 505.576 232.171 508.728 232.643C514.887 233.565 521.46 234.361 526.804 237.832C536.706 244.264 535.493 256.401 532.531 266.334C534.664 267.589 540.93 259.381 542.111 258.047C546.898 252.632 551.706 247.235 556.533 241.855C558.599 239.554 541.663 231.606 540.141 230.89C532.095 227.109 524.586 224.618 515.561 223.969C511.282 223.661 506.768 223.554 502.532 224.351ZM467.602 204.22C466.833 206.156 468.18 207.034 469.417 208.372C476.335 215.85 481.207 226.435 485.059 235.718C486.98 240.347 488.325 245.015 489.515 249.865C490.682 254.624 494.388 255.896 498.83 257.247C509.06 260.359 519.829 261.401 530.096 264.474C532.846 265.297 533.386 259.255 533.559 257.722C534.05 253.362 533.593 248.812 531.301 244.968C526.966 237.703 518.276 236.158 510.525 234.921C506.092 234.213 500.252 233.483 496.744 230.454C494.983 228.934 494.734 227.191 496.107 225.303C498.611 221.858 503.019 221.416 506.958 221.135C508.876 220.998 520.755 222.198 521.143 220.794C515.228 218.868 509.158 217.598 503.33 215.396C498.784 213.677 494.202 212.055 489.615 210.446L485.027 208.84C480.362 207.205 476.09 205.217 471.614 203.248C469.932 202.51 468.39 202.235 467.602 204.22ZM567.924 235.728C566.443 237.719 564.974 239.39 563.863 241.626C562.567 244.235 560.418 245.899 558.621 248.139C567.953 249.784 576.854 251.874 585.845 254.888C590.461 256.436 595.229 257.2 599.951 258.309C603.911 259.238 608.132 260.68 612.234 259.827C607.563 253.395 595.104 255.173 591.824 247.383C589.592 242.084 595.077 237.857 599.563 236.937C607.397 235.331 615.748 235.207 623.705 234.635C623.789 231.593 594.905 230.018 592.049 229.771C586.977 229.333 581.685 228.383 576.624 228.207C571.926 228.044 570.39 232.415 567.924 235.728ZM457.704 213.48C454.922 216.167 452.198 218.913 449.419 221.604C447.592 223.373 445.116 225.257 443.676 227.364C441.837 230.055 445.058 231.349 447.204 232.622C452.622 235.838 458.222 238.839 463.735 241.897C468.687 244.645 473.838 248.143 479.306 249.75C482.229 250.609 484.975 251.944 487.795 253.072C486.435 240.872 479.424 229.791 472.959 219.62C471.475 217.284 469.941 214.981 468.457 212.646C467.709 211.47 466.321 208.696 464.753 208.457C462.436 208.102 459.109 212.122 457.704 213.48ZM599.458 244.531C602.847 246.471 606.244 247.457 610.067 245.992C611.007 245.608 611.938 245.203 612.858 244.776C610.311 241.305 602.778 243.42 599.458 244.531ZM318.772 202.073C312.765 204.779 306.339 207.475 301.115 211.558C299.186 213.066 294.877 216.232 295.885 219.104C296.748 221.563 301.519 223.657 303.784 224.406C315.701 228.348 329.264 225.481 340.237 232.714C343.207 234.672 344.175 237.231 346.381 239.805C348.376 242.133 350.9 241.843 353.582 240.878C357.102 239.609 360.346 237.666 363.88 236.421C365.687 235.784 368.759 235.362 368.946 232.925C369.83 221.439 367.378 206.804 357.245 199.776C345.87 191.887 330.178 196.935 318.772 202.073ZM312.33 228.841C312.039 230.297 323.314 232.934 324.539 233.271C331.347 235.145 337.708 239.6 344.76 240.319C345.986 237.586 336.218 233.235 334.673 232.674C327.623 230.116 319.734 229.652 312.33 228.841ZM533.736 223.739C542.284 227.239 550.57 231.525 557.735 237.485C560.206 239.54 566.21 229.787 567.554 228.291C556.169 227.818 544.95 225.648 533.736 223.739ZM373.974 155.129C366.05 160.36 359.148 167.2 350.448 171.21C353.171 171.639 356.143 169.877 358.742 169.26C361.274 168.658 363.835 168.261 366.299 167.41C367.813 166.887 374.066 163.51 375.239 165.799C377.073 169.374 364.16 171.848 362.324 172.458C356.124 174.517 349.964 176.673 343.828 178.914C337.884 181.084 331.944 183.42 325.802 184.978C319.564 186.561 312.949 186.969 306.952 189.428C301.648 191.602 297.09 195.2 291.975 197.739C286.845 200.285 281.014 201.86 276.592 205.65C281.401 210.778 287.087 215.072 293.308 218.341C294.305 210.521 303.477 206.068 309.752 203.062C323.432 196.509 343.978 186.628 357.922 197.733C368.113 205.849 369.493 221.249 369.493 233.304C372.254 232.426 374.774 231.029 377.338 229.71C379.114 228.796 379.134 226.252 379.358 224.552C379.723 221.769 380.477 219.074 381.342 216.404C383.255 210.498 385.65 204.736 387.932 198.966C391.626 189.633 396.179 180.429 398.449 170.61C399.931 164.202 401.693 153.187 393.962 150.007C387.273 147.255 379.405 151.544 373.974 155.129ZM339.368 129.047C338.076 129.912 338.558 132.508 338.646 133.81C338.967 138.546 338.766 143.302 338.924 148.047C339.117 153.828 339.16 164.429 345.125 167.67C349.206 169.887 354.28 166.565 357.536 164.303C363.046 160.477 368.101 156.033 373.686 152.298C380.308 147.87 392.856 141.744 399.193 150.075C402.622 154.583 402.141 161.301 401.285 166.547C400.156 173.468 397.518 180.032 394.897 186.5C389.484 199.855 383.834 213.428 380.824 227.565C387.687 223.489 393.025 217.614 399.015 212.453C403.455 208.628 410.049 204.235 411.074 198C411.306 196.592 412.67 195.589 413.608 194.647C414.829 193.421 415.689 192.18 416.463 190.616C418.17 187.161 419.28 183.43 419.979 179.65C421.446 171.72 420.747 163.826 419.394 155.943C418.782 152.377 419.681 148.552 418.849 145.077C418.271 142.664 416.567 142.806 414.3 142.258C406.136 140.281 397.956 138.365 389.787 136.407C386.469 135.611 382.861 134.118 379.416 134.168C376.588 134.209 374.212 135.893 371.772 137.114C367.765 139.117 361.396 142.623 356.795 140.63C351.433 138.308 357.681 133.066 354.993 130.586C353.149 128.886 347.64 129.906 345.141 129.483C343.77 129.252 340.625 128.205 339.368 129.047ZM423.736 197.532C419.837 198.146 417.579 199.836 415.432 203.152C413.25 206.523 412.989 208.192 416.101 210.829C419.457 213.673 422.968 216.483 426.531 219.044C431.047 222.291 436.056 224.749 440.52 228.075C442.474 229.532 451.345 218.112 452.885 216.546C455.008 214.386 457.188 212.219 459.466 210.231C460.299 209.504 462.909 207.819 462.91 206.583C462.913 203.459 455.981 200.665 453.75 199.805C448.753 197.878 443.513 197.101 438.188 197.02C433.468 196.949 428.412 196.795 423.736 197.532ZM441.112 183.791C437.451 185.733 433.627 187.37 429.944 189.272C428.637 189.946 420.396 193.405 420.812 195.473C430.086 194.885 439.318 193.317 448.562 195.111C452.713 195.917 456.669 197.268 460.138 199.76C462.765 201.647 464.768 205.272 467.377 202.045C462.051 199.029 457.255 195.032 452.532 191.151C450.465 189.451 448.338 187.854 446.24 186.201C444.992 185.218 442.934 182.824 441.112 183.791ZM221.768 138.634C218.867 139.041 216.04 139.809 213.191 140.468C201.649 143.14 190.064 145.538 178.553 148.365C155.594 154.003 131.947 159.44 110.054 168.472C111.895 170.506 116.773 169.033 119.057 168.634C123.529 167.853 127.869 166.489 132.287 165.459C136.608 164.453 140.945 163.252 145.302 162.413C147.308 162.026 150.848 161.517 150.929 164.523C151.044 168.786 142.757 171.973 139.716 173.531C136.464 175.196 133.315 177.038 130.219 178.974C127.772 180.506 123.258 182.547 122.464 185.591C130.407 182.229 138.354 178.88 146.248 175.404C149.221 174.095 152.233 172.861 155.064 171.263C156.951 170.198 159.38 168.329 161.615 168.161C164.641 167.933 165.142 170.679 163.867 172.894C162.272 175.668 158.979 177.232 156.558 179.173C153.47 181.648 150.738 184.567 147.958 187.368C145.65 189.693 142.679 191.982 141.475 195.126C145.623 196.512 150.336 192.068 153.384 189.872C158.175 186.42 162.636 182.665 167.206 178.935C169.544 177.027 172.331 173.936 175.408 173.366C179.307 172.644 178.984 177.099 178.039 179.554C175.925 185.043 170.977 189.62 170.623 195.808C170.406 199.618 173.635 198.167 175.789 196.639C179.417 194.066 181.872 190.144 185.165 187.193C193.094 180.084 202.17 174.02 211.978 169.809C213.734 169.055 214.365 166.35 214.899 164.724C215.695 162.297 216.612 159.943 217.569 157.571C219.666 152.375 221.386 146.759 224.325 141.959C225.145 140.62 227.26 139.256 225.51 138.469C224.56 138.041 222.75 138.496 221.768 138.634ZM305.497 129.844C302.526 130.191 299.519 130.159 296.542 130.473C291.684 130.985 293.803 136.89 293.021 140.448C290.716 150.923 279.606 152.901 271.186 147.959C266.45 145.179 263.606 141.193 261.059 136.531C259.607 133.873 258.525 133.446 255.521 134.111C253.459 134.568 251.583 134.471 249.486 134.623C246.847 134.814 246.617 135.373 246.562 137.883C246.515 140.112 246.194 141.656 244.709 143.462C241.879 146.901 237.133 149.166 233.09 150.894C229.039 152.626 224.451 153.913 222.227 158.006C221.105 160.07 219.904 162.533 219.579 164.879C219.224 167.442 220.095 169.032 218.599 171.396C215.49 176.311 214.065 181.682 212.493 187.268C211.981 189.088 211.778 189.836 213.766 190.336C216.618 191.055 220.668 189.965 223.595 189.85C225.683 189.769 226.902 186.09 227.581 184.599C228.901 181.701 230.518 178.956 232.139 176.213C235.81 169.999 239.736 163.826 244.532 158.397C248.153 154.299 253.497 149.197 258.132 154.956C262.65 160.568 265.905 167.141 271.338 172.032C276.117 176.335 281.041 176.404 285.996 172.326C290.875 168.312 294.583 162.834 297.615 157.369C300.895 151.46 303.368 145.151 306.565 139.206C307.566 137.342 312.193 132.301 310.783 130.142C309.831 128.684 306.833 129.689 305.497 129.844ZM330.378 128.555C327.763 128.679 325.131 128.385 322.516 128.333C317.783 128.24 313.824 128.405 311.448 132.937C309.349 136.937 307.562 141.193 305.647 145.288C301.488 154.186 297.407 163.29 291.021 170.862C285.363 177.57 278.053 180.949 270.693 174.541C267.43 171.7 264.951 168.034 262.609 164.431C260.731 161.543 258.589 156.459 255.444 154.775C251.937 152.898 247.922 157.204 245.778 159.541C242.174 163.47 239.162 168.09 236.268 172.551C234.17 175.787 232.161 179.091 230.121 182.365C229.295 183.692 225.927 188.034 227.048 189.688C228.172 191.346 233.658 190.213 235.245 190.061C239.035 189.7 242.819 189.569 246.611 189.243C258.404 188.23 270.023 185.64 281.847 184.949C289.635 184.493 297.31 182.989 304.976 181.622C312.431 180.293 319.934 179.386 327.309 177.63C331.645 176.597 335.989 175.563 340.317 174.492C341.815 174.122 348.893 173.111 349.333 171.166C344.459 170.316 341.9 168.427 340.172 163.675C338.007 157.724 337.756 151.092 337.571 144.821C337.5 142.409 337.488 139.996 337.487 137.583L337.487 134.688C337.486 132.957 338.234 129.817 336.673 128.616C335.229 127.505 332.052 128.475 330.378 128.555ZM427.133 166.986C427.337 174.827 425.934 182.73 422.711 189.895C426.083 190.435 430.093 186.207 432.922 184.791C434.011 184.245 441.225 181.626 438.81 179.623C434.366 175.94 431.452 170.794 427.133 166.986ZM523.822 173.362C524.811 175.312 523.589 177.787 522.928 179.637C528.073 180.872 533.197 182.086 538.381 183.135C542.288 183.925 540.925 186.266 537.533 186.105C532.817 185.881 528.429 183.884 523.736 183.625C519.265 183.377 518.739 187.278 514.928 188.029C515.057 185.883 516.794 184.393 518.042 182.783C515.985 181.728 513.884 180.748 511.889 179.586C510.855 178.984 508 176.46 509.099 175.119C510.209 173.765 513.119 176.302 514.155 176.861C515.627 177.655 518.565 179.406 520.297 178.904C522.669 178.215 522.175 174.812 523.822 173.362ZM449.689 122.269C447.601 122.414 445.331 121.712 443.354 122.63C441.383 123.546 439.03 125.55 437.382 126.94C435.786 128.285 434.992 129.919 433.008 130.713C431.026 131.508 428.995 131.437 428.231 133.859C430.029 134.352 433.559 133.698 434.968 135.019C437.016 136.941 433.442 139.056 431.959 139.661C429.832 140.529 428.093 140.247 425.919 140.085C424.973 140.014 424.981 139.724 424.206 140.192C421.332 141.928 423.321 148.104 424.253 150.357C428.815 161.385 444.401 157.671 453.39 156.542C450.53 153.662 445.845 150.486 445.609 145.963C445.539 144.616 445.873 142.209 447.603 142.097C448.987 142.008 450.647 144.096 451.508 144.92C454.062 147.359 457.366 151.405 461.06 151.755C465.997 152.223 469.795 144.232 471.843 140.747C469.327 140.274 466.569 140.302 465.107 137.835C463.368 134.902 463.337 130.409 463.368 127.107C463.394 124.296 464.29 121.221 460.53 121.083C457.066 120.956 453.186 122.027 449.689 122.269ZM118.163 129.48C117.443 131.048 114.318 131.662 112.945 132.082C107.725 133.675 102.628 135.699 97.5386 137.684C87.2642 141.692 77.1021 146.118 67.7202 152.008C65.9669 153.11 66.8258 150.986 67.2813 150.22C68.3022 148.502 70.4473 147.287 72.0496 146.235C76.3851 143.388 80.9773 141.387 85.7713 139.483C95.3642 135.672 105.103 131.631 114.941 128.544C116.082 128.186 119.129 127.373 118.163 129.48ZM237.323 137.245C235.416 137.442 233.182 137.009 231.347 137.631C228.957 138.441 229.351 140.081 228.644 142.097C227.444 145.52 226.16 148.914 224.908 152.319C229.542 152.103 233.981 148.437 237.909 146.326C240.132 145.132 247.862 141.167 245.531 137.537C244.055 135.24 239.44 137.025 237.323 137.245ZM290.067 131.278C287.197 131.226 284.042 132.094 281.137 132.238C277.243 132.432 273.408 133.172 269.519 133.351C266.96 133.469 264.448 133.994 261.916 134.339C264.435 140.17 269.351 145.27 275.528 147.382C280.401 149.048 287.221 149.331 290.55 144.72C292.466 142.068 295.595 131.377 290.067 131.278ZM439.498 107.192C436.369 109.269 433.861 112.246 431.247 114.902C424.7 121.554 417.924 128.675 415.09 137.793C414.7 139.043 417.652 140.146 418.451 140.195C420.14 140.297 420.483 139.446 421.147 138.02C422.787 134.49 423.416 130.546 426.04 127.536C429.239 123.866 433.09 120.288 436.802 117.135C439.325 114.993 445.508 111.976 446.233 108.434C447.09 104.247 441.393 105.934 439.498 107.192ZM358.779 131.421C357.01 131.936 356.869 133.572 356.464 135.335C354.838 142.419 371.289 134.69 373.58 133.532C372.818 131.258 365.32 131.673 363.584 131.584C362.232 131.515 360.086 131.041 358.779 131.421ZM455.956 135.101C453.518 135.195 454.642 125.244 457.414 126.245C459.79 127.104 457.519 135.04 455.956 135.101ZM113.245 123.659C109.512 126.879 103.652 127.311 99.0105 128.345C92.1716 129.868 85.3924 131.809 78.609 133.56C74.3254 134.666 76.7368 132.029 78.8816 131.038C82.5692 129.334 86.7442 128.426 90.6856 127.488C94.9527 126.473 99.3131 125.795 103.556 124.688C106.494 123.921 110.283 121.959 113.245 123.659ZM229.374 54.4568C233.522 55.2181 237.663 56.5439 241.3 58.7157C244.31 60.5135 244.191 63.3107 240.374 61.6877C222.572 54.1151 200.481 58.7023 183.097 65.4076C181.179 66.147 181.322 64.5337 181.901 63.29C182.7 61.5769 184.405 60.5823 186.043 59.7869C190.963 57.3959 196.635 56.0439 201.985 55.0506C210.901 53.3953 220.416 52.8136 229.374 54.4568ZM231.975 43.58C234.237 44.1932 236.836 45.714 238.22 47.6433C239.839 49.9011 238.551 51.055 236.304 49.7272C233.797 48.2453 231.504 46.7678 228.626 45.9851C227.107 45.5724 227.168 44.6201 228.259 43.7842C229.281 43.0015 230.867 43.2793 231.975 43.58Z" fill="#1E1559"/>
<path fill-rule="evenodd" clip-rule="evenodd" d="M328.8 42.3713C337.258 42.7568 345.929 43.1497 354.313 44.3393C362.67 45.5247 370.469 48.5568 378.023 52.2281C391.642 58.8476 405.562 66.8939 414.322 79.6265C418.418 85.5797 421.758 91.813 427.412 96.4993C428.734 97.5952 430.176 98.9123 431.931 99.2476C433.326 99.5142 434.557 98.9497 435.924 98.8823C438.532 98.753 439.521 100.127 439.521 102.717C441.479 101.936 443.61 101.229 445.746 101.516C447.531 101.756 448.95 102.832 450.664 103.284C453.757 104.101 456.784 102.88 459.725 101.97C467.155 99.6729 475.315 97.9335 483.121 98.753C488.262 99.2929 494.492 101.521 491.829 108.139C489.622 113.629 481.366 116.408 476.151 117.773C471.715 118.936 465.752 117.898 466.127 124.015C466.388 128.284 467.034 132.863 471.575 134.248C474.064 135.008 482.885 136.139 477.734 139.991C473.93 142.836 472.602 147.843 469.71 151.603C466.022 156.396 461.023 160.271 455.18 162.02C448.642 163.978 441.723 163.602 435.006 164.361C439.737 170.885 446.567 175.372 452.784 180.333C459.321 185.55 465.627 191.25 473.193 194.969C479.973 198.302 487.299 200.616 494.303 203.442C501.658 206.411 509.066 209.345 516.658 211.657C531.974 216.322 548.083 219.58 563.828 222.441C571.599 223.853 579.217 223.646 587.066 223.771C595.117 223.901 603.163 225.312 611.067 226.761C614.898 227.464 618.766 227.907 622.597 228.607C624.436 228.943 631.713 229.683 631.973 232.374C632.398 236.756 627.655 239.213 624.182 240.435C622.699 240.957 620.31 240.881 619.026 241.599C617.636 242.375 618.179 243.518 618.02 245.022C617.788 247.207 616.618 248.779 614.825 249.991C613.349 250.988 611.571 250.949 612.588 252.838C613.057 253.708 614.23 254.257 614.771 255.176C615.389 256.223 615.674 257.372 615.548 258.578C615.329 260.689 613.933 262.3 611.987 263.046C608.876 264.239 605.225 263.395 602.038 263.008C596.705 262.36 591.295 262.295 586.034 261.129C580.548 259.914 575.21 258.041 569.719 256.796C566.903 256.158 564.081 255.623 561.329 254.738C559.539 254.162 556.951 252.667 555.044 253.135C553.257 253.574 551.861 255.729 550.693 256.98C549.081 258.706 547.521 260.479 545.883 262.181C544.798 263.308 543.684 264.412 542.499 265.435C542.114 265.767 539.735 267.221 539.701 267.611C539.609 268.714 542.206 268.695 542.762 269.133C545.995 271.686 541.137 273.302 539.041 273.174C534.21 272.88 529.354 272.287 524.569 271.578C513.175 269.889 501.814 268.065 490.92 264.252C480.145 260.479 469.63 256.467 459.664 250.844C450.098 245.447 440.845 239.346 431.809 233.109C427.424 230.083 423.009 226.947 419.307 223.092C415.686 219.321 412.734 214.992 409.732 210.732C402.541 217.672 395.621 224.97 387.897 231.332C380.549 237.384 371.716 240.617 363.17 244.547C363.447 246.333 371.8 247.403 373.326 247.867C380.294 249.986 386.98 253.385 393.757 256.052C405.031 260.487 415.728 266.26 419.483 278.579C423.175 290.69 418.893 302.882 413.671 313.824C407.507 326.74 400.187 338.704 391.336 349.964C387.572 354.755 383.517 359.165 379.385 363.625C375.861 367.432 372.839 371.94 374.316 377.35C377.152 376.464 377.673 378.676 375.818 380.548C374.169 382.212 371.32 382.535 369.119 382.811C362.446 383.647 355.554 383.351 348.874 382.73C336.711 381.598 324.521 378.53 313.509 373.252C308.031 370.626 306.048 374.86 302.281 378.14C299.316 380.72 295.234 382.392 292.981 385.731C291.128 388.477 292.338 392.817 296.188 391.788C299.183 390.986 301.589 387.647 304.762 387.519C310.393 387.291 299.769 395.319 298.409 396.299C301.1 398.704 304.152 395.406 306.865 394.855C309.468 394.327 310.195 395.673 308.808 397.841C307.727 399.532 304.33 400.729 306.589 402.785C308.461 404.488 312.611 405.385 314.91 406.131C322.08 408.461 329.214 410.118 336.678 411.182C339.089 411.526 342.954 411.306 344.908 413.014C347.486 415.266 346.243 418.999 344.938 421.579C339.996 431.353 329.72 436.158 319.166 436.862C312.667 437.294 306.106 436.875 299.585 437.226C292.44 437.61 285.279 438.181 278.118 437.945C266.605 437.566 259.281 429.25 253.541 420.106C249.895 414.297 246.534 408.318 243.377 402.231C242.144 399.853 239.562 397.389 239.122 394.717C238.726 392.311 240.262 390.382 241.754 388.679C245.682 384.2 250.407 380.781 255.023 377.08C257.659 374.967 258.673 373.218 259.846 370.142C260.834 367.553 262.734 366.446 264.407 364.381C266.247 362.108 265.669 361.706 264.234 359.849C262.732 357.904 263.322 355.039 263.953 352.838C264.857 349.681 266.797 348.986 269.695 347.969C272.337 347.042 274.576 345.415 276.919 343.905C288.49 336.449 299.392 328.012 311.106 320.764C322.663 313.613 334.741 307.296 345.771 299.317C336.814 298.114 328.918 293.281 320.469 290.419C316.133 288.951 311.838 287.382 307.643 285.544C306.041 284.843 304.174 284.219 302.745 283.186C301.309 282.149 300.205 280.785 298.7 279.804C295.128 277.475 290.881 276.149 287.04 274.334C282.892 272.373 278.797 270.23 274.942 267.735C271.343 265.405 267.888 262.743 264.896 259.666C262.512 257.215 260.194 254.02 256.819 252.895C257.173 257.591 262.995 261.48 266.186 264.307C271.364 268.893 276.747 272.791 282.535 276.579C276.043 282.137 268.13 285.756 260.528 289.51C251.98 293.73 243.671 298.409 235.158 302.695C227.946 306.326 220.358 309.124 213.028 312.498C205.119 316.138 196.979 319.19 188.727 321.959C181.26 324.465 174.229 327.138 167.183 330.655C160.333 334.075 153.004 336.69 145.676 338.885C137.442 341.351 129.587 343.697 121.669 347.077C114.529 350.125 107.359 352.074 99.8022 353.731C97.3062 354.279 94.1011 355.283 92.3529 352.868C91.0279 351.038 90.8285 348.216 90.4482 346.064C88.9913 337.827 88.876 329.459 87.5657 321.21C82.5915 322.71 77.8804 324.555 72.6326 324.793C69.3336 324.943 67.329 325.283 66.507 328.882C68.4154 329.097 75.2341 329.192 75.4182 331.893C75.585 334.329 71.4592 334.354 69.9962 334.421C67.3781 334.54 65.0054 334.111 63.608 336.671C65.6666 337.431 70.2311 336.046 71.1426 338.813C72.3173 342.382 66.983 342.373 65.0636 342.661C61.715 343.162 62.0591 345.79 62.2885 348.599C62.5903 352.295 62.8191 355.995 63.3185 359.672C64.3858 367.529 66.2138 375.267 67.0793 383.153C67.8277 389.971 68.2473 396.52 63.37 401.954C61.4089 404.139 58.6828 406.654 55.601 406.914C52.4732 407.177 52.5302 404.988 50.5832 403.377C49.3901 402.39 47.81 402.189 46.4046 401.656C44.695 401.009 43.0363 400.061 41.5003 399.078C38.6694 397.268 36.1948 395.02 34.1933 392.319C26.3654 381.75 23.567 365.96 22.7916 353.145C22.2984 344.997 22.7904 336.837 23.5388 328.72C23.9418 324.348 24.3472 319.975 24.8766 315.616C25.0404 314.266 25.3146 312.913 25.4164 311.559C25.4747 310.783 25.1005 309.216 25.4968 308.473C24.9907 309.421 24.0945 308.72 23.2044 307.973C21.3672 306.431 21.9328 303.47 22.9155 301.443C25.8765 295.333 34.7502 295.095 40.5231 294.62C56.0408 293.343 70.7832 289.186 85.639 284.744C83.5423 281.608 86.8401 279.537 89.3962 278.458C93.338 276.796 97.4087 275.334 101.387 273.747C110.372 270.161 119.17 266.819 128.578 264.531C137.101 262.459 145.347 259.019 153.755 256.498C162.442 253.892 170.973 250.915 179.517 247.88C196.441 241.87 213.38 235.729 229.804 228.439C233.955 226.596 237.921 224.459 241.927 222.327C245.182 220.596 249.002 219.326 251.761 216.825C254.396 214.436 255.974 211.115 258.838 208.946C261.416 206.992 264.945 206.965 267.081 204.539C269.971 201.259 273.42 199.817 277.343 197.893C278.603 197.275 286.898 194.153 286.729 192.381C280.801 192.381 274.716 194.143 268.854 194.964C262.653 195.832 256.458 196.797 250.212 197.277C240.091 198.054 229.975 197.844 219.897 196.748C218.391 196.585 212.35 195.345 211.308 196.959C210.514 198.189 212.488 199.653 212.507 200.975C212.537 202.914 210.972 203.954 209.201 203.281C205.752 201.97 206.258 196.417 206.58 193.599C207.196 188.209 208.568 182.868 209.766 177.586C202.651 181.205 195.895 185.851 189.768 190.957C185.022 194.911 180.737 200.274 175.168 203.093C169.821 205.801 166.641 203.491 166.86 197.53C166.961 194.799 167.515 192.207 168.461 189.663C168.908 188.461 170.746 185.059 169.885 183.779C164.998 187.673 160.143 191.577 155.013 195.152C151.387 197.679 146.129 201.62 141.394 200.617C137.212 199.731 137.621 195.133 138.947 192.036C140.097 189.349 142.163 186.961 144.21 184.909C145.903 183.213 148.31 181.693 149.158 179.342C143.542 181.864 137.759 183.773 131.875 185.545C127.691 186.806 124.766 192.04 119.9 191.266C115.03 190.492 116.969 184.478 118.913 181.862C120.274 180.033 122.156 178.422 123.981 177.069C125.762 175.75 128.47 174.601 129.346 172.406C123.656 173.474 117.935 175.329 112.08 174.987C108.603 174.783 102.799 173.266 103.485 168.596C104.18 163.867 110.483 163.505 114.026 162.623C118.858 161.419 123.482 159.161 128.145 157.439C137.55 153.963 147.139 151.176 156.763 148.406L159.803 147.531C170.665 144.403 181.589 141.738 192.586 139.14C198.022 137.855 203.438 136.454 208.917 135.358C214.217 134.298 219.602 133.683 224.861 132.416C220.429 125.73 225.796 120.236 231.593 117.054C227.916 116.312 224.178 115.865 220.534 114.964C217.421 114.196 214.422 113.015 211.287 112.334C205.898 111.166 200.517 110.551 195.917 107.217C187.224 100.916 186.485 90.8893 193.81 83.3021C201.201 75.6444 212.05 72.0589 222.491 71.7028C234.178 71.3044 247.474 73.5678 258.409 77.7025C263.781 79.7337 269.374 82.3159 273.979 85.7752C277.111 88.1282 282.065 92.6367 286.269 92.6367C281.234 86.5517 275.054 80.259 274.145 72.0178C273.284 64.2154 276.826 55.9221 282.769 50.8754C294.644 40.7943 314.241 41.7069 328.8 42.3713ZM261.097 376.783C257.998 381.6 253.711 385.511 249.664 389.509C248.267 390.887 245.465 392.642 245.33 394.802C245.221 396.565 247.386 398.549 248.332 399.934C253.332 407.263 257.449 415.358 263.556 421.867C270.46 429.223 278.338 430.653 288.114 430.674C298.967 430.698 309.966 432.055 320.801 431.483C329.979 430.998 339.026 426.915 343.59 418.613C340.617 417.082 336.386 417.812 333.163 417.846C328.769 417.892 324.48 417.813 320.14 417.05C316.205 416.358 312.317 415.319 308.616 413.803C306.702 413.019 304.808 412.121 303.045 411.031C301.754 410.234 300.783 409.012 299.515 408.229C294.837 405.343 289.436 414.52 284.436 414.343C281.374 414.236 282.482 411.226 283.757 409.542C286.057 406.502 290.069 404.625 293.099 402.409C290.278 399.815 287.091 402.536 284.406 403.891C281.048 405.586 277.56 407.666 273.809 408.303C274.09 403.472 280.666 400.883 284.294 398.917C285.909 398.043 287.932 397.232 288.33 395.309C288.629 393.862 288.117 391.805 287.965 390.345C287.773 388.488 287.631 387.895 285.652 387.371C283.253 386.736 280.836 386.92 278.432 386.127C271.853 383.956 266.736 380.734 261.097 376.783ZM47.2899 300.652C45.6834 301.097 44.0603 301.483 42.4286 301.827C39.1989 302.508 35.9649 303.215 32.7242 303.832C31.0986 304.142 29.2937 303.946 28.8147 305.496C28.5685 306.291 29.1881 307.719 29.2944 308.545C29.4853 310.033 29.4976 311.542 29.5154 313.042C29.6849 326.855 26.7949 340.588 28.0673 354.4C29.1421 366.073 31.6575 380.833 40.2386 389.527C43.9424 393.279 48.4991 397.354 53.1628 399.919C56.8186 401.928 61.9257 396.884 62.6725 393.392C63.2073 390.89 62.315 388.249 61.7341 385.837C60.9891 382.746 60.2344 379.657 59.4968 376.564C57.9216 369.963 56.4895 363.3 56.0369 356.514C55.8883 354.285 55.9202 352.137 56.0461 349.918C56.1143 348.712 56.6823 345.808 55.8385 344.775C54.7472 343.44 52.2539 344.312 50.7775 344.426C49.1587 344.552 47.5786 344.455 45.9972 344.042C42.2327 343.059 41.5731 340.069 45.6834 338.684C48.5532 337.718 53.799 339.118 56.2101 337.258C59.043 335.071 53.3175 334.771 51.9806 334.714C50.2003 334.639 44.2955 335.104 44.597 331.788C44.82 329.331 49.903 329.167 51.6815 329.062C55.4811 328.84 60.2884 330.261 61.9306 325.684C62.5889 323.85 58.626 322.919 57.6317 322.01C55.2152 319.799 54.423 316.01 54.2154 312.905C54.0109 309.852 57.0182 299.269 52.4363 298.989C51.0293 298.904 48.6908 300.264 47.2899 300.652ZM272.646 361.729C269.949 364.938 267.618 368.452 265.107 371.805C270.997 375.053 277.023 377.666 283.114 380.458C285.884 381.729 287.825 382.736 290.506 380.81C292.429 379.429 293.871 377.465 295.748 376.028C298.445 373.965 301.264 372.073 304.029 370.106C295.87 367.131 287.586 364.521 279.43 361.54C276.379 360.425 274.848 359.108 272.646 361.729ZM205.463 351.538C207.208 353.305 203.849 358.203 203.187 359.88C208.598 359.451 213.962 358.599 219.275 357.501C221.084 357.128 220.417 359.329 219.74 360.055C218.903 360.953 217.229 361.225 216.11 361.545C211.992 362.725 207.768 363.292 203.542 363.922C205.476 366.299 210.129 370.019 208.631 373.594C205.928 371.267 203.985 368.171 200.996 366.158C200.133 367.446 198.341 371.988 196.377 371.71C193.294 371.273 196.417 365.966 197.062 364.688C194.986 364.688 187.186 366.508 186.097 363.955C184.984 361.342 192.511 361.427 193.903 360.81L193.643 360.494L193.383 360.18C192.342 358.926 191.343 357.691 191.202 355.97C193.53 356.771 195.084 360.415 197.642 360.468C200.068 360.518 201.151 356.876 202.015 355.152C202.506 354.171 204.175 350.232 205.463 351.538ZM467.949 317.186C473.165 321.582 469.622 330.448 465.675 334.434C461.254 338.899 451.409 343.001 445.805 338.449C442.736 335.958 443.844 332.157 444.6 328.844C445.439 325.161 445.962 322.056 449.014 319.529C453.763 315.597 462.658 312.727 467.949 317.186ZM457.362 319.741C452.274 320.822 447.117 325.902 445.908 331.137C444.321 338.003 451.454 338.505 456.153 337.473C462.065 336.175 468.345 331.844 468.646 325.05C468.906 319.187 461.316 318.9 457.362 319.741ZM87.0837 290.058C79.4638 292.892 72.3013 296.769 64.3066 298.451C61.8668 298.964 60.8647 299.525 60.2615 301.796C59.4165 304.975 58.6157 308.196 59.2189 311.517C60.4714 318.412 70.0744 317.567 75.4071 317.297C78.1448 317.158 83.4104 317.658 85.7856 315.951C87.5207 314.705 86.7926 312.367 86.5224 310.547C85.5111 303.744 86.6141 296.857 87.0837 290.058ZM502.532 224.351C499.727 224.88 494.877 227.165 498.899 230.029C501.582 231.939 505.576 232.171 508.728 232.643C514.887 233.565 521.46 234.361 526.804 237.832C536.706 244.264 535.493 256.401 532.531 266.334C534.664 267.589 540.93 259.381 542.111 258.047C546.898 252.632 551.706 247.235 556.533 241.855C558.599 239.554 541.663 231.606 540.141 230.89C532.095 227.109 524.586 224.618 515.561 223.969C511.282 223.661 506.768 223.554 502.532 224.351ZM467.602 204.22C466.833 206.156 468.18 207.034 469.417 208.372C476.335 215.85 481.207 226.435 485.059 235.718C486.98 240.347 488.325 245.015 489.515 249.865C490.682 254.624 494.388 255.896 498.83 257.247C509.06 260.359 519.829 261.401 530.096 264.474C532.846 265.297 533.386 259.255 533.559 257.722C534.05 253.362 533.593 248.812 531.301 244.968C526.966 237.703 518.276 236.158 510.525 234.921C506.092 234.213 500.252 233.483 496.744 230.454C494.983 228.934 494.734 227.191 496.107 225.303C498.611 221.858 503.019 221.416 506.958 221.135C508.876 220.998 520.755 222.198 521.143 220.794C515.228 218.868 509.158 217.598 503.33 215.396C498.784 213.677 494.202 212.055 489.615 210.446L485.027 208.84C480.362 207.205 476.09 205.217 471.614 203.248C469.932 202.51 468.39 202.235 467.602 204.22ZM567.924 235.728C566.443 237.719 564.974 239.39 563.863 241.626C562.567 244.235 560.418 245.899 558.621 248.139C567.953 249.784 576.854 251.874 585.845 254.888C590.461 256.436 595.229 257.2 599.951 258.309C603.911 259.238 608.132 260.68 612.234 259.827C607.563 253.395 595.104 255.173 591.824 247.383C589.592 242.084 595.077 237.857 599.563 236.937C607.397 235.331 615.748 235.207 623.705 234.635C623.789 231.593 594.905 230.018 592.049 229.771C586.977 229.333 581.685 228.383 576.624 228.207C571.926 228.044 570.39 232.415 567.924 235.728ZM457.704 213.48C454.922 216.167 452.198 218.913 449.419 221.604C447.592 223.373 445.116 225.257 443.676 227.364C441.837 230.055 445.058 231.349 447.204 232.622C452.622 235.838 458.222 238.839 463.735 241.897C468.687 244.645 473.838 248.143 479.306 249.75C482.229 250.609 484.975 251.944 487.795 253.072C486.435 240.872 479.424 229.791 472.959 219.62C471.475 217.284 469.941 214.981 468.457 212.646C467.709 211.47 466.321 208.696 464.753 208.457C462.436 208.102 459.109 212.122 457.704 213.48ZM599.458 244.531C602.847 246.471 606.244 247.457 610.067 245.992C611.007 245.608 611.938 245.203 612.858 244.776C610.311 241.305 602.778 243.42 599.458 244.531ZM318.772 202.073C312.765 204.779 306.339 207.475 301.115 211.558C299.186 213.066 294.877 216.232 295.885 219.104C296.748 221.563 301.519 223.657 303.784 224.406C315.701 228.348 329.264 225.481 340.237 232.714C343.207 234.672 344.175 237.231 346.381 239.805C348.376 242.133 350.9 241.843 353.582 240.878C357.102 239.609 360.346 237.666 363.88 236.421C365.687 235.784 368.759 235.362 368.946 232.925C369.83 221.439 367.378 206.804 357.245 199.776C345.87 191.887 330.178 196.935 318.772 202.073ZM312.33 228.841C312.039 230.297 323.314 232.934 324.539 233.271C331.347 235.145 337.708 239.6 344.76 240.319C345.986 237.586 336.218 233.235 334.673 232.674C327.623 230.116 319.734 229.652 312.33 228.841ZM533.736 223.739C542.284 227.239 550.57 231.525 557.735 237.485C560.206 239.54 566.21 229.787 567.554 228.291C556.169 227.818 544.95 225.648 533.736 223.739ZM373.974 155.129C366.05 160.36 359.148 167.2 350.448 171.21C353.171 171.639 356.143 169.877 358.742 169.26C361.274 168.658 363.835 168.261 366.299 167.41C367.813 166.887 374.066 163.51 375.239 165.799C377.073 169.374 364.16 171.848 362.324 172.458C356.124 174.517 349.964 176.673 343.828 178.914C337.884 181.084 331.944 183.42 325.802 184.978C319.564 186.561 312.949 186.969 306.952 189.428C301.648 191.602 297.09 195.2 291.975 197.739C286.845 200.285 281.014 201.86 276.592 205.65C281.401 210.778 287.087 215.072 293.308 218.341C294.305 210.521 303.477 206.068 309.752 203.062C323.432 196.509 343.978 186.628 357.922 197.733C368.113 205.849 369.493 221.249 369.493 233.304C372.254 232.426 374.774 231.029 377.338 229.71C379.114 228.796 379.134 226.252 379.358 224.552C379.723 221.769 380.477 219.074 381.342 216.404C383.255 210.498 385.65 204.736 387.932 198.966C391.626 189.633 396.179 180.429 398.449 170.61C399.931 164.202 401.693 153.187 393.962 150.007C387.273 147.255 379.405 151.544 373.974 155.129ZM339.368 129.047C338.076 129.912 338.558 132.508 338.646 133.81C338.967 138.546 338.766 143.302 338.924 148.047C339.117 153.828 339.16 164.429 345.125 167.67C349.206 169.887 354.28 166.565 357.536 164.303C363.046 160.477 368.101 156.033 373.686 152.298C380.308 147.87 392.856 141.744 399.193 150.075C402.622 154.583 402.141 161.301 401.285 166.547C400.156 173.468 397.518 180.032 394.897 186.5C389.484 199.855 383.834 213.428 380.824 227.565C387.687 223.489 393.025 217.614 399.015 212.453C403.455 208.628 410.049 204.235 411.074 198C411.306 196.592 412.67 195.589 413.608 194.647C414.829 193.421 415.689 192.18 416.463 190.616C418.17 187.161 419.28 183.43 419.979 179.65C421.446 171.72 420.747 163.826 419.394 155.943C418.782 152.377 419.681 148.552 418.849 145.077C418.271 142.664 416.567 142.806 414.3 142.258C406.136 140.281 397.956 138.365 389.787 136.407C386.469 135.611 382.861 134.118 379.416 134.168C376.588 134.209 374.212 135.893 371.772 137.114C367.765 139.117 361.396 142.623 356.795 140.63C351.433 138.308 357.681 133.066 354.993 130.586C353.149 128.886 347.64 129.906 345.141 129.483C343.77 129.252 340.625 128.205 339.368 129.047ZM423.736 197.532C419.837 198.146 417.579 199.836 415.432 203.152C413.25 206.523 412.989 208.192 416.101 210.829C419.457 213.673 422.968 216.483 426.531 219.044C431.047 222.291 436.056 224.749 440.52 228.075C442.474 229.532 451.345 218.112 452.885 216.546C455.008 214.386 457.188 212.219 459.466 210.231C460.299 209.504 462.909 207.819 462.91 206.583C462.913 203.459 455.981 200.665 453.75 199.805C448.753 197.878 443.513 197.101 438.188 197.02C433.468 196.949 428.412 196.795 423.736 197.532ZM441.112 183.791C437.451 185.733 433.627 187.37 429.944 189.272C428.637 189.946 420.396 193.405 420.812 195.473C430.086 194.885 439.318 193.317 448.562 195.111C452.713 195.917 456.669 197.268 460.138 199.76C462.765 201.647 464.768 205.272 467.377 202.045C462.051 199.029 457.255 195.032 452.532 191.151C450.465 189.451 448.338 187.854 446.24 186.201C444.992 185.218 442.934 182.824 441.112 183.791ZM221.768 138.634C218.867 139.041 216.04 139.809 213.191 140.468C201.649 143.14 190.064 145.538 178.553 148.365C155.594 154.003 131.947 159.44 110.054 168.472C111.895 170.506 116.773 169.033 119.057 168.634C123.529 167.853 127.869 166.489 132.287 165.459C136.608 164.453 140.945 163.252 145.302 162.413C147.308 162.026 150.848 161.517 150.929 164.523C151.044 168.786 142.757 171.973 139.716 173.531C136.464 175.196 133.315 177.038 130.219 178.974C127.772 180.506 123.258 182.547 122.464 185.591C130.407 182.229 138.354 178.88 146.248 175.404C149.221 174.095 152.233 172.861 155.064 171.263C156.951 170.198 159.38 168.329 161.615 168.161C164.641 167.933 165.142 170.679 163.867 172.894C162.272 175.668 158.979 177.232 156.558 179.173C153.47 181.648 150.738 184.567 147.958 187.368C145.65 189.693 142.679 191.982 141.475 195.126C145.623 196.512 150.336 192.068 153.384 189.872C158.175 186.42 162.636 182.665 167.206 178.935C169.544 177.027 172.331 173.936 175.408 173.366C179.307 172.644 178.984 177.099 178.039 179.554C175.925 185.043 170.977 189.62 170.623 195.808C170.406 199.618 173.635 198.167 175.789 196.639C179.417 194.066 181.872 190.144 185.165 187.193C193.094 180.084 202.17 174.02 211.978 169.809C213.734 169.055 214.365 166.35 214.899 164.724C215.695 162.297 216.612 159.943 217.569 157.571C219.666 152.375 221.386 146.759 224.325 141.959C225.145 140.62 227.26 139.256 225.51 138.469C224.56 138.041 222.75 138.496 221.768 138.634ZM305.497 129.844C302.526 130.191 299.519 130.159 296.542 130.473C291.684 130.985 293.803 136.89 293.021 140.448C290.716 150.923 279.606 152.901 271.186 147.959C266.45 145.179 263.606 141.193 261.059 136.531C259.607 133.873 258.525 133.446 255.521 134.111C253.459 134.568 251.583 134.471 249.486 134.623C246.847 134.814 246.617 135.373 246.562 137.883C246.515 140.112 246.194 141.656 244.709 143.462C241.879 146.901 237.133 149.166 233.09 150.894C229.039 152.626 224.451 153.913 222.227 158.006C221.105 160.07 219.904 162.533 219.579 164.879C219.224 167.442 220.095 169.032 218.599 171.396C215.49 176.311 214.065 181.682 212.493 187.268C211.981 189.088 211.778 189.836 213.766 190.336C216.618 191.055 220.668 189.965 223.595 189.85C225.683 189.769 226.902 186.09 227.581 184.599C228.901 181.701 230.518 178.956 232.139 176.213C235.81 169.999 239.736 163.826 244.532 158.397C248.153 154.299 253.497 149.197 258.132 154.956C262.65 160.568 265.905 167.141 271.338 172.032C276.117 176.335 281.041 176.404 285.996 172.326C290.875 168.312 294.583 162.834 297.615 157.369C300.895 151.46 303.368 145.151 306.565 139.206C307.566 137.342 312.193 132.301 310.783 130.142C309.831 128.684 306.833 129.689 305.497 129.844ZM330.378 128.555C327.763 128.679 325.131 128.385 322.516 128.333C317.783 128.24 313.824 128.405 311.448 132.937C309.349 136.937 307.562 141.193 305.647 145.288C301.488 154.186 297.407 163.29 291.021 170.862C285.363 177.57 278.053 180.949 270.693 174.541C267.43 171.7 264.951 168.034 262.609 164.431C260.731 161.543 258.589 156.459 255.444 154.775C251.937 152.898 247.922 157.204 245.778 159.541C242.174 163.47 239.162 168.09 236.268 172.551C234.17 175.787 232.161 179.091 230.121 182.365C229.295 183.692 225.927 188.034 227.048 189.688C228.172 191.346 233.658 190.213 235.245 190.061C239.035 189.7 242.819 189.569 246.611 189.243C258.404 188.23 270.023 185.64 281.847 184.949C289.635 184.493 297.31 182.989 304.976 181.622C312.431 180.293 319.934 179.386 327.309 177.63C331.645 176.597 335.989 175.563 340.317 174.492C341.815 174.122 348.893 173.111 349.333 171.166C344.459 170.316 341.9 168.427 340.172 163.675C338.007 157.724 337.756 151.092 337.571 144.821C337.5 142.409 337.488 139.996 337.487 137.583L337.487 134.688C337.486 132.957 338.234 129.817 336.673 128.616C335.229 127.505 332.052 128.475 330.378 128.555ZM427.133 166.986C427.337 174.827 425.934 182.73 422.711 189.895C426.083 190.435 430.093 186.207 432.922 184.791C434.011 184.245 441.225 181.626 438.81 179.623C434.366 175.94 431.452 170.794 427.133 166.986ZM523.822 173.362C524.811 175.312 523.589 177.787 522.928 179.637C528.073 180.872 533.197 182.086 538.381 183.135C542.288 183.925 540.925 186.266 537.533 186.105C532.817 185.881 528.429 183.884 523.736 183.625C519.265 183.377 518.739 187.278 514.928 188.029C515.057 185.883 516.794 184.393 518.042 182.783C515.985 181.728 513.884 180.748 511.889 179.586C510.855 178.984 508 176.46 509.099 175.119C510.209 173.765 513.119 176.302 514.155 176.861C515.627 177.655 518.565 179.406 520.297 178.904C522.669 178.215 522.175 174.812 523.822 173.362ZM449.689 122.269C447.601 122.414 445.331 121.712 443.354 122.63C441.383 123.546 439.03 125.55 437.382 126.94C435.786 128.285 434.992 129.919 433.008 130.713C431.026 131.508 428.995 131.437 428.231 133.859C430.029 134.352 433.559 133.698 434.968 135.019C437.016 136.941 433.442 139.056 431.959 139.661C429.832 140.529 428.093 140.247 425.919 140.085C424.973 140.014 424.981 139.724 424.206 140.192C421.332 141.928 423.321 148.104 424.253 150.357C428.815 161.385 444.401 157.671 453.39 156.542C450.53 153.662 445.845 150.486 445.609 145.963C445.539 144.616 445.873 142.209 447.603 142.097C448.987 142.008 450.647 144.096 451.508 144.92C454.062 147.359 457.366 151.405 461.06 151.755C465.997 152.223 469.795 144.232 471.843 140.747C469.327 140.274 466.569 140.302 465.107 137.835C463.368 134.902 463.337 130.409 463.368 127.107C463.394 124.296 464.29 121.221 460.53 121.083C457.066 120.956 453.186 122.027 449.689 122.269ZM118.163 129.48C117.443 131.048 114.318 131.662 112.945 132.082C107.725 133.675 102.628 135.699 97.5386 137.684C87.2642 141.692 77.1021 146.118 67.7202 152.008C65.9669 153.11 66.8258 150.986 67.2813 150.22C68.3022 148.502 70.4473 147.287 72.0496 146.235C76.3851 143.388 80.9773 141.387 85.7713 139.483C95.3642 135.672 105.103 131.631 114.941 128.544C116.082 128.186 119.129 127.373 118.163 129.48ZM237.323 137.245C235.416 137.442 233.182 137.009 231.347 137.631C228.957 138.441 229.351 140.081 228.644 142.097C227.444 145.52 226.16 148.914 224.908 152.319C229.542 152.103 233.981 148.437 237.909 146.326C240.132 145.132 247.862 141.167 245.531 137.537C244.055 135.24 239.44 137.025 237.323 137.245ZM290.067 131.278C287.197 131.226 284.042 132.094 281.137 132.238C277.243 132.432 273.408 133.172 269.519 133.351C266.96 133.469 264.448 133.994 261.916 134.339C264.435 140.17 269.351 145.27 275.528 147.382C280.401 149.048 287.221 149.331 290.55 144.72C292.466 142.068 295.595 131.377 290.067 131.278ZM439.498 107.192C436.369 109.269 433.861 112.246 431.247 114.902C424.7 121.554 417.924 128.675 415.09 137.793C414.7 139.043 417.652 140.146 418.451 140.195C420.14 140.297 420.483 139.446 421.147 138.02C422.787 134.49 423.416 130.546 426.04 127.536C429.239 123.866 433.09 120.288 436.802 117.135C439.325 114.993 445.508 111.976 446.233 108.434C447.09 104.247 441.393 105.934 439.498 107.192ZM358.779 131.421C357.01 131.936 356.869 133.572 356.464 135.335C354.838 142.419 371.289 134.69 373.58 133.532C372.818 131.258 365.32 131.673 363.584 131.584C362.232 131.515 360.086 131.041 358.779 131.421ZM455.956 135.101C453.518 135.195 454.642 125.244 457.414 126.245C459.79 127.104 457.519 135.04 455.956 135.101ZM113.245 123.659C109.512 126.879 103.652 127.311 99.0105 128.345C92.1716 129.868 85.3924 131.809 78.609 133.56C74.3254 134.666 76.7368 132.029 78.8816 131.038C82.5692 129.334 86.7442 128.426 90.6856 127.488C94.9527 126.473 99.3131 125.795 103.556 124.688C106.494 123.921 110.283 121.959 113.245 123.659ZM229.374 54.4568C233.522 55.2181 237.663 56.5439 241.3 58.7157C244.31 60.5135 244.191 63.3107 240.374 61.6877C222.572 54.1151 200.481 58.7023 183.097 65.4076C181.179 66.147 181.322 64.5337 181.901 63.29C182.7 61.5769 184.405 60.5823 186.043 59.7869C190.963 57.3959 196.635 56.0439 201.985 55.0506C210.901 53.3953 220.416 52.8136 229.374 54.4568ZM231.975 43.58C234.237 44.1932 236.836 45.714 238.22 47.6433C239.839 49.9011 238.551 51.055 236.304 49.7272C233.797 48.2453 231.504 46.7678 228.626 45.9851C227.107 45.5724 227.168 44.6201 228.259 43.7842C229.281 43.0015 230.867 43.2793 231.975 43.58Z" fill="#1E1559"/>
</svg>
