<svg width="624" height="234" viewBox="0 0 624 234" fill="none" xmlns="http://www.w3.org/2000/svg">
<rect width="624" height="234" fill="#F2BC1B"/>
<path d="M65.707 116.234L62.4609 116.82C62.3516 116.172 62.1016 115.684 61.7109 115.355C61.3281 115.027 60.8281 114.863 60.2109 114.863C59.3906 114.863 58.7344 115.148 58.2422 115.719C57.7578 116.281 57.5156 117.227 57.5156 118.555C57.5156 120.031 57.7617 121.074 58.2539 121.684C58.7539 122.293 59.4219 122.598 60.2578 122.598C60.8828 122.598 61.3945 122.422 61.793 122.07C62.1914 121.711 62.4727 121.098 62.6367 120.23L65.8711 120.781C65.5352 122.266 64.8906 123.387 63.9375 124.145C62.9844 124.902 61.707 125.281 60.1055 125.281C58.2852 125.281 56.832 124.707 55.7461 123.559C54.668 122.41 54.1289 120.82 54.1289 118.789C54.1289 116.734 54.6719 115.137 55.7578 113.996C56.8438 112.848 58.3125 112.273 60.1641 112.273C61.6797 112.273 62.8828 112.602 63.7734 113.258C64.6719 113.906 65.3164 114.898 65.707 116.234ZM67.4531 118.602C67.4531 117.508 67.7227 116.449 68.2617 115.426C68.8008 114.402 69.5625 113.621 70.5469 113.082C71.5391 112.543 72.6445 112.273 73.8633 112.273C75.7461 112.273 77.2891 112.887 78.4922 114.113C79.6953 115.332 80.2969 116.875 80.2969 118.742C80.2969 120.625 79.6875 122.188 78.4688 123.43C77.2578 124.664 75.7305 125.281 73.8867 125.281C72.7461 125.281 71.6562 125.023 70.6172 124.508C69.5859 123.992 68.8008 123.238 68.2617 122.246C67.7227 121.246 67.4531 120.031 67.4531 118.602ZM70.8281 118.777C70.8281 120.012 71.1211 120.957 71.707 121.613C72.293 122.27 73.0156 122.598 73.875 122.598C74.7344 122.598 75.4531 122.27 76.0312 121.613C76.6172 120.957 76.9102 120.004 76.9102 118.754C76.9102 117.535 76.6172 116.598 76.0312 115.941C75.4531 115.285 74.7344 114.957 73.875 114.957C73.0156 114.957 72.293 115.285 71.707 115.941C71.1211 116.598 70.8281 117.543 70.8281 118.777ZM94.207 125H90.9141V118.648C90.9141 117.305 90.8438 116.438 90.7031 116.047C90.5625 115.648 90.332 115.34 90.0117 115.121C89.6992 114.902 89.3203 114.793 88.875 114.793C88.3047 114.793 87.793 114.949 87.3398 115.262C86.8867 115.574 86.5742 115.988 86.4023 116.504C86.2383 117.02 86.1562 117.973 86.1562 119.363V125H82.8633V112.555H85.9219V114.383C87.0078 112.977 88.375 112.273 90.0234 112.273C90.75 112.273 91.4141 112.406 92.0156 112.672C92.6172 112.93 93.0703 113.262 93.375 113.668C93.6875 114.074 93.9023 114.535 94.0195 115.051C94.1445 115.566 94.207 116.305 94.207 117.266V125ZM103.266 112.555V115.18H101.016V120.195C101.016 121.211 101.035 121.805 101.074 121.977C101.121 122.141 101.219 122.277 101.367 122.387C101.523 122.496 101.711 122.551 101.93 122.551C102.234 122.551 102.676 122.445 103.254 122.234L103.535 124.789C102.77 125.117 101.902 125.281 100.934 125.281C100.34 125.281 99.8047 125.184 99.3281 124.988C98.8516 124.785 98.5 124.527 98.2734 124.215C98.0547 123.895 97.9023 123.465 97.8164 122.926C97.7461 122.543 97.7109 121.77 97.7109 120.605V115.18H96.1992V112.555H97.7109V110.082L101.016 108.16V112.555H103.266ZM105.176 120.418V117.125H111.645V120.418H105.176ZM115.863 125L111.926 112.555H115.125L117.457 120.711L119.602 112.555H122.777L124.852 120.711L127.23 112.555H130.477L126.48 125H123.316L121.172 116.996L119.062 125H115.863ZM135.375 125H132.082V112.555H135.141V114.324C135.664 113.488 136.133 112.938 136.547 112.672C136.969 112.406 137.445 112.273 137.977 112.273C138.727 112.273 139.449 112.48 140.145 112.895L139.125 115.766C138.57 115.406 138.055 115.227 137.578 115.227C137.117 115.227 136.727 115.355 136.406 115.613C136.086 115.863 135.832 116.32 135.645 116.984C135.465 117.648 135.375 119.039 135.375 121.156V125ZM144.035 116.352L141.047 115.812C141.383 114.609 141.961 113.719 142.781 113.141C143.602 112.562 144.82 112.273 146.438 112.273C147.906 112.273 149 112.449 149.719 112.801C150.438 113.145 150.941 113.586 151.23 114.125C151.527 114.656 151.676 115.637 151.676 117.066L151.641 120.91C151.641 122.004 151.691 122.812 151.793 123.336C151.902 123.852 152.102 124.406 152.391 125H149.133C149.047 124.781 148.941 124.457 148.816 124.027C148.762 123.832 148.723 123.703 148.699 123.641C148.137 124.188 147.535 124.598 146.895 124.871C146.254 125.145 145.57 125.281 144.844 125.281C143.562 125.281 142.551 124.934 141.809 124.238C141.074 123.543 140.707 122.664 140.707 121.602C140.707 120.898 140.875 120.273 141.211 119.727C141.547 119.172 142.016 118.75 142.617 118.461C143.227 118.164 144.102 117.906 145.242 117.688C146.781 117.398 147.848 117.129 148.441 116.879V116.551C148.441 115.918 148.285 115.469 147.973 115.203C147.66 114.93 147.07 114.793 146.203 114.793C145.617 114.793 145.16 114.91 144.832 115.145C144.504 115.371 144.238 115.773 144.035 116.352ZM148.441 119.023C148.02 119.164 147.352 119.332 146.438 119.527C145.523 119.723 144.926 119.914 144.645 120.102C144.215 120.406 144 120.793 144 121.262C144 121.723 144.172 122.121 144.516 122.457C144.859 122.793 145.297 122.961 145.828 122.961C146.422 122.961 146.988 122.766 147.527 122.375C147.926 122.078 148.188 121.715 148.312 121.285C148.398 121.004 148.441 120.469 148.441 119.68V119.023ZM154.84 112.555H157.91V114.383C158.309 113.758 158.848 113.25 159.527 112.859C160.207 112.469 160.961 112.273 161.789 112.273C163.234 112.273 164.461 112.84 165.469 113.973C166.477 115.105 166.98 116.684 166.98 118.707C166.98 120.785 166.473 122.402 165.457 123.559C164.441 124.707 163.211 125.281 161.766 125.281C161.078 125.281 160.453 125.145 159.891 124.871C159.336 124.598 158.75 124.129 158.133 123.465V129.734H154.84V112.555ZM158.098 118.566C158.098 119.965 158.375 121 158.93 121.672C159.484 122.336 160.16 122.668 160.957 122.668C161.723 122.668 162.359 122.363 162.867 121.754C163.375 121.137 163.629 120.129 163.629 118.73C163.629 117.426 163.367 116.457 162.844 115.824C162.32 115.191 161.672 114.875 160.898 114.875C160.094 114.875 159.426 115.188 158.895 115.812C158.363 116.43 158.098 117.348 158.098 118.566ZM169.512 112.555H172.582V114.383C172.98 113.758 173.52 113.25 174.199 112.859C174.879 112.469 175.633 112.273 176.461 112.273C177.906 112.273 179.133 112.84 180.141 113.973C181.148 115.105 181.652 116.684 181.652 118.707C181.652 120.785 181.145 122.402 180.129 123.559C179.113 124.707 177.883 125.281 176.438 125.281C175.75 125.281 175.125 125.145 174.562 124.871C174.008 124.598 173.422 124.129 172.805 123.465V129.734H169.512V112.555ZM172.77 118.566C172.77 119.965 173.047 121 173.602 121.672C174.156 122.336 174.832 122.668 175.629 122.668C176.395 122.668 177.031 122.363 177.539 121.754C178.047 121.137 178.301 120.129 178.301 118.73C178.301 117.426 178.039 116.457 177.516 115.824C176.992 115.191 176.344 114.875 175.57 114.875C174.766 114.875 174.098 115.188 173.566 115.812C173.035 116.43 172.77 117.348 172.77 118.566ZM191.484 121.039L194.766 121.59C194.344 122.793 193.676 123.711 192.762 124.344C191.855 124.969 190.719 125.281 189.352 125.281C187.188 125.281 185.586 124.574 184.547 123.16C183.727 122.027 183.316 120.598 183.316 118.871C183.316 116.809 183.855 115.195 184.934 114.031C186.012 112.859 187.375 112.273 189.023 112.273C190.875 112.273 192.336 112.887 193.406 114.113C194.477 115.332 194.988 117.203 194.941 119.727H186.691C186.715 120.703 186.98 121.465 187.488 122.012C187.996 122.551 188.629 122.82 189.387 122.82C189.902 122.82 190.336 122.68 190.688 122.398C191.039 122.117 191.305 121.664 191.484 121.039ZM191.672 117.711C191.648 116.758 191.402 116.035 190.934 115.543C190.465 115.043 189.895 114.793 189.223 114.793C188.504 114.793 187.91 115.055 187.441 115.578C186.973 116.102 186.742 116.812 186.75 117.711H191.672ZM200.789 125H197.496V112.555H200.555V114.324C201.078 113.488 201.547 112.938 201.961 112.672C202.383 112.406 202.859 112.273 203.391 112.273C204.141 112.273 204.863 112.48 205.559 112.895L204.539 115.766C203.984 115.406 203.469 115.227 202.992 115.227C202.531 115.227 202.141 115.355 201.82 115.613C201.5 115.863 201.246 116.32 201.059 116.984C200.879 117.648 200.789 119.039 200.789 121.156V125ZM206.613 120.418V117.125H213.082V120.418H206.613ZM225.832 116.234L222.586 116.82C222.477 116.172 222.227 115.684 221.836 115.355C221.453 115.027 220.953 114.863 220.336 114.863C219.516 114.863 218.859 115.148 218.367 115.719C217.883 116.281 217.641 117.227 217.641 118.555C217.641 120.031 217.887 121.074 218.379 121.684C218.879 122.293 219.547 122.598 220.383 122.598C221.008 122.598 221.52 122.422 221.918 122.07C222.316 121.711 222.598 121.098 222.762 120.23L225.996 120.781C225.66 122.266 225.016 123.387 224.062 124.145C223.109 124.902 221.832 125.281 220.23 125.281C218.41 125.281 216.957 124.707 215.871 123.559C214.793 122.41 214.254 120.82 214.254 118.789C214.254 116.734 214.797 115.137 215.883 113.996C216.969 112.848 218.438 112.273 220.289 112.273C221.805 112.273 223.008 112.602 223.898 113.258C224.797 113.906 225.441 114.898 225.832 116.234ZM227.578 118.602C227.578 117.508 227.848 116.449 228.387 115.426C228.926 114.402 229.688 113.621 230.672 113.082C231.664 112.543 232.77 112.273 233.988 112.273C235.871 112.273 237.414 112.887 238.617 114.113C239.82 115.332 240.422 116.875 240.422 118.742C240.422 120.625 239.812 122.188 238.594 123.43C237.383 124.664 235.855 125.281 234.012 125.281C232.871 125.281 231.781 125.023 230.742 124.508C229.711 123.992 228.926 123.238 228.387 122.246C227.848 121.246 227.578 120.031 227.578 118.602ZM230.953 118.777C230.953 120.012 231.246 120.957 231.832 121.613C232.418 122.27 233.141 122.598 234 122.598C234.859 122.598 235.578 122.27 236.156 121.613C236.742 120.957 237.035 120.004 237.035 118.754C237.035 117.535 236.742 116.598 236.156 115.941C235.578 115.285 234.859 114.957 234 114.957C233.141 114.957 232.418 115.285 231.832 115.941C231.246 116.598 230.953 117.543 230.953 118.777ZM243.012 125V107.82H246.305V125H243.012ZM249.316 120.418V117.125H255.785V120.418H249.316ZM268.535 116.234L265.289 116.82C265.18 116.172 264.93 115.684 264.539 115.355C264.156 115.027 263.656 114.863 263.039 114.863C262.219 114.863 261.562 115.148 261.07 115.719C260.586 116.281 260.344 117.227 260.344 118.555C260.344 120.031 260.59 121.074 261.082 121.684C261.582 122.293 262.25 122.598 263.086 122.598C263.711 122.598 264.223 122.422 264.621 122.07C265.02 121.711 265.301 121.098 265.465 120.23L268.699 120.781C268.363 122.266 267.719 123.387 266.766 124.145C265.812 124.902 264.535 125.281 262.934 125.281C261.113 125.281 259.66 124.707 258.574 123.559C257.496 122.41 256.957 120.82 256.957 118.789C256.957 116.734 257.5 115.137 258.586 113.996C259.672 112.848 261.141 112.273 262.992 112.273C264.508 112.273 265.711 112.602 266.602 113.258C267.5 113.906 268.145 114.898 268.535 116.234ZM270.281 118.602C270.281 117.508 270.551 116.449 271.09 115.426C271.629 114.402 272.391 113.621 273.375 113.082C274.367 112.543 275.473 112.273 276.691 112.273C278.574 112.273 280.117 112.887 281.32 114.113C282.523 115.332 283.125 116.875 283.125 118.742C283.125 120.625 282.516 122.188 281.297 123.43C280.086 124.664 278.559 125.281 276.715 125.281C275.574 125.281 274.484 125.023 273.445 124.508C272.414 123.992 271.629 123.238 271.09 122.246C270.551 121.246 270.281 120.031 270.281 118.602ZM273.656 118.777C273.656 120.012 273.949 120.957 274.535 121.613C275.121 122.27 275.844 122.598 276.703 122.598C277.562 122.598 278.281 122.27 278.859 121.613C279.445 120.957 279.738 120.004 279.738 118.754C279.738 117.535 279.445 116.598 278.859 115.941C278.281 115.285 277.562 114.957 276.703 114.957C275.844 114.957 275.121 115.285 274.535 115.941C273.949 116.598 273.656 117.543 273.656 118.777ZM297.035 125H293.742V118.648C293.742 117.305 293.672 116.438 293.531 116.047C293.391 115.648 293.16 115.34 292.84 115.121C292.527 114.902 292.148 114.793 291.703 114.793C291.133 114.793 290.621 114.949 290.168 115.262C289.715 115.574 289.402 115.988 289.23 116.504C289.066 117.02 288.984 117.973 288.984 119.363V125H285.691V112.555H288.75V114.383C289.836 112.977 291.203 112.273 292.852 112.273C293.578 112.273 294.242 112.406 294.844 112.672C295.445 112.93 295.898 113.262 296.203 113.668C296.516 114.074 296.73 114.535 296.848 115.051C296.973 115.566 297.035 116.305 297.035 117.266V125ZM306.094 112.555V115.18H303.844V120.195C303.844 121.211 303.863 121.805 303.902 121.977C303.949 122.141 304.047 122.277 304.195 122.387C304.352 122.496 304.539 122.551 304.758 122.551C305.062 122.551 305.504 122.445 306.082 122.234L306.363 124.789C305.598 125.117 304.73 125.281 303.762 125.281C303.168 125.281 302.633 125.184 302.156 124.988C301.68 124.785 301.328 124.527 301.102 124.215C300.883 123.895 300.73 123.465 300.645 122.926C300.574 122.543 300.539 121.77 300.539 120.605V115.18H299.027V112.555H300.539V110.082L303.844 108.16V112.555H306.094ZM315.586 121.039L318.867 121.59C318.445 122.793 317.777 123.711 316.863 124.344C315.957 124.969 314.82 125.281 313.453 125.281C311.289 125.281 309.688 124.574 308.648 123.16C307.828 122.027 307.418 120.598 307.418 118.871C307.418 116.809 307.957 115.195 309.035 114.031C310.113 112.859 311.477 112.273 313.125 112.273C314.977 112.273 316.438 112.887 317.508 114.113C318.578 115.332 319.09 117.203 319.043 119.727H310.793C310.816 120.703 311.082 121.465 311.59 122.012C312.098 122.551 312.73 122.82 313.488 122.82C314.004 122.82 314.438 122.68 314.789 122.398C315.141 122.117 315.406 121.664 315.586 121.039ZM315.773 117.711C315.75 116.758 315.504 116.035 315.035 115.543C314.566 115.043 313.996 114.793 313.324 114.793C312.605 114.793 312.012 115.055 311.543 115.578C311.074 116.102 310.844 116.812 310.852 117.711H315.773ZM333.059 125H329.766V118.648C329.766 117.305 329.695 116.438 329.555 116.047C329.414 115.648 329.184 115.34 328.863 115.121C328.551 114.902 328.172 114.793 327.727 114.793C327.156 114.793 326.645 114.949 326.191 115.262C325.738 115.574 325.426 115.988 325.254 116.504C325.09 117.02 325.008 117.973 325.008 119.363V125H321.715V112.555H324.773V114.383C325.859 112.977 327.227 112.273 328.875 112.273C329.602 112.273 330.266 112.406 330.867 112.672C331.469 112.93 331.922 113.262 332.227 113.668C332.539 114.074 332.754 114.535 332.871 115.051C332.996 115.566 333.059 116.305 333.059 117.266V125ZM342.117 112.555V115.18H339.867V120.195C339.867 121.211 339.887 121.805 339.926 121.977C339.973 122.141 340.07 122.277 340.219 122.387C340.375 122.496 340.562 122.551 340.781 122.551C341.086 122.551 341.527 122.445 342.105 122.234L342.387 124.789C341.621 125.117 340.754 125.281 339.785 125.281C339.191 125.281 338.656 125.184 338.18 124.988C337.703 124.785 337.352 124.527 337.125 124.215C336.906 123.895 336.754 123.465 336.668 122.926C336.598 122.543 336.562 121.77 336.562 120.605V115.18H335.051V112.555H336.562V110.082L339.867 108.16V112.555H342.117ZM343.242 121.449L346.547 120.945C346.688 121.586 346.973 122.074 347.402 122.41C347.832 122.738 348.434 122.902 349.207 122.902C350.059 122.902 350.699 122.746 351.129 122.434C351.418 122.215 351.562 121.922 351.562 121.555C351.562 121.305 351.484 121.098 351.328 120.934C351.164 120.777 350.797 120.633 350.227 120.5C347.57 119.914 345.887 119.379 345.176 118.895C344.191 118.223 343.699 117.289 343.699 116.094C343.699 115.016 344.125 114.109 344.977 113.375C345.828 112.641 347.148 112.273 348.938 112.273C350.641 112.273 351.906 112.551 352.734 113.105C353.562 113.66 354.133 114.48 354.445 115.566L351.34 116.141C351.207 115.656 350.953 115.285 350.578 115.027C350.211 114.77 349.684 114.641 348.996 114.641C348.129 114.641 347.508 114.762 347.133 115.004C346.883 115.176 346.758 115.398 346.758 115.672C346.758 115.906 346.867 116.105 347.086 116.27C347.383 116.488 348.406 116.797 350.156 117.195C351.914 117.594 353.141 118.082 353.836 118.66C354.523 119.246 354.867 120.062 354.867 121.109C354.867 122.25 354.391 123.23 353.438 124.051C352.484 124.871 351.074 125.281 349.207 125.281C347.512 125.281 346.168 124.938 345.176 124.25C344.191 123.562 343.547 122.629 343.242 121.449ZM357.387 120.418V117.125H363.855V120.418H357.387ZM377.168 125H374.109V123.172C373.602 123.883 373 124.414 372.305 124.766C371.617 125.109 370.922 125.281 370.219 125.281C368.789 125.281 367.562 124.707 366.539 123.559C365.523 122.402 365.016 120.793 365.016 118.73C365.016 116.621 365.512 115.02 366.504 113.926C367.496 112.824 368.75 112.273 370.266 112.273C371.656 112.273 372.859 112.852 373.875 114.008V107.82H377.168V125ZM368.379 118.508C368.379 119.836 368.562 120.797 368.93 121.391C369.461 122.25 370.203 122.68 371.156 122.68C371.914 122.68 372.559 122.359 373.09 121.719C373.621 121.07 373.887 120.105 373.887 118.824C373.887 117.395 373.629 116.367 373.113 115.742C372.598 115.109 371.938 114.793 371.133 114.793C370.352 114.793 369.695 115.105 369.164 115.73C368.641 116.348 368.379 117.273 368.379 118.508ZM387.633 121.039L390.914 121.59C390.492 122.793 389.824 123.711 388.91 124.344C388.004 124.969 386.867 125.281 385.5 125.281C383.336 125.281 381.734 124.574 380.695 123.16C379.875 122.027 379.465 120.598 379.465 118.871C379.465 116.809 380.004 115.195 381.082 114.031C382.16 112.859 383.523 112.273 385.172 112.273C387.023 112.273 388.484 112.887 389.555 114.113C390.625 115.332 391.137 117.203 391.09 119.727H382.84C382.863 120.703 383.129 121.465 383.637 122.012C384.145 122.551 384.777 122.82 385.535 122.82C386.051 122.82 386.484 122.68 386.836 122.398C387.188 122.117 387.453 121.664 387.633 121.039ZM387.82 117.711C387.797 116.758 387.551 116.035 387.082 115.543C386.613 115.043 386.043 114.793 385.371 114.793C384.652 114.793 384.059 115.055 383.59 115.578C383.121 116.102 382.891 116.812 382.898 117.711H387.82ZM392.625 121.449L395.93 120.945C396.07 121.586 396.355 122.074 396.785 122.41C397.215 122.738 397.816 122.902 398.59 122.902C399.441 122.902 400.082 122.746 400.512 122.434C400.801 122.215 400.945 121.922 400.945 121.555C400.945 121.305 400.867 121.098 400.711 120.934C400.547 120.777 400.18 120.633 399.609 120.5C396.953 119.914 395.27 119.379 394.559 118.895C393.574 118.223 393.082 117.289 393.082 116.094C393.082 115.016 393.508 114.109 394.359 113.375C395.211 112.641 396.531 112.273 398.32 112.273C400.023 112.273 401.289 112.551 402.117 113.105C402.945 113.66 403.516 114.48 403.828 115.566L400.723 116.141C400.59 115.656 400.336 115.285 399.961 115.027C399.594 114.77 399.066 114.641 398.379 114.641C397.512 114.641 396.891 114.762 396.516 115.004C396.266 115.176 396.141 115.398 396.141 115.672C396.141 115.906 396.25 116.105 396.469 116.27C396.766 116.488 397.789 116.797 399.539 117.195C401.297 117.594 402.523 118.082 403.219 118.66C403.906 119.246 404.25 120.062 404.25 121.109C404.25 122.25 403.773 123.23 402.82 124.051C401.867 124.871 400.457 125.281 398.59 125.281C396.895 125.281 395.551 124.938 394.559 124.25C393.574 123.562 392.93 122.629 392.625 121.449ZM407.027 125V107.82H410.32V116.938L414.176 112.555H418.23L413.977 117.102L418.535 125H414.984L411.855 119.41L410.32 121.016V125H407.027ZM426.211 112.555V115.18H423.961V120.195C423.961 121.211 423.98 121.805 424.02 121.977C424.066 122.141 424.164 122.277 424.312 122.387C424.469 122.496 424.656 122.551 424.875 122.551C425.18 122.551 425.621 122.445 426.199 122.234L426.48 124.789C425.715 125.117 424.848 125.281 423.879 125.281C423.285 125.281 422.75 125.184 422.273 124.988C421.797 124.785 421.445 124.527 421.219 124.215C421 123.895 420.848 123.465 420.762 122.926C420.691 122.543 420.656 121.77 420.656 120.605V115.18H419.145V112.555H420.656V110.082L423.961 108.16V112.555H426.211ZM427.734 118.602C427.734 117.508 428.004 116.449 428.543 115.426C429.082 114.402 429.844 113.621 430.828 113.082C431.82 112.543 432.926 112.273 434.145 112.273C436.027 112.273 437.57 112.887 438.773 114.113C439.977 115.332 440.578 116.875 440.578 118.742C440.578 120.625 439.969 122.188 438.75 123.43C437.539 124.664 436.012 125.281 434.168 125.281C433.027 125.281 431.938 125.023 430.898 124.508C429.867 123.992 429.082 123.238 428.543 122.246C428.004 121.246 427.734 120.031 427.734 118.602ZM431.109 118.777C431.109 120.012 431.402 120.957 431.988 121.613C432.574 122.27 433.297 122.598 434.156 122.598C435.016 122.598 435.734 122.27 436.312 121.613C436.898 120.957 437.191 120.004 437.191 118.754C437.191 117.535 436.898 116.598 436.312 115.941C435.734 115.285 435.016 114.957 434.156 114.957C433.297 114.957 432.574 115.285 431.988 115.941C431.402 116.598 431.109 117.543 431.109 118.777ZM443.074 112.555H446.145V114.383C446.543 113.758 447.082 113.25 447.762 112.859C448.441 112.469 449.195 112.273 450.023 112.273C451.469 112.273 452.695 112.84 453.703 113.973C454.711 115.105 455.215 116.684 455.215 118.707C455.215 120.785 454.707 122.402 453.691 123.559C452.676 124.707 451.445 125.281 450 125.281C449.312 125.281 448.688 125.145 448.125 124.871C447.57 124.598 446.984 124.129 446.367 123.465V129.734H443.074V112.555ZM446.332 118.566C446.332 119.965 446.609 121 447.164 121.672C447.719 122.336 448.395 122.668 449.191 122.668C449.957 122.668 450.594 122.363 451.102 121.754C451.609 121.137 451.863 120.129 451.863 118.73C451.863 117.426 451.602 116.457 451.078 115.824C450.555 115.191 449.906 114.875 449.133 114.875C448.328 114.875 447.66 115.188 447.129 115.812C446.598 116.43 446.332 117.348 446.332 118.566ZM457.465 120.418V117.125H463.934V120.418H457.465ZM465.457 120.418V117.125H471.926V120.418H465.457ZM479.531 112.555V115.18H477.281V120.195C477.281 121.211 477.301 121.805 477.34 121.977C477.387 122.141 477.484 122.277 477.633 122.387C477.789 122.496 477.977 122.551 478.195 122.551C478.5 122.551 478.941 122.445 479.52 122.234L479.801 124.789C479.035 125.117 478.168 125.281 477.199 125.281C476.605 125.281 476.07 125.184 475.594 124.988C475.117 124.785 474.766 124.527 474.539 124.215C474.32 123.895 474.168 123.465 474.082 122.926C474.012 122.543 473.977 121.77 473.977 120.605V115.18H472.465V112.555H473.977V110.082L477.281 108.16V112.555H479.531ZM489.023 121.039L492.305 121.59C491.883 122.793 491.215 123.711 490.301 124.344C489.395 124.969 488.258 125.281 486.891 125.281C484.727 125.281 483.125 124.574 482.086 123.16C481.266 122.027 480.855 120.598 480.855 118.871C480.855 116.809 481.395 115.195 482.473 114.031C483.551 112.859 484.914 112.273 486.562 112.273C488.414 112.273 489.875 112.887 490.945 114.113C492.016 115.332 492.527 117.203 492.48 119.727H484.23C484.254 120.703 484.52 121.465 485.027 122.012C485.535 122.551 486.168 122.82 486.926 122.82C487.441 122.82 487.875 122.68 488.227 122.398C488.578 122.117 488.844 121.664 489.023 121.039ZM489.211 117.711C489.188 116.758 488.941 116.035 488.473 115.543C488.004 115.043 487.434 114.793 486.762 114.793C486.043 114.793 485.449 115.055 484.98 115.578C484.512 116.102 484.281 116.812 484.289 117.711H489.211ZM494.93 112.555H497.965V114.254C499.051 112.934 500.344 112.273 501.844 112.273C502.641 112.273 503.332 112.438 503.918 112.766C504.504 113.094 504.984 113.59 505.359 114.254C505.906 113.59 506.496 113.094 507.129 112.766C507.762 112.438 508.438 112.273 509.156 112.273C510.07 112.273 510.844 112.461 511.477 112.836C512.109 113.203 512.582 113.746 512.895 114.465C513.121 114.996 513.234 115.855 513.234 117.043V125H509.941V117.887C509.941 116.652 509.828 115.855 509.602 115.496C509.297 115.027 508.828 114.793 508.195 114.793C507.734 114.793 507.301 114.934 506.895 115.215C506.488 115.496 506.195 115.91 506.016 116.457C505.836 116.996 505.746 117.852 505.746 119.023V125H502.453V118.18C502.453 116.969 502.395 116.188 502.277 115.836C502.16 115.484 501.977 115.223 501.727 115.051C501.484 114.879 501.152 114.793 500.73 114.793C500.223 114.793 499.766 114.93 499.359 115.203C498.953 115.477 498.66 115.871 498.48 116.387C498.309 116.902 498.223 117.758 498.223 118.953V125H494.93V112.555ZM516.434 112.555H519.504V114.383C519.902 113.758 520.441 113.25 521.121 112.859C521.801 112.469 522.555 112.273 523.383 112.273C524.828 112.273 526.055 112.84 527.062 113.973C528.07 115.105 528.574 116.684 528.574 118.707C528.574 120.785 528.066 122.402 527.051 123.559C526.035 124.707 524.805 125.281 523.359 125.281C522.672 125.281 522.047 125.145 521.484 124.871C520.93 124.598 520.344 124.129 519.727 123.465V129.734H516.434V112.555ZM519.691 118.566C519.691 119.965 519.969 121 520.523 121.672C521.078 122.336 521.754 122.668 522.551 122.668C523.316 122.668 523.953 122.363 524.461 121.754C524.969 121.137 525.223 120.129 525.223 118.73C525.223 117.426 524.961 116.457 524.438 115.824C523.914 115.191 523.266 114.875 522.492 114.875C521.688 114.875 521.02 115.188 520.488 115.812C519.957 116.43 519.691 117.348 519.691 118.566ZM531.199 125V107.82H534.492V125H531.199ZM540.34 116.352L537.352 115.812C537.688 114.609 538.266 113.719 539.086 113.141C539.906 112.562 541.125 112.273 542.742 112.273C544.211 112.273 545.305 112.449 546.023 112.801C546.742 113.145 547.246 113.586 547.535 114.125C547.832 114.656 547.98 115.637 547.98 117.066L547.945 120.91C547.945 122.004 547.996 122.812 548.098 123.336C548.207 123.852 548.406 124.406 548.695 125H545.438C545.352 124.781 545.246 124.457 545.121 124.027C545.066 123.832 545.027 123.703 545.004 123.641C544.441 124.188 543.84 124.598 543.199 124.871C542.559 125.145 541.875 125.281 541.148 125.281C539.867 125.281 538.855 124.934 538.113 124.238C537.379 123.543 537.012 122.664 537.012 121.602C537.012 120.898 537.18 120.273 537.516 119.727C537.852 119.172 538.32 118.75 538.922 118.461C539.531 118.164 540.406 117.906 541.547 117.688C543.086 117.398 544.152 117.129 544.746 116.879V116.551C544.746 115.918 544.59 115.469 544.277 115.203C543.965 114.93 543.375 114.793 542.508 114.793C541.922 114.793 541.465 114.91 541.137 115.145C540.809 115.371 540.543 115.773 540.34 116.352ZM544.746 119.023C544.324 119.164 543.656 119.332 542.742 119.527C541.828 119.723 541.23 119.914 540.949 120.102C540.52 120.406 540.305 120.793 540.305 121.262C540.305 121.723 540.477 122.121 540.82 122.457C541.164 122.793 541.602 122.961 542.133 122.961C542.727 122.961 543.293 122.766 543.832 122.375C544.23 122.078 544.492 121.715 544.617 121.285C544.703 121.004 544.746 120.469 544.746 119.68V119.023ZM556.945 112.555V115.18H554.695V120.195C554.695 121.211 554.715 121.805 554.754 121.977C554.801 122.141 554.898 122.277 555.047 122.387C555.203 122.496 555.391 122.551 555.609 122.551C555.914 122.551 556.355 122.445 556.934 122.234L557.215 124.789C556.449 125.117 555.582 125.281 554.613 125.281C554.02 125.281 553.484 125.184 553.008 124.988C552.531 124.785 552.18 124.527 551.953 124.215C551.734 123.895 551.582 123.465 551.496 122.926C551.426 122.543 551.391 121.77 551.391 120.605V115.18H549.879V112.555H551.391V110.082L554.695 108.16V112.555H556.945ZM566.438 121.039L569.719 121.59C569.297 122.793 568.629 123.711 567.715 124.344C566.809 124.969 565.672 125.281 564.305 125.281C562.141 125.281 560.539 124.574 559.5 123.16C558.68 122.027 558.27 120.598 558.27 118.871C558.27 116.809 558.809 115.195 559.887 114.031C560.965 112.859 562.328 112.273 563.977 112.273C565.828 112.273 567.289 112.887 568.359 114.113C569.43 115.332 569.941 117.203 569.895 119.727H561.645C561.668 120.703 561.934 121.465 562.441 122.012C562.949 122.551 563.582 122.82 564.34 122.82C564.855 122.82 565.289 122.68 565.641 122.398C565.992 122.117 566.258 121.664 566.438 121.039ZM566.625 117.711C566.602 116.758 566.355 116.035 565.887 115.543C565.418 115.043 564.848 114.793 564.176 114.793C563.457 114.793 562.863 115.055 562.395 115.578C561.926 116.102 561.695 116.812 561.703 117.711H566.625Z" fill="black"/>
</svg>
