<svg width="640" height="480" viewBox="0 0 640 480" fill="none" xmlns="http://www.w3.org/2000/svg">
<g clip-path="url(#clip0_13_81)">
<rect width="640" height="480" fill="#F2BC1B"/>
<path d="M81.043 239.234L77.7969 239.82C77.6875 239.172 77.4375 238.684 77.0469 238.355C76.6641 238.027 76.1641 237.863 75.5469 237.863C74.7266 237.863 74.0703 238.148 73.5781 238.719C73.0938 239.281 72.8516 240.227 72.8516 241.555C72.8516 243.031 73.0977 244.074 73.5898 244.684C74.0898 245.293 74.7578 245.598 75.5938 245.598C76.2188 245.598 76.7305 245.422 77.1289 245.07C77.5273 244.711 77.8086 244.098 77.9727 243.23L81.207 243.781C80.8711 245.266 80.2266 246.387 79.2734 247.145C78.3203 247.902 77.043 248.281 75.4414 248.281C73.6211 248.281 72.168 247.707 71.082 246.559C70.0039 245.41 69.4648 243.82 69.4648 241.789C69.4648 239.734 70.0078 238.137 71.0938 236.996C72.1797 235.848 73.6484 235.273 75.5 235.273C77.0156 235.273 78.2188 235.602 79.1094 236.258C80.0078 236.906 80.6523 237.898 81.043 239.234ZM82.7891 241.602C82.7891 240.508 83.0586 239.449 83.5977 238.426C84.1367 237.402 84.8984 236.621 85.8828 236.082C86.875 235.543 87.9805 235.273 89.1992 235.273C91.082 235.273 92.625 235.887 93.8281 237.113C95.0312 238.332 95.6328 239.875 95.6328 241.742C95.6328 243.625 95.0234 245.188 93.8047 246.43C92.5938 247.664 91.0664 248.281 89.2227 248.281C88.082 248.281 86.9922 248.023 85.9531 247.508C84.9219 246.992 84.1367 246.238 83.5977 245.246C83.0586 244.246 82.7891 243.031 82.7891 241.602ZM86.1641 241.777C86.1641 243.012 86.457 243.957 87.043 244.613C87.6289 245.27 88.3516 245.598 89.2109 245.598C90.0703 245.598 90.7891 245.27 91.3672 244.613C91.9531 243.957 92.2461 243.004 92.2461 241.754C92.2461 240.535 91.9531 239.598 91.3672 238.941C90.7891 238.285 90.0703 237.957 89.2109 237.957C88.3516 237.957 87.6289 238.285 87.043 238.941C86.457 239.598 86.1641 240.543 86.1641 241.777ZM109.543 248H106.25V241.648C106.25 240.305 106.18 239.438 106.039 239.047C105.898 238.648 105.668 238.34 105.348 238.121C105.035 237.902 104.656 237.793 104.211 237.793C103.641 237.793 103.129 237.949 102.676 238.262C102.223 238.574 101.91 238.988 101.738 239.504C101.574 240.02 101.492 240.973 101.492 242.363V248H98.1992V235.555H101.258V237.383C102.344 235.977 103.711 235.273 105.359 235.273C106.086 235.273 106.75 235.406 107.352 235.672C107.953 235.93 108.406 236.262 108.711 236.668C109.023 237.074 109.238 237.535 109.355 238.051C109.48 238.566 109.543 239.305 109.543 240.266V248ZM118.602 235.555V238.18H116.352V243.195C116.352 244.211 116.371 244.805 116.41 244.977C116.457 245.141 116.555 245.277 116.703 245.387C116.859 245.496 117.047 245.551 117.266 245.551C117.57 245.551 118.012 245.445 118.59 245.234L118.871 247.789C118.105 248.117 117.238 248.281 116.27 248.281C115.676 248.281 115.141 248.184 114.664 247.988C114.188 247.785 113.836 247.527 113.609 247.215C113.391 246.895 113.238 246.465 113.152 245.926C113.082 245.543 113.047 244.77 113.047 243.605V238.18H111.535V235.555H113.047V233.082L116.352 231.16V235.555H118.602ZM120.512 243.418V240.125H126.98V243.418H120.512ZM131.199 248L127.262 235.555H130.461L132.793 243.711L134.938 235.555H138.113L140.188 243.711L142.566 235.555H145.812L141.816 248H138.652L136.508 239.996L134.398 248H131.199ZM150.711 248H147.418V235.555H150.477V237.324C151 236.488 151.469 235.938 151.883 235.672C152.305 235.406 152.781 235.273 153.312 235.273C154.062 235.273 154.785 235.48 155.48 235.895L154.461 238.766C153.906 238.406 153.391 238.227 152.914 238.227C152.453 238.227 152.062 238.355 151.742 238.613C151.422 238.863 151.168 239.32 150.98 239.984C150.801 240.648 150.711 242.039 150.711 244.156V248ZM159.371 239.352L156.383 238.812C156.719 237.609 157.297 236.719 158.117 236.141C158.938 235.562 160.156 235.273 161.773 235.273C163.242 235.273 164.336 235.449 165.055 235.801C165.773 236.145 166.277 236.586 166.566 237.125C166.863 237.656 167.012 238.637 167.012 240.066L166.977 243.91C166.977 245.004 167.027 245.812 167.129 246.336C167.238 246.852 167.438 247.406 167.727 248H164.469C164.383 247.781 164.277 247.457 164.152 247.027C164.098 246.832 164.059 246.703 164.035 246.641C163.473 247.188 162.871 247.598 162.23 247.871C161.59 248.145 160.906 248.281 160.18 248.281C158.898 248.281 157.887 247.934 157.145 247.238C156.41 246.543 156.043 245.664 156.043 244.602C156.043 243.898 156.211 243.273 156.547 242.727C156.883 242.172 157.352 241.75 157.953 241.461C158.562 241.164 159.438 240.906 160.578 240.688C162.117 240.398 163.184 240.129 163.777 239.879V239.551C163.777 238.918 163.621 238.469 163.309 238.203C162.996 237.93 162.406 237.793 161.539 237.793C160.953 237.793 160.496 237.91 160.168 238.145C159.84 238.371 159.574 238.773 159.371 239.352ZM163.777 242.023C163.355 242.164 162.688 242.332 161.773 242.527C160.859 242.723 160.262 242.914 159.98 243.102C159.551 243.406 159.336 243.793 159.336 244.262C159.336 244.723 159.508 245.121 159.852 245.457C160.195 245.793 160.633 245.961 161.164 245.961C161.758 245.961 162.324 245.766 162.863 245.375C163.262 245.078 163.523 244.715 163.648 244.285C163.734 244.004 163.777 243.469 163.777 242.68V242.023ZM170.176 235.555H173.246V237.383C173.645 236.758 174.184 236.25 174.863 235.859C175.543 235.469 176.297 235.273 177.125 235.273C178.57 235.273 179.797 235.84 180.805 236.973C181.812 238.105 182.316 239.684 182.316 241.707C182.316 243.785 181.809 245.402 180.793 246.559C179.777 247.707 178.547 248.281 177.102 248.281C176.414 248.281 175.789 248.145 175.227 247.871C174.672 247.598 174.086 247.129 173.469 246.465V252.734H170.176V235.555ZM173.434 241.566C173.434 242.965 173.711 244 174.266 244.672C174.82 245.336 175.496 245.668 176.293 245.668C177.059 245.668 177.695 245.363 178.203 244.754C178.711 244.137 178.965 243.129 178.965 241.73C178.965 240.426 178.703 239.457 178.18 238.824C177.656 238.191 177.008 237.875 176.234 237.875C175.43 237.875 174.762 238.188 174.23 238.812C173.699 239.43 173.434 240.348 173.434 241.566ZM184.848 235.555H187.918V237.383C188.316 236.758 188.855 236.25 189.535 235.859C190.215 235.469 190.969 235.273 191.797 235.273C193.242 235.273 194.469 235.84 195.477 236.973C196.484 238.105 196.988 239.684 196.988 241.707C196.988 243.785 196.48 245.402 195.465 246.559C194.449 247.707 193.219 248.281 191.773 248.281C191.086 248.281 190.461 248.145 189.898 247.871C189.344 247.598 188.758 247.129 188.141 246.465V252.734H184.848V235.555ZM188.105 241.566C188.105 242.965 188.383 244 188.938 244.672C189.492 245.336 190.168 245.668 190.965 245.668C191.73 245.668 192.367 245.363 192.875 244.754C193.383 244.137 193.637 243.129 193.637 241.73C193.637 240.426 193.375 239.457 192.852 238.824C192.328 238.191 191.68 237.875 190.906 237.875C190.102 237.875 189.434 238.188 188.902 238.812C188.371 239.43 188.105 240.348 188.105 241.566ZM206.82 244.039L210.102 244.59C209.68 245.793 209.012 246.711 208.098 247.344C207.191 247.969 206.055 248.281 204.688 248.281C202.523 248.281 200.922 247.574 199.883 246.16C199.062 245.027 198.652 243.598 198.652 241.871C198.652 239.809 199.191 238.195 200.27 237.031C201.348 235.859 202.711 235.273 204.359 235.273C206.211 235.273 207.672 235.887 208.742 237.113C209.812 238.332 210.324 240.203 210.277 242.727H202.027C202.051 243.703 202.316 244.465 202.824 245.012C203.332 245.551 203.965 245.82 204.723 245.82C205.238 245.82 205.672 245.68 206.023 245.398C206.375 245.117 206.641 244.664 206.82 244.039ZM207.008 240.711C206.984 239.758 206.738 239.035 206.27 238.543C205.801 238.043 205.23 237.793 204.559 237.793C203.84 237.793 203.246 238.055 202.777 238.578C202.309 239.102 202.078 239.812 202.086 240.711H207.008ZM216.125 248H212.832V235.555H215.891V237.324C216.414 236.488 216.883 235.938 217.297 235.672C217.719 235.406 218.195 235.273 218.727 235.273C219.477 235.273 220.199 235.48 220.895 235.895L219.875 238.766C219.32 238.406 218.805 238.227 218.328 238.227C217.867 238.227 217.477 238.355 217.156 238.613C216.836 238.863 216.582 239.32 216.395 239.984C216.215 240.648 216.125 242.039 216.125 244.156V248ZM221.949 243.418V240.125H228.418V243.418H221.949ZM241.168 239.234L237.922 239.82C237.812 239.172 237.562 238.684 237.172 238.355C236.789 238.027 236.289 237.863 235.672 237.863C234.852 237.863 234.195 238.148 233.703 238.719C233.219 239.281 232.977 240.227 232.977 241.555C232.977 243.031 233.223 244.074 233.715 244.684C234.215 245.293 234.883 245.598 235.719 245.598C236.344 245.598 236.855 245.422 237.254 245.07C237.652 244.711 237.934 244.098 238.098 243.23L241.332 243.781C240.996 245.266 240.352 246.387 239.398 247.145C238.445 247.902 237.168 248.281 235.566 248.281C233.746 248.281 232.293 247.707 231.207 246.559C230.129 245.41 229.59 243.82 229.59 241.789C229.59 239.734 230.133 238.137 231.219 236.996C232.305 235.848 233.773 235.273 235.625 235.273C237.141 235.273 238.344 235.602 239.234 236.258C240.133 236.906 240.777 237.898 241.168 239.234ZM242.914 241.602C242.914 240.508 243.184 239.449 243.723 238.426C244.262 237.402 245.023 236.621 246.008 236.082C247 235.543 248.105 235.273 249.324 235.273C251.207 235.273 252.75 235.887 253.953 237.113C255.156 238.332 255.758 239.875 255.758 241.742C255.758 243.625 255.148 245.188 253.93 246.43C252.719 247.664 251.191 248.281 249.348 248.281C248.207 248.281 247.117 248.023 246.078 247.508C245.047 246.992 244.262 246.238 243.723 245.246C243.184 244.246 242.914 243.031 242.914 241.602ZM246.289 241.777C246.289 243.012 246.582 243.957 247.168 244.613C247.754 245.27 248.477 245.598 249.336 245.598C250.195 245.598 250.914 245.27 251.492 244.613C252.078 243.957 252.371 243.004 252.371 241.754C252.371 240.535 252.078 239.598 251.492 238.941C250.914 238.285 250.195 237.957 249.336 237.957C248.477 237.957 247.754 238.285 247.168 238.941C246.582 239.598 246.289 240.543 246.289 241.777ZM258.348 248V230.82H261.641V248H258.348ZM264.652 243.418V240.125H271.121V243.418H264.652ZM283.871 239.234L280.625 239.82C280.516 239.172 280.266 238.684 279.875 238.355C279.492 238.027 278.992 237.863 278.375 237.863C277.555 237.863 276.898 238.148 276.406 238.719C275.922 239.281 275.68 240.227 275.68 241.555C275.68 243.031 275.926 244.074 276.418 244.684C276.918 245.293 277.586 245.598 278.422 245.598C279.047 245.598 279.559 245.422 279.957 245.07C280.355 244.711 280.637 244.098 280.801 243.23L284.035 243.781C283.699 245.266 283.055 246.387 282.102 247.145C281.148 247.902 279.871 248.281 278.27 248.281C276.449 248.281 274.996 247.707 273.91 246.559C272.832 245.41 272.293 243.82 272.293 241.789C272.293 239.734 272.836 238.137 273.922 236.996C275.008 235.848 276.477 235.273 278.328 235.273C279.844 235.273 281.047 235.602 281.938 236.258C282.836 236.906 283.48 237.898 283.871 239.234ZM285.617 241.602C285.617 240.508 285.887 239.449 286.426 238.426C286.965 237.402 287.727 236.621 288.711 236.082C289.703 235.543 290.809 235.273 292.027 235.273C293.91 235.273 295.453 235.887 296.656 237.113C297.859 238.332 298.461 239.875 298.461 241.742C298.461 243.625 297.852 245.188 296.633 246.43C295.422 247.664 293.895 248.281 292.051 248.281C290.91 248.281 289.82 248.023 288.781 247.508C287.75 246.992 286.965 246.238 286.426 245.246C285.887 244.246 285.617 243.031 285.617 241.602ZM288.992 241.777C288.992 243.012 289.285 243.957 289.871 244.613C290.457 245.27 291.18 245.598 292.039 245.598C292.898 245.598 293.617 245.27 294.195 244.613C294.781 243.957 295.074 243.004 295.074 241.754C295.074 240.535 294.781 239.598 294.195 238.941C293.617 238.285 292.898 237.957 292.039 237.957C291.18 237.957 290.457 238.285 289.871 238.941C289.285 239.598 288.992 240.543 288.992 241.777ZM312.371 248H309.078V241.648C309.078 240.305 309.008 239.438 308.867 239.047C308.727 238.648 308.496 238.34 308.176 238.121C307.863 237.902 307.484 237.793 307.039 237.793C306.469 237.793 305.957 237.949 305.504 238.262C305.051 238.574 304.738 238.988 304.566 239.504C304.402 240.02 304.32 240.973 304.32 242.363V248H301.027V235.555H304.086V237.383C305.172 235.977 306.539 235.273 308.188 235.273C308.914 235.273 309.578 235.406 310.18 235.672C310.781 235.93 311.234 236.262 311.539 236.668C311.852 237.074 312.066 237.535 312.184 238.051C312.309 238.566 312.371 239.305 312.371 240.266V248ZM321.43 235.555V238.18H319.18V243.195C319.18 244.211 319.199 244.805 319.238 244.977C319.285 245.141 319.383 245.277 319.531 245.387C319.688 245.496 319.875 245.551 320.094 245.551C320.398 245.551 320.84 245.445 321.418 245.234L321.699 247.789C320.934 248.117 320.066 248.281 319.098 248.281C318.504 248.281 317.969 248.184 317.492 247.988C317.016 247.785 316.664 247.527 316.438 247.215C316.219 246.895 316.066 246.465 315.98 245.926C315.91 245.543 315.875 244.77 315.875 243.605V238.18H314.363V235.555H315.875V233.082L319.18 231.16V235.555H321.43ZM330.922 244.039L334.203 244.59C333.781 245.793 333.113 246.711 332.199 247.344C331.293 247.969 330.156 248.281 328.789 248.281C326.625 248.281 325.023 247.574 323.984 246.16C323.164 245.027 322.754 243.598 322.754 241.871C322.754 239.809 323.293 238.195 324.371 237.031C325.449 235.859 326.812 235.273 328.461 235.273C330.312 235.273 331.773 235.887 332.844 237.113C333.914 238.332 334.426 240.203 334.379 242.727H326.129C326.152 243.703 326.418 244.465 326.926 245.012C327.434 245.551 328.066 245.82 328.824 245.82C329.34 245.82 329.773 245.68 330.125 245.398C330.477 245.117 330.742 244.664 330.922 244.039ZM331.109 240.711C331.086 239.758 330.84 239.035 330.371 238.543C329.902 238.043 329.332 237.793 328.66 237.793C327.941 237.793 327.348 238.055 326.879 238.578C326.41 239.102 326.18 239.812 326.188 240.711H331.109ZM348.395 248H345.102V241.648C345.102 240.305 345.031 239.438 344.891 239.047C344.75 238.648 344.52 238.34 344.199 238.121C343.887 237.902 343.508 237.793 343.062 237.793C342.492 237.793 341.98 237.949 341.527 238.262C341.074 238.574 340.762 238.988 340.59 239.504C340.426 240.02 340.344 240.973 340.344 242.363V248H337.051V235.555H340.109V237.383C341.195 235.977 342.562 235.273 344.211 235.273C344.938 235.273 345.602 235.406 346.203 235.672C346.805 235.93 347.258 236.262 347.562 236.668C347.875 237.074 348.09 237.535 348.207 238.051C348.332 238.566 348.395 239.305 348.395 240.266V248ZM357.453 235.555V238.18H355.203V243.195C355.203 244.211 355.223 244.805 355.262 244.977C355.309 245.141 355.406 245.277 355.555 245.387C355.711 245.496 355.898 245.551 356.117 245.551C356.422 245.551 356.863 245.445 357.441 245.234L357.723 247.789C356.957 248.117 356.09 248.281 355.121 248.281C354.527 248.281 353.992 248.184 353.516 247.988C353.039 247.785 352.688 247.527 352.461 247.215C352.242 246.895 352.09 246.465 352.004 245.926C351.934 245.543 351.898 244.77 351.898 243.605V238.18H350.387V235.555H351.898V233.082L355.203 231.16V235.555H357.453ZM358.578 244.449L361.883 243.945C362.023 244.586 362.309 245.074 362.738 245.41C363.168 245.738 363.77 245.902 364.543 245.902C365.395 245.902 366.035 245.746 366.465 245.434C366.754 245.215 366.898 244.922 366.898 244.555C366.898 244.305 366.82 244.098 366.664 243.934C366.5 243.777 366.133 243.633 365.562 243.5C362.906 242.914 361.223 242.379 360.512 241.895C359.527 241.223 359.035 240.289 359.035 239.094C359.035 238.016 359.461 237.109 360.312 236.375C361.164 235.641 362.484 235.273 364.273 235.273C365.977 235.273 367.242 235.551 368.07 236.105C368.898 236.66 369.469 237.48 369.781 238.566L366.676 239.141C366.543 238.656 366.289 238.285 365.914 238.027C365.547 237.77 365.02 237.641 364.332 237.641C363.465 237.641 362.844 237.762 362.469 238.004C362.219 238.176 362.094 238.398 362.094 238.672C362.094 238.906 362.203 239.105 362.422 239.27C362.719 239.488 363.742 239.797 365.492 240.195C367.25 240.594 368.477 241.082 369.172 241.66C369.859 242.246 370.203 243.062 370.203 244.109C370.203 245.25 369.727 246.23 368.773 247.051C367.82 247.871 366.41 248.281 364.543 248.281C362.848 248.281 361.504 247.938 360.512 247.25C359.527 246.562 358.883 245.629 358.578 244.449ZM372.723 243.418V240.125H379.191V243.418H372.723ZM380.844 235.555H383.879V237.254C384.965 235.934 386.258 235.273 387.758 235.273C388.555 235.273 389.246 235.438 389.832 235.766C390.418 236.094 390.898 236.59 391.273 237.254C391.82 236.59 392.41 236.094 393.043 235.766C393.676 235.438 394.352 235.273 395.07 235.273C395.984 235.273 396.758 235.461 397.391 235.836C398.023 236.203 398.496 236.746 398.809 237.465C399.035 237.996 399.148 238.855 399.148 240.043V248H395.855V240.887C395.855 239.652 395.742 238.855 395.516 238.496C395.211 238.027 394.742 237.793 394.109 237.793C393.648 237.793 393.215 237.934 392.809 238.215C392.402 238.496 392.109 238.91 391.93 239.457C391.75 239.996 391.66 240.852 391.66 242.023V248H388.367V241.18C388.367 239.969 388.309 239.188 388.191 238.836C388.074 238.484 387.891 238.223 387.641 238.051C387.398 237.879 387.066 237.793 386.645 237.793C386.137 237.793 385.68 237.93 385.273 238.203C384.867 238.477 384.574 238.871 384.395 239.387C384.223 239.902 384.137 240.758 384.137 241.953V248H380.844V235.555ZM401.68 241.602C401.68 240.508 401.949 239.449 402.488 238.426C403.027 237.402 403.789 236.621 404.773 236.082C405.766 235.543 406.871 235.273 408.09 235.273C409.973 235.273 411.516 235.887 412.719 237.113C413.922 238.332 414.523 239.875 414.523 241.742C414.523 243.625 413.914 245.188 412.695 246.43C411.484 247.664 409.957 248.281 408.113 248.281C406.973 248.281 405.883 248.023 404.844 247.508C403.812 246.992 403.027 246.238 402.488 245.246C401.949 244.246 401.68 243.031 401.68 241.602ZM405.055 241.777C405.055 243.012 405.348 243.957 405.934 244.613C406.52 245.27 407.242 245.598 408.102 245.598C408.961 245.598 409.68 245.27 410.258 244.613C410.844 243.957 411.137 243.004 411.137 241.754C411.137 240.535 410.844 239.598 410.258 238.941C409.68 238.285 408.961 237.957 408.102 237.957C407.242 237.957 406.52 238.285 405.934 238.941C405.348 239.598 405.055 240.543 405.055 241.777ZM416.973 248V230.82H420.266V237.008C421.281 235.852 422.484 235.273 423.875 235.273C425.391 235.273 426.645 235.824 427.637 236.926C428.629 238.02 429.125 239.594 429.125 241.648C429.125 243.773 428.617 245.41 427.602 246.559C426.594 247.707 425.367 248.281 423.922 248.281C423.211 248.281 422.508 248.105 421.812 247.754C421.125 247.395 420.531 246.867 420.031 246.172V248H416.973ZM420.242 241.508C420.242 242.797 420.445 243.75 420.852 244.367C421.422 245.242 422.18 245.68 423.125 245.68C423.852 245.68 424.469 245.371 424.977 244.754C425.492 244.129 425.75 243.148 425.75 241.812C425.75 240.391 425.492 239.367 424.977 238.742C424.461 238.109 423.801 237.793 422.996 237.793C422.207 237.793 421.551 238.102 421.027 238.719C420.504 239.328 420.242 240.258 420.242 241.508ZM431.785 233.867V230.82H435.078V233.867H431.785ZM431.785 248V235.555H435.078V248H431.785ZM438.465 248V230.82H441.758V248H438.465ZM452.352 244.039L455.633 244.59C455.211 245.793 454.543 246.711 453.629 247.344C452.723 247.969 451.586 248.281 450.219 248.281C448.055 248.281 446.453 247.574 445.414 246.16C444.594 245.027 444.184 243.598 444.184 241.871C444.184 239.809 444.723 238.195 445.801 237.031C446.879 235.859 448.242 235.273 449.891 235.273C451.742 235.273 453.203 235.887 454.273 237.113C455.344 238.332 455.855 240.203 455.809 242.727H447.559C447.582 243.703 447.848 244.465 448.355 245.012C448.863 245.551 449.496 245.82 450.254 245.82C450.77 245.82 451.203 245.68 451.555 245.398C451.906 245.117 452.172 244.664 452.352 244.039ZM452.539 240.711C452.516 239.758 452.27 239.035 451.801 238.543C451.332 238.043 450.762 237.793 450.09 237.793C449.371 237.793 448.777 238.055 448.309 238.578C447.84 239.102 447.609 239.812 447.617 240.711H452.539ZM458.129 243.418V240.125H464.598V243.418H458.129ZM466.121 243.418V240.125H472.59V243.418H466.121ZM480.195 235.555V238.18H477.945V243.195C477.945 244.211 477.965 244.805 478.004 244.977C478.051 245.141 478.148 245.277 478.297 245.387C478.453 245.496 478.641 245.551 478.859 245.551C479.164 245.551 479.605 245.445 480.184 245.234L480.465 247.789C479.699 248.117 478.832 248.281 477.863 248.281C477.27 248.281 476.734 248.184 476.258 247.988C475.781 247.785 475.43 247.527 475.203 247.215C474.984 246.895 474.832 246.465 474.746 245.926C474.676 245.543 474.641 244.77 474.641 243.605V238.18H473.129V235.555H474.641V233.082L477.945 231.16V235.555H480.195ZM489.688 244.039L492.969 244.59C492.547 245.793 491.879 246.711 490.965 247.344C490.059 247.969 488.922 248.281 487.555 248.281C485.391 248.281 483.789 247.574 482.75 246.16C481.93 245.027 481.52 243.598 481.52 241.871C481.52 239.809 482.059 238.195 483.137 237.031C484.215 235.859 485.578 235.273 487.227 235.273C489.078 235.273 490.539 235.887 491.609 237.113C492.68 238.332 493.191 240.203 493.145 242.727H484.895C484.918 243.703 485.184 244.465 485.691 245.012C486.199 245.551 486.832 245.82 487.59 245.82C488.105 245.82 488.539 245.68 488.891 245.398C489.242 245.117 489.508 244.664 489.688 244.039ZM489.875 240.711C489.852 239.758 489.605 239.035 489.137 238.543C488.668 238.043 488.098 237.793 487.426 237.793C486.707 237.793 486.113 238.055 485.645 238.578C485.176 239.102 484.945 239.812 484.953 240.711H489.875ZM495.594 235.555H498.629V237.254C499.715 235.934 501.008 235.273 502.508 235.273C503.305 235.273 503.996 235.438 504.582 235.766C505.168 236.094 505.648 236.59 506.023 237.254C506.57 236.59 507.16 236.094 507.793 235.766C508.426 235.438 509.102 235.273 509.82 235.273C510.734 235.273 511.508 235.461 512.141 235.836C512.773 236.203 513.246 236.746 513.559 237.465C513.785 237.996 513.898 238.855 513.898 240.043V248H510.605V240.887C510.605 239.652 510.492 238.855 510.266 238.496C509.961 238.027 509.492 237.793 508.859 237.793C508.398 237.793 507.965 237.934 507.559 238.215C507.152 238.496 506.859 238.91 506.68 239.457C506.5 239.996 506.41 240.852 506.41 242.023V248H503.117V241.18C503.117 239.969 503.059 239.188 502.941 238.836C502.824 238.484 502.641 238.223 502.391 238.051C502.148 237.879 501.816 237.793 501.395 237.793C500.887 237.793 500.43 237.93 500.023 238.203C499.617 238.477 499.324 238.871 499.145 239.387C498.973 239.902 498.887 240.758 498.887 241.953V248H495.594V235.555ZM517.098 235.555H520.168V237.383C520.566 236.758 521.105 236.25 521.785 235.859C522.465 235.469 523.219 235.273 524.047 235.273C525.492 235.273 526.719 235.84 527.727 236.973C528.734 238.105 529.238 239.684 529.238 241.707C529.238 243.785 528.73 245.402 527.715 246.559C526.699 247.707 525.469 248.281 524.023 248.281C523.336 248.281 522.711 248.145 522.148 247.871C521.594 247.598 521.008 247.129 520.391 246.465V252.734H517.098V235.555ZM520.355 241.566C520.355 242.965 520.633 244 521.188 244.672C521.742 245.336 522.418 245.668 523.215 245.668C523.98 245.668 524.617 245.363 525.125 244.754C525.633 244.137 525.887 243.129 525.887 241.73C525.887 240.426 525.625 239.457 525.102 238.824C524.578 238.191 523.93 237.875 523.156 237.875C522.352 237.875 521.684 238.188 521.152 238.812C520.621 239.43 520.355 240.348 520.355 241.566ZM531.863 248V230.82H535.156V248H531.863ZM541.004 239.352L538.016 238.812C538.352 237.609 538.93 236.719 539.75 236.141C540.57 235.562 541.789 235.273 543.406 235.273C544.875 235.273 545.969 235.449 546.688 235.801C547.406 236.145 547.91 236.586 548.199 237.125C548.496 237.656 548.645 238.637 548.645 240.066L548.609 243.91C548.609 245.004 548.66 245.812 548.762 246.336C548.871 246.852 549.07 247.406 549.359 248H546.102C546.016 247.781 545.91 247.457 545.785 247.027C545.73 246.832 545.691 246.703 545.668 246.641C545.105 247.188 544.504 247.598 543.863 247.871C543.223 248.145 542.539 248.281 541.812 248.281C540.531 248.281 539.52 247.934 538.777 247.238C538.043 246.543 537.676 245.664 537.676 244.602C537.676 243.898 537.844 243.273 538.18 242.727C538.516 242.172 538.984 241.75 539.586 241.461C540.195 241.164 541.07 240.906 542.211 240.688C543.75 240.398 544.816 240.129 545.41 239.879V239.551C545.41 238.918 545.254 238.469 544.941 238.203C544.629 237.93 544.039 237.793 543.172 237.793C542.586 237.793 542.129 237.91 541.801 238.145C541.473 238.371 541.207 238.773 541.004 239.352ZM545.41 242.023C544.988 242.164 544.32 242.332 543.406 242.527C542.492 242.723 541.895 242.914 541.613 243.102C541.184 243.406 540.969 243.793 540.969 244.262C540.969 244.723 541.141 245.121 541.484 245.457C541.828 245.793 542.266 245.961 542.797 245.961C543.391 245.961 543.957 245.766 544.496 245.375C544.895 245.078 545.156 244.715 545.281 244.285C545.367 244.004 545.41 243.469 545.41 242.68V242.023ZM557.609 235.555V238.18H555.359V243.195C555.359 244.211 555.379 244.805 555.418 244.977C555.465 245.141 555.562 245.277 555.711 245.387C555.867 245.496 556.055 245.551 556.273 245.551C556.578 245.551 557.02 245.445 557.598 245.234L557.879 247.789C557.113 248.117 556.246 248.281 555.277 248.281C554.684 248.281 554.148 248.184 553.672 247.988C553.195 247.785 552.844 247.527 552.617 247.215C552.398 246.895 552.246 246.465 552.16 245.926C552.09 245.543 552.055 244.77 552.055 243.605V238.18H550.543V235.555H552.055V233.082L555.359 231.16V235.555H557.609ZM567.102 244.039L570.383 244.59C569.961 245.793 569.293 246.711 568.379 247.344C567.473 247.969 566.336 248.281 564.969 248.281C562.805 248.281 561.203 247.574 560.164 246.16C559.344 245.027 558.934 243.598 558.934 241.871C558.934 239.809 559.473 238.195 560.551 237.031C561.629 235.859 562.992 235.273 564.641 235.273C566.492 235.273 567.953 235.887 569.023 237.113C570.094 238.332 570.605 240.203 570.559 242.727H562.309C562.332 243.703 562.598 244.465 563.105 245.012C563.613 245.551 564.246 245.82 565.004 245.82C565.52 245.82 565.953 245.68 566.305 245.398C566.656 245.117 566.922 244.664 567.102 244.039ZM567.289 240.711C567.266 239.758 567.02 239.035 566.551 238.543C566.082 238.043 565.512 237.793 564.84 237.793C564.121 237.793 563.527 238.055 563.059 238.578C562.59 239.102 562.359 239.812 562.367 240.711H567.289Z" fill="black"/>
</g>
<defs>
<clipPath id="clip0_13_81">
<rect width="640" height="480" fill="white"/>
</clipPath>
</defs>
</svg>
